ISO-10303-21;
HEADER;
/* Generated by software containing ST-Developer
 * from STEP Tools, Inc. (www.steptools.com) 
 */

FILE_DESCRIPTION(
/* description */ ('',
'CAx-IF Rec.Pracs.---Representation and Presentation of Product Manufa
cturing Information (PMI)---4.0---2014-10-13'),
/* implementation_level */ '2;1');

FILE_NAME(
/* name */ 'MSL-1C2P SW.step',
/* time_stamp */ '2025-03-09T00:57:56+09:00',
/* author */ (''),
/* organization */ (''),
/* preprocessor_version */ 'ST-DEVELOPER v20',
/* originating_system */ 'Autodesk Translation Framework v13.20.0.188',

/* authorisation */ '');

FILE_SCHEMA (('AP242_MANAGED_MODEL_BASED_3D_ENGINEERING_MIM_LF { 1 0 10303 442 1 1 4 }'));
ENDSEC;

DATA;
#10=MECHANICAL_DESIGN_GEOMETRIC_PRESENTATION_REPRESENTATION('',(#13,#14,
#15,#16,#17),#929);
#11=SHAPE_REPRESENTATION_RELATIONSHIP('SRR','None',#936,#12);
#12=ADVANCED_BREP_SHAPE_REPRESENTATION('',(#18,#19,#20,#21,#22),#928);
#13=STYLED_ITEM('',(#946),#18);
#14=STYLED_ITEM('',(#947),#19);
#15=STYLED_ITEM('',(#947),#20);
#16=STYLED_ITEM('',(#947),#21);
#17=STYLED_ITEM('',(#948),#22);
#18=MANIFOLD_SOLID_BREP('\X2\BCF8CCB4\X0\1',#573);
#19=MANIFOLD_SOLID_BREP('pin(1)',#574);
#20=MANIFOLD_SOLID_BREP('pin(2)',#575);
#21=MANIFOLD_SOLID_BREP('pin(3)',#576);
#22=MANIFOLD_SOLID_BREP('trigger',#577);
#23=FACE_BOUND('',#66,.T.);
#24=FACE_OUTER_BOUND('',#59,.T.);
#25=FACE_OUTER_BOUND('',#60,.T.);
#26=FACE_OUTER_BOUND('',#61,.T.);
#27=FACE_OUTER_BOUND('',#62,.T.);
#28=FACE_OUTER_BOUND('',#63,.T.);
#29=FACE_OUTER_BOUND('',#64,.T.);
#30=FACE_OUTER_BOUND('',#65,.T.);
#31=FACE_OUTER_BOUND('',#67,.T.);
#32=FACE_OUTER_BOUND('',#68,.T.);
#33=FACE_OUTER_BOUND('',#69,.T.);
#34=FACE_OUTER_BOUND('',#70,.T.);
#35=FACE_OUTER_BOUND('',#71,.T.);
#36=FACE_OUTER_BOUND('',#72,.T.);
#37=FACE_OUTER_BOUND('',#73,.T.);
#38=FACE_OUTER_BOUND('',#74,.T.);
#39=FACE_OUTER_BOUND('',#75,.T.);
#40=FACE_OUTER_BOUND('',#76,.T.);
#41=FACE_OUTER_BOUND('',#77,.T.);
#42=FACE_OUTER_BOUND('',#78,.T.);
#43=FACE_OUTER_BOUND('',#79,.T.);
#44=FACE_OUTER_BOUND('',#80,.T.);
#45=FACE_OUTER_BOUND('',#81,.T.);
#46=FACE_OUTER_BOUND('',#82,.T.);
#47=FACE_OUTER_BOUND('',#83,.T.);
#48=FACE_OUTER_BOUND('',#84,.T.);
#49=FACE_OUTER_BOUND('',#85,.T.);
#50=FACE_OUTER_BOUND('',#86,.T.);
#51=FACE_OUTER_BOUND('',#87,.T.);
#52=FACE_OUTER_BOUND('',#88,.T.);
#53=FACE_OUTER_BOUND('',#89,.T.);
#54=FACE_OUTER_BOUND('',#90,.T.);
#55=FACE_OUTER_BOUND('',#91,.T.);
#56=FACE_OUTER_BOUND('',#92,.T.);
#57=FACE_OUTER_BOUND('',#93,.T.);
#58=FACE_OUTER_BOUND('',#94,.T.);
#59=EDGE_LOOP('',(#359,#360,#361,#362));
#60=EDGE_LOOP('',(#363,#364,#365,#366));
#61=EDGE_LOOP('',(#367,#368,#369,#370));
#62=EDGE_LOOP('',(#371,#372,#373,#374));
#63=EDGE_LOOP('',(#375,#376,#377,#378));
#64=EDGE_LOOP('',(#379,#380,#381,#382));
#65=EDGE_LOOP('',(#383,#384,#385,#386));
#66=EDGE_LOOP('',(#387,#388,#389,#390));
#67=EDGE_LOOP('',(#391,#392,#393,#394));
#68=EDGE_LOOP('',(#395,#396,#397,#398));
#69=EDGE_LOOP('',(#399,#400,#401,#402));
#70=EDGE_LOOP('',(#403,#404,#405,#406));
#71=EDGE_LOOP('',(#407,#408,#409,#410));
#72=EDGE_LOOP('',(#411,#412,#413,#414));
#73=EDGE_LOOP('',(#415,#416,#417,#418));
#74=EDGE_LOOP('',(#419,#420,#421,#422));
#75=EDGE_LOOP('',(#423,#424,#425,#426));
#76=EDGE_LOOP('',(#427,#428,#429,#430));
#77=EDGE_LOOP('',(#431,#432,#433,#434));
#78=EDGE_LOOP('',(#435,#436,#437,#438));
#79=EDGE_LOOP('',(#439,#440,#441,#442));
#80=EDGE_LOOP('',(#443,#444,#445,#446));
#81=EDGE_LOOP('',(#447,#448,#449,#450));
#82=EDGE_LOOP('',(#451,#452,#453,#454));
#83=EDGE_LOOP('',(#455,#456,#457,#458));
#84=EDGE_LOOP('',(#459,#460,#461,#462));
#85=EDGE_LOOP('',(#463,#464,#465,#466));
#86=EDGE_LOOP('',(#467,#468,#469,#470));
#87=EDGE_LOOP('',(#471,#472,#473,#474));
#88=EDGE_LOOP('',(#475,#476,#477,#478));
#89=EDGE_LOOP('',(#479,#480,#481,#482));
#90=EDGE_LOOP('',(#483,#484,#485,#486));
#91=EDGE_LOOP('',(#487,#488,#489,#490));
#92=EDGE_LOOP('',(#491,#492,#493,#494));
#93=EDGE_LOOP('',(#495,#496,#497,#498));
#94=EDGE_LOOP('',(#499,#500,#501,#502));
#95=LINE('',#774,#167);
#96=LINE('',#776,#168);
#97=LINE('',#778,#169);
#98=LINE('',#779,#170);
#99=LINE('',#782,#171);
#100=LINE('',#784,#172);
#101=LINE('',#785,#173);
#102=LINE('',#788,#174);
#103=LINE('',#790,#175);
#104=LINE('',#791,#176);
#105=LINE('',#793,#177);
#106=LINE('',#794,#178);
#107=LINE('',#799,#179);
#108=LINE('',#801,#180);
#109=LINE('',#803,#181);
#110=LINE('',#804,#182);
#111=LINE('',#807,#183);
#112=LINE('',#809,#184);
#113=LINE('',#810,#185);
#114=LINE('',#813,#186);
#115=LINE('',#815,#187);
#116=LINE('',#816,#188);
#117=LINE('',#818,#189);
#118=LINE('',#819,#190);
#119=LINE('',#825,#191);
#120=LINE('',#827,#192);
#121=LINE('',#829,#193);
#122=LINE('',#830,#194);
#123=LINE('',#833,#195);
#124=LINE('',#835,#196);
#125=LINE('',#836,#197);
#126=LINE('',#839,#198);
#127=LINE('',#840,#199);
#128=LINE('',#843,#200);
#129=LINE('',#844,#201);
#130=LINE('',#846,#202);
#131=LINE('',#851,#203);
#132=LINE('',#853,#204);
#133=LINE('',#855,#205);
#134=LINE('',#856,#206);
#135=LINE('',#859,#207);
#136=LINE('',#861,#208);
#137=LINE('',#862,#209);
#138=LINE('',#865,#210);
#139=LINE('',#866,#211);
#140=LINE('',#869,#212);
#141=LINE('',#870,#213);
#142=LINE('',#872,#214);
#143=LINE('',#877,#215);
#144=LINE('',#879,#216);
#145=LINE('',#881,#217);
#146=LINE('',#882,#218);
#147=LINE('',#885,#219);
#148=LINE('',#887,#220);
#149=LINE('',#888,#221);
#150=LINE('',#891,#222);
#151=LINE('',#892,#223);
#152=LINE('',#895,#224);
#153=LINE('',#896,#225);
#154=LINE('',#898,#226);
#155=LINE('',#903,#227);
#156=LINE('',#905,#228);
#157=LINE('',#907,#229);
#158=LINE('',#908,#230);
#159=LINE('',#911,#231);
#160=LINE('',#913,#232);
#161=LINE('',#914,#233);
#162=LINE('',#917,#234);
#163=LINE('',#918,#235);
#164=LINE('',#921,#236);
#165=LINE('',#922,#237);
#166=LINE('',#924,#238);
#167=VECTOR('',#630,10.);
#168=VECTOR('',#631,10.);
#169=VECTOR('',#632,10.);
#170=VECTOR('',#633,10.);
#171=VECTOR('',#636,10.);
#172=VECTOR('',#637,10.);
#173=VECTOR('',#638,10.);
#174=VECTOR('',#641,10.);
#175=VECTOR('',#642,10.);
#176=VECTOR('',#643,10.);
#177=VECTOR('',#646,10.);
#178=VECTOR('',#647,10.);
#179=VECTOR('',#652,10.);
#180=VECTOR('',#653,10.);
#181=VECTOR('',#654,10.);
#182=VECTOR('',#655,10.);
#183=VECTOR('',#658,10.);
#184=VECTOR('',#659,10.);
#185=VECTOR('',#660,10.);
#186=VECTOR('',#663,10.);
#187=VECTOR('',#664,10.);
#188=VECTOR('',#665,10.);
#189=VECTOR('',#668,10.);
#190=VECTOR('',#669,10.);
#191=VECTOR('',#676,10.);
#192=VECTOR('',#677,10.);
#193=VECTOR('',#678,10.);
#194=VECTOR('',#679,10.);
#195=VECTOR('',#682,10.);
#196=VECTOR('',#683,10.);
#197=VECTOR('',#684,10.);
#198=VECTOR('',#687,10.);
#199=VECTOR('',#688,10.);
#200=VECTOR('',#691,10.);
#201=VECTOR('',#692,10.);
#202=VECTOR('',#695,10.);
#203=VECTOR('',#700,10.);
#204=VECTOR('',#701,10.);
#205=VECTOR('',#702,10.);
#206=VECTOR('',#703,10.);
#207=VECTOR('',#706,10.);
#208=VECTOR('',#707,10.);
#209=VECTOR('',#708,10.);
#210=VECTOR('',#711,10.);
#211=VECTOR('',#712,10.);
#212=VECTOR('',#715,10.);
#213=VECTOR('',#716,10.);
#214=VECTOR('',#719,10.);
#215=VECTOR('',#724,10.);
#216=VECTOR('',#725,10.);
#217=VECTOR('',#726,10.);
#218=VECTOR('',#727,10.);
#219=VECTOR('',#730,10.);
#220=VECTOR('',#731,10.);
#221=VECTOR('',#732,10.);
#222=VECTOR('',#735,10.);
#223=VECTOR('',#736,10.);
#224=VECTOR('',#739,10.);
#225=VECTOR('',#740,10.);
#226=VECTOR('',#743,10.);
#227=VECTOR('',#748,10.);
#228=VECTOR('',#749,10.);
#229=VECTOR('',#750,10.);
#230=VECTOR('',#751,10.);
#231=VECTOR('',#754,10.);
#232=VECTOR('',#755,10.);
#233=VECTOR('',#756,10.);
#234=VECTOR('',#759,10.);
#235=VECTOR('',#760,10.);
#236=VECTOR('',#763,10.);
#237=VECTOR('',#764,10.);
#238=VECTOR('',#767,10.);
#239=VERTEX_POINT('',#772);
#240=VERTEX_POINT('',#773);
#241=VERTEX_POINT('',#775);
#242=VERTEX_POINT('',#777);
#243=VERTEX_POINT('',#781);
#244=VERTEX_POINT('',#783);
#245=VERTEX_POINT('',#787);
#246=VERTEX_POINT('',#789);
#247=VERTEX_POINT('',#797);
#248=VERTEX_POINT('',#798);
#249=VERTEX_POINT('',#800);
#250=VERTEX_POINT('',#802);
#251=VERTEX_POINT('',#806);
#252=VERTEX_POINT('',#808);
#253=VERTEX_POINT('',#812);
#254=VERTEX_POINT('',#814);
#255=VERTEX_POINT('',#823);
#256=VERTEX_POINT('',#824);
#257=VERTEX_POINT('',#826);
#258=VERTEX_POINT('',#828);
#259=VERTEX_POINT('',#832);
#260=VERTEX_POINT('',#834);
#261=VERTEX_POINT('',#838);
#262=VERTEX_POINT('',#842);
#263=VERTEX_POINT('',#849);
#264=VERTEX_POINT('',#850);
#265=VERTEX_POINT('',#852);
#266=VERTEX_POINT('',#854);
#267=VERTEX_POINT('',#858);
#268=VERTEX_POINT('',#860);
#269=VERTEX_POINT('',#864);
#270=VERTEX_POINT('',#868);
#271=VERTEX_POINT('',#875);
#272=VERTEX_POINT('',#876);
#273=VERTEX_POINT('',#878);
#274=VERTEX_POINT('',#880);
#275=VERTEX_POINT('',#884);
#276=VERTEX_POINT('',#886);
#277=VERTEX_POINT('',#890);
#278=VERTEX_POINT('',#894);
#279=VERTEX_POINT('',#901);
#280=VERTEX_POINT('',#902);
#281=VERTEX_POINT('',#904);
#282=VERTEX_POINT('',#906);
#283=VERTEX_POINT('',#910);
#284=VERTEX_POINT('',#912);
#285=VERTEX_POINT('',#916);
#286=VERTEX_POINT('',#920);
#287=EDGE_CURVE('',#239,#240,#95,.T.);
#288=EDGE_CURVE('',#239,#241,#96,.T.);
#289=EDGE_CURVE('',#241,#242,#97,.T.);
#290=EDGE_CURVE('',#240,#242,#98,.T.);
#291=EDGE_CURVE('',#243,#239,#99,.T.);
#292=EDGE_CURVE('',#243,#244,#100,.T.);
#293=EDGE_CURVE('',#244,#241,#101,.T.);
#294=EDGE_CURVE('',#245,#243,#102,.T.);
#295=EDGE_CURVE('',#245,#246,#103,.T.);
#296=EDGE_CURVE('',#246,#244,#104,.T.);
#297=EDGE_CURVE('',#240,#245,#105,.T.);
#298=EDGE_CURVE('',#242,#246,#106,.T.);
#299=EDGE_CURVE('',#247,#248,#107,.T.);
#300=EDGE_CURVE('',#247,#249,#108,.T.);
#301=EDGE_CURVE('',#250,#249,#109,.T.);
#302=EDGE_CURVE('',#248,#250,#110,.T.);
#303=EDGE_CURVE('',#248,#251,#111,.T.);
#304=EDGE_CURVE('',#252,#250,#112,.T.);
#305=EDGE_CURVE('',#251,#252,#113,.T.);
#306=EDGE_CURVE('',#251,#253,#114,.T.);
#307=EDGE_CURVE('',#254,#252,#115,.T.);
#308=EDGE_CURVE('',#253,#254,#116,.T.);
#309=EDGE_CURVE('',#247,#253,#117,.T.);
#310=EDGE_CURVE('',#249,#254,#118,.T.);
#311=EDGE_CURVE('',#255,#256,#119,.T.);
#312=EDGE_CURVE('',#257,#255,#120,.T.);
#313=EDGE_CURVE('',#258,#257,#121,.T.);
#314=EDGE_CURVE('',#256,#258,#122,.T.);
#315=EDGE_CURVE('',#259,#255,#123,.T.);
#316=EDGE_CURVE('',#259,#260,#124,.T.);
#317=EDGE_CURVE('',#257,#260,#125,.T.);
#318=EDGE_CURVE('',#256,#261,#126,.T.);
#319=EDGE_CURVE('',#261,#259,#127,.T.);
#320=EDGE_CURVE('',#260,#262,#128,.T.);
#321=EDGE_CURVE('',#262,#258,#129,.T.);
#322=EDGE_CURVE('',#261,#262,#130,.T.);
#323=EDGE_CURVE('',#263,#264,#131,.T.);
#324=EDGE_CURVE('',#265,#263,#132,.T.);
#325=EDGE_CURVE('',#266,#265,#133,.T.);
#326=EDGE_CURVE('',#264,#266,#134,.T.);
#327=EDGE_CURVE('',#267,#263,#135,.T.);
#328=EDGE_CURVE('',#267,#268,#136,.T.);
#329=EDGE_CURVE('',#265,#268,#137,.T.);
#330=EDGE_CURVE('',#264,#269,#138,.T.);
#331=EDGE_CURVE('',#269,#267,#139,.T.);
#332=EDGE_CURVE('',#268,#270,#140,.T.);
#333=EDGE_CURVE('',#270,#266,#141,.T.);
#334=EDGE_CURVE('',#269,#270,#142,.T.);
#335=EDGE_CURVE('',#271,#272,#143,.T.);
#336=EDGE_CURVE('',#273,#271,#144,.T.);
#337=EDGE_CURVE('',#274,#273,#145,.T.);
#338=EDGE_CURVE('',#272,#274,#146,.T.);
#339=EDGE_CURVE('',#275,#271,#147,.T.);
#340=EDGE_CURVE('',#275,#276,#148,.T.);
#341=EDGE_CURVE('',#273,#276,#149,.T.);
#342=EDGE_CURVE('',#272,#277,#150,.T.);
#343=EDGE_CURVE('',#277,#275,#151,.T.);
#344=EDGE_CURVE('',#276,#278,#152,.T.);
#345=EDGE_CURVE('',#278,#274,#153,.T.);
#346=EDGE_CURVE('',#277,#278,#154,.T.);
#347=EDGE_CURVE('',#279,#280,#155,.T.);
#348=EDGE_CURVE('',#281,#279,#156,.T.);
#349=EDGE_CURVE('',#282,#281,#157,.T.);
#350=EDGE_CURVE('',#280,#282,#158,.T.);
#351=EDGE_CURVE('',#283,#282,#159,.T.);
#352=EDGE_CURVE('',#284,#283,#160,.T.);
#353=EDGE_CURVE('',#284,#280,#161,.T.);
#354=EDGE_CURVE('',#285,#281,#162,.T.);
#355=EDGE_CURVE('',#283,#285,#163,.T.);
#356=EDGE_CURVE('',#286,#279,#164,.T.);
#357=EDGE_CURVE('',#285,#286,#165,.T.);
#358=EDGE_CURVE('',#286,#284,#166,.T.);
#359=ORIENTED_EDGE('',*,*,#287,.F.);
#360=ORIENTED_EDGE('',*,*,#288,.T.);
#361=ORIENTED_EDGE('',*,*,#289,.T.);
#362=ORIENTED_EDGE('',*,*,#290,.F.);
#363=ORIENTED_EDGE('',*,*,#291,.F.);
#364=ORIENTED_EDGE('',*,*,#292,.T.);
#365=ORIENTED_EDGE('',*,*,#293,.T.);
#366=ORIENTED_EDGE('',*,*,#288,.F.);
#367=ORIENTED_EDGE('',*,*,#294,.F.);
#368=ORIENTED_EDGE('',*,*,#295,.T.);
#369=ORIENTED_EDGE('',*,*,#296,.T.);
#370=ORIENTED_EDGE('',*,*,#292,.F.);
#371=ORIENTED_EDGE('',*,*,#297,.F.);
#372=ORIENTED_EDGE('',*,*,#290,.T.);
#373=ORIENTED_EDGE('',*,*,#298,.T.);
#374=ORIENTED_EDGE('',*,*,#295,.F.);
#375=ORIENTED_EDGE('',*,*,#298,.F.);
#376=ORIENTED_EDGE('',*,*,#289,.F.);
#377=ORIENTED_EDGE('',*,*,#293,.F.);
#378=ORIENTED_EDGE('',*,*,#296,.F.);
#379=ORIENTED_EDGE('',*,*,#299,.F.);
#380=ORIENTED_EDGE('',*,*,#300,.T.);
#381=ORIENTED_EDGE('',*,*,#301,.F.);
#382=ORIENTED_EDGE('',*,*,#302,.F.);
#383=ORIENTED_EDGE('',*,*,#303,.F.);
#384=ORIENTED_EDGE('',*,*,#302,.T.);
#385=ORIENTED_EDGE('',*,*,#304,.F.);
#386=ORIENTED_EDGE('',*,*,#305,.F.);
#387=ORIENTED_EDGE('',*,*,#287,.T.);
#388=ORIENTED_EDGE('',*,*,#297,.T.);
#389=ORIENTED_EDGE('',*,*,#294,.T.);
#390=ORIENTED_EDGE('',*,*,#291,.T.);
#391=ORIENTED_EDGE('',*,*,#306,.F.);
#392=ORIENTED_EDGE('',*,*,#305,.T.);
#393=ORIENTED_EDGE('',*,*,#307,.F.);
#394=ORIENTED_EDGE('',*,*,#308,.F.);
#395=ORIENTED_EDGE('',*,*,#309,.T.);
#396=ORIENTED_EDGE('',*,*,#308,.T.);
#397=ORIENTED_EDGE('',*,*,#310,.F.);
#398=ORIENTED_EDGE('',*,*,#300,.F.);
#399=ORIENTED_EDGE('',*,*,#310,.T.);
#400=ORIENTED_EDGE('',*,*,#307,.T.);
#401=ORIENTED_EDGE('',*,*,#304,.T.);
#402=ORIENTED_EDGE('',*,*,#301,.T.);
#403=ORIENTED_EDGE('',*,*,#309,.F.);
#404=ORIENTED_EDGE('',*,*,#299,.T.);
#405=ORIENTED_EDGE('',*,*,#303,.T.);
#406=ORIENTED_EDGE('',*,*,#306,.T.);
#407=ORIENTED_EDGE('',*,*,#311,.F.);
#408=ORIENTED_EDGE('',*,*,#312,.F.);
#409=ORIENTED_EDGE('',*,*,#313,.F.);
#410=ORIENTED_EDGE('',*,*,#314,.F.);
#411=ORIENTED_EDGE('',*,*,#312,.T.);
#412=ORIENTED_EDGE('',*,*,#315,.F.);
#413=ORIENTED_EDGE('',*,*,#316,.T.);
#414=ORIENTED_EDGE('',*,*,#317,.F.);
#415=ORIENTED_EDGE('',*,*,#311,.T.);
#416=ORIENTED_EDGE('',*,*,#318,.T.);
#417=ORIENTED_EDGE('',*,*,#319,.T.);
#418=ORIENTED_EDGE('',*,*,#315,.T.);
#419=ORIENTED_EDGE('',*,*,#313,.T.);
#420=ORIENTED_EDGE('',*,*,#317,.T.);
#421=ORIENTED_EDGE('',*,*,#320,.T.);
#422=ORIENTED_EDGE('',*,*,#321,.T.);
#423=ORIENTED_EDGE('',*,*,#314,.T.);
#424=ORIENTED_EDGE('',*,*,#321,.F.);
#425=ORIENTED_EDGE('',*,*,#322,.F.);
#426=ORIENTED_EDGE('',*,*,#318,.F.);
#427=ORIENTED_EDGE('',*,*,#319,.F.);
#428=ORIENTED_EDGE('',*,*,#322,.T.);
#429=ORIENTED_EDGE('',*,*,#320,.F.);
#430=ORIENTED_EDGE('',*,*,#316,.F.);
#431=ORIENTED_EDGE('',*,*,#323,.F.);
#432=ORIENTED_EDGE('',*,*,#324,.F.);
#433=ORIENTED_EDGE('',*,*,#325,.F.);
#434=ORIENTED_EDGE('',*,*,#326,.F.);
#435=ORIENTED_EDGE('',*,*,#324,.T.);
#436=ORIENTED_EDGE('',*,*,#327,.F.);
#437=ORIENTED_EDGE('',*,*,#328,.T.);
#438=ORIENTED_EDGE('',*,*,#329,.F.);
#439=ORIENTED_EDGE('',*,*,#323,.T.);
#440=ORIENTED_EDGE('',*,*,#330,.T.);
#441=ORIENTED_EDGE('',*,*,#331,.T.);
#442=ORIENTED_EDGE('',*,*,#327,.T.);
#443=ORIENTED_EDGE('',*,*,#325,.T.);
#444=ORIENTED_EDGE('',*,*,#329,.T.);
#445=ORIENTED_EDGE('',*,*,#332,.T.);
#446=ORIENTED_EDGE('',*,*,#333,.T.);
#447=ORIENTED_EDGE('',*,*,#331,.F.);
#448=ORIENTED_EDGE('',*,*,#334,.T.);
#449=ORIENTED_EDGE('',*,*,#332,.F.);
#450=ORIENTED_EDGE('',*,*,#328,.F.);
#451=ORIENTED_EDGE('',*,*,#326,.T.);
#452=ORIENTED_EDGE('',*,*,#333,.F.);
#453=ORIENTED_EDGE('',*,*,#334,.F.);
#454=ORIENTED_EDGE('',*,*,#330,.F.);
#455=ORIENTED_EDGE('',*,*,#335,.F.);
#456=ORIENTED_EDGE('',*,*,#336,.F.);
#457=ORIENTED_EDGE('',*,*,#337,.F.);
#458=ORIENTED_EDGE('',*,*,#338,.F.);
#459=ORIENTED_EDGE('',*,*,#336,.T.);
#460=ORIENTED_EDGE('',*,*,#339,.F.);
#461=ORIENTED_EDGE('',*,*,#340,.T.);
#462=ORIENTED_EDGE('',*,*,#341,.F.);
#463=ORIENTED_EDGE('',*,*,#335,.T.);
#464=ORIENTED_EDGE('',*,*,#342,.T.);
#465=ORIENTED_EDGE('',*,*,#343,.T.);
#466=ORIENTED_EDGE('',*,*,#339,.T.);
#467=ORIENTED_EDGE('',*,*,#337,.T.);
#468=ORIENTED_EDGE('',*,*,#341,.T.);
#469=ORIENTED_EDGE('',*,*,#344,.T.);
#470=ORIENTED_EDGE('',*,*,#345,.T.);
#471=ORIENTED_EDGE('',*,*,#343,.F.);
#472=ORIENTED_EDGE('',*,*,#346,.T.);
#473=ORIENTED_EDGE('',*,*,#344,.F.);
#474=ORIENTED_EDGE('',*,*,#340,.F.);
#475=ORIENTED_EDGE('',*,*,#338,.T.);
#476=ORIENTED_EDGE('',*,*,#345,.F.);
#477=ORIENTED_EDGE('',*,*,#346,.F.);
#478=ORIENTED_EDGE('',*,*,#342,.F.);
#479=ORIENTED_EDGE('',*,*,#347,.F.);
#480=ORIENTED_EDGE('',*,*,#348,.F.);
#481=ORIENTED_EDGE('',*,*,#349,.F.);
#482=ORIENTED_EDGE('',*,*,#350,.F.);
#483=ORIENTED_EDGE('',*,*,#350,.T.);
#484=ORIENTED_EDGE('',*,*,#351,.F.);
#485=ORIENTED_EDGE('',*,*,#352,.F.);
#486=ORIENTED_EDGE('',*,*,#353,.T.);
#487=ORIENTED_EDGE('',*,*,#349,.T.);
#488=ORIENTED_EDGE('',*,*,#354,.F.);
#489=ORIENTED_EDGE('',*,*,#355,.F.);
#490=ORIENTED_EDGE('',*,*,#351,.T.);
#491=ORIENTED_EDGE('',*,*,#348,.T.);
#492=ORIENTED_EDGE('',*,*,#356,.F.);
#493=ORIENTED_EDGE('',*,*,#357,.F.);
#494=ORIENTED_EDGE('',*,*,#354,.T.);
#495=ORIENTED_EDGE('',*,*,#347,.T.);
#496=ORIENTED_EDGE('',*,*,#353,.F.);
#497=ORIENTED_EDGE('',*,*,#358,.F.);
#498=ORIENTED_EDGE('',*,*,#356,.T.);
#499=ORIENTED_EDGE('',*,*,#358,.T.);
#500=ORIENTED_EDGE('',*,*,#352,.T.);
#501=ORIENTED_EDGE('',*,*,#355,.T.);
#502=ORIENTED_EDGE('',*,*,#357,.T.);
#503=PLANE('',#591);
#504=PLANE('',#592);
#505=PLANE('',#593);
#506=PLANE('',#594);
#507=PLANE('',#595);
#508=PLANE('',#596);
#509=PLANE('',#597);
#510=PLANE('',#598);
#511=PLANE('',#599);
#512=PLANE('',#600);
#513=PLANE('',#601);
#514=PLANE('',#602);
#515=PLANE('',#603);
#516=PLANE('',#604);
#517=PLANE('',#605);
#518=PLANE('',#606);
#519=PLANE('',#607);
#520=PLANE('',#608);
#521=PLANE('',#609);
#522=PLANE('',#610);
#523=PLANE('',#611);
#524=PLANE('',#612);
#525=PLANE('',#613);
#526=PLANE('',#614);
#527=PLANE('',#615);
#528=PLANE('',#616);
#529=PLANE('',#617);
#530=PLANE('',#618);
#531=PLANE('',#619);
#532=PLANE('',#620);
#533=PLANE('',#621);
#534=PLANE('',#622);
#535=PLANE('',#623);
#536=PLANE('',#624);
#537=PLANE('',#625);
#538=ADVANCED_FACE('',(#24),#503,.F.);
#539=ADVANCED_FACE('',(#25),#504,.F.);
#540=ADVANCED_FACE('',(#26),#505,.F.);
#541=ADVANCED_FACE('',(#27),#506,.F.);
#542=ADVANCED_FACE('',(#28),#507,.F.);
#543=ADVANCED_FACE('',(#29),#508,.T.);
#544=ADVANCED_FACE('',(#30,#23),#509,.T.);
#545=ADVANCED_FACE('',(#31),#510,.T.);
#546=ADVANCED_FACE('',(#32),#511,.T.);
#547=ADVANCED_FACE('',(#33),#512,.T.);
#548=ADVANCED_FACE('',(#34),#513,.F.);
#549=ADVANCED_FACE('',(#35),#514,.F.);
#550=ADVANCED_FACE('',(#36),#515,.T.);
#551=ADVANCED_FACE('',(#37),#516,.F.);
#552=ADVANCED_FACE('',(#38),#517,.T.);
#553=ADVANCED_FACE('',(#39),#518,.T.);
#554=ADVANCED_FACE('',(#40),#519,.T.);
#555=ADVANCED_FACE('',(#41),#520,.F.);
#556=ADVANCED_FACE('',(#42),#521,.T.);
#557=ADVANCED_FACE('',(#43),#522,.F.);
#558=ADVANCED_FACE('',(#44),#523,.T.);
#559=ADVANCED_FACE('',(#45),#524,.T.);
#560=ADVANCED_FACE('',(#46),#525,.T.);
#561=ADVANCED_FACE('',(#47),#526,.F.);
#562=ADVANCED_FACE('',(#48),#527,.T.);
#563=ADVANCED_FACE('',(#49),#528,.F.);
#564=ADVANCED_FACE('',(#50),#529,.T.);
#565=ADVANCED_FACE('',(#51),#530,.T.);
#566=ADVANCED_FACE('',(#52),#531,.T.);
#567=ADVANCED_FACE('',(#53),#532,.F.);
#568=ADVANCED_FACE('',(#54),#533,.T.);
#569=ADVANCED_FACE('',(#55),#534,.T.);
#570=ADVANCED_FACE('',(#56),#535,.T.);
#571=ADVANCED_FACE('',(#57),#536,.T.);
#572=ADVANCED_FACE('',(#58),#537,.F.);
#573=CLOSED_SHELL('',(#538,#539,#540,#541,#542,#543,#544,#545,#546,#547,
#548));
#574=CLOSED_SHELL('',(#549,#550,#551,#552,#553,#554));
#575=CLOSED_SHELL('',(#555,#556,#557,#558,#559,#560));
#576=CLOSED_SHELL('',(#561,#562,#563,#564,#565,#566));
#577=CLOSED_SHELL('',(#567,#568,#569,#570,#571,#572));
#578=DERIVED_UNIT_ELEMENT(#580,1.);
#579=DERIVED_UNIT_ELEMENT(#931,-3.);
#580=(
MASS_UNIT()
NAMED_UNIT(*)
SI_UNIT(.KILO.,.GRAM.)
);
#581=DERIVED_UNIT((#578,#579));
#582=MEASURE_REPRESENTATION_ITEM('density measure',
POSITIVE_RATIO_MEASURE(7850.),#581);
#583=PROPERTY_DEFINITION_REPRESENTATION(#588,#585);
#584=PROPERTY_DEFINITION_REPRESENTATION(#589,#586);
#585=REPRESENTATION('material name',(#587),#928);
#586=REPRESENTATION('density',(#582),#928);
#587=DESCRIPTIVE_REPRESENTATION_ITEM('\X2\AC15CCA0\X0\','\X2\AC15CCA0\X0\');
#588=PROPERTY_DEFINITION('material property','material name',#938);
#589=PROPERTY_DEFINITION('material property','density of part',#938);
#590=AXIS2_PLACEMENT_3D('',#770,#626,#627);
#591=AXIS2_PLACEMENT_3D('',#771,#628,#629);
#592=AXIS2_PLACEMENT_3D('',#780,#634,#635);
#593=AXIS2_PLACEMENT_3D('',#786,#639,#640);
#594=AXIS2_PLACEMENT_3D('',#792,#644,#645);
#595=AXIS2_PLACEMENT_3D('',#795,#648,#649);
#596=AXIS2_PLACEMENT_3D('',#796,#650,#651);
#597=AXIS2_PLACEMENT_3D('',#805,#656,#657);
#598=AXIS2_PLACEMENT_3D('',#811,#661,#662);
#599=AXIS2_PLACEMENT_3D('',#817,#666,#667);
#600=AXIS2_PLACEMENT_3D('',#820,#670,#671);
#601=AXIS2_PLACEMENT_3D('',#821,#672,#673);
#602=AXIS2_PLACEMENT_3D('',#822,#674,#675);
#603=AXIS2_PLACEMENT_3D('',#831,#680,#681);
#604=AXIS2_PLACEMENT_3D('',#837,#685,#686);
#605=AXIS2_PLACEMENT_3D('',#841,#689,#690);
#606=AXIS2_PLACEMENT_3D('',#845,#693,#694);
#607=AXIS2_PLACEMENT_3D('',#847,#696,#697);
#608=AXIS2_PLACEMENT_3D('',#848,#698,#699);
#609=AXIS2_PLACEMENT_3D('',#857,#704,#705);
#610=AXIS2_PLACEMENT_3D('',#863,#709,#710);
#611=AXIS2_PLACEMENT_3D('',#867,#713,#714);
#612=AXIS2_PLACEMENT_3D('',#871,#717,#718);
#613=AXIS2_PLACEMENT_3D('',#873,#720,#721);
#614=AXIS2_PLACEMENT_3D('',#874,#722,#723);
#615=AXIS2_PLACEMENT_3D('',#883,#728,#729);
#616=AXIS2_PLACEMENT_3D('',#889,#733,#734);
#617=AXIS2_PLACEMENT_3D('',#893,#737,#738);
#618=AXIS2_PLACEMENT_3D('',#897,#741,#742);
#619=AXIS2_PLACEMENT_3D('',#899,#744,#745);
#620=AXIS2_PLACEMENT_3D('',#900,#746,#747);
#621=AXIS2_PLACEMENT_3D('',#909,#752,#753);
#622=AXIS2_PLACEMENT_3D('',#915,#757,#758);
#623=AXIS2_PLACEMENT_3D('',#919,#761,#762);
#624=AXIS2_PLACEMENT_3D('',#923,#765,#766);
#625=AXIS2_PLACEMENT_3D('',#925,#768,#769);
#626=DIRECTION('axis',(0.,0.,1.));
#627=DIRECTION('refdir',(1.,0.,0.));
#628=DIRECTION('center_axis',(-2.22044604925031E-16,1.,2.22044604925031E-16));
#629=DIRECTION('ref_axis',(1.,2.22044604925031E-16,-1.09476442525376E-47));
#630=DIRECTION('',(1.,2.22044604925031E-16,-1.09476442525376E-47));
#631=DIRECTION('',(-4.93038065763132E-32,2.22044604925031E-16,-1.));
#632=DIRECTION('',(1.,2.22044604925031E-16,-1.09476442525376E-47));
#633=DIRECTION('',(-4.93038065763132E-32,2.22044604925031E-16,-1.));
#634=DIRECTION('center_axis',(-1.,-2.22044604925031E-16,1.09476442525376E-47));
#635=DIRECTION('ref_axis',(-2.22044604925031E-16,1.,2.22044604925031E-16));
#636=DIRECTION('',(-2.22044604925031E-16,1.,2.22044604925031E-16));
#637=DIRECTION('',(-4.93038065763132E-32,2.22044604925031E-16,-1.));
#638=DIRECTION('',(-2.22044604925031E-16,1.,2.22044604925031E-16));
#639=DIRECTION('center_axis',(2.22044604925031E-16,-1.,-2.22044604925031E-16));
#640=DIRECTION('ref_axis',(-1.,-2.22044604925031E-16,1.09476442525376E-47));
#641=DIRECTION('',(-1.,-2.22044604925031E-16,1.09476442525376E-47));
#642=DIRECTION('',(-4.93038065763132E-32,2.22044604925031E-16,-1.));
#643=DIRECTION('',(-1.,-2.22044604925031E-16,1.09476442525376E-47));
#644=DIRECTION('center_axis',(1.,2.22044604925031E-16,-1.09476442525376E-47));
#645=DIRECTION('ref_axis',(2.22044604925031E-16,-1.,-2.22044604925031E-16));
#646=DIRECTION('',(2.22044604925031E-16,-1.,-2.22044604925031E-16));
#647=DIRECTION('',(2.22044604925031E-16,-1.,-2.22044604925031E-16));
#648=DIRECTION('center_axis',(-4.93038065763132E-32,2.22044604925031E-16,
-1.));
#649=DIRECTION('ref_axis',(-1.,-2.22044604925031E-16,1.09476442525376E-47));
#650=DIRECTION('center_axis',(2.22044604925031E-16,-1.,-2.22044604925031E-16));
#651=DIRECTION('ref_axis',(-4.93038065763132E-32,2.22044604925031E-16,-1.));
#652=DIRECTION('',(4.93038065763132E-32,-2.22044604925031E-16,1.));
#653=DIRECTION('',(1.,2.22044604925031E-16,-1.09476442525376E-47));
#654=DIRECTION('',(-4.93038065763132E-32,2.22044604925031E-16,-1.));
#655=DIRECTION('',(1.,2.22044604925031E-16,-1.09476442525376E-47));
#656=DIRECTION('center_axis',(4.93038065763132E-32,-2.22044604925031E-16,
1.));
#657=DIRECTION('ref_axis',(2.22044604925031E-16,-1.,-2.22044604925031E-16));
#658=DIRECTION('',(-2.22044604925031E-16,1.,2.22044604925031E-16));
#659=DIRECTION('',(2.22044604925031E-16,-1.,-2.22044604925031E-16));
#660=DIRECTION('',(1.,2.22044604925031E-16,-1.09476442525376E-47));
#661=DIRECTION('center_axis',(-2.22044604925031E-16,1.,2.22044604925031E-16));
#662=DIRECTION('ref_axis',(4.93038065763132E-32,-2.22044604925031E-16,1.));
#663=DIRECTION('',(-4.93038065763132E-32,2.22044604925031E-16,-1.));
#664=DIRECTION('',(4.93038065763132E-32,-2.22044604925031E-16,1.));
#665=DIRECTION('',(1.,2.22044604925031E-16,-1.09476442525376E-47));
#666=DIRECTION('center_axis',(-4.93038065763132E-32,2.22044604925031E-16,
-1.));
#667=DIRECTION('ref_axis',(-2.22044604925031E-16,1.,2.22044604925031E-16));
#668=DIRECTION('',(-2.22044604925031E-16,1.,2.22044604925031E-16));
#669=DIRECTION('',(-2.22044604925031E-16,1.,2.22044604925031E-16));
#670=DIRECTION('center_axis',(1.,2.22044604925031E-16,-1.09476442525376E-47));
#671=DIRECTION('ref_axis',(-2.22044604925031E-16,1.,2.22044604925031E-16));
#672=DIRECTION('center_axis',(1.,2.22044604925031E-16,-1.09476442525376E-47));
#673=DIRECTION('ref_axis',(-2.22044604925031E-16,1.,2.22044604925031E-16));
#674=DIRECTION('center_axis',(4.93038065763132E-32,-2.22044604925031E-16,
1.));
#675=DIRECTION('ref_axis',(1.,2.22044604925031E-16,-1.09476442525376E-47));
#676=DIRECTION('',(2.22044604925031E-16,-1.,-2.22044604925031E-16));
#677=DIRECTION('',(-1.,-2.22044604925031E-16,1.09476442525376E-47));
#678=DIRECTION('',(-2.22044604925031E-16,1.,2.22044604925031E-16));
#679=DIRECTION('',(1.,2.22044604925031E-16,-1.09476442525376E-47));
#680=DIRECTION('center_axis',(-2.22044604925031E-16,1.,2.22044604925031E-16));
#681=DIRECTION('ref_axis',(4.93038065763132E-32,-2.22044604925031E-16,1.));
#682=DIRECTION('',(-4.93038065763132E-32,2.22044604925031E-16,-1.));
#683=DIRECTION('',(1.,2.22044604925031E-16,-1.09476442525376E-47));
#684=DIRECTION('',(4.93038065763132E-32,-2.22044604925031E-16,1.));
#685=DIRECTION('center_axis',(1.,2.22044604925031E-16,-1.09476442525376E-47));
#686=DIRECTION('ref_axis',(-2.22044604925031E-16,1.,2.22044604925031E-16));
#687=DIRECTION('',(4.93038065763132E-32,-2.22044604925031E-16,1.));
#688=DIRECTION('',(-2.22044604925031E-16,1.,2.22044604925031E-16));
#689=DIRECTION('center_axis',(1.,2.22044604925031E-16,-1.09476442525376E-47));
#690=DIRECTION('ref_axis',(-2.22044604925031E-16,1.,2.22044604925031E-16));
#691=DIRECTION('',(2.22044604925031E-16,-1.,-2.22044604925031E-16));
#692=DIRECTION('',(-4.93038065763132E-32,2.22044604925031E-16,-1.));
#693=DIRECTION('center_axis',(2.22044604925031E-16,-1.,-2.22044604925031E-16));
#694=DIRECTION('ref_axis',(-4.93038065763132E-32,2.22044604925031E-16,-1.));
#695=DIRECTION('',(1.,2.22044604925031E-16,-1.09476442525376E-47));
#696=DIRECTION('center_axis',(4.93038065763132E-32,-2.22044604925031E-16,
1.));
#697=DIRECTION('ref_axis',(2.22044604925031E-16,-1.,-2.22044604925031E-16));
#698=DIRECTION('center_axis',(4.93038065763132E-32,-2.22044604925031E-16,
1.));
#699=DIRECTION('ref_axis',(1.,2.22044604925031E-16,-1.09476442525376E-47));
#700=DIRECTION('',(2.22044604925031E-16,-1.,-2.22044604925031E-16));
#701=DIRECTION('',(-1.,-2.22044604925031E-16,1.09476442525376E-47));
#702=DIRECTION('',(-2.22044604925031E-16,1.,2.22044604925031E-16));
#703=DIRECTION('',(1.,2.22044604925031E-16,-1.09476442525376E-47));
#704=DIRECTION('center_axis',(-2.22044604925031E-16,1.,2.22044604925031E-16));
#705=DIRECTION('ref_axis',(4.93038065763132E-32,-2.22044604925031E-16,1.));
#706=DIRECTION('',(-4.93038065763132E-32,2.22044604925031E-16,-1.));
#707=DIRECTION('',(1.,2.22044604925031E-16,-1.09476442525376E-47));
#708=DIRECTION('',(4.93038065763132E-32,-2.22044604925031E-16,1.));
#709=DIRECTION('center_axis',(1.,2.22044604925031E-16,-1.09476442525376E-47));
#710=DIRECTION('ref_axis',(-2.22044604925031E-16,1.,2.22044604925031E-16));
#711=DIRECTION('',(4.93038065763132E-32,-2.22044604925031E-16,1.));
#712=DIRECTION('',(-2.22044604925031E-16,1.,2.22044604925031E-16));
#713=DIRECTION('center_axis',(1.,2.22044604925031E-16,-1.09476442525376E-47));
#714=DIRECTION('ref_axis',(-2.22044604925031E-16,1.,2.22044604925031E-16));
#715=DIRECTION('',(2.22044604925031E-16,-1.,-2.22044604925031E-16));
#716=DIRECTION('',(-4.93038065763132E-32,2.22044604925031E-16,-1.));
#717=DIRECTION('center_axis',(4.93038065763132E-32,-2.22044604925031E-16,
1.));
#718=DIRECTION('ref_axis',(2.22044604925031E-16,-1.,-2.22044604925031E-16));
#719=DIRECTION('',(1.,2.22044604925031E-16,-1.09476442525376E-47));
#720=DIRECTION('center_axis',(2.22044604925031E-16,-1.,-2.22044604925031E-16));
#721=DIRECTION('ref_axis',(-4.93038065763132E-32,2.22044604925031E-16,-1.));
#722=DIRECTION('center_axis',(4.93038065763132E-32,-2.22044604925031E-16,
1.));
#723=DIRECTION('ref_axis',(1.,2.22044604925031E-16,-1.09476442525376E-47));
#724=DIRECTION('',(2.22044604925031E-16,-1.,-2.22044604925031E-16));
#725=DIRECTION('',(-1.,-2.22044604925031E-16,1.09476442525376E-47));
#726=DIRECTION('',(-2.22044604925031E-16,1.,2.22044604925031E-16));
#727=DIRECTION('',(1.,2.22044604925031E-16,-1.09476442525376E-47));
#728=DIRECTION('center_axis',(-2.22044604925031E-16,1.,2.22044604925031E-16));
#729=DIRECTION('ref_axis',(4.93038065763132E-32,-2.22044604925031E-16,1.));
#730=DIRECTION('',(-4.93038065763132E-32,2.22044604925031E-16,-1.));
#731=DIRECTION('',(1.,2.22044604925031E-16,-1.09476442525376E-47));
#732=DIRECTION('',(4.93038065763132E-32,-2.22044604925031E-16,1.));
#733=DIRECTION('center_axis',(1.,2.22044604925031E-16,-1.09476442525376E-47));
#734=DIRECTION('ref_axis',(-2.22044604925031E-16,1.,2.22044604925031E-16));
#735=DIRECTION('',(4.93038065763132E-32,-2.22044604925031E-16,1.));
#736=DIRECTION('',(-2.22044604925031E-16,1.,2.22044604925031E-16));
#737=DIRECTION('center_axis',(1.,2.22044604925031E-16,-1.09476442525376E-47));
#738=DIRECTION('ref_axis',(-2.22044604925031E-16,1.,2.22044604925031E-16));
#739=DIRECTION('',(2.22044604925031E-16,-1.,-2.22044604925031E-16));
#740=DIRECTION('',(-4.93038065763132E-32,2.22044604925031E-16,-1.));
#741=DIRECTION('center_axis',(4.93038065763132E-32,-2.22044604925031E-16,
1.));
#742=DIRECTION('ref_axis',(2.22044604925031E-16,-1.,-2.22044604925031E-16));
#743=DIRECTION('',(1.,2.22044604925031E-16,-1.09476442525376E-47));
#744=DIRECTION('center_axis',(2.22044604925031E-16,-1.,-2.22044604925031E-16));
#745=DIRECTION('ref_axis',(-4.93038065763132E-32,2.22044604925031E-16,-1.));
#746=DIRECTION('center_axis',(-4.93038065763132E-32,2.22044604925031E-16,
-1.));
#747=DIRECTION('ref_axis',(-1.,-2.22044604925031E-16,1.09476442525376E-47));
#748=DIRECTION('',(-2.22044604925031E-16,1.,2.22044604925031E-16));
#749=DIRECTION('',(-1.,-2.22044604925031E-16,1.09476442525376E-47));
#750=DIRECTION('',(2.22044604925031E-16,-1.,-2.22044604925031E-16));
#751=DIRECTION('',(1.,2.22044604925031E-16,-1.09476442525376E-47));
#752=DIRECTION('center_axis',(-2.22044604925031E-16,1.,2.22044604925031E-16));
#753=DIRECTION('ref_axis',(-1.,-2.22044604925031E-16,1.09476442525376E-47));
#754=DIRECTION('',(4.93038065763132E-32,-2.22044604925031E-16,1.));
#755=DIRECTION('',(1.,2.22044604925031E-16,-1.09476442525376E-47));
#756=DIRECTION('',(4.93038065763132E-32,-2.22044604925031E-16,1.));
#757=DIRECTION('center_axis',(1.,2.22044604925031E-16,-1.09476442525376E-47));
#758=DIRECTION('ref_axis',(-2.22044604925031E-16,1.,2.22044604925031E-16));
#759=DIRECTION('',(4.93038065763132E-32,-2.22044604925031E-16,1.));
#760=DIRECTION('',(2.22044604925031E-16,-1.,-2.22044604925031E-16));
#761=DIRECTION('center_axis',(2.22044604925031E-16,-1.,-2.22044604925031E-16));
#762=DIRECTION('ref_axis',(1.,2.22044604925031E-16,-1.09476442525376E-47));
#763=DIRECTION('',(4.93038065763132E-32,-2.22044604925031E-16,1.));
#764=DIRECTION('',(-1.,-2.22044604925031E-16,1.09476442525376E-47));
#765=DIRECTION('center_axis',(-1.,-2.22044604925031E-16,1.09476442525376E-47));
#766=DIRECTION('ref_axis',(2.22044604925031E-16,-1.,-2.22044604925031E-16));
#767=DIRECTION('',(-2.22044604925031E-16,1.,2.22044604925031E-16));
#768=DIRECTION('center_axis',(4.93038065763132E-32,-2.22044604925031E-16,
1.));
#769=DIRECTION('ref_axis',(2.22044604925031E-16,-1.,-2.22044604925031E-16));
#770=CARTESIAN_POINT('',(0.,0.,0.));
#771=CARTESIAN_POINT('Origin',(1.00000086426735,5.81949105638975,5.80000009685754));
#772=CARTESIAN_POINT('',(1.00000086426735,5.81949105638975,5.80000009685754));
#773=CARTESIAN_POINT('',(3.10000086426735,5.81949105638975,5.80000009685754));
#774=CARTESIAN_POINT('',(0.525000864267349,5.81949105638975,5.80000009685754));
#775=CARTESIAN_POINT('',(1.00000086426735,5.81949105638976,5.30000009685754));
#776=CARTESIAN_POINT('',(1.00000086426735,5.81949105638975,5.80000009685754));
#777=CARTESIAN_POINT('',(3.10000086426735,5.81949105638976,5.30000009685754));
#778=CARTESIAN_POINT('',(3.10000086426735,5.81949105638976,5.30000009685754));
#779=CARTESIAN_POINT('',(3.10000086426735,5.81949105638975,5.80000009685754));
#780=CARTESIAN_POINT('Origin',(1.00000086426735,3.40000015646217,5.80000009685754));
#781=CARTESIAN_POINT('',(1.00000086426735,3.40000015646217,5.80000009685754));
#782=CARTESIAN_POINT('',(1.00000086426735,7.42500015646216,5.80000009685754));
#783=CARTESIAN_POINT('',(1.00000086426735,3.40000015646218,5.30000009685754));
#784=CARTESIAN_POINT('',(1.00000086426735,3.40000015646217,5.80000009685754));
#785=CARTESIAN_POINT('',(1.00000086426735,3.40000015646218,5.30000009685754));
#786=CARTESIAN_POINT('Origin',(3.10000086426735,3.40000015646217,5.80000009685754));
#787=CARTESIAN_POINT('',(3.10000086426735,3.40000015646217,5.80000009685754));
#788=CARTESIAN_POINT('',(1.57500086426735,3.40000015646217,5.80000009685754));
#789=CARTESIAN_POINT('',(3.10000086426735,3.40000015646218,5.30000009685754));
#790=CARTESIAN_POINT('',(3.10000086426735,3.40000015646217,5.80000009685754));
#791=CARTESIAN_POINT('',(3.10000086426735,3.40000015646218,5.30000009685754));
#792=CARTESIAN_POINT('Origin',(3.10000086426735,5.81949105638975,5.80000009685754));
#793=CARTESIAN_POINT('',(3.10000086426735,8.63474560642596,5.80000009685754));
#794=CARTESIAN_POINT('',(3.10000086426735,8.00000015646217,5.30000009685754));
#795=CARTESIAN_POINT('Origin',(2.05000086426735,4.60974560642597,5.30000009685754));
#796=CARTESIAN_POINT('Origin',(0.0500008642673506,-0.0499998435378401,5.80000009685754));
#797=CARTESIAN_POINT('',(0.0500008642673506,-0.0499998435378313,-0.199999903142458));
#798=CARTESIAN_POINT('',(0.0500008642673506,-0.0499998435378401,5.80000009685754));
#799=CARTESIAN_POINT('',(0.0500008642673506,-0.0499998435378313,-0.199999903142458));
#800=CARTESIAN_POINT('',(4.05000086426735,-0.0499998435378313,-0.199999903142458));
#801=CARTESIAN_POINT('',(0.0500008642673506,-0.0499998435378313,-0.199999903142458));
#802=CARTESIAN_POINT('',(4.05000086426735,-0.0499998435378401,5.80000009685754));
#803=CARTESIAN_POINT('',(4.05000086426735,-0.0499998435378313,-0.199999903142458));
#804=CARTESIAN_POINT('',(0.0500008642673506,-0.0499998435378401,5.80000009685754));
#805=CARTESIAN_POINT('Origin',(0.0500008642673484,11.4500001564622,5.80000009685754));
#806=CARTESIAN_POINT('',(0.0500008642673484,11.4500001564622,5.80000009685754));
#807=CARTESIAN_POINT('',(0.0500008642673506,-0.0499998435378401,5.80000009685754));
#808=CARTESIAN_POINT('',(4.05000086426735,11.4500001564622,5.80000009685754));
#809=CARTESIAN_POINT('',(4.05000086426735,-0.0499998435378401,5.80000009685754));
#810=CARTESIAN_POINT('',(0.0500008642673484,11.4500001564622,5.80000009685754));
#811=CARTESIAN_POINT('Origin',(0.0500008642673473,11.4500001564622,-0.199999903142456));
#812=CARTESIAN_POINT('',(0.0500008642673473,11.4500001564622,-0.199999903142456));
#813=CARTESIAN_POINT('',(0.0500008642673484,11.4500001564622,5.80000009685754));
#814=CARTESIAN_POINT('',(4.05000086426735,11.4500001564622,-0.199999903142456));
#815=CARTESIAN_POINT('',(4.05000086426735,11.4500001564622,5.80000009685754));
#816=CARTESIAN_POINT('',(0.0500008642673473,11.4500001564622,-0.199999903142456));
#817=CARTESIAN_POINT('Origin',(0.0500008642673506,-0.0499998435378313,-0.199999903142458));
#818=CARTESIAN_POINT('',(0.0500008642673506,-0.0499998435378313,-0.199999903142458));
#819=CARTESIAN_POINT('',(4.05000086426735,-0.0499998435378313,-0.199999903142458));
#820=CARTESIAN_POINT('Origin',(4.05000086426735,5.70000015646217,2.80000004842877));
#821=CARTESIAN_POINT('Origin',(0.0500008642673484,5.70000015646217,2.80000004842877));
#822=CARTESIAN_POINT('Origin',(1.82000086426735,2.90000020116565,-3.));
#823=CARTESIAN_POINT('',(1.82000086426735,3.50000020116565,-3.));
#824=CARTESIAN_POINT('',(1.82000086426735,2.90000020116565,-3.));
#825=CARTESIAN_POINT('',(1.82000086426735,3.05000020116565,-3.));
#826=CARTESIAN_POINT('',(2.28000086426735,3.50000020116565,-3.));
#827=CARTESIAN_POINT('',(1.82000086426735,3.50000020116565,-3.));
#828=CARTESIAN_POINT('',(2.28000086426735,2.90000020116565,-3.));
#829=CARTESIAN_POINT('',(2.28000086426735,3.05000020116565,-3.));
#830=CARTESIAN_POINT('',(1.82000086426735,2.90000020116565,-3.));
#831=CARTESIAN_POINT('Origin',(1.82000086426735,3.50000020116565,-6.20000000000001));
#832=CARTESIAN_POINT('',(1.82000086426735,3.50000020116565,-0.200000000000005));
#833=CARTESIAN_POINT('',(1.82000086426735,3.50000020116565,-0.200000000000005));
#834=CARTESIAN_POINT('',(2.28000086426735,3.50000020116565,-0.200000000000005));
#835=CARTESIAN_POINT('',(1.82000086426735,3.50000020116565,-0.200000000000005));
#836=CARTESIAN_POINT('',(2.28000086426735,3.50000020116565,-0.200000000000005));
#837=CARTESIAN_POINT('Origin',(1.82000086426735,3.20000020116566,-3.20000000000001));
#838=CARTESIAN_POINT('',(1.82000086426735,2.90000020116565,-0.200000000000005));
#839=CARTESIAN_POINT('',(1.82000086426735,2.90000020116565,-6.20000000000001));
#840=CARTESIAN_POINT('',(1.82000086426735,2.90000020116565,-0.200000000000005));
#841=CARTESIAN_POINT('Origin',(2.28000086426735,3.20000020116566,-3.2));
#842=CARTESIAN_POINT('',(2.28000086426735,2.90000020116565,-0.200000000000005));
#843=CARTESIAN_POINT('',(2.28000086426735,2.90000020116565,-0.200000000000005));
#844=CARTESIAN_POINT('',(2.28000086426735,2.90000020116565,-3.20000000000001));
#845=CARTESIAN_POINT('Origin',(1.82000086426735,2.90000020116565,-0.200000000000005));
#846=CARTESIAN_POINT('',(1.82000086426735,2.90000020116565,-0.200000000000005));
#847=CARTESIAN_POINT('Origin',(1.82000086426735,3.50000020116565,-0.200000000000005));
#848=CARTESIAN_POINT('Origin',(1.82000086426735,5.40000020116565,-3.));
#849=CARTESIAN_POINT('',(1.82000086426735,6.00000020116565,-3.));
#850=CARTESIAN_POINT('',(1.82000086426735,5.40000020116565,-3.));
#851=CARTESIAN_POINT('',(1.82000086426735,5.55000020116565,-3.));
#852=CARTESIAN_POINT('',(2.28000086426735,6.00000020116565,-3.));
#853=CARTESIAN_POINT('',(1.82000086426735,6.00000020116565,-3.));
#854=CARTESIAN_POINT('',(2.28000086426735,5.40000020116565,-3.));
#855=CARTESIAN_POINT('',(2.28000086426735,5.55000020116565,-3.));
#856=CARTESIAN_POINT('',(1.82000086426735,5.40000020116565,-3.));
#857=CARTESIAN_POINT('Origin',(1.82000086426735,6.00000020116565,-6.2));
#858=CARTESIAN_POINT('',(1.82000086426735,6.00000020116565,-0.200000000000005));
#859=CARTESIAN_POINT('',(1.82000086426735,6.00000020116565,-3.20000000000001));
#860=CARTESIAN_POINT('',(2.28000086426735,6.00000020116565,-0.200000000000005));
#861=CARTESIAN_POINT('',(1.82000086426735,6.00000020116565,-0.200000000000005));
#862=CARTESIAN_POINT('',(2.28000086426735,6.00000020116565,-0.200000000000005));
#863=CARTESIAN_POINT('Origin',(1.82000086426735,5.70000020116566,-3.20000000000001));
#864=CARTESIAN_POINT('',(1.82000086426735,5.40000020116565,-0.200000000000005));
#865=CARTESIAN_POINT('',(1.82000086426735,5.40000020116565,-6.2));
#866=CARTESIAN_POINT('',(1.82000086426735,5.40000020116565,-0.200000000000005));
#867=CARTESIAN_POINT('Origin',(2.28000086426735,5.70000020116566,-3.2));
#868=CARTESIAN_POINT('',(2.28000086426735,5.40000020116565,-0.200000000000005));
#869=CARTESIAN_POINT('',(2.28000086426735,5.40000020116565,-0.200000000000005));
#870=CARTESIAN_POINT('',(2.28000086426735,5.40000020116565,-3.20000000000001));
#871=CARTESIAN_POINT('Origin',(1.82000086426735,6.00000020116565,-0.200000000000005));
#872=CARTESIAN_POINT('',(1.82000086426735,5.40000020116565,-0.200000000000005));
#873=CARTESIAN_POINT('Origin',(1.82000086426735,5.40000020116565,-0.200000000000005));
#874=CARTESIAN_POINT('Origin',(1.82000086426735,7.90000020116565,-3.));
#875=CARTESIAN_POINT('',(1.82000086426735,8.50000020116565,-3.));
#876=CARTESIAN_POINT('',(1.82000086426735,7.90000020116565,-3.));
#877=CARTESIAN_POINT('',(1.82000086426735,8.05000020116565,-3.));
#878=CARTESIAN_POINT('',(2.28000086426735,8.50000020116565,-3.));
#879=CARTESIAN_POINT('',(1.82000086426735,8.50000020116565,-3.));
#880=CARTESIAN_POINT('',(2.28000086426735,7.90000020116565,-3.));
#881=CARTESIAN_POINT('',(2.28000086426735,8.05000020116565,-3.));
#882=CARTESIAN_POINT('',(1.82000086426735,7.90000020116565,-3.));
#883=CARTESIAN_POINT('Origin',(1.82000086426735,8.50000020116565,-6.2));
#884=CARTESIAN_POINT('',(1.82000086426735,8.50000020116565,-0.200000000000005));
#885=CARTESIAN_POINT('',(1.82000086426735,8.50000020116565,-3.20000000000001));
#886=CARTESIAN_POINT('',(2.28000086426735,8.50000020116565,-0.200000000000005));
#887=CARTESIAN_POINT('',(1.82000086426735,8.50000020116565,-0.200000000000005));
#888=CARTESIAN_POINT('',(2.28000086426735,8.50000020116565,-0.200000000000005));
#889=CARTESIAN_POINT('Origin',(1.82000086426735,8.20000020116566,-3.20000000000001));
#890=CARTESIAN_POINT('',(1.82000086426735,7.90000020116565,-0.200000000000005));
#891=CARTESIAN_POINT('',(1.82000086426735,7.90000020116565,-6.2));
#892=CARTESIAN_POINT('',(1.82000086426735,7.90000020116565,-0.200000000000005));
#893=CARTESIAN_POINT('Origin',(2.28000086426735,8.20000020116566,-3.2));
#894=CARTESIAN_POINT('',(2.28000086426735,7.90000020116565,-0.200000000000005));
#895=CARTESIAN_POINT('',(2.28000086426735,7.90000020116565,-0.200000000000005));
#896=CARTESIAN_POINT('',(2.28000086426735,7.90000020116565,-3.20000000000001));
#897=CARTESIAN_POINT('Origin',(1.82000086426735,8.50000020116565,-0.200000000000005));
#898=CARTESIAN_POINT('',(1.82000086426735,7.90000020116565,-0.200000000000005));
#899=CARTESIAN_POINT('Origin',(1.82000086426735,7.90000020116565,-0.200000000000005));
#900=CARTESIAN_POINT('Origin',(2.05000086426735,6.90974560642595,9.80000009685755));
#901=CARTESIAN_POINT('',(1.00000086426735,5.81949105638975,9.80000009685755));
#902=CARTESIAN_POINT('',(1.00000086426735,8.00000015646216,9.80000009685755));
#903=CARTESIAN_POINT('',(1.00000086426735,7.45487288144405,9.80000009685755));
#904=CARTESIAN_POINT('',(3.10000086426735,5.81949105638975,9.80000009685755));
#905=CARTESIAN_POINT('',(1.52500086426735,5.81949105638975,9.80000009685755));
#906=CARTESIAN_POINT('',(3.10000086426735,8.00000015646216,9.80000009685755));
#907=CARTESIAN_POINT('',(3.10000086426735,6.36461833140785,9.80000009685755));
#908=CARTESIAN_POINT('',(2.57500086426735,8.00000015646216,9.80000009685755));
#909=CARTESIAN_POINT('Origin',(3.10000086426735,8.00000015646216,5.80000009685754));
#910=CARTESIAN_POINT('',(3.10000086426735,8.00000015646216,5.80000009685754));
#911=CARTESIAN_POINT('',(3.10000086426735,8.00000015646216,5.80000009685754));
#912=CARTESIAN_POINT('',(1.00000086426735,8.00000015646216,5.80000009685754));
#913=CARTESIAN_POINT('',(1.00000086426735,8.00000015646216,5.80000009685754));
#914=CARTESIAN_POINT('',(1.00000086426735,8.00000015646216,5.80000009685754));
#915=CARTESIAN_POINT('Origin',(3.10000086426735,5.81949105638975,5.80000009685754));
#916=CARTESIAN_POINT('',(3.10000086426735,5.81949105638975,5.80000009685754));
#917=CARTESIAN_POINT('',(3.10000086426735,5.81949105638975,5.80000009685754));
#918=CARTESIAN_POINT('',(3.10000086426735,8.00000015646216,5.80000009685754));
#919=CARTESIAN_POINT('Origin',(1.00000086426735,5.81949105638975,5.80000009685754));
#920=CARTESIAN_POINT('',(1.00000086426735,5.81949105638975,5.80000009685754));
#921=CARTESIAN_POINT('',(1.00000086426735,5.81949105638975,5.80000009685754));
#922=CARTESIAN_POINT('',(3.10000086426735,5.81949105638975,5.80000009685754));
#923=CARTESIAN_POINT('Origin',(1.00000086426735,8.00000015646216,5.80000009685754));
#924=CARTESIAN_POINT('',(1.00000086426735,5.81949105638975,5.80000009685754));
#925=CARTESIAN_POINT('Origin',(2.05000086426735,6.90974560642595,5.80000009685754));
#926=UNCERTAINTY_MEASURE_WITH_UNIT(LENGTH_MEASURE(0.01),#930,
'DISTANCE_ACCURACY_VALUE',
'Maximum model space distance between geometric entities at asserted c
onnectivities');
#927=UNCERTAINTY_MEASURE_WITH_UNIT(LENGTH_MEASURE(0.01),#930,
'DISTANCE_ACCURACY_VALUE',
'Maximum model space distance between geometric entities at asserted c
onnectivities');
#928=(
GEOMETRIC_REPRESENTATION_CONTEXT(3)
GLOBAL_UNCERTAINTY_ASSIGNED_CONTEXT((#926))
GLOBAL_UNIT_ASSIGNED_CONTEXT((#930,#932,#933))
REPRESENTATION_CONTEXT('','3D')
);
#929=(
GEOMETRIC_REPRESENTATION_CONTEXT(3)
GLOBAL_UNCERTAINTY_ASSIGNED_CONTEXT((#927))
GLOBAL_UNIT_ASSIGNED_CONTEXT((#930,#932,#933))
REPRESENTATION_CONTEXT('','3D')
);
#930=(
LENGTH_UNIT()
NAMED_UNIT(*)
SI_UNIT(.MILLI.,.METRE.)
);
#931=(
LENGTH_UNIT()
NAMED_UNIT(*)
SI_UNIT($,.METRE.)
);
#932=(
NAMED_UNIT(*)
PLANE_ANGLE_UNIT()
SI_UNIT($,.RADIAN.)
);
#933=(
NAMED_UNIT(*)
SI_UNIT($,.STERADIAN.)
SOLID_ANGLE_UNIT()
);
#934=SHAPE_DEFINITION_REPRESENTATION(#935,#936);
#935=PRODUCT_DEFINITION_SHAPE('',$,#938);
#936=SHAPE_REPRESENTATION('',(#590),#928);
#937=PRODUCT_DEFINITION_CONTEXT('part definition',#942,'design');
#938=PRODUCT_DEFINITION('(\X2\C800C7A5B418C9C0\X0\ \X2\C54AC74C\X0\)',
'(\X2\C800C7A5B418C9C0\X0\ \X2\C54AC74C\X0\)',#939,#937);
#939=PRODUCT_DEFINITION_FORMATION('',$,#944);
#940=PRODUCT_RELATED_PRODUCT_CATEGORY('(\X2\C800C7A5B418C9C0\X0\ \X2\C54AC74C\X0\)',
'(\X2\C800C7A5B418C9C0\X0\ \X2\C54AC74C\X0\)',(#944));
#941=APPLICATION_PROTOCOL_DEFINITION('international standard',
'ap242_managed_model_based_3d_engineering',2011,#942);
#942=APPLICATION_CONTEXT('Managed model based 3d engineering');
#943=PRODUCT_CONTEXT('part definition',#942,'mechanical');
#944=PRODUCT('(\X2\C800C7A5B418C9C0\X0\ \X2\C54AC74C\X0\)',
'(\X2\C800C7A5B418C9C0\X0\ \X2\C54AC74C\X0\)',$,(#943));
#945=PRESENTATION_STYLE_ASSIGNMENT((#949));
#946=PRESENTATION_STYLE_ASSIGNMENT((#950));
#947=PRESENTATION_STYLE_ASSIGNMENT((#951));
#948=PRESENTATION_STYLE_ASSIGNMENT((#952));
#949=SURFACE_STYLE_USAGE(.BOTH.,#953);
#950=SURFACE_STYLE_USAGE(.BOTH.,#954);
#951=SURFACE_STYLE_USAGE(.BOTH.,#955);
#952=SURFACE_STYLE_USAGE(.BOTH.,#956);
#953=SURFACE_SIDE_STYLE('',(#957));
#954=SURFACE_SIDE_STYLE('',(#958));
#955=SURFACE_SIDE_STYLE('',(#959));
#956=SURFACE_SIDE_STYLE('',(#960));
#957=SURFACE_STYLE_FILL_AREA(#961);
#958=SURFACE_STYLE_FILL_AREA(#962);
#959=SURFACE_STYLE_FILL_AREA(#963);
#960=SURFACE_STYLE_FILL_AREA(#964);
#961=FILL_AREA_STYLE('\X2\AC15CCA0\X0\ - \X2\C0C8D2F4\X0\',(#965));
#962=FILL_AREA_STYLE('Opaque(202,209,238)',(#966));
#963=FILL_AREA_STYLE('Opaque(255,226,104)',(#967));
#964=FILL_AREA_STYLE('Opaque(25,25,25)',(#968));
#965=FILL_AREA_STYLE_COLOUR('\X2\AC15CCA0\X0\ - \X2\C0C8D2F4\X0\',#969);
#966=FILL_AREA_STYLE_COLOUR('Opaque(202,209,238)',#970);
#967=FILL_AREA_STYLE_COLOUR('Opaque(255,226,104)',#971);
#968=FILL_AREA_STYLE_COLOUR('Opaque(25,25,25)',#972);
#969=COLOUR_RGB('\X2\AC15CCA0\X0\ - \X2\C0C8D2F4\X0\',0.627450980392157,
0.627450980392157,0.627450980392157);
#970=COLOUR_RGB('Opaque(202,209,238)',0.792156862745098,0.819607843137255,
0.933333333333333);
#971=COLOUR_RGB('Opaque(255,226,104)',1.,0.886274509803922,0.407843137254902);
#972=COLOUR_RGB('Opaque(25,25,25)',0.0980392156862745,0.0980392156862745,
0.0980392156862745);
ENDSEC;
END-ISO-10303-21;
