ISO-10303-21;
HEADER;
/* Generated by software containing ST-Developer
 * from STEP Tools, Inc. (www.steptools.com) 
 */

FILE_DESCRIPTION(
/* description */ ('',
'CAx-IF Rec.Pracs.---Representation and Presentation of Product Manufa
cturing Information (PMI)---4.0---2014-10-13'),
/* implementation_level */ '2;1');

FILE_NAME(
/* name */ 'TS-1088-AR020.step',
/* time_stamp */ '2025-03-08T13:12:40+09:00',
/* author */ (''),
/* organization */ (''),
/* preprocessor_version */ 'ST-DEVELOPER v20',
/* originating_system */ 'Autodesk Translation Framework v13.20.0.188',

/* authorisation */ '');

FILE_SCHEMA (('AP242_MANAGED_MODEL_BASED_3D_ENGINEERING_MIM_LF { 1 0 10303 442 1 1 4 }'));
ENDSEC;

DATA;
#10=MECHANICAL_DESIGN_GEOMETRIC_PRESENTATION_REPRESENTATION('',(#38,#39,
#40,#41),#634);
#11=ITEM_DEFINED_TRANSFORMATION($,$,#396,#423);
#12=ITEM_DEFINED_TRANSFORMATION($,$,#403,#424);
#13=ITEM_DEFINED_TRANSFORMATION($,$,#409,#425);
#14=ITEM_DEFINED_TRANSFORMATION($,$,#416,#426);
#15=(
REPRESENTATION_RELATIONSHIP($,$,#654,#653)
REPRESENTATION_RELATIONSHIP_WITH_TRANSFORMATION(#11)
SHAPE_REPRESENTATION_RELATIONSHIP()
);
#16=(
REPRESENTATION_RELATIONSHIP($,$,#655,#653)
REPRESENTATION_RELATIONSHIP_WITH_TRANSFORMATION(#12)
SHAPE_REPRESENTATION_RELATIONSHIP()
);
#17=(
REPRESENTATION_RELATIONSHIP($,$,#656,#653)
REPRESENTATION_RELATIONSHIP_WITH_TRANSFORMATION(#13)
SHAPE_REPRESENTATION_RELATIONSHIP()
);
#18=(
REPRESENTATION_RELATIONSHIP($,$,#657,#653)
REPRESENTATION_RELATIONSHIP_WITH_TRANSFORMATION(#14)
SHAPE_REPRESENTATION_RELATIONSHIP()
);
#19=CONTEXT_DEPENDENT_SHAPE_REPRESENTATION(#15,#649);
#20=CONTEXT_DEPENDENT_SHAPE_REPRESENTATION(#16,#650);
#21=CONTEXT_DEPENDENT_SHAPE_REPRESENTATION(#17,#651);
#22=CONTEXT_DEPENDENT_SHAPE_REPRESENTATION(#18,#652);
#23=NEXT_ASSEMBLY_USAGE_OCCURRENCE('TS-1088-AR020 v2:1',
'TS-1088-AR020 v2:1','TS-1088-AR020 v2:1',#659,#660,
'TS-1088-AR020 v2:1');
#24=NEXT_ASSEMBLY_USAGE_OCCURRENCE('TS-1088-AR020 v003:1',
'TS-1088-AR020 v003:1','TS-1088-AR020 v003:1',#659,#661,
'TS-1088-AR020 v003:1');
#25=NEXT_ASSEMBLY_USAGE_OCCURRENCE('TS-1088-AR020 v004:1',
'TS-1088-AR020 v004:1','TS-1088-AR020 v004:1',#659,#662,
'TS-1088-AR020 v004:1');
#26=NEXT_ASSEMBLY_USAGE_OCCURRENCE('TS-1088-AR020 v005:1',
'TS-1088-AR020 v005:1','TS-1088-AR020 v005:1',#659,#663,
'TS-1088-AR020 v005:1');
#27=CIRCLE('',#405,0.85);
#28=CIRCLE('',#406,0.85);
#29=CYLINDRICAL_SURFACE('',#404,0.85);
#30=SHAPE_REPRESENTATION_RELATIONSHIP('SRR','None',#654,#34);
#31=SHAPE_REPRESENTATION_RELATIONSHIP('SRR','None',#655,#35);
#32=SHAPE_REPRESENTATION_RELATIONSHIP('SRR','None',#656,#36);
#33=SHAPE_REPRESENTATION_RELATIONSHIP('SRR','None',#657,#37);
#34=ADVANCED_BREP_SHAPE_REPRESENTATION('',(#42),#630);
#35=ADVANCED_BREP_SHAPE_REPRESENTATION('',(#43),#631);
#36=ADVANCED_BREP_SHAPE_REPRESENTATION('',(#44),#632);
#37=ADVANCED_BREP_SHAPE_REPRESENTATION('',(#45),#633);
#38=STYLED_ITEM('',(#683),#42);
#39=STYLED_ITEM('',(#684),#43);
#40=STYLED_ITEM('',(#683),#44);
#41=STYLED_ITEM('',(#683),#45);
#42=MANIFOLD_SOLID_BREP('\X2\BCF8CCB4\X0\1',#346);
#43=MANIFOLD_SOLID_BREP('\X2\BCF8CCB4\X0\1',#347);
#44=MANIFOLD_SOLID_BREP('\X2\BCF8CCB4\X0\1',#348);
#45=MANIFOLD_SOLID_BREP('\X2\BCF8CCB4\X0\1',#349);
#46=FACE_OUTER_BOUND('',#67,.T.);
#47=FACE_OUTER_BOUND('',#68,.T.);
#48=FACE_OUTER_BOUND('',#69,.T.);
#49=FACE_OUTER_BOUND('',#70,.T.);
#50=FACE_OUTER_BOUND('',#71,.T.);
#51=FACE_OUTER_BOUND('',#72,.T.);
#52=FACE_OUTER_BOUND('',#73,.T.);
#53=FACE_OUTER_BOUND('',#74,.T.);
#54=FACE_OUTER_BOUND('',#75,.T.);
#55=FACE_OUTER_BOUND('',#76,.T.);
#56=FACE_OUTER_BOUND('',#77,.T.);
#57=FACE_OUTER_BOUND('',#78,.T.);
#58=FACE_OUTER_BOUND('',#79,.T.);
#59=FACE_OUTER_BOUND('',#80,.T.);
#60=FACE_OUTER_BOUND('',#81,.T.);
#61=FACE_OUTER_BOUND('',#82,.T.);
#62=FACE_OUTER_BOUND('',#83,.T.);
#63=FACE_OUTER_BOUND('',#84,.T.);
#64=FACE_OUTER_BOUND('',#85,.T.);
#65=FACE_OUTER_BOUND('',#86,.T.);
#66=FACE_OUTER_BOUND('',#87,.T.);
#67=EDGE_LOOP('',(#227,#228,#229,#230));
#68=EDGE_LOOP('',(#231,#232,#233,#234));
#69=EDGE_LOOP('',(#235,#236,#237,#238));
#70=EDGE_LOOP('',(#239,#240,#241,#242));
#71=EDGE_LOOP('',(#243,#244,#245,#246));
#72=EDGE_LOOP('',(#247,#248,#249,#250));
#73=EDGE_LOOP('',(#251,#252,#253,#254));
#74=EDGE_LOOP('',(#255));
#75=EDGE_LOOP('',(#256));
#76=EDGE_LOOP('',(#257,#258,#259,#260));
#77=EDGE_LOOP('',(#261,#262,#263,#264));
#78=EDGE_LOOP('',(#265,#266,#267,#268));
#79=EDGE_LOOP('',(#269,#270,#271,#272));
#80=EDGE_LOOP('',(#273,#274,#275,#276));
#81=EDGE_LOOP('',(#277,#278,#279,#280));
#82=EDGE_LOOP('',(#281,#282,#283,#284));
#83=EDGE_LOOP('',(#285,#286,#287,#288));
#84=EDGE_LOOP('',(#289,#290,#291,#292));
#85=EDGE_LOOP('',(#293,#294,#295,#296));
#86=EDGE_LOOP('',(#297,#298,#299,#300));
#87=EDGE_LOOP('',(#301,#302,#303,#304));
#88=LINE('',#533,#125);
#89=LINE('',#535,#126);
#90=LINE('',#537,#127);
#91=LINE('',#538,#128);
#92=LINE('',#541,#129);
#93=LINE('',#543,#130);
#94=LINE('',#544,#131);
#95=LINE('',#547,#132);
#96=LINE('',#549,#133);
#97=LINE('',#550,#134);
#98=LINE('',#552,#135);
#99=LINE('',#553,#136);
#100=LINE('',#561,#137);
#101=LINE('',#569,#138);
#102=LINE('',#571,#139);
#103=LINE('',#573,#140);
#104=LINE('',#574,#141);
#105=LINE('',#577,#142);
#106=LINE('',#579,#143);
#107=LINE('',#580,#144);
#108=LINE('',#583,#145);
#109=LINE('',#585,#146);
#110=LINE('',#586,#147);
#111=LINE('',#588,#148);
#112=LINE('',#589,#149);
#113=LINE('',#596,#150);
#114=LINE('',#598,#151);
#115=LINE('',#600,#152);
#116=LINE('',#601,#153);
#117=LINE('',#604,#154);
#118=LINE('',#606,#155);
#119=LINE('',#607,#156);
#120=LINE('',#610,#157);
#121=LINE('',#612,#158);
#122=LINE('',#613,#159);
#123=LINE('',#615,#160);
#124=LINE('',#616,#161);
#125=VECTOR('',#433,1.);
#126=VECTOR('',#434,1.);
#127=VECTOR('',#435,1.);
#128=VECTOR('',#436,1.);
#129=VECTOR('',#439,1.);
#130=VECTOR('',#440,1.);
#131=VECTOR('',#441,1.);
#132=VECTOR('',#444,1.);
#133=VECTOR('',#445,1.);
#134=VECTOR('',#446,1.);
#135=VECTOR('',#449,1.);
#136=VECTOR('',#450,1.);
#137=VECTOR('',#461,0.85);
#138=VECTOR('',#472,1.);
#139=VECTOR('',#473,1.);
#140=VECTOR('',#474,1.);
#141=VECTOR('',#475,1.);
#142=VECTOR('',#478,1.);
#143=VECTOR('',#479,1.);
#144=VECTOR('',#480,1.);
#145=VECTOR('',#483,1.);
#146=VECTOR('',#484,1.);
#147=VECTOR('',#485,1.);
#148=VECTOR('',#488,1.);
#149=VECTOR('',#489,1.);
#150=VECTOR('',#498,1.);
#151=VECTOR('',#499,1.);
#152=VECTOR('',#500,1.);
#153=VECTOR('',#501,1.);
#154=VECTOR('',#504,1.);
#155=VECTOR('',#505,1.);
#156=VECTOR('',#506,1.);
#157=VECTOR('',#509,1.);
#158=VECTOR('',#510,1.);
#159=VECTOR('',#511,1.);
#160=VECTOR('',#514,1.);
#161=VECTOR('',#515,1.);
#162=VERTEX_POINT('',#531);
#163=VERTEX_POINT('',#532);
#164=VERTEX_POINT('',#534);
#165=VERTEX_POINT('',#536);
#166=VERTEX_POINT('',#540);
#167=VERTEX_POINT('',#542);
#168=VERTEX_POINT('',#546);
#169=VERTEX_POINT('',#548);
#170=VERTEX_POINT('',#558);
#171=VERTEX_POINT('',#560);
#172=VERTEX_POINT('',#567);
#173=VERTEX_POINT('',#568);
#174=VERTEX_POINT('',#570);
#175=VERTEX_POINT('',#572);
#176=VERTEX_POINT('',#576);
#177=VERTEX_POINT('',#578);
#178=VERTEX_POINT('',#582);
#179=VERTEX_POINT('',#584);
#180=VERTEX_POINT('',#594);
#181=VERTEX_POINT('',#595);
#182=VERTEX_POINT('',#597);
#183=VERTEX_POINT('',#599);
#184=VERTEX_POINT('',#603);
#185=VERTEX_POINT('',#605);
#186=VERTEX_POINT('',#609);
#187=VERTEX_POINT('',#611);
#188=EDGE_CURVE('',#162,#163,#88,.T.);
#189=EDGE_CURVE('',#163,#164,#89,.T.);
#190=EDGE_CURVE('',#165,#164,#90,.T.);
#191=EDGE_CURVE('',#162,#165,#91,.T.);
#192=EDGE_CURVE('',#166,#162,#92,.T.);
#193=EDGE_CURVE('',#167,#165,#93,.T.);
#194=EDGE_CURVE('',#166,#167,#94,.T.);
#195=EDGE_CURVE('',#168,#166,#95,.T.);
#196=EDGE_CURVE('',#169,#167,#96,.T.);
#197=EDGE_CURVE('',#168,#169,#97,.T.);
#198=EDGE_CURVE('',#163,#168,#98,.T.);
#199=EDGE_CURVE('',#164,#169,#99,.T.);
#200=EDGE_CURVE('',#170,#170,#27,.T.);
#201=EDGE_CURVE('',#170,#171,#100,.T.);
#202=EDGE_CURVE('',#171,#171,#28,.T.);
#203=EDGE_CURVE('',#172,#173,#101,.T.);
#204=EDGE_CURVE('',#172,#174,#102,.T.);
#205=EDGE_CURVE('',#175,#174,#103,.T.);
#206=EDGE_CURVE('',#173,#175,#104,.T.);
#207=EDGE_CURVE('',#173,#176,#105,.T.);
#208=EDGE_CURVE('',#177,#175,#106,.T.);
#209=EDGE_CURVE('',#176,#177,#107,.T.);
#210=EDGE_CURVE('',#176,#178,#108,.T.);
#211=EDGE_CURVE('',#179,#177,#109,.T.);
#212=EDGE_CURVE('',#178,#179,#110,.T.);
#213=EDGE_CURVE('',#178,#172,#111,.T.);
#214=EDGE_CURVE('',#174,#179,#112,.T.);
#215=EDGE_CURVE('',#180,#181,#113,.T.);
#216=EDGE_CURVE('',#180,#182,#114,.T.);
#217=EDGE_CURVE('',#183,#182,#115,.T.);
#218=EDGE_CURVE('',#181,#183,#116,.T.);
#219=EDGE_CURVE('',#181,#184,#117,.T.);
#220=EDGE_CURVE('',#185,#183,#118,.T.);
#221=EDGE_CURVE('',#184,#185,#119,.T.);
#222=EDGE_CURVE('',#184,#186,#120,.T.);
#223=EDGE_CURVE('',#187,#185,#121,.T.);
#224=EDGE_CURVE('',#186,#187,#122,.T.);
#225=EDGE_CURVE('',#186,#180,#123,.T.);
#226=EDGE_CURVE('',#182,#187,#124,.T.);
#227=ORIENTED_EDGE('',*,*,#188,.T.);
#228=ORIENTED_EDGE('',*,*,#189,.T.);
#229=ORIENTED_EDGE('',*,*,#190,.F.);
#230=ORIENTED_EDGE('',*,*,#191,.F.);
#231=ORIENTED_EDGE('',*,*,#192,.T.);
#232=ORIENTED_EDGE('',*,*,#191,.T.);
#233=ORIENTED_EDGE('',*,*,#193,.F.);
#234=ORIENTED_EDGE('',*,*,#194,.F.);
#235=ORIENTED_EDGE('',*,*,#195,.T.);
#236=ORIENTED_EDGE('',*,*,#194,.T.);
#237=ORIENTED_EDGE('',*,*,#196,.F.);
#238=ORIENTED_EDGE('',*,*,#197,.F.);
#239=ORIENTED_EDGE('',*,*,#198,.T.);
#240=ORIENTED_EDGE('',*,*,#197,.T.);
#241=ORIENTED_EDGE('',*,*,#199,.F.);
#242=ORIENTED_EDGE('',*,*,#189,.F.);
#243=ORIENTED_EDGE('',*,*,#199,.T.);
#244=ORIENTED_EDGE('',*,*,#196,.T.);
#245=ORIENTED_EDGE('',*,*,#193,.T.);
#246=ORIENTED_EDGE('',*,*,#190,.T.);
#247=ORIENTED_EDGE('',*,*,#198,.F.);
#248=ORIENTED_EDGE('',*,*,#188,.F.);
#249=ORIENTED_EDGE('',*,*,#192,.F.);
#250=ORIENTED_EDGE('',*,*,#195,.F.);
#251=ORIENTED_EDGE('',*,*,#200,.F.);
#252=ORIENTED_EDGE('',*,*,#201,.T.);
#253=ORIENTED_EDGE('',*,*,#202,.T.);
#254=ORIENTED_EDGE('',*,*,#201,.F.);
#255=ORIENTED_EDGE('',*,*,#200,.T.);
#256=ORIENTED_EDGE('',*,*,#202,.F.);
#257=ORIENTED_EDGE('',*,*,#203,.F.);
#258=ORIENTED_EDGE('',*,*,#204,.T.);
#259=ORIENTED_EDGE('',*,*,#205,.F.);
#260=ORIENTED_EDGE('',*,*,#206,.F.);
#261=ORIENTED_EDGE('',*,*,#207,.F.);
#262=ORIENTED_EDGE('',*,*,#206,.T.);
#263=ORIENTED_EDGE('',*,*,#208,.F.);
#264=ORIENTED_EDGE('',*,*,#209,.F.);
#265=ORIENTED_EDGE('',*,*,#210,.F.);
#266=ORIENTED_EDGE('',*,*,#209,.T.);
#267=ORIENTED_EDGE('',*,*,#211,.F.);
#268=ORIENTED_EDGE('',*,*,#212,.F.);
#269=ORIENTED_EDGE('',*,*,#213,.F.);
#270=ORIENTED_EDGE('',*,*,#212,.T.);
#271=ORIENTED_EDGE('',*,*,#214,.F.);
#272=ORIENTED_EDGE('',*,*,#204,.F.);
#273=ORIENTED_EDGE('',*,*,#213,.T.);
#274=ORIENTED_EDGE('',*,*,#203,.T.);
#275=ORIENTED_EDGE('',*,*,#207,.T.);
#276=ORIENTED_EDGE('',*,*,#210,.T.);
#277=ORIENTED_EDGE('',*,*,#214,.T.);
#278=ORIENTED_EDGE('',*,*,#211,.T.);
#279=ORIENTED_EDGE('',*,*,#208,.T.);
#280=ORIENTED_EDGE('',*,*,#205,.T.);
#281=ORIENTED_EDGE('',*,*,#215,.F.);
#282=ORIENTED_EDGE('',*,*,#216,.T.);
#283=ORIENTED_EDGE('',*,*,#217,.F.);
#284=ORIENTED_EDGE('',*,*,#218,.F.);
#285=ORIENTED_EDGE('',*,*,#219,.F.);
#286=ORIENTED_EDGE('',*,*,#218,.T.);
#287=ORIENTED_EDGE('',*,*,#220,.F.);
#288=ORIENTED_EDGE('',*,*,#221,.F.);
#289=ORIENTED_EDGE('',*,*,#222,.F.);
#290=ORIENTED_EDGE('',*,*,#221,.T.);
#291=ORIENTED_EDGE('',*,*,#223,.F.);
#292=ORIENTED_EDGE('',*,*,#224,.F.);
#293=ORIENTED_EDGE('',*,*,#225,.F.);
#294=ORIENTED_EDGE('',*,*,#224,.T.);
#295=ORIENTED_EDGE('',*,*,#226,.F.);
#296=ORIENTED_EDGE('',*,*,#216,.F.);
#297=ORIENTED_EDGE('',*,*,#225,.T.);
#298=ORIENTED_EDGE('',*,*,#215,.T.);
#299=ORIENTED_EDGE('',*,*,#219,.T.);
#300=ORIENTED_EDGE('',*,*,#222,.T.);
#301=ORIENTED_EDGE('',*,*,#226,.T.);
#302=ORIENTED_EDGE('',*,*,#223,.T.);
#303=ORIENTED_EDGE('',*,*,#220,.T.);
#304=ORIENTED_EDGE('',*,*,#217,.T.);
#305=PLANE('',#397);
#306=PLANE('',#398);
#307=PLANE('',#399);
#308=PLANE('',#400);
#309=PLANE('',#401);
#310=PLANE('',#402);
#311=PLANE('',#407);
#312=PLANE('',#408);
#313=PLANE('',#410);
#314=PLANE('',#411);
#315=PLANE('',#412);
#316=PLANE('',#413);
#317=PLANE('',#414);
#318=PLANE('',#415);
#319=PLANE('',#417);
#320=PLANE('',#418);
#321=PLANE('',#419);
#322=PLANE('',#420);
#323=PLANE('',#421);
#324=PLANE('',#422);
#325=ADVANCED_FACE('',(#46),#305,.T.);
#326=ADVANCED_FACE('',(#47),#306,.T.);
#327=ADVANCED_FACE('',(#48),#307,.T.);
#328=ADVANCED_FACE('',(#49),#308,.T.);
#329=ADVANCED_FACE('',(#50),#309,.T.);
#330=ADVANCED_FACE('',(#51),#310,.F.);
#331=ADVANCED_FACE('',(#52),#29,.T.);
#332=ADVANCED_FACE('',(#53),#311,.T.);
#333=ADVANCED_FACE('',(#54),#312,.F.);
#334=ADVANCED_FACE('',(#55),#313,.T.);
#335=ADVANCED_FACE('',(#56),#314,.T.);
#336=ADVANCED_FACE('',(#57),#315,.T.);
#337=ADVANCED_FACE('',(#58),#316,.T.);
#338=ADVANCED_FACE('',(#59),#317,.T.);
#339=ADVANCED_FACE('',(#60),#318,.T.);
#340=ADVANCED_FACE('',(#61),#319,.T.);
#341=ADVANCED_FACE('',(#62),#320,.T.);
#342=ADVANCED_FACE('',(#63),#321,.T.);
#343=ADVANCED_FACE('',(#64),#322,.T.);
#344=ADVANCED_FACE('',(#65),#323,.T.);
#345=ADVANCED_FACE('',(#66),#324,.T.);
#346=CLOSED_SHELL('',(#325,#326,#327,#328,#329,#330));
#347=CLOSED_SHELL('',(#331,#332,#333));
#348=CLOSED_SHELL('',(#334,#335,#336,#337,#338,#339));
#349=CLOSED_SHELL('',(#340,#341,#342,#343,#344,#345));
#350=DERIVED_UNIT_ELEMENT(#358,1.);
#351=DERIVED_UNIT_ELEMENT(#636,-3.);
#352=DERIVED_UNIT_ELEMENT(#358,1.);
#353=DERIVED_UNIT_ELEMENT(#636,-3.);
#354=DERIVED_UNIT_ELEMENT(#358,1.);
#355=DERIVED_UNIT_ELEMENT(#636,-3.);
#356=DERIVED_UNIT_ELEMENT(#358,1.);
#357=DERIVED_UNIT_ELEMENT(#636,-3.);
#358=(
MASS_UNIT()
NAMED_UNIT(*)
SI_UNIT(.KILO.,.GRAM.)
);
#359=DERIVED_UNIT((#350,#351));
#360=DERIVED_UNIT((#352,#353));
#361=DERIVED_UNIT((#354,#355));
#362=DERIVED_UNIT((#356,#357));
#363=MEASURE_REPRESENTATION_ITEM('density measure',
POSITIVE_RATIO_MEASURE(7850.),#359);
#364=MEASURE_REPRESENTATION_ITEM('density measure',
POSITIVE_RATIO_MEASURE(7850.),#360);
#365=MEASURE_REPRESENTATION_ITEM('density measure',
POSITIVE_RATIO_MEASURE(7850.),#361);
#366=MEASURE_REPRESENTATION_ITEM('density measure',
POSITIVE_RATIO_MEASURE(7850.),#362);
#367=PROPERTY_DEFINITION_REPRESENTATION(#387,#375);
#368=PROPERTY_DEFINITION_REPRESENTATION(#388,#376);
#369=PROPERTY_DEFINITION_REPRESENTATION(#389,#377);
#370=PROPERTY_DEFINITION_REPRESENTATION(#390,#378);
#371=PROPERTY_DEFINITION_REPRESENTATION(#391,#379);
#372=PROPERTY_DEFINITION_REPRESENTATION(#392,#380);
#373=PROPERTY_DEFINITION_REPRESENTATION(#393,#381);
#374=PROPERTY_DEFINITION_REPRESENTATION(#394,#382);
#375=REPRESENTATION('material name',(#383),#630);
#376=REPRESENTATION('density',(#363),#630);
#377=REPRESENTATION('material name',(#384),#631);
#378=REPRESENTATION('density',(#364),#631);
#379=REPRESENTATION('material name',(#385),#632);
#380=REPRESENTATION('density',(#365),#632);
#381=REPRESENTATION('material name',(#386),#633);
#382=REPRESENTATION('density',(#366),#633);
#383=DESCRIPTIVE_REPRESENTATION_ITEM('\X2\AC15CCA0\X0\','\X2\AC15CCA0\X0\');
#384=DESCRIPTIVE_REPRESENTATION_ITEM('\X2\AC15CCA0\X0\','\X2\AC15CCA0\X0\');
#385=DESCRIPTIVE_REPRESENTATION_ITEM('\X2\AC15CCA0\X0\','\X2\AC15CCA0\X0\');
#386=DESCRIPTIVE_REPRESENTATION_ITEM('\X2\AC15CCA0\X0\','\X2\AC15CCA0\X0\');
#387=PROPERTY_DEFINITION('material property','material name',#660);
#388=PROPERTY_DEFINITION('material property','density of part',#660);
#389=PROPERTY_DEFINITION('material property','material name',#661);
#390=PROPERTY_DEFINITION('material property','density of part',#661);
#391=PROPERTY_DEFINITION('material property','material name',#662);
#392=PROPERTY_DEFINITION('material property','density of part',#662);
#393=PROPERTY_DEFINITION('material property','material name',#663);
#394=PROPERTY_DEFINITION('material property','density of part',#663);
#395=AXIS2_PLACEMENT_3D('',#528,#427,#428);
#396=AXIS2_PLACEMENT_3D('',#529,#429,#430);
#397=AXIS2_PLACEMENT_3D('',#530,#431,#432);
#398=AXIS2_PLACEMENT_3D('',#539,#437,#438);
#399=AXIS2_PLACEMENT_3D('',#545,#442,#443);
#400=AXIS2_PLACEMENT_3D('',#551,#447,#448);
#401=AXIS2_PLACEMENT_3D('',#554,#451,#452);
#402=AXIS2_PLACEMENT_3D('',#555,#453,#454);
#403=AXIS2_PLACEMENT_3D('',#556,#455,#456);
#404=AXIS2_PLACEMENT_3D('',#557,#457,#458);
#405=AXIS2_PLACEMENT_3D('',#559,#459,#460);
#406=AXIS2_PLACEMENT_3D('',#562,#462,#463);
#407=AXIS2_PLACEMENT_3D('',#563,#464,#465);
#408=AXIS2_PLACEMENT_3D('',#564,#466,#467);
#409=AXIS2_PLACEMENT_3D('',#565,#468,#469);
#410=AXIS2_PLACEMENT_3D('',#566,#470,#471);
#411=AXIS2_PLACEMENT_3D('',#575,#476,#477);
#412=AXIS2_PLACEMENT_3D('',#581,#481,#482);
#413=AXIS2_PLACEMENT_3D('',#587,#486,#487);
#414=AXIS2_PLACEMENT_3D('',#590,#490,#491);
#415=AXIS2_PLACEMENT_3D('',#591,#492,#493);
#416=AXIS2_PLACEMENT_3D('',#592,#494,#495);
#417=AXIS2_PLACEMENT_3D('',#593,#496,#497);
#418=AXIS2_PLACEMENT_3D('',#602,#502,#503);
#419=AXIS2_PLACEMENT_3D('',#608,#507,#508);
#420=AXIS2_PLACEMENT_3D('',#614,#512,#513);
#421=AXIS2_PLACEMENT_3D('',#617,#516,#517);
#422=AXIS2_PLACEMENT_3D('',#618,#518,#519);
#423=AXIS2_PLACEMENT_3D('',#619,#520,#521);
#424=AXIS2_PLACEMENT_3D('',#620,#522,#523);
#425=AXIS2_PLACEMENT_3D('',#621,#524,#525);
#426=AXIS2_PLACEMENT_3D('',#622,#526,#527);
#427=DIRECTION('axis',(0.,0.,1.));
#428=DIRECTION('refdir',(1.,0.,0.));
#429=DIRECTION('axis',(0.,0.,1.));
#430=DIRECTION('refdir',(1.,0.,0.));
#431=DIRECTION('center_axis',(0.,-1.,0.));
#432=DIRECTION('ref_axis',(1.,0.,0.));
#433=DIRECTION('',(1.,0.,0.));
#434=DIRECTION('',(0.,0.,1.));
#435=DIRECTION('',(1.,0.,0.));
#436=DIRECTION('',(0.,0.,1.));
#437=DIRECTION('center_axis',(-1.,0.,0.));
#438=DIRECTION('ref_axis',(0.,-1.,0.));
#439=DIRECTION('',(0.,-1.,0.));
#440=DIRECTION('',(0.,-1.,0.));
#441=DIRECTION('',(0.,0.,1.));
#442=DIRECTION('center_axis',(0.,1.,0.));
#443=DIRECTION('ref_axis',(-1.,0.,0.));
#444=DIRECTION('',(-1.,0.,0.));
#445=DIRECTION('',(-1.,0.,0.));
#446=DIRECTION('',(0.,0.,1.));
#447=DIRECTION('center_axis',(1.,0.,0.));
#448=DIRECTION('ref_axis',(0.,1.,0.));
#449=DIRECTION('',(0.,1.,0.));
#450=DIRECTION('',(0.,1.,0.));
#451=DIRECTION('center_axis',(0.,0.,1.));
#452=DIRECTION('ref_axis',(1.,0.,0.));
#453=DIRECTION('center_axis',(0.,0.,1.));
#454=DIRECTION('ref_axis',(1.,0.,0.));
#455=DIRECTION('axis',(0.,0.,1.));
#456=DIRECTION('refdir',(1.,0.,0.));
#457=DIRECTION('center_axis',(0.,0.,1.));
#458=DIRECTION('ref_axis',(-1.,0.,0.));
#459=DIRECTION('center_axis',(0.,0.,1.));
#460=DIRECTION('ref_axis',(-1.,0.,0.));
#461=DIRECTION('',(0.,0.,-1.));
#462=DIRECTION('center_axis',(0.,0.,1.));
#463=DIRECTION('ref_axis',(-1.,0.,0.));
#464=DIRECTION('center_axis',(0.,0.,1.));
#465=DIRECTION('ref_axis',(-1.,0.,0.));
#466=DIRECTION('center_axis',(0.,0.,1.));
#467=DIRECTION('ref_axis',(-1.,0.,0.));
#468=DIRECTION('axis',(0.,0.,1.));
#469=DIRECTION('refdir',(1.,0.,0.));
#470=DIRECTION('center_axis',(0.,-1.,0.));
#471=DIRECTION('ref_axis',(1.,0.,0.));
#472=DIRECTION('',(-1.,0.,0.));
#473=DIRECTION('',(0.,0.,1.));
#474=DIRECTION('',(1.,0.,0.));
#475=DIRECTION('',(0.,0.,1.));
#476=DIRECTION('center_axis',(-1.,0.,0.));
#477=DIRECTION('ref_axis',(0.,-1.,0.));
#478=DIRECTION('',(0.,1.,0.));
#479=DIRECTION('',(0.,-1.,0.));
#480=DIRECTION('',(0.,0.,1.));
#481=DIRECTION('center_axis',(0.,1.,0.));
#482=DIRECTION('ref_axis',(-1.,0.,0.));
#483=DIRECTION('',(1.,0.,0.));
#484=DIRECTION('',(-1.,0.,0.));
#485=DIRECTION('',(0.,0.,1.));
#486=DIRECTION('center_axis',(1.,0.,0.));
#487=DIRECTION('ref_axis',(0.,1.,0.));
#488=DIRECTION('',(0.,-1.,0.));
#489=DIRECTION('',(0.,1.,0.));
#490=DIRECTION('center_axis',(0.,0.,-1.));
#491=DIRECTION('ref_axis',(1.,0.,0.));
#492=DIRECTION('center_axis',(0.,0.,1.));
#493=DIRECTION('ref_axis',(1.,0.,0.));
#494=DIRECTION('axis',(0.,0.,1.));
#495=DIRECTION('refdir',(1.,0.,0.));
#496=DIRECTION('center_axis',(3.469446951954E-16,-1.,0.));
#497=DIRECTION('ref_axis',(1.,3.469446951954E-16,0.));
#498=DIRECTION('',(-1.,-3.469446951954E-16,0.));
#499=DIRECTION('',(0.,0.,1.));
#500=DIRECTION('',(1.,3.469446951954E-16,0.));
#501=DIRECTION('',(0.,0.,1.));
#502=DIRECTION('center_axis',(-1.,0.,0.));
#503=DIRECTION('ref_axis',(0.,-1.,0.));
#504=DIRECTION('',(0.,1.,0.));
#505=DIRECTION('',(0.,-1.,0.));
#506=DIRECTION('',(0.,0.,1.));
#507=DIRECTION('center_axis',(0.,1.,0.));
#508=DIRECTION('ref_axis',(-1.,0.,0.));
#509=DIRECTION('',(1.,0.,0.));
#510=DIRECTION('',(-1.,0.,0.));
#511=DIRECTION('',(0.,0.,1.));
#512=DIRECTION('center_axis',(1.,0.,0.));
#513=DIRECTION('ref_axis',(0.,1.,0.));
#514=DIRECTION('',(0.,-1.,0.));
#515=DIRECTION('',(0.,1.,0.));
#516=DIRECTION('center_axis',(0.,0.,-1.));
#517=DIRECTION('ref_axis',(1.,0.,0.));
#518=DIRECTION('center_axis',(0.,0.,1.));
#519=DIRECTION('ref_axis',(1.,0.,0.));
#520=DIRECTION('',(0.,0.,1.));
#521=DIRECTION('',(1.,0.,0.));
#522=DIRECTION('',(0.,0.,1.));
#523=DIRECTION('',(1.,0.,0.));
#524=DIRECTION('',(0.,0.,1.));
#525=DIRECTION('',(1.,0.,0.));
#526=DIRECTION('',(0.,0.,1.));
#527=DIRECTION('',(1.,0.,0.));
#528=CARTESIAN_POINT('',(0.,0.,0.));
#529=CARTESIAN_POINT('',(0.,0.,0.));
#530=CARTESIAN_POINT('Origin',(-2.,-1.45,0.));
#531=CARTESIAN_POINT('',(-2.,-1.45,0.));
#532=CARTESIAN_POINT('',(2.,-1.45,0.));
#533=CARTESIAN_POINT('',(-2.,-1.45,0.));
#534=CARTESIAN_POINT('',(2.,-1.45,1.5));
#535=CARTESIAN_POINT('',(2.,-1.45,0.));
#536=CARTESIAN_POINT('',(-2.,-1.45,1.5));
#537=CARTESIAN_POINT('',(-2.,-1.45,1.5));
#538=CARTESIAN_POINT('',(-2.,-1.45,0.));
#539=CARTESIAN_POINT('Origin',(-2.,1.45,0.));
#540=CARTESIAN_POINT('',(-2.,1.45,0.));
#541=CARTESIAN_POINT('',(-2.,1.45,0.));
#542=CARTESIAN_POINT('',(-2.,1.45,1.5));
#543=CARTESIAN_POINT('',(-2.,1.45,1.5));
#544=CARTESIAN_POINT('',(-2.,1.45,0.));
#545=CARTESIAN_POINT('Origin',(2.,1.45,0.));
#546=CARTESIAN_POINT('',(2.,1.45,0.));
#547=CARTESIAN_POINT('',(2.,1.45,0.));
#548=CARTESIAN_POINT('',(2.,1.45,1.5));
#549=CARTESIAN_POINT('',(2.,1.45,1.5));
#550=CARTESIAN_POINT('',(2.,1.45,0.));
#551=CARTESIAN_POINT('Origin',(2.,-1.45,0.));
#552=CARTESIAN_POINT('',(2.,-1.45,0.));
#553=CARTESIAN_POINT('',(2.,-1.45,1.5));
#554=CARTESIAN_POINT('Origin',(0.,0.,1.5));
#555=CARTESIAN_POINT('Origin',(0.,0.,0.));
#556=CARTESIAN_POINT('',(0.,0.,0.));
#557=CARTESIAN_POINT('Origin',(0.,0.,1.5));
#558=CARTESIAN_POINT('',(0.85,1.040949779275E-16,2.));
#559=CARTESIAN_POINT('Origin',(0.,0.,2.));
#560=CARTESIAN_POINT('',(0.85,1.040949779275E-16,1.5));
#561=CARTESIAN_POINT('',(0.85,1.04094977927525E-16,1.5));
#562=CARTESIAN_POINT('Origin',(0.,0.,1.5));
#563=CARTESIAN_POINT('Origin',(0.,0.,2.));
#564=CARTESIAN_POINT('Origin',(0.,0.,1.5));
#565=CARTESIAN_POINT('',(0.,0.,0.));
#566=CARTESIAN_POINT('Origin',(-2.4,-0.65,0.));
#567=CARTESIAN_POINT('',(-2.,-0.65,0.));
#568=CARTESIAN_POINT('',(-2.4,-0.65,0.));
#569=CARTESIAN_POINT('',(-2.,-0.65,0.));
#570=CARTESIAN_POINT('',(-2.,-0.65,0.1));
#571=CARTESIAN_POINT('',(-2.,-0.65,0.));
#572=CARTESIAN_POINT('',(-2.4,-0.65,0.1));
#573=CARTESIAN_POINT('',(-2.,-0.65,0.1));
#574=CARTESIAN_POINT('',(-2.4,-0.65,0.));
#575=CARTESIAN_POINT('Origin',(-2.4,0.65,0.));
#576=CARTESIAN_POINT('',(-2.4,0.65,0.));
#577=CARTESIAN_POINT('',(-2.4,-0.65,0.));
#578=CARTESIAN_POINT('',(-2.4,0.65,0.1));
#579=CARTESIAN_POINT('',(-2.4,-0.65,0.1));
#580=CARTESIAN_POINT('',(-2.4,0.65,0.));
#581=CARTESIAN_POINT('Origin',(-2.,0.65,0.));
#582=CARTESIAN_POINT('',(-2.,0.65,0.));
#583=CARTESIAN_POINT('',(-2.4,0.65,0.));
#584=CARTESIAN_POINT('',(-2.,0.65,0.1));
#585=CARTESIAN_POINT('',(-2.4,0.65,0.1));
#586=CARTESIAN_POINT('',(-2.,0.65,0.));
#587=CARTESIAN_POINT('Origin',(-2.,-0.65,0.));
#588=CARTESIAN_POINT('',(-2.,0.65,0.));
#589=CARTESIAN_POINT('',(-2.,0.65,0.1));
#590=CARTESIAN_POINT('Origin',(-2.2,2.775557561563E-16,0.));
#591=CARTESIAN_POINT('Origin',(-2.2,2.775557561563E-16,0.1));
#592=CARTESIAN_POINT('',(0.,0.,0.));
#593=CARTESIAN_POINT('Origin',(2.,-0.65,0.));
#594=CARTESIAN_POINT('',(2.4,-0.65,0.));
#595=CARTESIAN_POINT('',(2.,-0.65,0.));
#596=CARTESIAN_POINT('',(2.4,-0.65,0.));
#597=CARTESIAN_POINT('',(2.4,-0.65,0.1));
#598=CARTESIAN_POINT('',(2.4,-0.65,0.));
#599=CARTESIAN_POINT('',(2.,-0.65,0.1));
#600=CARTESIAN_POINT('',(2.4,-0.65,0.1));
#601=CARTESIAN_POINT('',(2.,-0.65,0.));
#602=CARTESIAN_POINT('Origin',(2.,0.65,0.));
#603=CARTESIAN_POINT('',(2.,0.65,0.));
#604=CARTESIAN_POINT('',(2.,-0.65,0.));
#605=CARTESIAN_POINT('',(2.,0.65,0.1));
#606=CARTESIAN_POINT('',(2.,-0.65,0.1));
#607=CARTESIAN_POINT('',(2.,0.65,0.));
#608=CARTESIAN_POINT('Origin',(2.4,0.65,0.));
#609=CARTESIAN_POINT('',(2.4,0.65,0.));
#610=CARTESIAN_POINT('',(2.,0.65,0.));
#611=CARTESIAN_POINT('',(2.4,0.65,0.1));
#612=CARTESIAN_POINT('',(2.,0.65,0.1));
#613=CARTESIAN_POINT('',(2.4,0.65,0.));
#614=CARTESIAN_POINT('Origin',(2.4,-0.65,0.));
#615=CARTESIAN_POINT('',(2.4,0.65,0.));
#616=CARTESIAN_POINT('',(2.4,0.65,0.1));
#617=CARTESIAN_POINT('Origin',(2.2,-1.387778780781E-16,0.));
#618=CARTESIAN_POINT('Origin',(2.2,-1.387778780781E-16,0.1));
#619=CARTESIAN_POINT('',(0.,0.,0.));
#620=CARTESIAN_POINT('',(0.,0.,0.));
#621=CARTESIAN_POINT('',(0.,0.,0.));
#622=CARTESIAN_POINT('',(0.,0.,0.));
#623=UNCERTAINTY_MEASURE_WITH_UNIT(LENGTH_MEASURE(0.01),#635,
'DISTANCE_ACCURACY_VALUE',
'Maximum model space distance between geometric entities at asserted c
onnectivities');
#624=UNCERTAINTY_MEASURE_WITH_UNIT(LENGTH_MEASURE(0.01),#635,
'DISTANCE_ACCURACY_VALUE',
'Maximum model space distance between geometric entities at asserted c
onnectivities');
#625=UNCERTAINTY_MEASURE_WITH_UNIT(LENGTH_MEASURE(0.01),#635,
'DISTANCE_ACCURACY_VALUE',
'Maximum model space distance between geometric entities at asserted c
onnectivities');
#626=UNCERTAINTY_MEASURE_WITH_UNIT(LENGTH_MEASURE(0.01),#635,
'DISTANCE_ACCURACY_VALUE',
'Maximum model space distance between geometric entities at asserted c
onnectivities');
#627=UNCERTAINTY_MEASURE_WITH_UNIT(LENGTH_MEASURE(0.01),#635,
'DISTANCE_ACCURACY_VALUE',
'Maximum model space distance between geometric entities at asserted c
onnectivities');
#628=UNCERTAINTY_MEASURE_WITH_UNIT(LENGTH_MEASURE(0.01),#635,
'DISTANCE_ACCURACY_VALUE',
'Maximum model space distance between geometric entities at asserted c
onnectivities');
#629=(
GEOMETRIC_REPRESENTATION_CONTEXT(3)
GLOBAL_UNCERTAINTY_ASSIGNED_CONTEXT((#623))
GLOBAL_UNIT_ASSIGNED_CONTEXT((#635,#637,#638))
REPRESENTATION_CONTEXT('','3D')
);
#630=(
GEOMETRIC_REPRESENTATION_CONTEXT(3)
GLOBAL_UNCERTAINTY_ASSIGNED_CONTEXT((#624))
GLOBAL_UNIT_ASSIGNED_CONTEXT((#635,#637,#638))
REPRESENTATION_CONTEXT('','3D')
);
#631=(
GEOMETRIC_REPRESENTATION_CONTEXT(3)
GLOBAL_UNCERTAINTY_ASSIGNED_CONTEXT((#625))
GLOBAL_UNIT_ASSIGNED_CONTEXT((#635,#637,#638))
REPRESENTATION_CONTEXT('','3D')
);
#632=(
GEOMETRIC_REPRESENTATION_CONTEXT(3)
GLOBAL_UNCERTAINTY_ASSIGNED_CONTEXT((#626))
GLOBAL_UNIT_ASSIGNED_CONTEXT((#635,#637,#638))
REPRESENTATION_CONTEXT('','3D')
);
#633=(
GEOMETRIC_REPRESENTATION_CONTEXT(3)
GLOBAL_UNCERTAINTY_ASSIGNED_CONTEXT((#627))
GLOBAL_UNIT_ASSIGNED_CONTEXT((#635,#637,#638))
REPRESENTATION_CONTEXT('','3D')
);
#634=(
GEOMETRIC_REPRESENTATION_CONTEXT(3)
GLOBAL_UNCERTAINTY_ASSIGNED_CONTEXT((#628))
GLOBAL_UNIT_ASSIGNED_CONTEXT((#635,#637,#638))
REPRESENTATION_CONTEXT('','3D')
);
#635=(
LENGTH_UNIT()
NAMED_UNIT(*)
SI_UNIT(.MILLI.,.METRE.)
);
#636=(
LENGTH_UNIT()
NAMED_UNIT(*)
SI_UNIT($,.METRE.)
);
#637=(
NAMED_UNIT(*)
PLANE_ANGLE_UNIT()
SI_UNIT($,.RADIAN.)
);
#638=(
NAMED_UNIT(*)
SI_UNIT($,.STERADIAN.)
SOLID_ANGLE_UNIT()
);
#639=SHAPE_DEFINITION_REPRESENTATION(#644,#653);
#640=SHAPE_DEFINITION_REPRESENTATION(#645,#654);
#641=SHAPE_DEFINITION_REPRESENTATION(#646,#655);
#642=SHAPE_DEFINITION_REPRESENTATION(#647,#656);
#643=SHAPE_DEFINITION_REPRESENTATION(#648,#657);
#644=PRODUCT_DEFINITION_SHAPE('',$,#659);
#645=PRODUCT_DEFINITION_SHAPE('',$,#660);
#646=PRODUCT_DEFINITION_SHAPE('',$,#661);
#647=PRODUCT_DEFINITION_SHAPE('',$,#662);
#648=PRODUCT_DEFINITION_SHAPE('',$,#663);
#649=PRODUCT_DEFINITION_SHAPE($,$,#23);
#650=PRODUCT_DEFINITION_SHAPE($,$,#24);
#651=PRODUCT_DEFINITION_SHAPE($,$,#25);
#652=PRODUCT_DEFINITION_SHAPE($,$,#26);
#653=SHAPE_REPRESENTATION('',(#395,#423,#424,#425,#426),#629);
#654=SHAPE_REPRESENTATION('',(#396),#630);
#655=SHAPE_REPRESENTATION('',(#403),#631);
#656=SHAPE_REPRESENTATION('',(#409),#632);
#657=SHAPE_REPRESENTATION('',(#416),#633);
#658=PRODUCT_DEFINITION_CONTEXT('part definition',#675,'design');
#659=PRODUCT_DEFINITION('SW2_TS-1088-AR020 v006_52710243a816',
'SW2_TS-1088-AR020 v006_52710243a816',#664,#658);
#660=PRODUCT_DEFINITION('TS-1088-AR020 v2','TS-1088-AR020 v2',#665,#658);
#661=PRODUCT_DEFINITION('TS-1088-AR020 v003','TS-1088-AR020 v003',#666,
#658);
#662=PRODUCT_DEFINITION('TS-1088-AR020 v004','TS-1088-AR020 v004',#667,
#658);
#663=PRODUCT_DEFINITION('TS-1088-AR020 v005','TS-1088-AR020 v005',#668,
#658);
#664=PRODUCT_DEFINITION_FORMATION('',$,#677);
#665=PRODUCT_DEFINITION_FORMATION('',$,#678);
#666=PRODUCT_DEFINITION_FORMATION('',$,#679);
#667=PRODUCT_DEFINITION_FORMATION('',$,#680);
#668=PRODUCT_DEFINITION_FORMATION('',$,#681);
#669=PRODUCT_RELATED_PRODUCT_CATEGORY(
'SW2_TS-1088-AR020 v006_52710243a816',
'SW2_TS-1088-AR020 v006_52710243a816',(#677));
#670=PRODUCT_RELATED_PRODUCT_CATEGORY('TS-1088-AR020 v2',
'TS-1088-AR020 v2',(#678));
#671=PRODUCT_RELATED_PRODUCT_CATEGORY('TS-1088-AR020 v003',
'TS-1088-AR020 v003',(#679));
#672=PRODUCT_RELATED_PRODUCT_CATEGORY('TS-1088-AR020 v004',
'TS-1088-AR020 v004',(#680));
#673=PRODUCT_RELATED_PRODUCT_CATEGORY('TS-1088-AR020 v005',
'TS-1088-AR020 v005',(#681));
#674=APPLICATION_PROTOCOL_DEFINITION('international standard',
'ap242_managed_model_based_3d_engineering',2011,#675);
#675=APPLICATION_CONTEXT('Managed model based 3d engineering');
#676=PRODUCT_CONTEXT('part definition',#675,'mechanical');
#677=PRODUCT('SW2_TS-1088-AR020 v006_52710243a816',
'SW2_TS-1088-AR020 v006_52710243a816',$,(#676));
#678=PRODUCT('TS-1088-AR020 v2','TS-1088-AR020 v2',$,(#676));
#679=PRODUCT('TS-1088-AR020 v003','TS-1088-AR020 v003',$,(#676));
#680=PRODUCT('TS-1088-AR020 v004','TS-1088-AR020 v004',$,(#676));
#681=PRODUCT('TS-1088-AR020 v005','TS-1088-AR020 v005',$,(#676));
#682=PRESENTATION_STYLE_ASSIGNMENT((#685));
#683=PRESENTATION_STYLE_ASSIGNMENT((#686));
#684=PRESENTATION_STYLE_ASSIGNMENT((#687));
#685=SURFACE_STYLE_USAGE(.BOTH.,#688);
#686=SURFACE_STYLE_USAGE(.BOTH.,#689);
#687=SURFACE_STYLE_USAGE(.BOTH.,#690);
#688=SURFACE_SIDE_STYLE('',(#691));
#689=SURFACE_SIDE_STYLE('',(#692));
#690=SURFACE_SIDE_STYLE('',(#693));
#691=SURFACE_STYLE_FILL_AREA(#694);
#692=SURFACE_STYLE_FILL_AREA(#695);
#693=SURFACE_STYLE_FILL_AREA(#696);
#694=FILL_AREA_STYLE('\X2\AC15CCA0\X0\ - \X2\C0C8D2F4\X0\',(#697));
#695=FILL_AREA_STYLE('Opaque(160,160,160)',(#698));
#696=FILL_AREA_STYLE('Opaque(25,25,25)',(#699));
#697=FILL_AREA_STYLE_COLOUR('\X2\AC15CCA0\X0\ - \X2\C0C8D2F4\X0\',#700);
#698=FILL_AREA_STYLE_COLOUR('Opaque(160,160,160)',#701);
#699=FILL_AREA_STYLE_COLOUR('Opaque(25,25,25)',#702);
#700=COLOUR_RGB('\X2\AC15CCA0\X0\ - \X2\C0C8D2F4\X0\',0.627450980392157,
0.627450980392157,0.627450980392157);
#701=COLOUR_RGB('Opaque(160,160,160)',0.627450980392157,0.627450980392157,
0.627450980392157);
#702=COLOUR_RGB('Opaque(25,25,25)',0.0980392156862745,0.0980392156862745,
0.0980392156862745);
ENDSEC;
END-ISO-10303-21;
