M48
; DRILL file {KiCad 9.0.0} date 2025-03-27T11:38:44+0900
; FORMAT={-:-/ absolute / inch / decimal}
; #@! TF.CreationDate,2025-03-27T11:38:44+09:00
; #@! TF.GenerationSoftware,Kicad,Pcbnew,9.0.0
; #@! TF.FileFunction,Plated,1,2,PTH
FMAT,2
INCH
; #@! TA.AperFunction,Plated,PTH,ViaDrill
T1C0.0079
; #@! TA.AperFunction,Plated,PTH,ComponentDrill
T2C0.0236
; #@! TA.AperFunction,Plated,PTH,ComponentDrill
T3C0.0354
; #@! TA.AperFunction,Plated,PTH,ComponentDrill
T4C0.0866
%
G90
G05
T1
X5.8563Y-3.248
X5.8563Y-3.2776
X5.8563Y-3.3071
X5.8858Y-3.248
X5.8858Y-3.2776
X5.8858Y-3.3071
X5.9154Y-2.8445
X5.9154Y-3.1201
X5.9154Y-3.1496
X5.9251Y-2.9061
X5.9449Y-3.1496
X5.9941Y-2.8937
X5.9941Y-2.9626
X5.9941Y-3.0413
X6.063Y-2.9626
X6.063Y-3.0413
X6.063Y-3.1181
X6.063Y-3.7598
X6.1024Y-3.1417
X6.1024Y-3.5138
X6.1024Y-3.5433
X6.1024Y-4.0861
X6.122Y-3.937
X6.122Y-4.0354
X6.1319Y-3.5138
X6.1319Y-3.5433
X6.1417Y-2.9626
X6.1417Y-3.0413
X6.1417Y-3.1181
X6.1516Y-3.937
X6.1516Y-4.0354
X6.1614Y-3.5138
X6.1614Y-3.5433
X6.1811Y-3.937
X6.1811Y-4.0354
X6.185Y-3.1417
X6.1909Y-3.5138
X6.1909Y-3.5433
X6.2106Y-3.8189
X6.2106Y-3.937
X6.2106Y-4.0354
X6.2205Y-2.9626
X6.2205Y-3.0413
X6.2205Y-3.1201
X6.2205Y-3.5138
X6.2205Y-3.5433
X6.2303Y-3.3857
X6.2402Y-3.8189
X6.2402Y-3.937
X6.2402Y-4.0354
X6.25Y-2.8642
X6.25Y-3.5138
X6.25Y-3.5433
X6.2697Y-3.8189
X6.2697Y-3.8484
X6.2697Y-3.878
X6.2795Y-2.874
X6.2795Y-3.5138
X6.2795Y-3.5433
X6.2992Y-2.937
X6.2992Y-3.0
X6.2992Y-3.063
X6.2992Y-3.1299
X6.2992Y-3.8189
X6.2992Y-3.8484
X6.2992Y-3.878
X6.3287Y-3.248
X6.3287Y-3.2776
X6.3484Y-3.3465
X6.3583Y-3.248
X6.3583Y-3.2776
X6.378Y-3.3465
X6.3878Y-3.189
X6.3878Y-3.2185
X6.3878Y-3.248
X6.3878Y-3.2776
X6.4075Y-2.5984
X6.4075Y-2.628
X6.4075Y-2.6575
X6.4075Y-2.687
X6.4075Y-2.7165
X6.4075Y-2.7461
X6.4075Y-2.7756
X6.4075Y-2.8051
X6.4075Y-3.3465
X6.4272Y-3.2776
X6.437Y-2.8051
X6.437Y-3.3465
X6.437Y-3.7106
X6.4567Y-3.2776
X6.4665Y-2.8051
X6.4862Y-3.2776
X6.4961Y-2.8051
X6.4961Y-2.9724
X6.5256Y-2.8051
X6.5256Y-3.1299
X6.5256Y-3.1594
X6.5256Y-3.189
X6.5354Y-2.9724
X6.5472Y-3.4803
X6.5472Y-3.5039
X6.5551Y-2.8051
X6.5748Y-2.9724
X6.5748Y-3.2283
X6.5748Y-3.7894
X6.5846Y-2.8051
X6.5846Y-3.3169
X6.6043Y-3.2283
X6.6043Y-3.7894
X6.6142Y-2.8051
X6.6142Y-2.9724
X6.6142Y-3.3169
X6.6142Y-3.5433
X6.6142Y-3.5827
X6.6339Y-3.2283
X6.6339Y-3.7894
X6.6437Y-3.3169
X6.6437Y-3.3465
X6.6437Y-3.376
X6.6437Y-3.4055
X6.6437Y-3.5433
X6.6437Y-3.5827
X6.6535Y-2.9724
X6.6634Y-3.2283
X6.6634Y-3.7894
X6.6732Y-2.8346
X6.6732Y-3.3169
X6.6732Y-3.5433
X6.6732Y-3.5827
X6.6929Y-3.2283
X6.7028Y-3.5433
X6.7028Y-3.5827
X6.7224Y-3.2283
X6.7224Y-4.0748
X6.752Y-3.2283
X6.752Y-3.3957
X6.7717Y-3.4154
X6.7815Y-3.2283
X6.7815Y-3.2972
X6.7815Y-3.8386
X6.7913Y-4.0354
X6.8091Y-3.6122
X6.811Y-2.9626
X6.811Y-3.8878
X6.8307Y-4.0354
X6.8406Y-2.7953
X6.8465Y-3.2579
X6.8701Y-3.376
X6.8701Y-4.0354
X6.8799Y-3.1752
X6.8898Y-3.0118
X6.8898Y-3.5335
X6.9094Y-4.0354
X6.9291Y-3.0118
X6.9291Y-3.5335
X6.9488Y-4.0354
X6.9685Y-3.0118
X6.9685Y-3.5335
X6.9882Y-4.0354
X7.0079Y-3.0118
X7.0079Y-3.5335
X7.0472Y-3.0118
X7.0472Y-3.5335
X7.0866Y-3.0118
X7.0866Y-3.5335
X7.126Y-3.0118
X7.126Y-3.5335
X7.1654Y-3.0118
X7.1654Y-3.5335
T3
X5.874Y-3.5827
X5.874Y-3.6811
X5.874Y-3.7795
X6.0039Y-3.5827
X6.0039Y-3.6811
X6.0039Y-3.7795
T4
X5.937Y-4.0276
X6.5354Y-2.6772
X7.1063Y-4.0276
T2
G00X6.9201Y-3.0976
M15
G01X6.9634Y-3.0976
M16
G05
G00X6.9201Y-3.4378
M15
G01X6.9634Y-3.4378
M16
G05
G00X7.0906Y-3.0976
M15
G01X7.122Y-3.0976
M16
G05
G00X7.0906Y-3.4378
M15
G01X7.122Y-3.4378
M16
G05
M30
