M48
; DRILL file {KiCad 9.0.0} date 2025-03-07T19:53:28+0900
; FORMAT={-:-/ absolute / inch / decimal}
; #@! TF.CreationDate,2025-03-07T19:53:28+09:00
; #@! TF.GenerationSoftware,Kicad,Pcbnew,9.0.0
; #@! TF.FileFunction,Plated,1,2,PTH
FMAT,2
INCH
; #@! TA.AperFunction,Plated,PTH,ViaDrill
T1C0.0039
; #@! TA.AperFunction,Plated,PTH,ViaDrill
T2C0.0079
; #@! TA.AperFunction,Plated,PTH,ComponentDrill
T3C0.0079
; #@! TA.AperFunction,Plated,PTH,ComponentDrill
T4C0.0236
; #@! TA.AperFunction,Plated,PTH,ComponentDrill
T5C0.0300
; #@! TA.AperFunction,Plated,PTH,ComponentDrill
T6C0.0866
%
G90
G05
T1
X6.3819Y-3.126
X6.4016Y-3.0669
X6.4388Y-3.3533
X6.4705Y-4.0714
X6.5315Y-3.4163
X6.5367Y-4.0721
X6.5807Y-3.8981
X6.6476Y-3.8976
X6.8622Y-3.0433
T2
X5.9094Y-2.8976
X6.061Y-3.2559
X6.0748Y-3.7087
X6.2126Y-3.6732
X6.2717Y-3.7224
X6.2756Y-3.6535
X6.3031Y-3.8819
X6.3819Y-3.6614
X6.5774Y-3.5998
X6.5787Y-3.5512
X6.5984Y-3.4843
X6.6772Y-3.7087
X6.753Y-3.7766
X6.8287Y-3.3957
X6.8335Y-3.25
X6.8386Y-2.8622
X6.876Y-3.4862
X7.0138Y-3.4311
T3
X6.1183Y-3.7711
X6.1183Y-3.7986
X6.1478Y-3.7711
X6.1478Y-3.7986
X6.1774Y-3.7711
X6.1774Y-3.7986
X6.3937Y-3.5276
X6.3937Y-3.5748
X6.3937Y-3.622
X6.4488Y-3.5276
X6.4488Y-3.5748
X6.4488Y-3.622
T5
X5.9409Y-3.5906
X5.9409Y-3.689
X5.9409Y-3.7874
T6
X5.937Y-4.0276
X7.1063Y-4.0276
T4
G00X6.9191Y-2.5976
M15
G01X6.9624Y-2.5976
M16
G05
G00X6.9191Y-2.9378
M15
G01X6.9624Y-2.9378
M16
G05
G00X7.0896Y-2.5976
M15
G01X7.1211Y-2.5976
M16
G05
G00X7.0896Y-2.9378
M15
G01X7.1211Y-2.9378
M16
G05
M30
