%TF.GenerationSoftware,KiCad,Pcbnew,9.0.0*%
%TF.CreationDate,2025-03-27T11:38:57+09:00*%
%TF.ProjectId,hotdoggu_smolSlimeVR,686f7464-6f67-4677-955f-736d6f6c536c,rev?*%
%TF.SameCoordinates,Original*%
%TF.FileFunction,Legend,Bot*%
%TF.FilePolarity,Positive*%
%FSLAX46Y46*%
G04 Gerber Fmt 4.6, Leading zero omitted, Abs format (unit mm)*
G04 Created by KiCad (PCBNEW 9.0.0) date 2025-03-27 11:38:57*
%MOMM*%
%LPD*%
G01*
G04 APERTURE LIST*
%ADD10C,0.250000*%
G04 APERTURE END LIST*
D10*
G36*
X167000650Y-100578824D02*
G01*
X167027724Y-100582942D01*
X167053108Y-100590803D01*
X167077086Y-100602409D01*
X167098757Y-100617287D01*
X167117953Y-100635218D01*
X167134266Y-100655790D01*
X167156912Y-100702770D01*
X167165160Y-100754668D01*
X167164310Y-100770177D01*
X167159734Y-100797164D01*
X167151450Y-100822625D01*
X167124729Y-100867646D01*
X167086883Y-100902000D01*
X167040802Y-100923562D01*
X166988756Y-100931011D01*
X166972809Y-100930367D01*
X166945796Y-100926175D01*
X166920561Y-100918313D01*
X166897070Y-100906885D01*
X166875914Y-100892249D01*
X166841604Y-100854421D01*
X166819911Y-100807636D01*
X166812412Y-100754668D01*
X166813068Y-100738547D01*
X166817260Y-100711479D01*
X166825124Y-100686045D01*
X166836415Y-100662565D01*
X166850904Y-100641333D01*
X166887944Y-100607228D01*
X166933678Y-100585729D01*
X166959024Y-100580174D01*
X166986008Y-100578264D01*
X167000650Y-100578824D01*
G37*
G36*
X171421446Y-100578824D02*
G01*
X171448519Y-100582942D01*
X171473904Y-100590803D01*
X171497881Y-100602409D01*
X171519553Y-100617287D01*
X171538749Y-100635218D01*
X171555062Y-100655790D01*
X171577707Y-100702770D01*
X171585956Y-100754668D01*
X171585106Y-100770177D01*
X171580529Y-100797164D01*
X171572245Y-100822625D01*
X171545524Y-100867646D01*
X171507678Y-100902000D01*
X171461598Y-100923562D01*
X171409551Y-100931011D01*
X171393605Y-100930367D01*
X171366592Y-100926175D01*
X171341357Y-100918313D01*
X171317866Y-100906885D01*
X171296710Y-100892249D01*
X171262400Y-100854421D01*
X171240706Y-100807636D01*
X171233208Y-100754668D01*
X171233864Y-100738547D01*
X171238055Y-100711479D01*
X171245919Y-100686045D01*
X171257211Y-100662565D01*
X171271699Y-100641333D01*
X171308740Y-100607228D01*
X171354474Y-100585729D01*
X171379820Y-100580174D01*
X171406803Y-100578264D01*
X171421446Y-100578824D01*
G37*
G36*
X170681646Y-100903656D02*
G01*
X170546275Y-100903656D01*
X170473687Y-100898026D01*
X170410213Y-100880387D01*
X170359440Y-100851692D01*
X170337885Y-100832922D01*
X170318901Y-100811141D01*
X170301921Y-100785282D01*
X170287748Y-100756075D01*
X170275725Y-100721103D01*
X170266948Y-100682187D01*
X170261117Y-100635376D01*
X170259167Y-100583759D01*
X170264513Y-100501361D01*
X170281645Y-100428541D01*
X170308949Y-100372025D01*
X170326366Y-100348700D01*
X170346343Y-100328391D01*
X170369607Y-100310557D01*
X170395556Y-100295826D01*
X170426295Y-100283435D01*
X170460068Y-100274479D01*
X170500695Y-100268517D01*
X170544931Y-100266549D01*
X170681646Y-100266549D01*
X170681646Y-100903656D01*
G37*
G36*
X169473318Y-98809991D02*
G01*
X169497106Y-98813874D01*
X169518814Y-98821276D01*
X169539087Y-98832471D01*
X169557072Y-98847058D01*
X169573808Y-98866278D01*
X169587837Y-98888940D01*
X169599966Y-98917158D01*
X169608820Y-98948833D01*
X169614619Y-98986206D01*
X169616564Y-99026796D01*
X169615084Y-99062194D01*
X169602774Y-99126505D01*
X169580329Y-99174572D01*
X169549331Y-99208549D01*
X169530556Y-99220761D01*
X169509557Y-99229719D01*
X169485599Y-99235405D01*
X169459333Y-99237334D01*
X169444134Y-99236713D01*
X169397680Y-99225534D01*
X169377394Y-99214730D01*
X169359356Y-99200619D01*
X169342873Y-99182335D01*
X169329003Y-99160650D01*
X169317111Y-99133771D01*
X169308380Y-99103296D01*
X169302635Y-99066910D01*
X169300697Y-99026796D01*
X169302536Y-98987116D01*
X169315639Y-98921966D01*
X169338888Y-98872994D01*
X169370470Y-98838419D01*
X169389306Y-98826076D01*
X169410221Y-98817037D01*
X169433741Y-98811349D01*
X169459333Y-98809420D01*
X169473318Y-98809991D01*
G37*
G36*
X170324260Y-98809991D02*
G01*
X170348048Y-98813874D01*
X170369756Y-98821276D01*
X170390029Y-98832471D01*
X170408014Y-98847058D01*
X170424750Y-98866278D01*
X170438779Y-98888940D01*
X170450908Y-98917158D01*
X170459762Y-98948833D01*
X170465561Y-98986206D01*
X170467506Y-99026796D01*
X170466026Y-99062194D01*
X170453716Y-99126505D01*
X170431272Y-99174572D01*
X170400273Y-99208549D01*
X170381498Y-99220761D01*
X170360499Y-99229719D01*
X170336541Y-99235405D01*
X170310275Y-99237334D01*
X170295076Y-99236713D01*
X170248622Y-99225534D01*
X170228336Y-99214730D01*
X170210298Y-99200619D01*
X170193815Y-99182335D01*
X170179945Y-99160650D01*
X170168053Y-99133771D01*
X170159323Y-99103296D01*
X170153577Y-99066910D01*
X170151639Y-99026796D01*
X170153478Y-98987116D01*
X170166582Y-98921966D01*
X170189830Y-98872994D01*
X170221412Y-98838419D01*
X170240248Y-98826076D01*
X170261163Y-98817037D01*
X170284684Y-98811349D01*
X170310275Y-98809420D01*
X170324260Y-98809991D01*
G37*
G36*
X161187511Y-98806380D02*
G01*
X161211443Y-98815294D01*
X161233091Y-98827557D01*
X161252503Y-98843100D01*
X161269086Y-98861408D01*
X161292776Y-98904860D01*
X161302294Y-98954317D01*
X160986488Y-98954317D01*
X160993266Y-98905226D01*
X161001924Y-98882370D01*
X161013805Y-98861805D01*
X161046221Y-98828594D01*
X161066313Y-98816363D01*
X161088722Y-98807337D01*
X161113234Y-98801749D01*
X161139628Y-98799834D01*
X161187511Y-98806380D01*
G37*
G36*
X165169123Y-98803450D02*
G01*
X165192566Y-98807866D01*
X165213957Y-98815833D01*
X165234222Y-98827815D01*
X165252187Y-98843256D01*
X165269089Y-98863684D01*
X165283233Y-98887606D01*
X165295506Y-98917362D01*
X165304439Y-98950514D01*
X165310263Y-98989237D01*
X165312212Y-99030887D01*
X165309490Y-99079370D01*
X165295038Y-99144860D01*
X165270868Y-99194314D01*
X165239030Y-99229039D01*
X165199877Y-99250317D01*
X165177079Y-99255932D01*
X165152233Y-99257850D01*
X165137501Y-99257175D01*
X165114212Y-99253053D01*
X165092971Y-99245365D01*
X165072820Y-99233644D01*
X165054961Y-99218448D01*
X165038104Y-99198195D01*
X165024002Y-99174422D01*
X165011721Y-99144684D01*
X165002788Y-99111522D01*
X164996952Y-99072667D01*
X164995001Y-99030887D01*
X164997592Y-98982520D01*
X165011753Y-98916068D01*
X165035496Y-98866224D01*
X165066764Y-98831404D01*
X165105247Y-98810121D01*
X165127716Y-98804501D01*
X165152233Y-98802581D01*
X165169123Y-98803450D01*
G37*
G36*
X171154050Y-98803450D02*
G01*
X171177493Y-98807866D01*
X171198884Y-98815833D01*
X171219149Y-98827815D01*
X171237114Y-98843256D01*
X171254016Y-98863684D01*
X171268159Y-98887606D01*
X171280433Y-98917362D01*
X171289366Y-98950514D01*
X171295190Y-98989237D01*
X171297138Y-99030887D01*
X171294416Y-99079370D01*
X171279965Y-99144860D01*
X171255794Y-99194314D01*
X171223957Y-99229039D01*
X171184804Y-99250317D01*
X171162006Y-99255932D01*
X171137159Y-99257850D01*
X171122428Y-99257175D01*
X171099139Y-99253053D01*
X171077898Y-99245365D01*
X171057746Y-99233644D01*
X171039888Y-99218448D01*
X171023030Y-99198195D01*
X171008929Y-99174422D01*
X170996648Y-99144684D01*
X170987715Y-99111522D01*
X170981878Y-99072667D01*
X170979928Y-99030887D01*
X170982519Y-98982520D01*
X170996679Y-98916068D01*
X171020423Y-98866224D01*
X171051690Y-98831404D01*
X171090173Y-98810121D01*
X171112643Y-98804501D01*
X171137159Y-98802581D01*
X171154050Y-98803450D01*
G37*
G36*
X173345396Y-98803450D02*
G01*
X173368840Y-98807866D01*
X173390231Y-98815833D01*
X173410496Y-98827815D01*
X173428461Y-98843256D01*
X173445362Y-98863684D01*
X173459506Y-98887606D01*
X173471779Y-98917362D01*
X173480713Y-98950514D01*
X173486537Y-98989237D01*
X173488485Y-99030887D01*
X173485763Y-99079370D01*
X173471312Y-99144860D01*
X173447141Y-99194314D01*
X173415303Y-99229039D01*
X173376151Y-99250317D01*
X173353353Y-99255932D01*
X173328506Y-99257850D01*
X173313775Y-99257175D01*
X173290486Y-99253053D01*
X173269245Y-99245365D01*
X173249093Y-99233644D01*
X173231234Y-99218448D01*
X173214377Y-99198195D01*
X173200275Y-99174422D01*
X173187995Y-99144684D01*
X173179062Y-99111522D01*
X173173225Y-99072667D01*
X173171275Y-99030887D01*
X173173866Y-98982520D01*
X173188026Y-98916068D01*
X173211770Y-98866224D01*
X173243037Y-98831404D01*
X173281520Y-98810121D01*
X173303990Y-98804501D01*
X173328506Y-98802581D01*
X173345396Y-98803450D01*
G37*
G36*
X172005976Y-98810021D02*
G01*
X172029703Y-98813949D01*
X172051356Y-98821392D01*
X172071568Y-98832624D01*
X172089500Y-98847252D01*
X172106189Y-98866529D01*
X172120182Y-98889268D01*
X172132289Y-98917619D01*
X172141130Y-98949475D01*
X172146929Y-98987155D01*
X172148874Y-99028140D01*
X172146682Y-99072092D01*
X172133066Y-99137975D01*
X172109617Y-99187437D01*
X172078309Y-99222136D01*
X172039402Y-99243445D01*
X172016555Y-99249089D01*
X171991643Y-99251011D01*
X171975055Y-99250183D01*
X171951644Y-99245877D01*
X171930184Y-99238034D01*
X171910076Y-99226357D01*
X171892168Y-99211234D01*
X171875534Y-99191475D01*
X171861539Y-99168197D01*
X171849508Y-99139474D01*
X171840690Y-99107190D01*
X171834945Y-99069360D01*
X171833007Y-99028140D01*
X171834895Y-98987574D01*
X171848049Y-98922126D01*
X171871289Y-98873045D01*
X171902826Y-98838438D01*
X171921641Y-98826086D01*
X171942531Y-98817045D01*
X171966051Y-98811350D01*
X171991643Y-98809420D01*
X172005976Y-98810021D01*
G37*
G36*
X159524633Y-98881838D02*
G01*
X159379736Y-98881838D01*
X159370796Y-98881745D01*
X159306336Y-98874005D01*
X159260285Y-98855822D01*
X159227912Y-98828047D01*
X159215864Y-98809662D01*
X159207095Y-98788618D01*
X159201199Y-98762334D01*
X159199241Y-98732850D01*
X159199331Y-98726124D01*
X159207363Y-98675045D01*
X159227319Y-98635879D01*
X159242081Y-98619750D01*
X159259992Y-98606200D01*
X159282660Y-98594612D01*
X159308976Y-98586084D01*
X159342123Y-98580308D01*
X159379736Y-98578367D01*
X159524633Y-98578367D01*
X159524633Y-98881838D01*
G37*
G36*
X174791652Y-101218677D02*
G01*
X158826762Y-101218677D01*
X158826762Y-100910495D01*
X162832292Y-100910495D01*
X162832292Y-101080000D01*
X163540474Y-101080000D01*
X163541878Y-100931011D01*
X163186383Y-100604275D01*
X163119651Y-100537442D01*
X163075047Y-100481402D01*
X163051922Y-100433565D01*
X163046118Y-100408819D01*
X163044173Y-100382747D01*
X163049257Y-100342928D01*
X163057167Y-100321177D01*
X163068402Y-100301735D01*
X163083222Y-100284213D01*
X163101020Y-100269436D01*
X163122277Y-100257183D01*
X163146097Y-100248187D01*
X163172751Y-100242523D01*
X163201404Y-100240598D01*
X163251142Y-100246930D01*
X163293865Y-100266206D01*
X163311339Y-100280287D01*
X163326080Y-100297168D01*
X163338109Y-100317080D01*
X163346974Y-100339609D01*
X163352621Y-100365408D01*
X163354544Y-100393677D01*
X163550061Y-100393677D01*
X163549664Y-100373372D01*
X163546055Y-100336697D01*
X163538827Y-100302042D01*
X163528115Y-100269490D01*
X163514060Y-100239143D01*
X163496614Y-100210821D01*
X163476043Y-100184935D01*
X163452029Y-100161172D01*
X163425076Y-100140132D01*
X163394621Y-100121531D01*
X163361412Y-100105990D01*
X163324776Y-100093374D01*
X163311269Y-100090205D01*
X163646598Y-100090205D01*
X163988354Y-101080000D01*
X164252259Y-101080000D01*
X165623743Y-101080000D01*
X165861636Y-101080000D01*
X166066739Y-100739586D01*
X166073578Y-100739586D01*
X166278620Y-101080000D01*
X166515169Y-101080000D01*
X166307693Y-100749173D01*
X166612805Y-100749173D01*
X166613115Y-100754668D01*
X166615276Y-100792924D01*
X166621462Y-100829833D01*
X166631260Y-100864977D01*
X166644565Y-100898267D01*
X166661223Y-100929479D01*
X166681176Y-100958560D01*
X166704232Y-100985240D01*
X166730376Y-101009467D01*
X166759371Y-101030959D01*
X166791224Y-101049634D01*
X166825672Y-101065233D01*
X166862709Y-101077634D01*
X166902073Y-101086616D01*
X166943718Y-101092026D01*
X166987412Y-101093677D01*
X167026129Y-101091948D01*
X167094933Y-101080000D01*
X167599180Y-101080000D01*
X167805626Y-101080000D01*
X167805626Y-100285722D01*
X167811121Y-100285722D01*
X168038084Y-100427871D01*
X168038084Y-100246032D01*
X167793353Y-100090205D01*
X168131873Y-100090205D01*
X168473630Y-101080000D01*
X168737534Y-101080000D01*
X168835635Y-100797044D01*
X169157998Y-100797044D01*
X169158476Y-100815091D01*
X169169428Y-100881404D01*
X169180115Y-100911483D01*
X169194187Y-100939563D01*
X169211770Y-100965826D01*
X169232659Y-100989882D01*
X169257450Y-101012186D01*
X169285559Y-101031992D01*
X169318081Y-101049775D01*
X169353984Y-101064684D01*
X169394724Y-101077011D01*
X169438907Y-101086025D01*
X169488117Y-101091744D01*
X169540788Y-101093677D01*
X169597022Y-101091518D01*
X169687119Y-101077320D01*
X169761708Y-101051602D01*
X169822215Y-101015819D01*
X169869945Y-100970558D01*
X169889298Y-100944264D01*
X169905603Y-100915484D01*
X169918939Y-100883753D01*
X169928947Y-100849492D01*
X169935671Y-100811588D01*
X169938660Y-100771032D01*
X169739052Y-100771032D01*
X169728576Y-100820109D01*
X169718154Y-100841677D01*
X169704585Y-100860681D01*
X169687058Y-100877965D01*
X169666485Y-100892372D01*
X169641159Y-100904680D01*
X169612870Y-100913624D01*
X169579550Y-100919473D01*
X169543536Y-100921425D01*
X169482938Y-100915443D01*
X169431462Y-100897452D01*
X169395239Y-100870657D01*
X169373377Y-100837047D01*
X169367714Y-100817771D01*
X169365788Y-100797044D01*
X169368554Y-100773864D01*
X169375178Y-100756429D01*
X169385620Y-100740864D01*
X169403377Y-100724092D01*
X169426471Y-100709383D01*
X169474587Y-100688975D01*
X169535354Y-100671259D01*
X169643370Y-100645247D01*
X169730662Y-100617390D01*
X169796008Y-100583759D01*
X170054125Y-100583759D01*
X170059322Y-100671473D01*
X170078085Y-100763856D01*
X170109198Y-100843916D01*
X170151745Y-100912338D01*
X170205370Y-100969602D01*
X170236474Y-100994165D01*
X170270236Y-101015773D01*
X170307245Y-101034660D01*
X170346874Y-101050358D01*
X170390112Y-101063064D01*
X170435960Y-101072286D01*
X170485724Y-101078058D01*
X170538093Y-101080000D01*
X170886749Y-101080000D01*
X170886749Y-100749173D01*
X171033600Y-100749173D01*
X171033910Y-100754668D01*
X171036072Y-100792924D01*
X171042257Y-100829833D01*
X171052056Y-100864977D01*
X171065360Y-100898267D01*
X171082019Y-100929479D01*
X171101972Y-100958560D01*
X171125028Y-100985240D01*
X171151171Y-101009467D01*
X171180166Y-101030959D01*
X171212020Y-101049634D01*
X171246467Y-101065233D01*
X171283504Y-101077634D01*
X171322868Y-101086616D01*
X171364513Y-101092026D01*
X171408208Y-101093677D01*
X171446925Y-101091948D01*
X171515728Y-101080000D01*
X171952259Y-101080000D01*
X172151866Y-101080000D01*
X172151866Y-100431962D01*
X172160109Y-100431962D01*
X172418457Y-101075908D01*
X172555172Y-101075908D01*
X172813581Y-100429275D01*
X172821824Y-100429275D01*
X172821824Y-101080000D01*
X173021432Y-101080000D01*
X173021432Y-100797044D01*
X173154788Y-100797044D01*
X173155266Y-100815091D01*
X173166218Y-100881404D01*
X173176905Y-100911483D01*
X173190977Y-100939563D01*
X173208560Y-100965826D01*
X173229449Y-100989882D01*
X173254240Y-101012186D01*
X173282349Y-101031992D01*
X173314871Y-101049775D01*
X173350774Y-101064684D01*
X173391514Y-101077011D01*
X173435697Y-101086025D01*
X173484907Y-101091744D01*
X173537578Y-101093677D01*
X173593812Y-101091518D01*
X173683909Y-101077320D01*
X173758498Y-101051602D01*
X173819005Y-101015819D01*
X173866735Y-100970558D01*
X173886088Y-100944264D01*
X173902393Y-100915484D01*
X173904490Y-100910495D01*
X174034979Y-100910495D01*
X174034979Y-101080000D01*
X174666652Y-101080000D01*
X174666652Y-100090205D01*
X174461549Y-100090205D01*
X174461549Y-100910495D01*
X174034979Y-100910495D01*
X173904490Y-100910495D01*
X173915729Y-100883753D01*
X173925737Y-100849492D01*
X173932461Y-100811588D01*
X173935450Y-100771032D01*
X173735842Y-100771032D01*
X173725366Y-100820109D01*
X173714944Y-100841677D01*
X173701375Y-100860681D01*
X173683847Y-100877965D01*
X173663275Y-100892372D01*
X173637948Y-100904680D01*
X173609660Y-100913624D01*
X173576340Y-100919473D01*
X173540326Y-100921425D01*
X173479728Y-100915443D01*
X173428252Y-100897452D01*
X173392029Y-100870657D01*
X173370167Y-100837047D01*
X173364504Y-100817771D01*
X173362578Y-100797044D01*
X173365344Y-100773864D01*
X173371968Y-100756429D01*
X173382410Y-100740864D01*
X173400166Y-100724092D01*
X173423261Y-100709383D01*
X173471377Y-100688975D01*
X173532144Y-100671259D01*
X173640160Y-100645247D01*
X173727452Y-100617390D01*
X173795180Y-100582533D01*
X173845109Y-100541906D01*
X173880200Y-100495104D01*
X173892713Y-100468885D01*
X173901838Y-100440600D01*
X173907564Y-100409397D01*
X173909499Y-100375908D01*
X173909157Y-100361489D01*
X173905608Y-100328062D01*
X173898339Y-100296298D01*
X173887276Y-100265744D01*
X173872694Y-100237107D01*
X173854193Y-100209743D01*
X173832333Y-100184619D01*
X173806418Y-100161127D01*
X173777324Y-100140257D01*
X173744263Y-100121632D01*
X173708275Y-100106038D01*
X173668766Y-100093384D01*
X173626684Y-100084157D01*
X173581853Y-100078458D01*
X173534891Y-100076528D01*
X173513033Y-100076940D01*
X173425512Y-100087700D01*
X173349922Y-100111617D01*
X173286982Y-100146793D01*
X173237040Y-100191571D01*
X173200309Y-100244716D01*
X173187006Y-100274165D01*
X173177182Y-100305434D01*
X173170944Y-100338536D01*
X173168466Y-100373222D01*
X173365326Y-100373222D01*
X173370596Y-100346565D01*
X173378787Y-100325879D01*
X173390231Y-100307426D01*
X173405267Y-100290885D01*
X173423490Y-100276919D01*
X173446004Y-100265105D01*
X173471767Y-100256397D01*
X173502359Y-100250709D01*
X173536235Y-100248780D01*
X173578172Y-100251663D01*
X173630622Y-100266289D01*
X173667582Y-100290564D01*
X173680722Y-100305730D01*
X173690362Y-100322702D01*
X173696537Y-100341741D01*
X173698900Y-100362231D01*
X173696138Y-100386508D01*
X173689001Y-100404657D01*
X173677930Y-100420710D01*
X173659024Y-100438239D01*
X173635445Y-100453016D01*
X173590849Y-100471549D01*
X173540326Y-100485329D01*
X173451482Y-100507189D01*
X173417961Y-100515547D01*
X173333133Y-100545565D01*
X173267616Y-100582327D01*
X173218576Y-100625101D01*
X173183818Y-100674153D01*
X173171441Y-100701363D01*
X173162356Y-100730767D01*
X173156711Y-100762720D01*
X173154788Y-100797044D01*
X173021432Y-100797044D01*
X173021432Y-100090205D01*
X172767114Y-100090205D01*
X172492280Y-100761446D01*
X172481350Y-100761446D01*
X172206577Y-100090205D01*
X171952259Y-100090205D01*
X171952259Y-101080000D01*
X171515728Y-101080000D01*
X171525333Y-101078332D01*
X171594329Y-101052167D01*
X171654119Y-101014035D01*
X171705002Y-100963670D01*
X171727075Y-100933615D01*
X171746880Y-100899957D01*
X171764274Y-100862460D01*
X171779001Y-100821087D01*
X171791016Y-100775046D01*
X171799892Y-100724759D01*
X171805504Y-100668914D01*
X171807423Y-100608367D01*
X171804393Y-100530981D01*
X171788388Y-100423061D01*
X171760335Y-100330931D01*
X171721913Y-100253943D01*
X171674372Y-100191283D01*
X171618422Y-100142235D01*
X171587332Y-100122671D01*
X171554231Y-100106467D01*
X171518847Y-100093579D01*
X171481567Y-100084249D01*
X171441699Y-100078470D01*
X171400026Y-100076528D01*
X171333975Y-100081352D01*
X171294886Y-100089194D01*
X171258142Y-100100504D01*
X171223598Y-100115202D01*
X171191675Y-100133004D01*
X171162289Y-100153858D01*
X171135804Y-100177432D01*
X171112237Y-100203642D01*
X171091847Y-100232163D01*
X171074738Y-100262815D01*
X171061063Y-100295345D01*
X171050965Y-100329445D01*
X171044530Y-100364979D01*
X171246885Y-100364979D01*
X171249031Y-100356792D01*
X171257557Y-100334217D01*
X171269222Y-100314093D01*
X171283965Y-100296439D01*
X171301518Y-100281570D01*
X171322167Y-100269402D01*
X171345350Y-100260458D01*
X171371570Y-100254796D01*
X171400026Y-100252871D01*
X171409153Y-100253063D01*
X171461345Y-100262649D01*
X171484883Y-100272878D01*
X171506389Y-100286570D01*
X171526856Y-100304640D01*
X171545026Y-100326305D01*
X171562051Y-100353590D01*
X171576354Y-100384749D01*
X171588771Y-100422761D01*
X171597923Y-100464929D01*
X171604089Y-100514656D01*
X171606411Y-100568677D01*
X171596885Y-100568677D01*
X171579234Y-100539881D01*
X171559330Y-100515754D01*
X171536397Y-100494333D01*
X171509876Y-100475184D01*
X171480805Y-100459181D01*
X171449022Y-100446284D01*
X171415325Y-100436908D01*
X171343911Y-100429275D01*
X171338638Y-100429315D01*
X171302065Y-100431819D01*
X171267037Y-100438101D01*
X171233506Y-100448072D01*
X171201913Y-100461527D01*
X171172314Y-100478375D01*
X171145049Y-100498385D01*
X171120285Y-100521401D01*
X171098237Y-100547231D01*
X171079147Y-100575608D01*
X171063134Y-100606429D01*
X171050449Y-100639321D01*
X171041175Y-100674283D01*
X171035524Y-100710877D01*
X171033600Y-100749173D01*
X170886749Y-100749173D01*
X170886749Y-100090205D01*
X170534002Y-100090205D01*
X170454334Y-100094927D01*
X170365257Y-100113291D01*
X170287475Y-100144321D01*
X170220479Y-100187226D01*
X170190884Y-100213075D01*
X170163997Y-100241760D01*
X170139638Y-100273573D01*
X170118182Y-100308150D01*
X170099372Y-100346166D01*
X170083721Y-100386912D01*
X170071040Y-100431416D01*
X170061829Y-100478635D01*
X170056065Y-100529848D01*
X170054125Y-100583759D01*
X169796008Y-100583759D01*
X169798390Y-100582533D01*
X169848319Y-100541906D01*
X169883410Y-100495104D01*
X169895923Y-100468885D01*
X169905049Y-100440600D01*
X169910774Y-100409397D01*
X169912709Y-100375908D01*
X169912367Y-100361489D01*
X169908818Y-100328062D01*
X169901549Y-100296298D01*
X169890486Y-100265744D01*
X169875904Y-100237107D01*
X169857403Y-100209743D01*
X169835543Y-100184619D01*
X169809628Y-100161127D01*
X169780534Y-100140257D01*
X169747473Y-100121632D01*
X169711485Y-100106038D01*
X169671976Y-100093384D01*
X169629894Y-100084157D01*
X169585063Y-100078458D01*
X169538101Y-100076528D01*
X169516243Y-100076940D01*
X169428722Y-100087700D01*
X169353132Y-100111617D01*
X169290192Y-100146793D01*
X169240250Y-100191571D01*
X169203519Y-100244716D01*
X169190216Y-100274165D01*
X169180392Y-100305434D01*
X169174154Y-100338536D01*
X169171676Y-100373222D01*
X169368536Y-100373222D01*
X169373806Y-100346565D01*
X169381997Y-100325879D01*
X169393441Y-100307426D01*
X169408477Y-100290885D01*
X169426700Y-100276919D01*
X169449215Y-100265105D01*
X169474977Y-100256397D01*
X169505569Y-100250709D01*
X169539445Y-100248780D01*
X169581382Y-100251663D01*
X169633832Y-100266289D01*
X169670792Y-100290564D01*
X169683932Y-100305730D01*
X169693572Y-100322702D01*
X169699747Y-100341741D01*
X169702110Y-100362231D01*
X169699348Y-100386508D01*
X169692211Y-100404657D01*
X169681140Y-100420710D01*
X169662234Y-100438239D01*
X169638655Y-100453016D01*
X169594059Y-100471549D01*
X169543536Y-100485329D01*
X169454692Y-100507189D01*
X169421171Y-100515547D01*
X169336343Y-100545565D01*
X169270826Y-100582327D01*
X169221786Y-100625101D01*
X169187028Y-100674153D01*
X169174651Y-100701363D01*
X169165566Y-100730767D01*
X169159921Y-100762720D01*
X169157998Y-100797044D01*
X168835635Y-100797044D01*
X169080696Y-100090205D01*
X168850985Y-100090205D01*
X168610345Y-100844855D01*
X168600819Y-100844855D01*
X168358775Y-100090205D01*
X168131873Y-100090205D01*
X167793353Y-100090205D01*
X167599180Y-100090205D01*
X167599180Y-101080000D01*
X167094933Y-101080000D01*
X167104538Y-101078332D01*
X167173533Y-101052167D01*
X167233324Y-101014035D01*
X167284207Y-100963670D01*
X167306280Y-100933615D01*
X167326085Y-100899957D01*
X167343478Y-100862460D01*
X167358206Y-100821087D01*
X167370221Y-100775046D01*
X167379096Y-100724759D01*
X167384709Y-100668914D01*
X167386627Y-100608367D01*
X167383597Y-100530981D01*
X167367593Y-100423061D01*
X167339539Y-100330931D01*
X167301117Y-100253943D01*
X167253577Y-100191283D01*
X167197627Y-100142235D01*
X167166536Y-100122671D01*
X167133436Y-100106467D01*
X167098051Y-100093579D01*
X167060771Y-100084249D01*
X167020904Y-100078470D01*
X166979230Y-100076528D01*
X166913180Y-100081352D01*
X166874091Y-100089194D01*
X166837347Y-100100504D01*
X166802803Y-100115202D01*
X166770879Y-100133004D01*
X166741493Y-100153858D01*
X166715009Y-100177432D01*
X166691442Y-100203642D01*
X166671051Y-100232163D01*
X166653943Y-100262815D01*
X166640267Y-100295345D01*
X166630170Y-100329445D01*
X166623735Y-100364979D01*
X166826090Y-100364979D01*
X166828235Y-100356792D01*
X166836761Y-100334217D01*
X166848427Y-100314093D01*
X166863170Y-100296439D01*
X166880722Y-100281570D01*
X166901372Y-100269402D01*
X166924554Y-100260458D01*
X166950774Y-100254796D01*
X166979230Y-100252871D01*
X166988357Y-100253063D01*
X167040549Y-100262649D01*
X167064087Y-100272878D01*
X167085594Y-100286570D01*
X167106060Y-100304640D01*
X167124231Y-100326305D01*
X167141256Y-100353590D01*
X167155558Y-100384749D01*
X167167975Y-100422761D01*
X167177128Y-100464929D01*
X167183293Y-100514656D01*
X167185615Y-100568677D01*
X167176090Y-100568677D01*
X167158438Y-100539881D01*
X167138534Y-100515754D01*
X167115602Y-100494333D01*
X167089080Y-100475184D01*
X167060009Y-100459181D01*
X167028226Y-100446284D01*
X166994530Y-100436908D01*
X166923115Y-100429275D01*
X166917843Y-100429315D01*
X166881270Y-100431819D01*
X166846241Y-100438101D01*
X166812710Y-100448072D01*
X166781118Y-100461527D01*
X166751519Y-100478375D01*
X166724253Y-100498385D01*
X166699489Y-100521401D01*
X166677442Y-100547231D01*
X166658352Y-100575608D01*
X166642339Y-100606429D01*
X166629653Y-100639321D01*
X166620379Y-100674283D01*
X166614729Y-100710877D01*
X166612805Y-100749173D01*
X166307693Y-100749173D01*
X166204797Y-100585102D01*
X166509673Y-100090205D01*
X166275872Y-100090205D01*
X166073578Y-100430619D01*
X166066739Y-100430619D01*
X165862979Y-100090205D01*
X165630582Y-100090205D01*
X165932711Y-100585102D01*
X165623743Y-101080000D01*
X164252259Y-101080000D01*
X164595420Y-100090205D01*
X164365710Y-100090205D01*
X164125069Y-100844855D01*
X164115544Y-100844855D01*
X163873499Y-100090205D01*
X163646598Y-100090205D01*
X163311269Y-100090205D01*
X163285603Y-100084183D01*
X163243293Y-100078462D01*
X163198717Y-100076528D01*
X163182293Y-100076772D01*
X163096383Y-100086780D01*
X163022125Y-100110053D01*
X162960335Y-100144675D01*
X162911441Y-100188954D01*
X162875719Y-100241617D01*
X162862921Y-100270818D01*
X162853610Y-100301835D01*
X162847902Y-100334667D01*
X162845969Y-100369070D01*
X162847790Y-100403024D01*
X162853052Y-100433935D01*
X162862245Y-100464990D01*
X162876613Y-100498289D01*
X162896372Y-100533008D01*
X162926198Y-100575173D01*
X162964573Y-100620985D01*
X163026250Y-100685273D01*
X163104378Y-100758759D01*
X163254771Y-100905000D01*
X163254771Y-100910495D01*
X162832292Y-100910495D01*
X158826762Y-100910495D01*
X158826762Y-99554544D01*
X167544774Y-99554544D01*
X168194155Y-99554544D01*
X168194155Y-99400000D01*
X168266573Y-99400000D01*
X168460746Y-99400000D01*
X168460746Y-99266032D01*
X168468928Y-99266032D01*
X168487014Y-99302273D01*
X168523370Y-99347095D01*
X168570334Y-99380707D01*
X168597644Y-99393000D01*
X168627425Y-99402047D01*
X168659793Y-99407667D01*
X168694487Y-99409586D01*
X168726352Y-99407916D01*
X168787518Y-99393909D01*
X168839824Y-99366658D01*
X168862600Y-99348231D01*
X168882890Y-99326749D01*
X168900782Y-99301948D01*
X168915831Y-99274206D01*
X168928109Y-99242959D01*
X168937118Y-99208860D01*
X168942787Y-99171167D01*
X168944713Y-99130722D01*
X168944713Y-98657623D01*
X169101090Y-98657623D01*
X169101090Y-99026796D01*
X169101090Y-99408243D01*
X169101094Y-99409979D01*
X169108789Y-99478348D01*
X169117933Y-99509103D01*
X169130414Y-99537525D01*
X169146504Y-99564214D01*
X169165783Y-99588436D01*
X169189189Y-99611124D01*
X169215730Y-99631093D01*
X169247060Y-99649267D01*
X169281489Y-99664366D01*
X169321150Y-99677004D01*
X169363799Y-99686154D01*
X169411579Y-99691995D01*
X169462081Y-99693946D01*
X169515751Y-99691729D01*
X169601066Y-99677276D01*
X169670510Y-99651404D01*
X169724960Y-99616078D01*
X169765383Y-99572511D01*
X169780545Y-99547744D01*
X169792282Y-99521080D01*
X169800609Y-99492186D01*
X169805242Y-99461549D01*
X169605635Y-99461549D01*
X169595277Y-99490558D01*
X169583944Y-99506294D01*
X169569270Y-99519435D01*
X169548964Y-99531197D01*
X169524975Y-99539769D01*
X169493435Y-99545736D01*
X169457929Y-99547705D01*
X169401064Y-99541799D01*
X169358585Y-99525219D01*
X169328131Y-99498617D01*
X169316726Y-99480764D01*
X169308248Y-99459801D01*
X169302618Y-99433893D01*
X169300697Y-99404152D01*
X169300697Y-99268780D01*
X169310284Y-99268780D01*
X169321512Y-99289843D01*
X169354867Y-99330425D01*
X169399297Y-99361617D01*
X169454750Y-99381796D01*
X169486807Y-99387183D01*
X169522226Y-99389070D01*
X169543541Y-99388428D01*
X169611124Y-99377006D01*
X169670525Y-99352195D01*
X169721459Y-99314590D01*
X169743646Y-99290954D01*
X169763524Y-99264000D01*
X169781025Y-99233486D01*
X169795822Y-99199565D01*
X169807901Y-99161583D01*
X169816809Y-99120036D01*
X169822434Y-99073925D01*
X169824354Y-99024049D01*
X169823739Y-98995379D01*
X169819806Y-98948107D01*
X169812415Y-98904313D01*
X169801875Y-98864311D01*
X169788341Y-98827720D01*
X169772038Y-98794576D01*
X169753153Y-98764823D01*
X169731703Y-98738253D01*
X169708039Y-98715121D01*
X169681881Y-98695092D01*
X169653860Y-98678617D01*
X169623421Y-98665407D01*
X169597214Y-98657623D01*
X169952032Y-98657623D01*
X169952032Y-99026796D01*
X169952032Y-99408243D01*
X169952036Y-99409979D01*
X169959731Y-99478348D01*
X169968875Y-99509103D01*
X169981356Y-99537525D01*
X169997446Y-99564214D01*
X170016725Y-99588436D01*
X170040131Y-99611124D01*
X170066672Y-99631093D01*
X170098002Y-99649267D01*
X170132431Y-99664366D01*
X170172092Y-99677004D01*
X170214741Y-99686154D01*
X170262521Y-99691995D01*
X170313023Y-99693946D01*
X170366693Y-99691729D01*
X170452008Y-99677276D01*
X170521452Y-99651404D01*
X170575902Y-99616078D01*
X170616325Y-99572511D01*
X170631487Y-99547744D01*
X170643225Y-99521080D01*
X170651551Y-99492186D01*
X170656184Y-99461549D01*
X170456577Y-99461549D01*
X170446219Y-99490558D01*
X170434886Y-99506294D01*
X170420212Y-99519435D01*
X170399906Y-99531197D01*
X170375917Y-99539769D01*
X170344377Y-99545736D01*
X170308871Y-99547705D01*
X170252006Y-99541799D01*
X170209527Y-99525219D01*
X170179073Y-99498617D01*
X170167669Y-99480764D01*
X170159190Y-99459801D01*
X170153560Y-99433893D01*
X170151639Y-99404152D01*
X170151639Y-99268780D01*
X170161226Y-99268780D01*
X170172454Y-99289843D01*
X170205809Y-99330425D01*
X170250239Y-99361617D01*
X170305692Y-99381796D01*
X170337749Y-99387183D01*
X170373168Y-99389070D01*
X170394483Y-99388428D01*
X170462066Y-99377006D01*
X170521467Y-99352195D01*
X170572401Y-99314590D01*
X170594588Y-99290954D01*
X170614467Y-99264000D01*
X170631968Y-99233486D01*
X170646765Y-99199565D01*
X170658843Y-99161583D01*
X170667751Y-99120036D01*
X170673376Y-99073925D01*
X170675033Y-99030887D01*
X170773482Y-99030887D01*
X170777627Y-99097300D01*
X170795395Y-99177300D01*
X170825763Y-99246400D01*
X170867535Y-99304362D01*
X170919948Y-99350933D01*
X170950066Y-99369828D01*
X170982648Y-99385602D01*
X171017928Y-99398233D01*
X171055537Y-99407439D01*
X171095948Y-99413149D01*
X171138564Y-99415081D01*
X171195924Y-99411524D01*
X171271112Y-99394367D01*
X171305098Y-99380793D01*
X171336679Y-99364036D01*
X171365895Y-99344121D01*
X171392517Y-99321239D01*
X171416750Y-99295162D01*
X171438147Y-99266293D01*
X171456942Y-99234137D01*
X171472609Y-99199348D01*
X171485285Y-99161244D01*
X171494504Y-99120676D01*
X171500244Y-99076912D01*
X171502180Y-99030887D01*
X171502013Y-99028140D01*
X171634804Y-99028140D01*
X171634804Y-99400000D01*
X171834412Y-99400000D01*
X171834412Y-99281114D01*
X171843998Y-99281114D01*
X171860094Y-99310466D01*
X171895009Y-99353077D01*
X171938524Y-99384861D01*
X171991157Y-99405081D01*
X172021267Y-99410450D01*
X172054535Y-99412334D01*
X172077695Y-99411476D01*
X172142733Y-99399057D01*
X172201219Y-99372479D01*
X172227770Y-99354006D01*
X172252335Y-99332123D01*
X172274863Y-99306715D01*
X172295032Y-99277943D01*
X172312847Y-99245470D01*
X172313956Y-99242829D01*
X172435982Y-99242829D01*
X172435982Y-99402747D01*
X172437733Y-99403067D01*
X172480627Y-99407794D01*
X172543998Y-99409586D01*
X172553441Y-99409493D01*
X172627058Y-99401331D01*
X172684977Y-99381785D01*
X172729205Y-99352511D01*
X172761367Y-99313640D01*
X172773144Y-99290054D01*
X172781734Y-99263756D01*
X172787114Y-99233572D01*
X172788729Y-99200392D01*
X172788729Y-99030887D01*
X172964829Y-99030887D01*
X172968974Y-99097300D01*
X172986741Y-99177300D01*
X173017110Y-99246400D01*
X173058882Y-99304362D01*
X173111295Y-99350933D01*
X173141413Y-99369828D01*
X173173995Y-99385602D01*
X173209275Y-99398233D01*
X173246884Y-99407439D01*
X173287294Y-99413149D01*
X173329911Y-99415081D01*
X173387270Y-99411524D01*
X173437773Y-99400000D01*
X173825785Y-99400000D01*
X174032231Y-99400000D01*
X174032231Y-98989855D01*
X174461549Y-98989855D01*
X174461549Y-99400000D01*
X174666652Y-99400000D01*
X174666652Y-98410205D01*
X174461549Y-98410205D01*
X174461549Y-98820350D01*
X174032231Y-98820350D01*
X174032231Y-98410205D01*
X173825785Y-98410205D01*
X173825785Y-99400000D01*
X173437773Y-99400000D01*
X173462459Y-99394367D01*
X173496445Y-99380793D01*
X173528026Y-99364036D01*
X173557242Y-99344121D01*
X173583864Y-99321239D01*
X173608097Y-99295162D01*
X173629494Y-99266293D01*
X173648288Y-99234137D01*
X173663956Y-99199348D01*
X173676632Y-99161244D01*
X173685851Y-99120676D01*
X173691591Y-99076912D01*
X173693527Y-99030887D01*
X173689549Y-98965526D01*
X173672045Y-98885406D01*
X173641998Y-98816379D01*
X173600589Y-98758569D01*
X173548522Y-98712141D01*
X173518535Y-98693292D01*
X173486064Y-98677557D01*
X173450818Y-98664940D01*
X173413210Y-98655744D01*
X173372688Y-98650031D01*
X173329911Y-98648098D01*
X173271806Y-98651713D01*
X173196298Y-98668937D01*
X173162194Y-98682523D01*
X173130494Y-98699288D01*
X173101210Y-98719173D01*
X173074520Y-98742017D01*
X173050263Y-98768001D01*
X173028840Y-98796768D01*
X173010049Y-98828760D01*
X172994381Y-98863376D01*
X172981715Y-98901255D01*
X172972500Y-98941595D01*
X172966764Y-98985106D01*
X172964829Y-99030887D01*
X172788729Y-99030887D01*
X172788729Y-98809420D01*
X172891250Y-98809420D01*
X172891250Y-98657623D01*
X172788729Y-98657623D01*
X172788729Y-98479937D01*
X172586374Y-98479937D01*
X172586374Y-98657623D01*
X172446912Y-98657623D01*
X172446912Y-98809420D01*
X172586374Y-98809420D01*
X172586374Y-99171693D01*
X172586348Y-99174763D01*
X172579636Y-99212296D01*
X172571859Y-99225533D01*
X172561507Y-99235106D01*
X172541284Y-99243815D01*
X172516643Y-99246920D01*
X172435982Y-99242829D01*
X172313956Y-99242829D01*
X172327887Y-99209645D01*
X172340114Y-99169954D01*
X172349112Y-99126909D01*
X172354743Y-99079901D01*
X172356664Y-99029544D01*
X172355913Y-98997568D01*
X172351764Y-98949942D01*
X172344168Y-98905804D01*
X172333438Y-98865483D01*
X172319727Y-98828591D01*
X172303278Y-98795203D01*
X172284265Y-98765227D01*
X172262748Y-98738508D01*
X172239042Y-98715243D01*
X172212938Y-98695152D01*
X172185002Y-98678624D01*
X172154766Y-98665406D01*
X172123070Y-98655914D01*
X172089326Y-98650052D01*
X172054535Y-98648098D01*
X172050127Y-98648129D01*
X172016161Y-98650613D01*
X171985694Y-98656730D01*
X171956372Y-98666920D01*
X171930712Y-98680212D01*
X171904954Y-98698928D01*
X171883520Y-98720077D01*
X171860600Y-98750983D01*
X171843998Y-98782065D01*
X171837159Y-98782065D01*
X171837159Y-98410205D01*
X171634804Y-98410205D01*
X171634804Y-99028140D01*
X171502013Y-99028140D01*
X171498202Y-98965526D01*
X171480698Y-98885406D01*
X171450651Y-98816379D01*
X171409242Y-98758569D01*
X171357175Y-98712141D01*
X171327188Y-98693292D01*
X171294717Y-98677557D01*
X171259472Y-98664940D01*
X171221863Y-98655744D01*
X171181342Y-98650031D01*
X171138564Y-98648098D01*
X171080459Y-98651713D01*
X171004951Y-98668937D01*
X170970847Y-98682523D01*
X170939147Y-98699288D01*
X170909863Y-98719173D01*
X170883173Y-98742017D01*
X170858917Y-98768001D01*
X170837493Y-98796768D01*
X170818702Y-98828760D01*
X170803034Y-98863376D01*
X170790368Y-98901255D01*
X170781153Y-98941595D01*
X170775418Y-98985106D01*
X170773482Y-99030887D01*
X170675033Y-99030887D01*
X170675296Y-99024049D01*
X170674681Y-98995379D01*
X170670748Y-98948107D01*
X170663357Y-98904313D01*
X170652817Y-98864311D01*
X170639283Y-98827720D01*
X170622980Y-98794576D01*
X170604095Y-98764823D01*
X170582645Y-98738253D01*
X170558981Y-98715121D01*
X170532823Y-98695092D01*
X170504802Y-98678617D01*
X170474363Y-98665407D01*
X170442430Y-98655922D01*
X170408335Y-98650053D01*
X170373168Y-98648098D01*
X170366808Y-98648163D01*
X170332878Y-98650874D01*
X170302402Y-98657215D01*
X170272976Y-98667665D01*
X170247202Y-98681212D01*
X170221367Y-98700171D01*
X170199871Y-98721518D01*
X170177482Y-98751736D01*
X170161226Y-98782065D01*
X170153044Y-98782065D01*
X170153044Y-98657623D01*
X169952032Y-98657623D01*
X169597214Y-98657623D01*
X169591487Y-98655922D01*
X169557393Y-98650053D01*
X169522226Y-98648098D01*
X169515866Y-98648163D01*
X169481936Y-98650874D01*
X169451460Y-98657215D01*
X169422033Y-98667665D01*
X169396260Y-98681212D01*
X169370425Y-98700171D01*
X169348929Y-98721518D01*
X169326540Y-98751736D01*
X169310284Y-98782065D01*
X169302102Y-98782065D01*
X169302102Y-98657623D01*
X169101090Y-98657623D01*
X168944713Y-98657623D01*
X168742358Y-98657623D01*
X168742358Y-99095123D01*
X168738991Y-99132441D01*
X168723243Y-99177113D01*
X168696480Y-99210085D01*
X168679202Y-99222193D01*
X168659553Y-99231108D01*
X168637102Y-99236754D01*
X168612482Y-99238677D01*
X168568692Y-99232167D01*
X168527996Y-99211974D01*
X168496607Y-99180054D01*
X168484996Y-99160165D01*
X168476270Y-99137459D01*
X168470823Y-99112182D01*
X168468928Y-99084193D01*
X168468928Y-98657623D01*
X168266573Y-98657623D01*
X168266573Y-99400000D01*
X168194155Y-99400000D01*
X167544774Y-99400000D01*
X167544774Y-99554544D01*
X158826762Y-99554544D01*
X158826762Y-99400000D01*
X158951762Y-99400000D01*
X159178724Y-99400000D01*
X159367402Y-99048656D01*
X159524633Y-99048656D01*
X159524633Y-99400000D01*
X159729736Y-99400000D01*
X159729736Y-98410205D01*
X159841294Y-98410205D01*
X160183051Y-99400000D01*
X160446955Y-99400000D01*
X160577297Y-99024049D01*
X160795062Y-99024049D01*
X160795062Y-99081446D01*
X161302294Y-99081446D01*
X161301604Y-99100797D01*
X161290352Y-99156760D01*
X161266911Y-99201245D01*
X161251008Y-99219284D01*
X161232486Y-99234413D01*
X161211121Y-99246677D01*
X161187345Y-99255665D01*
X161160511Y-99261355D01*
X161131446Y-99263285D01*
X161103519Y-99261513D01*
X161077623Y-99256242D01*
X161054472Y-99247743D01*
X161017501Y-99222541D01*
X160993326Y-99188119D01*
X160800558Y-99188119D01*
X160802349Y-99196085D01*
X160811815Y-99227297D01*
X160824722Y-99256586D01*
X160841027Y-99283911D01*
X160860589Y-99309037D01*
X160883595Y-99332087D01*
X160909723Y-99352612D01*
X160939400Y-99370759D01*
X160972085Y-99386004D01*
X161008358Y-99398400D01*
X161047516Y-99407480D01*
X161090160Y-99413154D01*
X161135537Y-99415081D01*
X161196061Y-99411361D01*
X161272231Y-99394228D01*
X161337886Y-99364332D01*
X161366898Y-99344821D01*
X161393310Y-99322372D01*
X161417259Y-99296822D01*
X161438399Y-99268463D01*
X161456976Y-99236759D01*
X161472467Y-99202333D01*
X161485055Y-99164308D01*
X161494218Y-99123631D01*
X161499964Y-99079216D01*
X161501901Y-99032231D01*
X161498153Y-98968956D01*
X161483573Y-98901011D01*
X161627259Y-98901011D01*
X161627259Y-99400000D01*
X161829614Y-99400000D01*
X161829614Y-98940640D01*
X161830421Y-98922417D01*
X161841603Y-98877097D01*
X161851717Y-98859037D01*
X161864500Y-98844096D01*
X161880589Y-98831696D01*
X161899065Y-98822713D01*
X161921404Y-98816814D01*
X161945812Y-98814855D01*
X161965737Y-98816138D01*
X161987297Y-98820892D01*
X162006433Y-98828949D01*
X162023391Y-98840367D01*
X162037648Y-98854780D01*
X162049641Y-98872933D01*
X162058444Y-98893884D01*
X162064168Y-98918755D01*
X162066102Y-98946135D01*
X162066102Y-99400000D01*
X162262962Y-99400000D01*
X162262962Y-98935205D01*
X162263742Y-98919011D01*
X162275238Y-98875836D01*
X162285628Y-98858229D01*
X162298833Y-98843373D01*
X162314850Y-98831308D01*
X162333302Y-98822416D01*
X162354521Y-98816777D01*
X162377817Y-98814855D01*
X162401374Y-98817107D01*
X162421767Y-98823085D01*
X162440442Y-98832606D01*
X162457173Y-98845542D01*
X162471559Y-98861659D01*
X162483322Y-98880819D01*
X162492108Y-98902779D01*
X162497609Y-98927347D01*
X162499511Y-98954317D01*
X162499511Y-99400000D01*
X162701866Y-99400000D01*
X162859036Y-99400000D01*
X163061392Y-99400000D01*
X163218562Y-99400000D01*
X163420917Y-99400000D01*
X163420917Y-99117044D01*
X163550183Y-99117044D01*
X163550660Y-99135091D01*
X163561612Y-99201404D01*
X163572299Y-99231483D01*
X163586371Y-99259563D01*
X163603955Y-99285826D01*
X163624843Y-99309882D01*
X163649634Y-99332186D01*
X163677743Y-99351992D01*
X163710265Y-99369775D01*
X163746168Y-99384684D01*
X163786908Y-99397011D01*
X163831091Y-99406025D01*
X163880301Y-99411744D01*
X163932972Y-99413677D01*
X163989206Y-99411518D01*
X164062297Y-99400000D01*
X164459316Y-99400000D01*
X164661671Y-99400000D01*
X164661671Y-99030887D01*
X164788555Y-99030887D01*
X164792701Y-99097300D01*
X164810468Y-99177300D01*
X164840837Y-99246400D01*
X164882608Y-99304362D01*
X164935021Y-99350933D01*
X164965139Y-99369828D01*
X164997721Y-99385602D01*
X165033002Y-99398233D01*
X165070610Y-99407439D01*
X165111021Y-99413149D01*
X165153637Y-99415081D01*
X165210997Y-99411524D01*
X165286185Y-99394367D01*
X165320171Y-99380793D01*
X165351753Y-99364036D01*
X165380969Y-99344121D01*
X165407590Y-99321239D01*
X165431823Y-99295162D01*
X165453220Y-99266293D01*
X165472015Y-99234137D01*
X165487682Y-99199348D01*
X165500358Y-99161244D01*
X165509577Y-99120676D01*
X165515317Y-99076912D01*
X165517254Y-99030887D01*
X165513275Y-98965526D01*
X165499180Y-98901011D01*
X165642611Y-98901011D01*
X165642611Y-99400000D01*
X165844966Y-99400000D01*
X165844966Y-98940640D01*
X165845773Y-98922417D01*
X165856956Y-98877097D01*
X165867069Y-98859037D01*
X165879852Y-98844096D01*
X165895941Y-98831696D01*
X165914418Y-98822713D01*
X165936756Y-98816814D01*
X165961165Y-98814855D01*
X165981089Y-98816138D01*
X166002650Y-98820892D01*
X166021785Y-98828949D01*
X166038743Y-98840367D01*
X166053000Y-98854780D01*
X166064993Y-98872933D01*
X166073797Y-98893884D01*
X166079520Y-98918755D01*
X166081454Y-98946135D01*
X166081454Y-99400000D01*
X166278314Y-99400000D01*
X166278314Y-98935205D01*
X166279094Y-98919011D01*
X166290590Y-98875836D01*
X166300980Y-98858229D01*
X166314186Y-98843373D01*
X166330203Y-98831308D01*
X166348655Y-98822416D01*
X166369874Y-98816777D01*
X166393169Y-98814855D01*
X166416726Y-98817107D01*
X166437119Y-98823085D01*
X166455795Y-98832606D01*
X166472526Y-98845542D01*
X166486911Y-98861659D01*
X166498674Y-98880819D01*
X166507461Y-98902779D01*
X166512961Y-98927347D01*
X166514863Y-98954317D01*
X166514863Y-99400000D01*
X166717219Y-99400000D01*
X166717219Y-99170350D01*
X166841172Y-99170350D01*
X166844323Y-99206780D01*
X166851086Y-99235271D01*
X166861462Y-99262080D01*
X166875675Y-99287653D01*
X166893380Y-99311237D01*
X166915198Y-99333405D01*
X166940429Y-99353196D01*
X166969977Y-99371048D01*
X167002829Y-99386071D01*
X167039889Y-99398427D01*
X167080058Y-99407483D01*
X167123951Y-99413155D01*
X167170655Y-99415081D01*
X167214542Y-99413567D01*
X167298726Y-99400481D01*
X167367092Y-99375811D01*
X167421175Y-99341160D01*
X167462201Y-99297205D01*
X167478070Y-99271550D01*
X167490590Y-99243725D01*
X167499940Y-99212883D01*
X167505635Y-99179937D01*
X167301875Y-99179937D01*
X167291966Y-99211128D01*
X167281537Y-99227260D01*
X167268015Y-99240774D01*
X167250033Y-99252443D01*
X167228755Y-99261002D01*
X167201508Y-99266831D01*
X167170655Y-99268780D01*
X167168700Y-99268773D01*
X167114062Y-99261720D01*
X167076810Y-99244646D01*
X167055134Y-99220904D01*
X167049535Y-99206645D01*
X167047618Y-99190867D01*
X167047643Y-99189023D01*
X167049822Y-99174426D01*
X167055598Y-99161378D01*
X167066719Y-99148247D01*
X167082815Y-99136849D01*
X167111332Y-99124408D01*
X167148796Y-99114296D01*
X167271833Y-99089689D01*
X167304126Y-99082293D01*
X167371877Y-99057185D01*
X167421842Y-99024363D01*
X167456775Y-98984431D01*
X167469177Y-98961457D01*
X167478062Y-98936623D01*
X167483536Y-98908843D01*
X167485118Y-98879152D01*
X167483818Y-98852102D01*
X167478854Y-98823974D01*
X167470306Y-98797632D01*
X167458052Y-98772736D01*
X167442343Y-98749855D01*
X167422519Y-98728322D01*
X167399256Y-98709139D01*
X167371351Y-98691662D01*
X167339996Y-98676973D01*
X167303717Y-98664714D01*
X167264042Y-98655736D01*
X167219630Y-98650030D01*
X167171999Y-98648098D01*
X167135105Y-98649298D01*
X167054034Y-98661861D01*
X166987748Y-98686247D01*
X166935424Y-98720643D01*
X166896268Y-98764043D01*
X166881484Y-98789121D01*
X166870058Y-98816285D01*
X166861957Y-98846033D01*
X166857536Y-98877747D01*
X167047618Y-98877747D01*
X167056668Y-98849449D01*
X167067132Y-98833277D01*
X167080881Y-98819441D01*
X167098345Y-98807795D01*
X167118829Y-98799124D01*
X167142753Y-98793563D01*
X167169312Y-98791652D01*
X167219916Y-98798613D01*
X167256572Y-98816322D01*
X167277590Y-98840071D01*
X167284106Y-98868222D01*
X167284146Y-98871733D01*
X167282036Y-98885089D01*
X167276135Y-98897526D01*
X167264922Y-98910112D01*
X167248476Y-98921398D01*
X167222431Y-98932732D01*
X167188424Y-98942044D01*
X167055800Y-98969338D01*
X167034144Y-98974278D01*
X166960231Y-98999191D01*
X166907986Y-99030180D01*
X166872091Y-99067425D01*
X166859179Y-99089155D01*
X166849751Y-99112881D01*
X166843508Y-99140435D01*
X166841172Y-99170350D01*
X166717219Y-99170350D01*
X166717219Y-98657623D01*
X166524450Y-98657623D01*
X166524450Y-98787500D01*
X166516207Y-98787500D01*
X166502603Y-98757162D01*
X166469326Y-98711452D01*
X166448696Y-98692876D01*
X166425565Y-98677295D01*
X166399969Y-98664823D01*
X166372150Y-98655692D01*
X166341937Y-98650024D01*
X166309760Y-98648098D01*
X166265660Y-98651609D01*
X166209734Y-98668327D01*
X166164230Y-98697265D01*
X166145570Y-98715930D01*
X166129798Y-98737224D01*
X166117001Y-98761176D01*
X166107466Y-98787500D01*
X166100628Y-98787500D01*
X166084919Y-98754550D01*
X166068899Y-98731434D01*
X166049780Y-98710767D01*
X166027479Y-98692535D01*
X166002394Y-98677174D01*
X165974448Y-98664766D01*
X165944063Y-98655658D01*
X165911267Y-98650020D01*
X165876413Y-98648098D01*
X165860782Y-98648497D01*
X165798866Y-98658972D01*
X165746502Y-98682517D01*
X165703798Y-98718275D01*
X165686146Y-98740787D01*
X165671267Y-98766239D01*
X165659122Y-98795134D01*
X165650188Y-98826946D01*
X165644535Y-98862518D01*
X165642611Y-98901011D01*
X165499180Y-98901011D01*
X165495771Y-98885406D01*
X165465724Y-98816379D01*
X165424315Y-98758569D01*
X165372249Y-98712141D01*
X165342261Y-98693292D01*
X165309791Y-98677557D01*
X165274545Y-98664940D01*
X165236937Y-98655744D01*
X165196415Y-98650031D01*
X165153637Y-98648098D01*
X165095533Y-98651713D01*
X165020025Y-98668937D01*
X164985920Y-98682523D01*
X164954220Y-98699288D01*
X164924936Y-98719173D01*
X164898246Y-98742017D01*
X164873990Y-98768001D01*
X164852567Y-98796768D01*
X164833776Y-98828760D01*
X164818107Y-98863376D01*
X164805441Y-98901255D01*
X164796226Y-98941595D01*
X164790491Y-98985106D01*
X164788555Y-99030887D01*
X164661671Y-99030887D01*
X164661671Y-98410205D01*
X164459316Y-98410205D01*
X164459316Y-99400000D01*
X164062297Y-99400000D01*
X164079304Y-99397320D01*
X164153892Y-99371602D01*
X164214400Y-99335819D01*
X164262129Y-99290558D01*
X164281482Y-99264264D01*
X164297787Y-99235484D01*
X164311123Y-99203753D01*
X164321131Y-99169492D01*
X164327855Y-99131588D01*
X164330844Y-99091032D01*
X164131236Y-99091032D01*
X164120760Y-99140109D01*
X164110338Y-99161677D01*
X164096769Y-99180681D01*
X164079242Y-99197965D01*
X164058669Y-99212372D01*
X164033343Y-99224680D01*
X164005054Y-99233624D01*
X163971734Y-99239473D01*
X163935720Y-99241425D01*
X163875122Y-99235443D01*
X163823646Y-99217452D01*
X163787423Y-99190657D01*
X163765561Y-99157047D01*
X163759898Y-99137771D01*
X163757972Y-99117044D01*
X163760738Y-99093864D01*
X163767362Y-99076429D01*
X163777804Y-99060864D01*
X163795561Y-99044092D01*
X163818655Y-99029383D01*
X163866771Y-99008975D01*
X163927538Y-98991259D01*
X164035554Y-98965247D01*
X164122846Y-98937390D01*
X164190574Y-98902533D01*
X164240503Y-98861906D01*
X164275594Y-98815104D01*
X164288107Y-98788885D01*
X164297233Y-98760600D01*
X164302959Y-98729397D01*
X164304893Y-98695908D01*
X164304551Y-98681489D01*
X164301002Y-98648062D01*
X164293733Y-98616298D01*
X164282671Y-98585744D01*
X164268088Y-98557107D01*
X164249587Y-98529743D01*
X164227727Y-98504619D01*
X164201812Y-98481127D01*
X164172719Y-98460257D01*
X164139657Y-98441632D01*
X164103670Y-98426038D01*
X164064161Y-98413384D01*
X164022079Y-98404157D01*
X163977247Y-98398458D01*
X163930286Y-98396528D01*
X163908427Y-98396940D01*
X163820907Y-98407700D01*
X163745316Y-98431617D01*
X163682377Y-98466793D01*
X163632434Y-98511571D01*
X163595704Y-98564716D01*
X163582400Y-98594165D01*
X163572576Y-98625434D01*
X163566338Y-98658536D01*
X163563860Y-98693222D01*
X163760720Y-98693222D01*
X163765990Y-98666565D01*
X163774181Y-98645879D01*
X163785625Y-98627426D01*
X163800661Y-98610885D01*
X163818885Y-98596919D01*
X163841399Y-98585105D01*
X163867161Y-98576397D01*
X163897753Y-98570709D01*
X163931629Y-98568780D01*
X163973566Y-98571663D01*
X164026017Y-98586289D01*
X164062976Y-98610564D01*
X164076116Y-98625730D01*
X164085756Y-98642702D01*
X164091932Y-98661741D01*
X164094295Y-98682231D01*
X164091533Y-98706508D01*
X164084395Y-98724657D01*
X164073324Y-98740710D01*
X164054418Y-98758239D01*
X164030839Y-98773016D01*
X163986243Y-98791549D01*
X163935720Y-98805329D01*
X163846877Y-98827189D01*
X163813355Y-98835547D01*
X163728527Y-98865565D01*
X163663010Y-98902327D01*
X163613970Y-98945101D01*
X163579212Y-98994153D01*
X163566835Y-99021363D01*
X163557750Y-99050767D01*
X163552106Y-99082720D01*
X163550183Y-99117044D01*
X163420917Y-99117044D01*
X163420917Y-98410205D01*
X163218562Y-98410205D01*
X163218562Y-99400000D01*
X163061392Y-99400000D01*
X163061392Y-98657623D01*
X162859036Y-98657623D01*
X162859036Y-99400000D01*
X162701866Y-99400000D01*
X162701866Y-98657623D01*
X162509098Y-98657623D01*
X162509098Y-98787500D01*
X162500854Y-98787500D01*
X162487251Y-98757162D01*
X162453973Y-98711452D01*
X162433344Y-98692876D01*
X162410213Y-98677295D01*
X162384617Y-98664823D01*
X162356798Y-98655692D01*
X162326584Y-98650024D01*
X162294408Y-98648098D01*
X162250307Y-98651609D01*
X162194382Y-98668327D01*
X162148877Y-98697265D01*
X162130217Y-98715930D01*
X162114445Y-98737224D01*
X162101649Y-98761176D01*
X162092114Y-98787500D01*
X162085275Y-98787500D01*
X162069566Y-98754550D01*
X162053547Y-98731434D01*
X162034427Y-98710767D01*
X162012127Y-98692535D01*
X161987042Y-98677174D01*
X161959096Y-98664766D01*
X161928711Y-98655658D01*
X161895915Y-98650020D01*
X161861060Y-98648098D01*
X161845430Y-98648497D01*
X161783514Y-98658972D01*
X161731149Y-98682517D01*
X161688446Y-98718275D01*
X161670793Y-98740787D01*
X161655914Y-98766239D01*
X161643770Y-98795134D01*
X161634835Y-98826946D01*
X161629183Y-98862518D01*
X161627259Y-98901011D01*
X161483573Y-98901011D01*
X161480821Y-98888184D01*
X161450795Y-98818279D01*
X161409377Y-98759628D01*
X161357504Y-98712576D01*
X161327809Y-98693540D01*
X161295737Y-98677655D01*
X161261166Y-98664976D01*
X161224391Y-98655740D01*
X161185076Y-98650030D01*
X161143719Y-98648098D01*
X161091400Y-98651169D01*
X161018016Y-98667331D01*
X160954372Y-98696155D01*
X160900617Y-98736807D01*
X160877523Y-98761463D01*
X160856920Y-98789174D01*
X160838975Y-98819952D01*
X160823859Y-98853805D01*
X160811626Y-98891169D01*
X160802632Y-98931699D01*
X160799764Y-98954317D01*
X160796986Y-98976222D01*
X160795062Y-99024049D01*
X160577297Y-99024049D01*
X160773540Y-98458016D01*
X162850854Y-98458016D01*
X162850907Y-98461190D01*
X162853688Y-98481076D01*
X162860393Y-98499641D01*
X162870982Y-98516981D01*
X162884843Y-98532039D01*
X162919861Y-98553272D01*
X162960214Y-98560598D01*
X162965647Y-98560477D01*
X162987587Y-98557435D01*
X163007863Y-98550619D01*
X163026194Y-98540357D01*
X163041970Y-98527124D01*
X163063612Y-98494743D01*
X163070978Y-98458016D01*
X163070884Y-98453664D01*
X163067920Y-98433584D01*
X163061093Y-98414927D01*
X163050464Y-98397632D01*
X163036596Y-98382655D01*
X163001371Y-98361496D01*
X162960214Y-98354152D01*
X162954867Y-98354275D01*
X162933344Y-98357328D01*
X162913379Y-98364176D01*
X162895295Y-98374490D01*
X162879686Y-98387821D01*
X162858204Y-98420567D01*
X162850854Y-98458016D01*
X160773540Y-98458016D01*
X160790116Y-98410205D01*
X160560406Y-98410205D01*
X160319766Y-99164855D01*
X160310240Y-99164855D01*
X160068196Y-98410205D01*
X159841294Y-98410205D01*
X159729736Y-98410205D01*
X159341451Y-98410205D01*
X159310130Y-98411050D01*
X159226325Y-98422906D01*
X159155812Y-98447294D01*
X159097720Y-98482878D01*
X159073082Y-98504686D01*
X159051437Y-98529044D01*
X159032604Y-98556235D01*
X159016960Y-98585835D01*
X159004284Y-98618591D01*
X158995085Y-98653653D01*
X158989303Y-98692148D01*
X158987360Y-98732850D01*
X158987508Y-98744201D01*
X158996689Y-98818543D01*
X159019071Y-98882176D01*
X159053897Y-98935944D01*
X159076113Y-98959370D01*
X159101352Y-98980193D01*
X159130331Y-98998778D01*
X159162360Y-99014462D01*
X158951762Y-99400000D01*
X158826762Y-99400000D01*
X158826762Y-98229152D01*
X174791652Y-98229152D01*
X174791652Y-101218677D01*
G37*
M02*
