%TF.GenerationSoftware,KiCad,Pcbnew,9.0.0*%
%TF.CreationDate,2025-03-10T21:05:32+09:00*%
%TF.ProjectId,hotdoggu_smolSlimeVR,686f7464-6f67-4677-955f-736d6f6c536c,rev?*%
%TF.SameCoordinates,Original*%
%TF.FileFunction,Copper,L2,Bot*%
%TF.FilePolarity,Positive*%
%FSLAX46Y46*%
G04 Gerber Fmt 4.6, Leading zero omitted, Abs format (unit mm)*
G04 Created by KiCad (PCBNEW 9.0.0) date 2025-03-10 21:05:32*
%MOMM*%
%LPD*%
G01*
G04 APERTURE LIST*
%TA.AperFunction,HeatsinkPad*%
%ADD10O,2.100000X1.000000*%
%TD*%
%TA.AperFunction,HeatsinkPad*%
%ADD11O,1.800000X1.000000*%
%TD*%
%TA.AperFunction,ComponentPad*%
%ADD12C,2.600000*%
%TD*%
%TA.AperFunction,ConnectorPad*%
%ADD13C,3.800000*%
%TD*%
%TA.AperFunction,ComponentPad*%
%ADD14C,1.524000*%
%TD*%
%TA.AperFunction,ComponentPad*%
%ADD15C,2.800000*%
%TD*%
%TA.AperFunction,ViaPad*%
%ADD16C,0.600000*%
%TD*%
%TA.AperFunction,ViaPad*%
%ADD17C,0.400000*%
%TD*%
%TA.AperFunction,Conductor*%
%ADD18C,0.400000*%
%TD*%
%TA.AperFunction,Conductor*%
%ADD19C,0.200000*%
%TD*%
G04 APERTURE END LIST*
D10*
%TO.P,J1,S1,SHIELD*%
%TO.N,GND*%
X176295000Y-74620000D03*
D11*
X180475000Y-74620000D03*
D10*
X176295000Y-65980000D03*
D11*
X180475000Y-65980000D03*
%TD*%
D12*
%TO.P,H1,1*%
%TO.N,N/C*%
X150800000Y-102300000D03*
D13*
X150800000Y-102300000D03*
%TD*%
D14*
%TO.P,SW1,1,A*%
%TO.N,unconnected-(SW1-A-Pad1)*%
X150900000Y-91200000D03*
%TO.P,SW1,2,B*%
%TO.N,/BAT+*%
X150900000Y-93700000D03*
%TO.P,SW1,3,C*%
%TO.N,Net-(SW1-C)*%
X150900000Y-96200000D03*
%TD*%
D15*
%TO.P,U1,49,GND*%
%TO.N,GND*%
X155475000Y-75875000D03*
%TD*%
D12*
%TO.P,H3,1*%
%TO.N,N/C*%
X180500000Y-102300000D03*
D13*
X180500000Y-102300000D03*
%TD*%
D16*
%TO.N,+3V3*%
X178900000Y-87400000D03*
X173570000Y-82550000D03*
D17*
X174300000Y-77300000D03*
D16*
X151300000Y-74150000D03*
X173100000Y-86100000D03*
D17*
X158205000Y-93935000D03*
D16*
X174500000Y-89300000D03*
D17*
X167150000Y-99012500D03*
D16*
%TO.N,/VUSB*%
X173700000Y-72700000D03*
X167500000Y-88500000D03*
D17*
X162100000Y-93000000D03*
X159400000Y-92800000D03*
D16*
X160100000Y-98600000D03*
D17*
%TO.N,Net-(U4-OC)*%
X165900000Y-86775000D03*
X163400000Y-85175000D03*
%TO.N,Net-(LED2-K)*%
X167000000Y-90165000D03*
X166200000Y-103200000D03*
%TO.N,Net-(LED3-K)*%
X167000000Y-91435000D03*
X164500000Y-103200000D03*
%TO.N,/USB_D+*%
X163273000Y-77300000D03*
X163200000Y-79100000D03*
%TO.N,Net-(U1-GPIO10)*%
X153825000Y-82700000D03*
X168850000Y-99000000D03*
D16*
%TO.N,Net-(D5-K)*%
X171525000Y-95925000D03*
X169600000Y-94200000D03*
D17*
%TO.N,/~{RESET}*%
X150800000Y-77800000D03*
X166900000Y-81850000D03*
%TD*%
D18*
%TO.N,/VUSB*%
X167200000Y-88900000D02*
X167400000Y-88700000D01*
X164800000Y-88900000D02*
X167200000Y-88900000D01*
X160100000Y-93500000D02*
X160100000Y-98600000D01*
X167500000Y-88500000D02*
X167600000Y-88400000D01*
X164102000Y-93000000D02*
X164451000Y-92651000D01*
X164451000Y-92651000D02*
X164451000Y-89249000D01*
X164451000Y-89249000D02*
X164800000Y-88900000D01*
X169900000Y-72700000D02*
X173700000Y-72700000D01*
X162100000Y-93000000D02*
X164102000Y-93000000D01*
X167600000Y-75000000D02*
X169900000Y-72700000D01*
X159400000Y-92800000D02*
X160100000Y-93500000D01*
X167600000Y-88400000D02*
X167600000Y-75000000D01*
D19*
%TO.N,Net-(U4-OC)*%
X163700000Y-86227898D02*
X163700000Y-85327898D01*
X163547102Y-85175000D02*
X163400000Y-85175000D01*
X163700000Y-85327898D02*
X163547102Y-85175000D01*
X165900000Y-86700000D02*
X165527898Y-86327898D01*
X163800000Y-86327898D02*
X163700000Y-86227898D01*
X165900000Y-86775000D02*
X165900000Y-86700000D01*
X165527898Y-86327898D02*
X163800000Y-86327898D01*
%TO.N,Net-(LED2-K)*%
X167701000Y-90801000D02*
X167701000Y-96673276D01*
X169700000Y-100363862D02*
X169035862Y-101028000D01*
X169700000Y-98672276D02*
X169700000Y-100363862D01*
X169035862Y-101028000D02*
X167135862Y-101028000D01*
X166081250Y-103381250D02*
X166050000Y-103412500D01*
X167100000Y-90200000D02*
X167701000Y-90801000D01*
X167701000Y-96673276D02*
X169700000Y-98672276D01*
X167135862Y-101028000D02*
X166200000Y-101963862D01*
X166200000Y-101963862D02*
X166200000Y-103200000D01*
%TO.N,Net-(LED3-K)*%
X167300000Y-96736138D02*
X169372000Y-98808138D01*
X169372000Y-100228000D02*
X168900000Y-100700000D01*
X167000000Y-100700000D02*
X164500000Y-103200000D01*
X167065000Y-91435000D02*
X167300000Y-91670000D01*
X167300000Y-91670000D02*
X167300000Y-96736138D01*
X169372000Y-98808138D02*
X169372000Y-100228000D01*
X168900000Y-100700000D02*
X167000000Y-100700000D01*
%TO.N,/USB_D+*%
X163273000Y-77300000D02*
X163300000Y-77327000D01*
X163300000Y-77327000D02*
X163300000Y-79000000D01*
X163300000Y-79000000D02*
X163200000Y-79100000D01*
%TO.N,Net-(U1-GPIO10)*%
X160800000Y-83500000D02*
X160800000Y-97850000D01*
X168550000Y-98450000D02*
X168850000Y-98750000D01*
X153825000Y-82700000D02*
X160000000Y-82700000D01*
X161400000Y-98450000D02*
X168550000Y-98450000D01*
X160800000Y-97850000D02*
X161400000Y-98450000D01*
X160000000Y-82700000D02*
X160800000Y-83500000D01*
X168850000Y-98750000D02*
X168850000Y-99000000D01*
D18*
%TO.N,Net-(D5-K)*%
X171325000Y-95925000D02*
X169600000Y-94200000D01*
X171525000Y-95925000D02*
X171325000Y-95925000D01*
D19*
%TO.N,/~{RESET}*%
X151800000Y-82100000D02*
X150800000Y-81100000D01*
X166900000Y-81850000D02*
X166650000Y-82100000D01*
X150800000Y-81100000D02*
X150800000Y-77800000D01*
X166650000Y-82100000D02*
X151800000Y-82100000D01*
%TD*%
%TA.AperFunction,Conductor*%
%TO.N,+3V3*%
G36*
X175538476Y-65106926D02*
G01*
X175596656Y-65125861D01*
X175632597Y-65175378D01*
X175632568Y-65236563D01*
X175596581Y-65286046D01*
X175557745Y-65303023D01*
X175540677Y-65306418D01*
X175540670Y-65306420D01*
X175413193Y-65359222D01*
X175413182Y-65359228D01*
X175298458Y-65435885D01*
X175200885Y-65533458D01*
X175124228Y-65648182D01*
X175124222Y-65648193D01*
X175071420Y-65775670D01*
X175071420Y-65775672D01*
X175044500Y-65911004D01*
X175044500Y-66048995D01*
X175071420Y-66184327D01*
X175071420Y-66184329D01*
X175124222Y-66311806D01*
X175124228Y-66311817D01*
X175200885Y-66426541D01*
X175298458Y-66524114D01*
X175413182Y-66600771D01*
X175413193Y-66600777D01*
X175460283Y-66620282D01*
X175540672Y-66653580D01*
X175676007Y-66680500D01*
X175676008Y-66680500D01*
X176913992Y-66680500D01*
X176913993Y-66680500D01*
X177049328Y-66653580D01*
X177176811Y-66600775D01*
X177291542Y-66524114D01*
X177389114Y-66426542D01*
X177465775Y-66311811D01*
X177518580Y-66184328D01*
X177545500Y-66048993D01*
X177545500Y-65911007D01*
X177518580Y-65775672D01*
X177465775Y-65648189D01*
X177465774Y-65648187D01*
X177465771Y-65648182D01*
X177389114Y-65533458D01*
X177291541Y-65435885D01*
X177176817Y-65359228D01*
X177176806Y-65359222D01*
X177049329Y-65306420D01*
X177049320Y-65306418D01*
X177035849Y-65303738D01*
X176982465Y-65273841D01*
X176956851Y-65218275D01*
X176968789Y-65158265D01*
X177013720Y-65116734D01*
X177055210Y-65107641D01*
X179858242Y-65108962D01*
X179916422Y-65127897D01*
X179952363Y-65177414D01*
X179952334Y-65238599D01*
X179916347Y-65288082D01*
X179877511Y-65305059D01*
X179870677Y-65306418D01*
X179870670Y-65306420D01*
X179743193Y-65359222D01*
X179743182Y-65359228D01*
X179628458Y-65435885D01*
X179530885Y-65533458D01*
X179454228Y-65648182D01*
X179454222Y-65648193D01*
X179401420Y-65775670D01*
X179401420Y-65775672D01*
X179374500Y-65911004D01*
X179374500Y-66048995D01*
X179401420Y-66184327D01*
X179401420Y-66184329D01*
X179454222Y-66311806D01*
X179454228Y-66311817D01*
X179530885Y-66426541D01*
X179628458Y-66524114D01*
X179743182Y-66600771D01*
X179743193Y-66600777D01*
X179790283Y-66620282D01*
X179870672Y-66653580D01*
X180006007Y-66680500D01*
X180006008Y-66680500D01*
X180943992Y-66680500D01*
X180943993Y-66680500D01*
X181079328Y-66653580D01*
X181206811Y-66600775D01*
X181321542Y-66524114D01*
X181419114Y-66426542D01*
X181495775Y-66311811D01*
X181548580Y-66184328D01*
X181575500Y-66048993D01*
X181575500Y-65911007D01*
X181548580Y-65775672D01*
X181495775Y-65648189D01*
X181495774Y-65648187D01*
X181495771Y-65648182D01*
X181419114Y-65533458D01*
X181321541Y-65435885D01*
X181206817Y-65359228D01*
X181206806Y-65359222D01*
X181079328Y-65306420D01*
X181079318Y-65306418D01*
X181075420Y-65305642D01*
X181022037Y-65275746D01*
X180996421Y-65220181D01*
X181008358Y-65160171D01*
X181053288Y-65118639D01*
X181094781Y-65109545D01*
X182820333Y-65110358D01*
X182878513Y-65129293D01*
X182914454Y-65178810D01*
X182919285Y-65209428D01*
X182899713Y-92700570D01*
X182880764Y-92758748D01*
X182831239Y-92794676D01*
X182800713Y-92799500D01*
X178660117Y-92799500D01*
X178586428Y-92830022D01*
X178530022Y-92886428D01*
X178499500Y-92960117D01*
X178499500Y-97739882D01*
X178530022Y-97813571D01*
X178530023Y-97813572D01*
X178530024Y-97813574D01*
X178586426Y-97869976D01*
X178586427Y-97869976D01*
X178586428Y-97869977D01*
X178660117Y-97900500D01*
X178660118Y-97900500D01*
X178739882Y-97900500D01*
X182801329Y-97900500D01*
X182859520Y-97919407D01*
X182895484Y-97968907D01*
X182900328Y-97999224D01*
X182917986Y-104364560D01*
X182918668Y-104610225D01*
X182899922Y-104668468D01*
X182850522Y-104704569D01*
X182819668Y-104709500D01*
X148419500Y-104709500D01*
X148361309Y-104690593D01*
X148325345Y-104641093D01*
X148320500Y-104610500D01*
X148320500Y-102162324D01*
X148699500Y-102162324D01*
X148699500Y-102437675D01*
X148734616Y-102704407D01*
X148735440Y-102710666D01*
X148772617Y-102849412D01*
X148806704Y-102976631D01*
X148912074Y-103231016D01*
X148912077Y-103231021D01*
X149042980Y-103457752D01*
X149049753Y-103469482D01*
X149104912Y-103541367D01*
X149217372Y-103687928D01*
X149412072Y-103882628D01*
X149630521Y-104050249D01*
X149868979Y-104187923D01*
X149868980Y-104187923D01*
X149868983Y-104187925D01*
X150123368Y-104293295D01*
X150389334Y-104364560D01*
X150662326Y-104400500D01*
X150662327Y-104400500D01*
X150937673Y-104400500D01*
X150937674Y-104400500D01*
X151210666Y-104364560D01*
X151476632Y-104293295D01*
X151731021Y-104187923D01*
X151969479Y-104050249D01*
X152187928Y-103882628D01*
X152382628Y-103687928D01*
X152550249Y-103469479D01*
X152687923Y-103231021D01*
X152793295Y-102976632D01*
X152864560Y-102710666D01*
X152900500Y-102437674D01*
X152900500Y-102162326D01*
X152864560Y-101889334D01*
X152793295Y-101623368D01*
X152687923Y-101368979D01*
X152550249Y-101130521D01*
X152382628Y-100912072D01*
X152187928Y-100717372D01*
X151969479Y-100549751D01*
X151731021Y-100412077D01*
X151731016Y-100412074D01*
X151476631Y-100306704D01*
X151355521Y-100274253D01*
X151210666Y-100235440D01*
X151210659Y-100235439D01*
X150937675Y-100199500D01*
X150937674Y-100199500D01*
X150662326Y-100199500D01*
X150662324Y-100199500D01*
X150389340Y-100235439D01*
X150389338Y-100235439D01*
X150389334Y-100235440D01*
X150288805Y-100262376D01*
X150123368Y-100306704D01*
X149868983Y-100412074D01*
X149630517Y-100549753D01*
X149412075Y-100717369D01*
X149217369Y-100912075D01*
X149049753Y-101130517D01*
X148912074Y-101368983D01*
X148806704Y-101623368D01*
X148762376Y-101788805D01*
X148735440Y-101889334D01*
X148735439Y-101889338D01*
X148735439Y-101889340D01*
X148699500Y-102162324D01*
X148320500Y-102162324D01*
X148320500Y-96105199D01*
X149937500Y-96105199D01*
X149937500Y-96294800D01*
X149974487Y-96480748D01*
X149974489Y-96480754D01*
X150047043Y-96655914D01*
X150047044Y-96655915D01*
X150152378Y-96813558D01*
X150286442Y-96947622D01*
X150444085Y-97052956D01*
X150619249Y-97125512D01*
X150805202Y-97162500D01*
X150805203Y-97162500D01*
X150994797Y-97162500D01*
X150994798Y-97162500D01*
X151180751Y-97125512D01*
X151355915Y-97052956D01*
X151513558Y-96947622D01*
X151647622Y-96813558D01*
X151752956Y-96655915D01*
X151825512Y-96480751D01*
X151862500Y-96294798D01*
X151862500Y-96105202D01*
X151825512Y-95919249D01*
X151752956Y-95744085D01*
X151647622Y-95586442D01*
X151513558Y-95452378D01*
X151355915Y-95347044D01*
X151355916Y-95347044D01*
X151355914Y-95347043D01*
X151180754Y-95274489D01*
X151180748Y-95274487D01*
X150994800Y-95237500D01*
X150994798Y-95237500D01*
X150805202Y-95237500D01*
X150805199Y-95237500D01*
X150619251Y-95274487D01*
X150619245Y-95274489D01*
X150444085Y-95347043D01*
X150286442Y-95452378D01*
X150286438Y-95452381D01*
X150152381Y-95586438D01*
X150152378Y-95586442D01*
X150047043Y-95744085D01*
X149974489Y-95919245D01*
X149974487Y-95919251D01*
X149937500Y-96105199D01*
X148320500Y-96105199D01*
X148320500Y-93605199D01*
X149937500Y-93605199D01*
X149937500Y-93794800D01*
X149974487Y-93980748D01*
X149974489Y-93980754D01*
X150047043Y-94155914D01*
X150047044Y-94155915D01*
X150152378Y-94313558D01*
X150286442Y-94447622D01*
X150444085Y-94552956D01*
X150619249Y-94625512D01*
X150805202Y-94662500D01*
X150805203Y-94662500D01*
X150994797Y-94662500D01*
X150994798Y-94662500D01*
X151180751Y-94625512D01*
X151355915Y-94552956D01*
X151513558Y-94447622D01*
X151647622Y-94313558D01*
X151752956Y-94155915D01*
X151825512Y-93980751D01*
X151862500Y-93794798D01*
X151862500Y-93605202D01*
X151825512Y-93419249D01*
X151752956Y-93244085D01*
X151647622Y-93086442D01*
X151513558Y-92952378D01*
X151408223Y-92881995D01*
X151355914Y-92847043D01*
X151180754Y-92774489D01*
X151180748Y-92774487D01*
X150994800Y-92737500D01*
X150994798Y-92737500D01*
X150805202Y-92737500D01*
X150805199Y-92737500D01*
X150619251Y-92774487D01*
X150619245Y-92774489D01*
X150444085Y-92847043D01*
X150286442Y-92952378D01*
X150286438Y-92952381D01*
X150152381Y-93086438D01*
X150152378Y-93086442D01*
X150047043Y-93244085D01*
X149974489Y-93419245D01*
X149974487Y-93419251D01*
X149937500Y-93605199D01*
X148320500Y-93605199D01*
X148320500Y-91105199D01*
X149937500Y-91105199D01*
X149937500Y-91294800D01*
X149974487Y-91480748D01*
X149974489Y-91480754D01*
X150047043Y-91655914D01*
X150047044Y-91655915D01*
X150152378Y-91813558D01*
X150286442Y-91947622D01*
X150444085Y-92052956D01*
X150619249Y-92125512D01*
X150805202Y-92162500D01*
X150805203Y-92162500D01*
X150994797Y-92162500D01*
X150994798Y-92162500D01*
X151180751Y-92125512D01*
X151355915Y-92052956D01*
X151513558Y-91947622D01*
X151647622Y-91813558D01*
X151752956Y-91655915D01*
X151825512Y-91480751D01*
X151862500Y-91294798D01*
X151862500Y-91105202D01*
X151825512Y-90919249D01*
X151752956Y-90744085D01*
X151647622Y-90586442D01*
X151513558Y-90452378D01*
X151408223Y-90381995D01*
X151355914Y-90347043D01*
X151180754Y-90274489D01*
X151180748Y-90274487D01*
X150994800Y-90237500D01*
X150994798Y-90237500D01*
X150805202Y-90237500D01*
X150805199Y-90237500D01*
X150619251Y-90274487D01*
X150619245Y-90274489D01*
X150444085Y-90347043D01*
X150286442Y-90452378D01*
X150286438Y-90452381D01*
X150152381Y-90586438D01*
X150152378Y-90586442D01*
X150047043Y-90744085D01*
X149974489Y-90919245D01*
X149974487Y-90919251D01*
X149937500Y-91105199D01*
X148320500Y-91105199D01*
X148320500Y-77747273D01*
X150399500Y-77747273D01*
X150399500Y-77852727D01*
X150407079Y-77881015D01*
X150407761Y-77891236D01*
X150407764Y-77891279D01*
X150408644Y-77904459D01*
X150408645Y-77904460D01*
X150499235Y-78240924D01*
X150499240Y-78240938D01*
X150519773Y-78290374D01*
X150522791Y-78295592D01*
X150522798Y-78295604D01*
X150543626Y-78324364D01*
X150552218Y-78336228D01*
X150549685Y-78338062D01*
X150571200Y-78379755D01*
X150572500Y-78395745D01*
X150572500Y-81054747D01*
X150572500Y-81145253D01*
X150607135Y-81228868D01*
X151671132Y-82292866D01*
X151730252Y-82317353D01*
X151730256Y-82317356D01*
X151730257Y-82317355D01*
X151754747Y-82327500D01*
X151754748Y-82327500D01*
X151845253Y-82327500D01*
X153406132Y-82327500D01*
X153464323Y-82346407D01*
X153500287Y-82395907D01*
X153500287Y-82457093D01*
X153491870Y-82475996D01*
X153451793Y-82545413D01*
X153424500Y-82647273D01*
X153424500Y-82752727D01*
X153451793Y-82854587D01*
X153451794Y-82854589D01*
X153451794Y-82854590D01*
X153493889Y-82927500D01*
X153504520Y-82945913D01*
X153579087Y-83020480D01*
X153670413Y-83073207D01*
X153772273Y-83100500D01*
X153772275Y-83100500D01*
X153877728Y-83100500D01*
X153886446Y-83098163D01*
X153896656Y-83095427D01*
X153915686Y-83092273D01*
X153929463Y-83091354D01*
X154265926Y-83000764D01*
X154315373Y-82980227D01*
X154320604Y-82977202D01*
X154354661Y-82952538D01*
X154354661Y-82952537D01*
X154361228Y-82947782D01*
X154363059Y-82950310D01*
X154404789Y-82928794D01*
X154420746Y-82927500D01*
X159864759Y-82927500D01*
X159922950Y-82946407D01*
X159934763Y-82956496D01*
X160543504Y-83565237D01*
X160571281Y-83619754D01*
X160572500Y-83635241D01*
X160572500Y-93293920D01*
X160553593Y-93352111D01*
X160504093Y-93388075D01*
X160442907Y-93388075D01*
X160393407Y-93352111D01*
X160387764Y-93343421D01*
X160362066Y-93298912D01*
X160362065Y-93298910D01*
X159815622Y-92752467D01*
X159790000Y-92708088D01*
X159773207Y-92645413D01*
X159762457Y-92626794D01*
X159720481Y-92554089D01*
X159720480Y-92554087D01*
X159645913Y-92479520D01*
X159554587Y-92426793D01*
X159452727Y-92399500D01*
X159347273Y-92399500D01*
X159245413Y-92426793D01*
X159245412Y-92426793D01*
X159245410Y-92426794D01*
X159245409Y-92426794D01*
X159154089Y-92479518D01*
X159079518Y-92554089D01*
X159026794Y-92645409D01*
X159026794Y-92645410D01*
X159026793Y-92645412D01*
X159026793Y-92645413D01*
X158999500Y-92747273D01*
X158999500Y-92852727D01*
X159026202Y-92952381D01*
X159026794Y-92954589D01*
X159026794Y-92954590D01*
X159079518Y-93045910D01*
X159079520Y-93045913D01*
X159154087Y-93120480D01*
X159239865Y-93170004D01*
X159245410Y-93173205D01*
X159245413Y-93173207D01*
X159308088Y-93190000D01*
X159352467Y-93215622D01*
X159743504Y-93606659D01*
X159771281Y-93661176D01*
X159772500Y-93676663D01*
X159772500Y-97813932D01*
X159753593Y-97872123D01*
X159743096Y-97884341D01*
X159729742Y-97897539D01*
X159724933Y-97905095D01*
X159695907Y-97979830D01*
X159695906Y-97979834D01*
X159605348Y-98494636D01*
X159605393Y-98497473D01*
X159602033Y-98524652D01*
X159599500Y-98534108D01*
X159599500Y-98665892D01*
X159615438Y-98725374D01*
X159633609Y-98793190D01*
X159699496Y-98907309D01*
X159699498Y-98907311D01*
X159699500Y-98907314D01*
X159792686Y-99000500D01*
X159792688Y-99000501D01*
X159792690Y-99000503D01*
X159906810Y-99066390D01*
X159906808Y-99066390D01*
X159906812Y-99066391D01*
X159906814Y-99066392D01*
X160034108Y-99100500D01*
X160034110Y-99100500D01*
X160165890Y-99100500D01*
X160165892Y-99100500D01*
X160293186Y-99066392D01*
X160293188Y-99066390D01*
X160293190Y-99066390D01*
X160407309Y-99000503D01*
X160407309Y-99000502D01*
X160407314Y-99000500D01*
X160500500Y-98907314D01*
X160566392Y-98793186D01*
X160600500Y-98665892D01*
X160600500Y-98534108D01*
X160597953Y-98524604D01*
X160594604Y-98496765D01*
X160594652Y-98494637D01*
X160536252Y-98162644D01*
X160544792Y-98102060D01*
X160587313Y-98058064D01*
X160647573Y-98047464D01*
X160702555Y-98074308D01*
X160703701Y-98075434D01*
X161207135Y-98578868D01*
X161207134Y-98578868D01*
X161243536Y-98615269D01*
X161271132Y-98642865D01*
X161354747Y-98677500D01*
X168364826Y-98677500D01*
X168383647Y-98683615D01*
X168403361Y-98685308D01*
X168412063Y-98692847D01*
X168423017Y-98696407D01*
X168434649Y-98712417D01*
X168449603Y-98725374D01*
X168452169Y-98736532D01*
X168458981Y-98745907D01*
X168463463Y-98784969D01*
X168463441Y-98785220D01*
X168450130Y-98931969D01*
X168450470Y-98936291D01*
X168449773Y-98944419D01*
X168449500Y-98945065D01*
X168449500Y-98947273D01*
X168449500Y-99052727D01*
X168462301Y-99100500D01*
X168476794Y-99154589D01*
X168476794Y-99154590D01*
X168529518Y-99245910D01*
X168529520Y-99245913D01*
X168604087Y-99320480D01*
X168695413Y-99373207D01*
X168797273Y-99400500D01*
X168797275Y-99400500D01*
X168902725Y-99400500D01*
X168902727Y-99400500D01*
X169004587Y-99373207D01*
X169004599Y-99373199D01*
X169007606Y-99371955D01*
X169009945Y-99371770D01*
X169010855Y-99371527D01*
X169010900Y-99371695D01*
X169068602Y-99367149D01*
X169120774Y-99399114D01*
X169144194Y-99455640D01*
X169144500Y-99463416D01*
X169144500Y-100092759D01*
X169125593Y-100150950D01*
X169115504Y-100162762D01*
X168834764Y-100443503D01*
X168780247Y-100471281D01*
X168764760Y-100472500D01*
X166954745Y-100472500D01*
X166871134Y-100507132D01*
X164758569Y-102619696D01*
X164704052Y-102647473D01*
X164689517Y-102647930D01*
X164689529Y-102648605D01*
X164683967Y-102648702D01*
X164683966Y-102648702D01*
X164679527Y-102649280D01*
X164675087Y-102649859D01*
X164599115Y-102675542D01*
X164599108Y-102675545D01*
X164297104Y-102849422D01*
X164291394Y-102852834D01*
X164290770Y-102853221D01*
X164290763Y-102853226D01*
X164286136Y-102857677D01*
X164267017Y-102872054D01*
X164254089Y-102879518D01*
X164179518Y-102954089D01*
X164126794Y-103045409D01*
X164126794Y-103045410D01*
X164126793Y-103045412D01*
X164126793Y-103045413D01*
X164099500Y-103147273D01*
X164099500Y-103252727D01*
X164126793Y-103354587D01*
X164126794Y-103354589D01*
X164126794Y-103354590D01*
X164164874Y-103420546D01*
X164179520Y-103445913D01*
X164254087Y-103520480D01*
X164345413Y-103573207D01*
X164447273Y-103600500D01*
X164447275Y-103600500D01*
X164552725Y-103600500D01*
X164552727Y-103600500D01*
X164654587Y-103573207D01*
X164745913Y-103520480D01*
X164820480Y-103445913D01*
X164830279Y-103428938D01*
X164841504Y-103413254D01*
X164850595Y-103402864D01*
X165024454Y-103100892D01*
X165044896Y-103051407D01*
X165046456Y-103045569D01*
X165053099Y-103004036D01*
X165053098Y-103004034D01*
X165054379Y-102996029D01*
X165057465Y-102996522D01*
X165071752Y-102951813D01*
X165082117Y-102939615D01*
X165803496Y-102218237D01*
X165858013Y-102190460D01*
X165918445Y-102200031D01*
X165961710Y-102243296D01*
X165972500Y-102288241D01*
X165972500Y-102606835D01*
X165953593Y-102665026D01*
X165943620Y-102675642D01*
X165944105Y-102676110D01*
X165940244Y-102680107D01*
X165934786Y-102687204D01*
X165934782Y-102687210D01*
X165923180Y-102710666D01*
X165899236Y-102759074D01*
X165835437Y-102996029D01*
X165808627Y-103095603D01*
X165807004Y-103102040D01*
X165806851Y-103102693D01*
X165806850Y-103102703D01*
X165806724Y-103109147D01*
X165803371Y-103132822D01*
X165799500Y-103147269D01*
X165799500Y-103252726D01*
X165819800Y-103328490D01*
X165820752Y-103357498D01*
X165822500Y-103357498D01*
X165822500Y-103367247D01*
X165822500Y-103457753D01*
X165857135Y-103541368D01*
X165921132Y-103605365D01*
X166004747Y-103640000D01*
X166004748Y-103640000D01*
X166095251Y-103640000D01*
X166095253Y-103640000D01*
X166172422Y-103608034D01*
X166210304Y-103600500D01*
X166252725Y-103600500D01*
X166252727Y-103600500D01*
X166354587Y-103573207D01*
X166445913Y-103520480D01*
X166520480Y-103445913D01*
X166573207Y-103354587D01*
X166600500Y-103252727D01*
X166600500Y-103147273D01*
X166595426Y-103128340D01*
X166592273Y-103109309D01*
X166592262Y-103109147D01*
X166591354Y-103095536D01*
X166500764Y-102759074D01*
X166480227Y-102709627D01*
X166477202Y-102704396D01*
X166452538Y-102670339D01*
X166452537Y-102670338D01*
X166447782Y-102663772D01*
X166450310Y-102661940D01*
X166428794Y-102620211D01*
X166427500Y-102604254D01*
X166427500Y-102162324D01*
X178399500Y-102162324D01*
X178399500Y-102437675D01*
X178434616Y-102704407D01*
X178435440Y-102710666D01*
X178472617Y-102849412D01*
X178506704Y-102976631D01*
X178612074Y-103231016D01*
X178612077Y-103231021D01*
X178742980Y-103457752D01*
X178749753Y-103469482D01*
X178804912Y-103541367D01*
X178917372Y-103687928D01*
X179112072Y-103882628D01*
X179330521Y-104050249D01*
X179568979Y-104187923D01*
X179568980Y-104187923D01*
X179568983Y-104187925D01*
X179823368Y-104293295D01*
X180089334Y-104364560D01*
X180362326Y-104400500D01*
X180362327Y-104400500D01*
X180637673Y-104400500D01*
X180637674Y-104400500D01*
X180910666Y-104364560D01*
X181176632Y-104293295D01*
X181431021Y-104187923D01*
X181669479Y-104050249D01*
X181887928Y-103882628D01*
X182082628Y-103687928D01*
X182250249Y-103469479D01*
X182387923Y-103231021D01*
X182493295Y-102976632D01*
X182564560Y-102710666D01*
X182600500Y-102437674D01*
X182600500Y-102162326D01*
X182564560Y-101889334D01*
X182493295Y-101623368D01*
X182387923Y-101368979D01*
X182250249Y-101130521D01*
X182082628Y-100912072D01*
X181887928Y-100717372D01*
X181669479Y-100549751D01*
X181431021Y-100412077D01*
X181431016Y-100412074D01*
X181176631Y-100306704D01*
X181055521Y-100274253D01*
X180910666Y-100235440D01*
X180910659Y-100235439D01*
X180637675Y-100199500D01*
X180637674Y-100199500D01*
X180362326Y-100199500D01*
X180362324Y-100199500D01*
X180089340Y-100235439D01*
X180089338Y-100235439D01*
X180089334Y-100235440D01*
X179988805Y-100262376D01*
X179823368Y-100306704D01*
X179568983Y-100412074D01*
X179330517Y-100549753D01*
X179112075Y-100717369D01*
X178917369Y-100912075D01*
X178749753Y-101130517D01*
X178612074Y-101368983D01*
X178506704Y-101623368D01*
X178462376Y-101788805D01*
X178435440Y-101889334D01*
X178435439Y-101889338D01*
X178435439Y-101889340D01*
X178399500Y-102162324D01*
X166427500Y-102162324D01*
X166427500Y-102099103D01*
X166446407Y-102040912D01*
X166456496Y-102029099D01*
X167201100Y-101284496D01*
X167255617Y-101256719D01*
X167271104Y-101255500D01*
X169081114Y-101255500D01*
X169081115Y-101255500D01*
X169164730Y-101220865D01*
X169892866Y-100492730D01*
X169913256Y-100443503D01*
X169927500Y-100409116D01*
X169927500Y-98627023D01*
X169922632Y-98615270D01*
X169922632Y-98615269D01*
X169892867Y-98543410D01*
X169892866Y-98543409D01*
X169892866Y-98543408D01*
X167957496Y-96608038D01*
X167929719Y-96553521D01*
X167928500Y-96538034D01*
X167928500Y-94134108D01*
X169099500Y-94134108D01*
X169099500Y-94265892D01*
X169129579Y-94378151D01*
X169133609Y-94393190D01*
X169199496Y-94507309D01*
X169199498Y-94507311D01*
X169199500Y-94507314D01*
X169292686Y-94600500D01*
X169301205Y-94605418D01*
X169323248Y-94622725D01*
X169324730Y-94624274D01*
X169324733Y-94624276D01*
X169752784Y-94924260D01*
X169752790Y-94924263D01*
X169808876Y-94951944D01*
X169808877Y-94951944D01*
X169808880Y-94951946D01*
X169815595Y-94954065D01*
X169865919Y-94963268D01*
X169874443Y-94964827D01*
X169873873Y-94967939D01*
X169917748Y-94982495D01*
X169929068Y-94992223D01*
X170660376Y-95723531D01*
X170686430Y-95769580D01*
X170709874Y-95863591D01*
X170709876Y-95863597D01*
X170713916Y-95871576D01*
X170713917Y-95871577D01*
X170713919Y-95871580D01*
X170713921Y-95871583D01*
X170763417Y-95934681D01*
X171210929Y-96318743D01*
X171217686Y-96325500D01*
X171222517Y-96328289D01*
X171223895Y-96329403D01*
X171224983Y-96330231D01*
X171225322Y-96330489D01*
X171225796Y-96330703D01*
X171225870Y-96330763D01*
X171234209Y-96335039D01*
X171331814Y-96391392D01*
X171459108Y-96425500D01*
X171459110Y-96425500D01*
X171590890Y-96425500D01*
X171590892Y-96425500D01*
X171718186Y-96391392D01*
X171718188Y-96391390D01*
X171718190Y-96391390D01*
X171832309Y-96325503D01*
X171832309Y-96325502D01*
X171832314Y-96325500D01*
X171925500Y-96232314D01*
X171991392Y-96118186D01*
X172025500Y-95990892D01*
X172025500Y-95859108D01*
X171991392Y-95731814D01*
X171991390Y-95731811D01*
X171991390Y-95731809D01*
X171925503Y-95617690D01*
X171925501Y-95617688D01*
X171925500Y-95617686D01*
X171832314Y-95524500D01*
X171832311Y-95524498D01*
X171832309Y-95524496D01*
X171718189Y-95458609D01*
X171718185Y-95458607D01*
X171668938Y-95445411D01*
X171644531Y-95435213D01*
X171641195Y-95433259D01*
X171244700Y-95295888D01*
X171211545Y-95287419D01*
X171211529Y-95287415D01*
X171211526Y-95287415D01*
X171211519Y-95287413D01*
X171211510Y-95287412D01*
X171207703Y-95286771D01*
X171207696Y-95286770D01*
X171178245Y-95283476D01*
X171178587Y-95280415D01*
X171132336Y-95266795D01*
X171118276Y-95255121D01*
X170387409Y-94524254D01*
X170359632Y-94469737D01*
X170358415Y-94453672D01*
X170358524Y-94434903D01*
X170358523Y-94434902D01*
X170358524Y-94434899D01*
X170356582Y-94426157D01*
X170324260Y-94352784D01*
X170250029Y-94246863D01*
X170024275Y-93924731D01*
X170024273Y-93924729D01*
X170022239Y-93922759D01*
X170005391Y-93901158D01*
X170000500Y-93892686D01*
X169907314Y-93799500D01*
X169907311Y-93799498D01*
X169907309Y-93799496D01*
X169793189Y-93733609D01*
X169793191Y-93733609D01*
X169743799Y-93720375D01*
X169665892Y-93699500D01*
X169534108Y-93699500D01*
X169456200Y-93720375D01*
X169406809Y-93733609D01*
X169292690Y-93799496D01*
X169199496Y-93892690D01*
X169133609Y-94006809D01*
X169133608Y-94006814D01*
X169099500Y-94134108D01*
X167928500Y-94134108D01*
X167928500Y-90755747D01*
X167923669Y-90744085D01*
X167893865Y-90672132D01*
X167888888Y-90667155D01*
X167829868Y-90608134D01*
X167829868Y-90608135D01*
X167606170Y-90384437D01*
X167578393Y-90329920D01*
X167577212Y-90317164D01*
X167576443Y-90289209D01*
X167574211Y-90280537D01*
X167553513Y-90237500D01*
X167539456Y-90208271D01*
X167390704Y-90010409D01*
X167337169Y-89939199D01*
X167337166Y-89939196D01*
X167334160Y-89935872D01*
X167334395Y-89935659D01*
X167324940Y-89923840D01*
X167324429Y-89924233D01*
X167320485Y-89919093D01*
X167320481Y-89919089D01*
X167320480Y-89919087D01*
X167245913Y-89844520D01*
X167154587Y-89791793D01*
X167052727Y-89764500D01*
X166947273Y-89764500D01*
X166845413Y-89791793D01*
X166845412Y-89791793D01*
X166845410Y-89791794D01*
X166845409Y-89791794D01*
X166754089Y-89844518D01*
X166679518Y-89919089D01*
X166626794Y-90010409D01*
X166626794Y-90010410D01*
X166626793Y-90010412D01*
X166626793Y-90010413D01*
X166599500Y-90112273D01*
X166599500Y-90217727D01*
X166618654Y-90289210D01*
X166626794Y-90319589D01*
X166626794Y-90319590D01*
X166642645Y-90347044D01*
X166679520Y-90410913D01*
X166754087Y-90485480D01*
X166781652Y-90501395D01*
X166802376Y-90513360D01*
X166805662Y-90515257D01*
X166821022Y-90525771D01*
X166831998Y-90530462D01*
X166845413Y-90538207D01*
X166851231Y-90539765D01*
X166864508Y-90544355D01*
X167151844Y-90667158D01*
X167178218Y-90675399D01*
X167191395Y-90679517D01*
X167191396Y-90679517D01*
X167191402Y-90679519D01*
X167196000Y-90680460D01*
X167225684Y-90684310D01*
X167225684Y-90684309D01*
X167232994Y-90685258D01*
X167232594Y-90688336D01*
X167278252Y-90702173D01*
X167291671Y-90713404D01*
X167444504Y-90866237D01*
X167448130Y-90873354D01*
X167454593Y-90878050D01*
X167461756Y-90900098D01*
X167472281Y-90920754D01*
X167473500Y-90936241D01*
X167473500Y-91103100D01*
X167454593Y-91161291D01*
X167405093Y-91197255D01*
X167343907Y-91197255D01*
X167304498Y-91173105D01*
X167245913Y-91114520D01*
X167229775Y-91105203D01*
X167154589Y-91061794D01*
X167154588Y-91061793D01*
X167154587Y-91061793D01*
X167052727Y-91034500D01*
X166947273Y-91034500D01*
X166845413Y-91061793D01*
X166845412Y-91061793D01*
X166845410Y-91061794D01*
X166845409Y-91061794D01*
X166754089Y-91114518D01*
X166679518Y-91189089D01*
X166626794Y-91280409D01*
X166626794Y-91280410D01*
X166626793Y-91280412D01*
X166626793Y-91280413D01*
X166599500Y-91382273D01*
X166599500Y-91487727D01*
X166626793Y-91589587D01*
X166626794Y-91589589D01*
X166626794Y-91589590D01*
X166665087Y-91655915D01*
X166679520Y-91680913D01*
X166754087Y-91755480D01*
X166845413Y-91808207D01*
X166845415Y-91808207D01*
X166845416Y-91808208D01*
X166896279Y-91821836D01*
X166897213Y-91822091D01*
X166904199Y-91824036D01*
X166926957Y-91834140D01*
X166997676Y-91850064D01*
X167000056Y-91850727D01*
X167023580Y-91866333D01*
X167047864Y-91880746D01*
X167048887Y-91883121D01*
X167051042Y-91884551D01*
X167060900Y-91911003D01*
X167072075Y-91936937D01*
X167072289Y-91941559D01*
X167072410Y-91941883D01*
X167072319Y-91942208D01*
X167072500Y-91946099D01*
X167072500Y-96690885D01*
X167072500Y-96781391D01*
X167107135Y-96865006D01*
X168026891Y-97784763D01*
X168295624Y-98053496D01*
X168323401Y-98108013D01*
X168313830Y-98168445D01*
X168270565Y-98211710D01*
X168225620Y-98222500D01*
X161535241Y-98222500D01*
X161477050Y-98203593D01*
X161465237Y-98193504D01*
X161056496Y-97784763D01*
X161028719Y-97730246D01*
X161027500Y-97714759D01*
X161027500Y-85122273D01*
X162999500Y-85122273D01*
X162999500Y-85227727D01*
X163026793Y-85329587D01*
X163026794Y-85329589D01*
X163026794Y-85329590D01*
X163071898Y-85407712D01*
X163079520Y-85420913D01*
X163154087Y-85495480D01*
X163245413Y-85548207D01*
X163347273Y-85575500D01*
X163352620Y-85575500D01*
X163359916Y-85575769D01*
X163367159Y-85576304D01*
X163369954Y-85576930D01*
X163378348Y-85577131D01*
X163380796Y-85577312D01*
X163406940Y-85587995D01*
X163433591Y-85597366D01*
X163435053Y-85599483D01*
X163437435Y-85600457D01*
X163452304Y-85624463D01*
X163468360Y-85647712D01*
X163468871Y-85651209D01*
X163469653Y-85652472D01*
X163469452Y-85655187D01*
X163472500Y-85676043D01*
X163472500Y-86182645D01*
X163472500Y-86273151D01*
X163507135Y-86356766D01*
X163507138Y-86356769D01*
X163607134Y-86456766D01*
X163671128Y-86520759D01*
X163671132Y-86520763D01*
X163754747Y-86555398D01*
X165311706Y-86555398D01*
X165369897Y-86574305D01*
X165403586Y-86617533D01*
X165509520Y-86881564D01*
X165509522Y-86881567D01*
X165509525Y-86881574D01*
X165510857Y-86883844D01*
X165521091Y-86908310D01*
X165526792Y-86929587D01*
X165526794Y-86929590D01*
X165579518Y-87020910D01*
X165579520Y-87020913D01*
X165654087Y-87095480D01*
X165745413Y-87148207D01*
X165847273Y-87175500D01*
X165847275Y-87175500D01*
X165952725Y-87175500D01*
X165952727Y-87175500D01*
X166054587Y-87148207D01*
X166145913Y-87095480D01*
X166220480Y-87020913D01*
X166273207Y-86929587D01*
X166300500Y-86827727D01*
X166300500Y-86722273D01*
X166273207Y-86620413D01*
X166220480Y-86529087D01*
X166145913Y-86454520D01*
X166145910Y-86454518D01*
X166145906Y-86454514D01*
X166141058Y-86450794D01*
X166132959Y-86443142D01*
X166132642Y-86443476D01*
X166129125Y-86440123D01*
X166129123Y-86440122D01*
X166129122Y-86440120D01*
X165866871Y-86235210D01*
X165866869Y-86235209D01*
X165866868Y-86235208D01*
X165807253Y-86202837D01*
X165807254Y-86202837D01*
X165800050Y-86200357D01*
X165735855Y-86187753D01*
X165736469Y-86184625D01*
X165693088Y-86169903D01*
X165682313Y-86160579D01*
X165656765Y-86135032D01*
X165656766Y-86135032D01*
X165597640Y-86110542D01*
X165573151Y-86100398D01*
X165573150Y-86100398D01*
X164026500Y-86100398D01*
X163968309Y-86081491D01*
X163932345Y-86031991D01*
X163927500Y-86001398D01*
X163927500Y-85553638D01*
X163946407Y-85495447D01*
X163954814Y-85485359D01*
X163960266Y-85479636D01*
X163964845Y-85471940D01*
X163989640Y-85407712D01*
X163987419Y-85316282D01*
X163985215Y-85307603D01*
X163950700Y-85235235D01*
X163737571Y-84949795D01*
X163737503Y-84949732D01*
X163737409Y-84949615D01*
X163734549Y-84946434D01*
X163734736Y-84946265D01*
X163724870Y-84933902D01*
X163724433Y-84934238D01*
X163720484Y-84929092D01*
X163720481Y-84929089D01*
X163720480Y-84929087D01*
X163645913Y-84854520D01*
X163554587Y-84801793D01*
X163452727Y-84774500D01*
X163347273Y-84774500D01*
X163245413Y-84801793D01*
X163245412Y-84801793D01*
X163245410Y-84801794D01*
X163245409Y-84801794D01*
X163154089Y-84854518D01*
X163079518Y-84929089D01*
X163026794Y-85020409D01*
X163026794Y-85020410D01*
X163026793Y-85020412D01*
X163026793Y-85020413D01*
X162999500Y-85122273D01*
X161027500Y-85122273D01*
X161027500Y-83454745D01*
X160992867Y-83371134D01*
X160992866Y-83371133D01*
X160992866Y-83371132D01*
X160128868Y-82507135D01*
X160128866Y-82507134D01*
X160121973Y-82500241D01*
X160123455Y-82498758D01*
X160093504Y-82460767D01*
X160091101Y-82399629D01*
X160125093Y-82348755D01*
X160182496Y-82327576D01*
X160186384Y-82327500D01*
X166421565Y-82327500D01*
X166476048Y-82343841D01*
X166532246Y-82380883D01*
X166532248Y-82380883D01*
X166532249Y-82380884D01*
X166622060Y-82398156D01*
X166631010Y-82397848D01*
X166709054Y-82379516D01*
X166709057Y-82379514D01*
X166709059Y-82379514D01*
X167042198Y-82227923D01*
X167042197Y-82227923D01*
X167049668Y-82224524D01*
X167054587Y-82223207D01*
X167062110Y-82218863D01*
X167083747Y-82209018D01*
X167098208Y-82201737D01*
X167099822Y-82200843D01*
X167103922Y-82198510D01*
X167105781Y-82196766D01*
X167107176Y-82196111D01*
X167108625Y-82195043D01*
X167108837Y-82195330D01*
X167161158Y-82170754D01*
X167221252Y-82182260D01*
X167263106Y-82226890D01*
X167272500Y-82268982D01*
X167272500Y-87723895D01*
X167253593Y-87782086D01*
X167248569Y-87788176D01*
X167246953Y-87790289D01*
X167204715Y-87858448D01*
X167204712Y-87858456D01*
X167045461Y-88283587D01*
X167045461Y-88283588D01*
X167042587Y-88291261D01*
X167033608Y-88306814D01*
X167025684Y-88336379D01*
X167024008Y-88340856D01*
X167018134Y-88356541D01*
X167015728Y-88363835D01*
X167011654Y-88373666D01*
X166959236Y-88509209D01*
X166920612Y-88556663D01*
X166866900Y-88572500D01*
X164756881Y-88572500D01*
X164673593Y-88594817D01*
X164673592Y-88594817D01*
X164598907Y-88637937D01*
X164188937Y-89047907D01*
X164145817Y-89122592D01*
X164145817Y-89122593D01*
X164123500Y-89205881D01*
X164123500Y-92474337D01*
X164121031Y-92481934D01*
X164122281Y-92489824D01*
X164111756Y-92510479D01*
X164104593Y-92532528D01*
X164094504Y-92544341D01*
X163995341Y-92643504D01*
X163940824Y-92671281D01*
X163925337Y-92672500D01*
X162360281Y-92672500D01*
X162310782Y-92659237D01*
X162254587Y-92626793D01*
X162152727Y-92599500D01*
X162047273Y-92599500D01*
X161945413Y-92626793D01*
X161945412Y-92626793D01*
X161945410Y-92626794D01*
X161945409Y-92626794D01*
X161854089Y-92679518D01*
X161779518Y-92754089D01*
X161726794Y-92845409D01*
X161726794Y-92845410D01*
X161726793Y-92845412D01*
X161726793Y-92845413D01*
X161699500Y-92947273D01*
X161699500Y-93052727D01*
X161726793Y-93154587D01*
X161726794Y-93154589D01*
X161726794Y-93154590D01*
X161779518Y-93245910D01*
X161779520Y-93245913D01*
X161854087Y-93320480D01*
X161945413Y-93373207D01*
X162047273Y-93400500D01*
X162047275Y-93400500D01*
X162152725Y-93400500D01*
X162152727Y-93400500D01*
X162254587Y-93373207D01*
X162310782Y-93340762D01*
X162360281Y-93327500D01*
X164145117Y-93327500D01*
X164145117Y-93327499D01*
X164228406Y-93305182D01*
X164228407Y-93305182D01*
X164228407Y-93305181D01*
X164228410Y-93305181D01*
X164303090Y-93262065D01*
X164713065Y-92852090D01*
X164756181Y-92777410D01*
X164778500Y-92694116D01*
X164778500Y-92607884D01*
X164778500Y-89425663D01*
X164780968Y-89418065D01*
X164779719Y-89410176D01*
X164790243Y-89389520D01*
X164797407Y-89367472D01*
X164807496Y-89355659D01*
X164906659Y-89256496D01*
X164961176Y-89228719D01*
X164976663Y-89227500D01*
X166922589Y-89227500D01*
X166980780Y-89246407D01*
X166987817Y-89252098D01*
X166995532Y-89257600D01*
X166995541Y-89257605D01*
X166995544Y-89257607D01*
X167057473Y-89287615D01*
X167128061Y-89291756D01*
X167148767Y-89292971D01*
X167148767Y-89292970D01*
X167148772Y-89292971D01*
X167157604Y-89291493D01*
X167232602Y-89263074D01*
X167324343Y-89205734D01*
X167326410Y-89205181D01*
X167401090Y-89162065D01*
X167412549Y-89150605D01*
X167765387Y-88930079D01*
X167768109Y-88928348D01*
X167768381Y-88928172D01*
X167772212Y-88924406D01*
X167792103Y-88909281D01*
X167807314Y-88900500D01*
X167900500Y-88807314D01*
X167966392Y-88693186D01*
X168000500Y-88565892D01*
X168000500Y-88475654D01*
X168000504Y-88474756D01*
X168005385Y-87936579D01*
X168005393Y-87934764D01*
X168005393Y-87934644D01*
X168005392Y-87934640D01*
X167990236Y-87858448D01*
X167989749Y-87855997D01*
X167986322Y-87847724D01*
X167949698Y-87789439D01*
X167944511Y-87781184D01*
X167947350Y-87779399D01*
X167928320Y-87739282D01*
X167927500Y-87726569D01*
X167927500Y-87600000D01*
X174500000Y-87600000D01*
X174500001Y-87600000D01*
X177605763Y-87600000D01*
X177605764Y-87600000D01*
X177600000Y-85700000D01*
X174500000Y-85700000D01*
X174500000Y-87600000D01*
X167927500Y-87600000D01*
X167927500Y-75176663D01*
X167946407Y-75118472D01*
X167956496Y-75106659D01*
X168512151Y-74551004D01*
X175044500Y-74551004D01*
X175044500Y-74688995D01*
X175071420Y-74824327D01*
X175071420Y-74824329D01*
X175124222Y-74951806D01*
X175124228Y-74951817D01*
X175200885Y-75066541D01*
X175298458Y-75164114D01*
X175413182Y-75240771D01*
X175413193Y-75240777D01*
X175460283Y-75260282D01*
X175540672Y-75293580D01*
X175676007Y-75320500D01*
X175676008Y-75320500D01*
X176913992Y-75320500D01*
X176913993Y-75320500D01*
X177049328Y-75293580D01*
X177176811Y-75240775D01*
X177291542Y-75164114D01*
X177389114Y-75066542D01*
X177465775Y-74951811D01*
X177518580Y-74824328D01*
X177545500Y-74688993D01*
X177545500Y-74551007D01*
X177545499Y-74551004D01*
X179374500Y-74551004D01*
X179374500Y-74688995D01*
X179401420Y-74824327D01*
X179401420Y-74824329D01*
X179454222Y-74951806D01*
X179454228Y-74951817D01*
X179530885Y-75066541D01*
X179628458Y-75164114D01*
X179743182Y-75240771D01*
X179743193Y-75240777D01*
X179790283Y-75260282D01*
X179870672Y-75293580D01*
X180006007Y-75320500D01*
X180006008Y-75320500D01*
X180943992Y-75320500D01*
X180943993Y-75320500D01*
X181079328Y-75293580D01*
X181206811Y-75240775D01*
X181321542Y-75164114D01*
X181419114Y-75066542D01*
X181495775Y-74951811D01*
X181548580Y-74824328D01*
X181575500Y-74688993D01*
X181575500Y-74551007D01*
X181548580Y-74415672D01*
X181495775Y-74288189D01*
X181495774Y-74288187D01*
X181495771Y-74288182D01*
X181419114Y-74173458D01*
X181321541Y-74075885D01*
X181206817Y-73999228D01*
X181206806Y-73999222D01*
X181079328Y-73946420D01*
X180943995Y-73919500D01*
X180943993Y-73919500D01*
X180006007Y-73919500D01*
X180006004Y-73919500D01*
X179870672Y-73946420D01*
X179870670Y-73946420D01*
X179743193Y-73999222D01*
X179743182Y-73999228D01*
X179628458Y-74075885D01*
X179530885Y-74173458D01*
X179454228Y-74288182D01*
X179454222Y-74288193D01*
X179401420Y-74415670D01*
X179401420Y-74415672D01*
X179374500Y-74551004D01*
X177545499Y-74551004D01*
X177518580Y-74415672D01*
X177465775Y-74288189D01*
X177465774Y-74288187D01*
X177465771Y-74288182D01*
X177389114Y-74173458D01*
X177291541Y-74075885D01*
X177176817Y-73999228D01*
X177176806Y-73999222D01*
X177049328Y-73946420D01*
X176913995Y-73919500D01*
X176913993Y-73919500D01*
X175676007Y-73919500D01*
X175676004Y-73919500D01*
X175540672Y-73946420D01*
X175540670Y-73946420D01*
X175413193Y-73999222D01*
X175413182Y-73999228D01*
X175298458Y-74075885D01*
X175200885Y-74173458D01*
X175124228Y-74288182D01*
X175124222Y-74288193D01*
X175071420Y-74415670D01*
X175071420Y-74415672D01*
X175044500Y-74551004D01*
X168512151Y-74551004D01*
X170006659Y-73056496D01*
X170061176Y-73028719D01*
X170076663Y-73027500D01*
X172913933Y-73027500D01*
X172972124Y-73046407D01*
X172984342Y-73056904D01*
X172997539Y-73070256D01*
X173005095Y-73075065D01*
X173048297Y-73091844D01*
X173079834Y-73104093D01*
X173594636Y-73194651D01*
X173597452Y-73194606D01*
X173624658Y-73197968D01*
X173634106Y-73200500D01*
X173634108Y-73200500D01*
X173765890Y-73200500D01*
X173765892Y-73200500D01*
X173893186Y-73166392D01*
X173893188Y-73166390D01*
X173893190Y-73166390D01*
X173972124Y-73120817D01*
X176269500Y-73120817D01*
X176269500Y-73259183D01*
X176305312Y-73392836D01*
X176374495Y-73512665D01*
X176472335Y-73610505D01*
X176592164Y-73679688D01*
X176725817Y-73715500D01*
X176725819Y-73715500D01*
X176864181Y-73715500D01*
X176864183Y-73715500D01*
X176997836Y-73679688D01*
X177117665Y-73610505D01*
X177215505Y-73512665D01*
X177284688Y-73392836D01*
X177320500Y-73259183D01*
X177320500Y-73120817D01*
X177284688Y-72987164D01*
X177215505Y-72867335D01*
X177117665Y-72769495D01*
X176997836Y-72700312D01*
X176864183Y-72664500D01*
X176725817Y-72664500D01*
X176592164Y-72700312D01*
X176472335Y-72769495D01*
X176374495Y-72867335D01*
X176305312Y-72987164D01*
X176269500Y-73120817D01*
X173972124Y-73120817D01*
X174007309Y-73100503D01*
X174007309Y-73100502D01*
X174007314Y-73100500D01*
X174100500Y-73007314D01*
X174166392Y-72893186D01*
X174200500Y-72765892D01*
X174200500Y-72634108D01*
X174166392Y-72506814D01*
X174166390Y-72506811D01*
X174166390Y-72506809D01*
X174100503Y-72392690D01*
X174100501Y-72392688D01*
X174100500Y-72392686D01*
X174007314Y-72299500D01*
X174007311Y-72299498D01*
X174007309Y-72299496D01*
X173893189Y-72233609D01*
X173893191Y-72233609D01*
X173843799Y-72220375D01*
X173765892Y-72199500D01*
X173634108Y-72199500D01*
X173634103Y-72199500D01*
X173624598Y-72202047D01*
X173596792Y-72205395D01*
X173594642Y-72205347D01*
X173594634Y-72205348D01*
X173079834Y-72295905D01*
X173079828Y-72295907D01*
X173020552Y-72316012D01*
X173014319Y-72319257D01*
X173014305Y-72319266D01*
X172965135Y-72353239D01*
X172963339Y-72350639D01*
X172921988Y-72371378D01*
X172907126Y-72372500D01*
X169856881Y-72372500D01*
X169773593Y-72394817D01*
X169773592Y-72394817D01*
X169698910Y-72437935D01*
X167398910Y-74737935D01*
X167398909Y-74737934D01*
X167337937Y-74798907D01*
X167294817Y-74873592D01*
X167294817Y-74873593D01*
X167272500Y-74956881D01*
X167272500Y-81431132D01*
X167253593Y-81489323D01*
X167204093Y-81525287D01*
X167142907Y-81525287D01*
X167124003Y-81516870D01*
X167054587Y-81476793D01*
X166952727Y-81449500D01*
X166847273Y-81449500D01*
X166745413Y-81476793D01*
X166745412Y-81476793D01*
X166745410Y-81476794D01*
X166745409Y-81476794D01*
X166654087Y-81529519D01*
X166579519Y-81604086D01*
X166560853Y-81636416D01*
X166554120Y-81646577D01*
X166542875Y-81661465D01*
X166542873Y-81661470D01*
X166467826Y-81816611D01*
X166425466Y-81860761D01*
X166378706Y-81872500D01*
X151935242Y-81872500D01*
X151877051Y-81853593D01*
X151865238Y-81843504D01*
X151056496Y-81034762D01*
X151028719Y-80980245D01*
X151027500Y-80964758D01*
X151027500Y-79047273D01*
X162799500Y-79047273D01*
X162799500Y-79152727D01*
X162826793Y-79254587D01*
X162826794Y-79254589D01*
X162826794Y-79254590D01*
X162879518Y-79345910D01*
X162879520Y-79345913D01*
X162954087Y-79420480D01*
X163045413Y-79473207D01*
X163147273Y-79500500D01*
X163147275Y-79500500D01*
X163252725Y-79500500D01*
X163252727Y-79500500D01*
X163354587Y-79473207D01*
X163445913Y-79420480D01*
X163520480Y-79345913D01*
X163573207Y-79254587D01*
X163600500Y-79152727D01*
X163600500Y-79143246D01*
X163601683Y-79131783D01*
X163601257Y-79131737D01*
X163601778Y-79126905D01*
X163601778Y-79126899D01*
X163601779Y-79126895D01*
X163605381Y-78742729D01*
X163589746Y-78662156D01*
X163586319Y-78653883D01*
X163549695Y-78595598D01*
X163544508Y-78587343D01*
X163547350Y-78585556D01*
X163528322Y-78545466D01*
X163527500Y-78532732D01*
X163527500Y-77888807D01*
X163546407Y-77830616D01*
X163558131Y-77817207D01*
X163568334Y-77807464D01*
X163573272Y-77799993D01*
X163603587Y-77725748D01*
X163668706Y-77389457D01*
X163668691Y-77383962D01*
X163672066Y-77358077D01*
X163673500Y-77352726D01*
X163673500Y-77247274D01*
X163672588Y-77243870D01*
X163646207Y-77145413D01*
X163593480Y-77054087D01*
X163518913Y-76979520D01*
X163427587Y-76926793D01*
X163325727Y-76899500D01*
X163220273Y-76899500D01*
X163118413Y-76926793D01*
X163118412Y-76926793D01*
X163118410Y-76926794D01*
X163118409Y-76926794D01*
X163027089Y-76979518D01*
X162952518Y-77054089D01*
X162899794Y-77145409D01*
X162899794Y-77145410D01*
X162872500Y-77247274D01*
X162872500Y-77352729D01*
X162881936Y-77387947D01*
X162884399Y-77400173D01*
X162886918Y-77418621D01*
X162886918Y-77418623D01*
X163003004Y-77755256D01*
X163003006Y-77755262D01*
X163023032Y-77797208D01*
X163023034Y-77797211D01*
X163023037Y-77797217D01*
X163025825Y-77801676D01*
X163025827Y-77801678D01*
X163025829Y-77801682D01*
X163051448Y-77835803D01*
X163048962Y-77837669D01*
X163071060Y-77879607D01*
X163072500Y-77896432D01*
X163072500Y-78532837D01*
X163053593Y-78591028D01*
X163044863Y-78601454D01*
X163023469Y-78623704D01*
X163023465Y-78623708D01*
X162866787Y-78868472D01*
X162866787Y-78868473D01*
X162859594Y-78886533D01*
X162853359Y-78899396D01*
X162826794Y-78945410D01*
X162826794Y-78945411D01*
X162826793Y-78945413D01*
X162799500Y-79047273D01*
X151027500Y-79047273D01*
X151027500Y-78393164D01*
X151046407Y-78334973D01*
X151056383Y-78324364D01*
X151055894Y-78323891D01*
X151059750Y-78319896D01*
X151059755Y-78319893D01*
X151065215Y-78312795D01*
X151100764Y-78240926D01*
X151191354Y-77904463D01*
X151192921Y-77898262D01*
X151193087Y-77897559D01*
X151193219Y-77891005D01*
X151196571Y-77867386D01*
X151200500Y-77852727D01*
X151200500Y-77747273D01*
X151173207Y-77645413D01*
X151120480Y-77554087D01*
X151045913Y-77479520D01*
X151038950Y-77475500D01*
X150954589Y-77426794D01*
X150954588Y-77426793D01*
X150954587Y-77426793D01*
X150852727Y-77399500D01*
X150747273Y-77399500D01*
X150645413Y-77426793D01*
X150645412Y-77426793D01*
X150645410Y-77426794D01*
X150645409Y-77426794D01*
X150554089Y-77479518D01*
X150479518Y-77554089D01*
X150426794Y-77645409D01*
X150426794Y-77645410D01*
X150426793Y-77645412D01*
X150426793Y-77645413D01*
X150399500Y-77747273D01*
X148320500Y-77747273D01*
X148320500Y-75749034D01*
X153874500Y-75749034D01*
X153874500Y-76000965D01*
X153913908Y-76249780D01*
X153913910Y-76249785D01*
X153991759Y-76489379D01*
X154106130Y-76713845D01*
X154254207Y-76917656D01*
X154432344Y-77095793D01*
X154636155Y-77243870D01*
X154860621Y-77358241D01*
X155100215Y-77436090D01*
X155100216Y-77436090D01*
X155100219Y-77436091D01*
X155349035Y-77475500D01*
X155349038Y-77475500D01*
X155600965Y-77475500D01*
X155849780Y-77436091D01*
X155849781Y-77436090D01*
X155849785Y-77436090D01*
X156089379Y-77358241D01*
X156313845Y-77243870D01*
X156517656Y-77095793D01*
X156695793Y-76917656D01*
X156843870Y-76713845D01*
X156958241Y-76489379D01*
X157036090Y-76249785D01*
X157075500Y-76000962D01*
X157075500Y-75749038D01*
X157075500Y-75749034D01*
X157036091Y-75500219D01*
X157036090Y-75500215D01*
X156958241Y-75260621D01*
X156843870Y-75036155D01*
X156695793Y-74832344D01*
X156517656Y-74654207D01*
X156313845Y-74506130D01*
X156313844Y-74506129D01*
X156313842Y-74506128D01*
X156089379Y-74391759D01*
X155849780Y-74313908D01*
X155600965Y-74274500D01*
X155600962Y-74274500D01*
X155349038Y-74274500D01*
X155349035Y-74274500D01*
X155100219Y-74313908D01*
X154860620Y-74391759D01*
X154636157Y-74506128D01*
X154432345Y-74654206D01*
X154254206Y-74832345D01*
X154106128Y-75036157D01*
X153991759Y-75260620D01*
X153913908Y-75500219D01*
X153874500Y-75749034D01*
X148320500Y-75749034D01*
X148320500Y-70799500D01*
X148339407Y-70741309D01*
X148388907Y-70705345D01*
X148419500Y-70700500D01*
X161501000Y-70700500D01*
X161559191Y-70719407D01*
X161595155Y-70768907D01*
X161600000Y-70799500D01*
X161600000Y-70900000D01*
X161600001Y-70900000D01*
X172799999Y-70900000D01*
X172800000Y-70900000D01*
X172800000Y-67340817D01*
X176269500Y-67340817D01*
X176269500Y-67479183D01*
X176305312Y-67612836D01*
X176374495Y-67732665D01*
X176472335Y-67830505D01*
X176592164Y-67899688D01*
X176725817Y-67935500D01*
X176725819Y-67935500D01*
X176864181Y-67935500D01*
X176864183Y-67935500D01*
X176997836Y-67899688D01*
X177117665Y-67830505D01*
X177215505Y-67732665D01*
X177284688Y-67612836D01*
X177320500Y-67479183D01*
X177320500Y-67340817D01*
X177284688Y-67207164D01*
X177215505Y-67087335D01*
X177117665Y-66989495D01*
X176997836Y-66920312D01*
X176864183Y-66884500D01*
X176725817Y-66884500D01*
X176592164Y-66920312D01*
X176472335Y-66989495D01*
X176374495Y-67087335D01*
X176305312Y-67207164D01*
X176269500Y-67340817D01*
X172800000Y-67340817D01*
X172800000Y-65204682D01*
X172818907Y-65146491D01*
X172868407Y-65110527D01*
X172899042Y-65105682D01*
X175538476Y-65106926D01*
G37*
%TD.AperFunction*%
%TD*%
%TA.AperFunction,Conductor*%
%TO.N,/VUSB*%
G36*
X167496223Y-88499053D02*
G01*
X167503672Y-88504024D01*
X167503694Y-88504057D01*
X167660016Y-88739421D01*
X167661739Y-88748208D01*
X167656743Y-88755640D01*
X167656471Y-88755816D01*
X167123686Y-89088811D01*
X167114854Y-89090289D01*
X167107563Y-89085090D01*
X167105785Y-89078889D01*
X167105785Y-88702182D01*
X167106573Y-88697962D01*
X167183496Y-88499053D01*
X167202218Y-88450640D01*
X167208398Y-88444161D01*
X167215404Y-88443384D01*
X167496223Y-88499053D01*
G37*
%TD.AperFunction*%
%TD*%
%TA.AperFunction,Conductor*%
%TO.N,/VUSB*%
G36*
X160298452Y-98009191D02*
G01*
X160301702Y-98015437D01*
X160392259Y-98530239D01*
X160390317Y-98538981D01*
X160383056Y-98543734D01*
X160102320Y-98600530D01*
X160097680Y-98600530D01*
X159816943Y-98543734D01*
X159809514Y-98538734D01*
X159807740Y-98530239D01*
X159898298Y-98015437D01*
X159903106Y-98007883D01*
X159909821Y-98005764D01*
X160290179Y-98005764D01*
X160298452Y-98009191D01*
G37*
%TD.AperFunction*%
%TD*%
%TA.AperFunction,Conductor*%
%TO.N,/VUSB*%
G36*
X173638981Y-72409682D02*
G01*
X173643734Y-72416943D01*
X173700530Y-72697680D01*
X173700530Y-72702320D01*
X173643734Y-72983056D01*
X173638734Y-72990485D01*
X173630239Y-72992259D01*
X173115437Y-72901701D01*
X173107883Y-72896893D01*
X173105764Y-72890178D01*
X173105764Y-72509821D01*
X173109191Y-72501548D01*
X173115435Y-72498298D01*
X173630239Y-72407740D01*
X173638981Y-72409682D01*
G37*
%TD.AperFunction*%
%TD*%
%TA.AperFunction,Conductor*%
%TO.N,/VUSB*%
G36*
X167796466Y-87926370D02*
G01*
X167799893Y-87934643D01*
X167799893Y-87934749D01*
X167794363Y-88544448D01*
X167790861Y-88552690D01*
X167782557Y-88556042D01*
X167780418Y-88555825D01*
X167500025Y-88501004D01*
X167499950Y-88500989D01*
X167219214Y-88444194D01*
X167211785Y-88439194D01*
X167210066Y-88430406D01*
X167210574Y-88428631D01*
X167395578Y-87934749D01*
X167397155Y-87930539D01*
X167403267Y-87923993D01*
X167408112Y-87922943D01*
X167788193Y-87922943D01*
X167796466Y-87926370D01*
G37*
%TD.AperFunction*%
%TD*%
%TA.AperFunction,Conductor*%
%TO.N,Net-(U4-OC)*%
G36*
X163572908Y-85072744D02*
G01*
X163646525Y-85171338D01*
X163786037Y-85358184D01*
X163788241Y-85366863D01*
X163783662Y-85374559D01*
X163776662Y-85376884D01*
X163600155Y-85376884D01*
X163599875Y-85376881D01*
X163374877Y-85371489D01*
X163366688Y-85367865D01*
X163363460Y-85359512D01*
X163363679Y-85357527D01*
X163399052Y-85178788D01*
X163404018Y-85171339D01*
X163557076Y-85069989D01*
X163565864Y-85068279D01*
X163572908Y-85072744D01*
G37*
%TD.AperFunction*%
%TD*%
%TA.AperFunction,Conductor*%
%TO.N,Net-(U4-OC)*%
G36*
X165740346Y-86397141D02*
G01*
X166002597Y-86602051D01*
X166007006Y-86609845D01*
X166005153Y-86617722D01*
X165903414Y-86771611D01*
X165895993Y-86776623D01*
X165895889Y-86776644D01*
X165713335Y-86812170D01*
X165704560Y-86810386D01*
X165700242Y-86805043D01*
X165593644Y-86539356D01*
X165593744Y-86530404D01*
X165596227Y-86526732D01*
X165724872Y-86398087D01*
X165733144Y-86394661D01*
X165740346Y-86397141D01*
G37*
%TD.AperFunction*%
%TD*%
%TA.AperFunction,Conductor*%
%TO.N,Net-(LED2-K)*%
G36*
X167172911Y-90062688D02*
G01*
X167375197Y-90331759D01*
X167377429Y-90340431D01*
X167374118Y-90347063D01*
X167245475Y-90475706D01*
X167237202Y-90479133D01*
X167232604Y-90478192D01*
X166901782Y-90336805D01*
X166895521Y-90330402D01*
X166895621Y-90321448D01*
X166896615Y-90319602D01*
X166997978Y-90166281D01*
X167001281Y-90162978D01*
X167157108Y-90059958D01*
X167165898Y-90058255D01*
X167172911Y-90062688D01*
G37*
%TD.AperFunction*%
%TD*%
%TA.AperFunction,Conductor*%
%TO.N,Net-(LED2-K)*%
G36*
X166299306Y-102807270D02*
G01*
X166302331Y-102812501D01*
X166392921Y-103148963D01*
X166391763Y-103157843D01*
X166384665Y-103163303D01*
X166383962Y-103163469D01*
X166202339Y-103200522D01*
X166197661Y-103200522D01*
X166016037Y-103163469D01*
X166008616Y-103158457D01*
X166006912Y-103149666D01*
X166007070Y-103148993D01*
X166097669Y-102812501D01*
X166103129Y-102805403D01*
X166108967Y-102803843D01*
X166291033Y-102803843D01*
X166299306Y-102807270D01*
G37*
%TD.AperFunction*%
%TD*%
%TA.AperFunction,Conductor*%
%TO.N,Net-(LED3-K)*%
G36*
X164715754Y-102855504D02*
G01*
X164844495Y-102984245D01*
X164847922Y-102992518D01*
X164846362Y-102998356D01*
X164672503Y-103300328D01*
X164665405Y-103305788D01*
X164656525Y-103304630D01*
X164655919Y-103304255D01*
X164501284Y-103202023D01*
X164497976Y-103198715D01*
X164395748Y-103044086D01*
X164394045Y-103035297D01*
X164399057Y-103027876D01*
X164399657Y-103027504D01*
X164701645Y-102853636D01*
X164710523Y-102852479D01*
X164715754Y-102855504D01*
G37*
%TD.AperFunction*%
%TD*%
%TA.AperFunction,Conductor*%
%TO.N,Net-(LED3-K)*%
G36*
X167172651Y-91333708D02*
G01*
X167172718Y-91333811D01*
X167388313Y-91666921D01*
X167389932Y-91675728D01*
X167384848Y-91683100D01*
X167378491Y-91684978D01*
X167201300Y-91684978D01*
X167198730Y-91684692D01*
X166972101Y-91633660D01*
X166964783Y-91628500D01*
X166963194Y-91619977D01*
X166999052Y-91438788D01*
X167004018Y-91431339D01*
X167156437Y-91330412D01*
X167165226Y-91328702D01*
X167172651Y-91333708D01*
G37*
%TD.AperFunction*%
%TD*%
%TA.AperFunction,Conductor*%
%TO.N,/USB_D+*%
G36*
X163457806Y-77336702D02*
G01*
X163465227Y-77341714D01*
X163466954Y-77350390D01*
X163401835Y-77686681D01*
X163396897Y-77694152D01*
X163390348Y-77696157D01*
X163208342Y-77696157D01*
X163200069Y-77692730D01*
X163197281Y-77688271D01*
X163157048Y-77571603D01*
X163081191Y-77351626D01*
X163081734Y-77342691D01*
X163088438Y-77336754D01*
X163089904Y-77336353D01*
X163270662Y-77299477D01*
X163275338Y-77299477D01*
X163457806Y-77336702D01*
G37*
%TD.AperFunction*%
%TD*%
%TA.AperFunction,Conductor*%
%TO.N,/USB_D+*%
G36*
X163396463Y-78732529D02*
G01*
X163399890Y-78740802D01*
X163399889Y-78740912D01*
X163396288Y-79124968D01*
X163392784Y-79133208D01*
X163384479Y-79136557D01*
X163382363Y-79136344D01*
X163202338Y-79101453D01*
X163198024Y-79099668D01*
X163043179Y-78995272D01*
X163038234Y-78987806D01*
X163039864Y-78979265D01*
X163196548Y-78734493D01*
X163203894Y-78729374D01*
X163206402Y-78729102D01*
X163388190Y-78729102D01*
X163396463Y-78732529D01*
G37*
%TD.AperFunction*%
%TD*%
%TA.AperFunction,Conductor*%
%TO.N,Net-(U1-GPIO10)*%
G36*
X153876013Y-82507072D02*
G01*
X154212500Y-82597669D01*
X154219597Y-82603128D01*
X154221157Y-82608966D01*
X154221157Y-82791033D01*
X154217730Y-82799306D01*
X154212499Y-82802331D01*
X153876036Y-82892921D01*
X153867156Y-82891763D01*
X153861696Y-82884665D01*
X153861530Y-82883962D01*
X153824477Y-82702338D01*
X153824477Y-82697661D01*
X153861530Y-82516037D01*
X153866542Y-82508616D01*
X153875333Y-82506912D01*
X153876013Y-82507072D01*
G37*
%TD.AperFunction*%
%TD*%
%TA.AperFunction,Conductor*%
%TO.N,Net-(U1-GPIO10)*%
G36*
X168823590Y-98586259D02*
G01*
X168825191Y-98588255D01*
X169010188Y-98879281D01*
X169011734Y-98888102D01*
X169006862Y-98895254D01*
X168854767Y-98997965D01*
X168845993Y-98999755D01*
X168845905Y-98999738D01*
X168664128Y-98963057D01*
X168656696Y-98958061D01*
X168654790Y-98950533D01*
X168675558Y-98721581D01*
X168678936Y-98714367D01*
X168807045Y-98586258D01*
X168815317Y-98582832D01*
X168823590Y-98586259D01*
G37*
%TD.AperFunction*%
%TD*%
%TA.AperFunction,Conductor*%
%TO.N,Net-(D5-K)*%
G36*
X169855985Y-94042667D02*
G01*
X170145644Y-94455986D01*
X170155972Y-94470722D01*
X170157914Y-94479464D01*
X170154664Y-94485710D01*
X169885710Y-94754664D01*
X169877437Y-94758091D01*
X169870722Y-94755972D01*
X169442668Y-94455986D01*
X169437860Y-94448432D01*
X169439633Y-94439938D01*
X169597985Y-94201263D01*
X169601263Y-94197985D01*
X169839938Y-94039633D01*
X169848725Y-94037915D01*
X169855985Y-94042667D01*
G37*
%TD.AperFunction*%
%TD*%
%TA.AperFunction,Conductor*%
%TO.N,Net-(D5-K)*%
G36*
X171177433Y-95490067D02*
G01*
X171573920Y-95627435D01*
X171580616Y-95633381D01*
X171581571Y-95640741D01*
X171526161Y-95923386D01*
X171524387Y-95927667D01*
X171365673Y-96163526D01*
X171358211Y-96168477D01*
X171349434Y-96166701D01*
X171348346Y-96165873D01*
X170897251Y-95778736D01*
X170893205Y-95770747D01*
X170895992Y-95762237D01*
X170896585Y-95761597D01*
X171165333Y-95492849D01*
X171173605Y-95489423D01*
X171177433Y-95490067D01*
G37*
%TD.AperFunction*%
%TD*%
%TA.AperFunction,Conductor*%
%TO.N,/~{RESET}*%
G36*
X166743495Y-81745517D02*
G01*
X166744873Y-81746303D01*
X166899025Y-81848688D01*
X166902307Y-81851974D01*
X167003544Y-82004863D01*
X167005255Y-82013653D01*
X167000249Y-82021078D01*
X166998635Y-82021972D01*
X166623942Y-82192470D01*
X166614992Y-82192778D01*
X166608447Y-82186667D01*
X166607396Y-82181821D01*
X166607396Y-82002680D01*
X166608564Y-81997585D01*
X166727868Y-81750954D01*
X166734555Y-81744999D01*
X166743495Y-81745517D01*
G37*
%TD.AperFunction*%
%TD*%
%TA.AperFunction,Conductor*%
%TO.N,/~{RESET}*%
G36*
X150983962Y-77836530D02*
G01*
X150991383Y-77841542D01*
X150993087Y-77850333D01*
X150992921Y-77851036D01*
X150902331Y-78187499D01*
X150896871Y-78194597D01*
X150891033Y-78196157D01*
X150708967Y-78196157D01*
X150700694Y-78192730D01*
X150697669Y-78187499D01*
X150686939Y-78147648D01*
X150607078Y-77851034D01*
X150608236Y-77842156D01*
X150615334Y-77836696D01*
X150616027Y-77836532D01*
X150797662Y-77799477D01*
X150802338Y-77799477D01*
X150983962Y-77836530D01*
G37*
%TD.AperFunction*%
%TD*%
M02*
