%TF.GenerationSoftware,KiCad,Pcbnew,9.0.0*%
%TF.CreationDate,2025-03-10T21:05:33+09:00*%
%TF.ProjectId,hotdoggu_smolSlimeVR,686f7464-6f67-4677-955f-736d6f6c536c,rev?*%
%TF.SameCoordinates,Original*%
%TF.FileFunction,Legend,Bot*%
%TF.FilePolarity,Positive*%
%FSLAX46Y46*%
G04 Gerber Fmt 4.6, Leading zero omitted, Abs format (unit mm)*
G04 Created by KiCad (PCBNEW 9.0.0) date 2025-03-10 21:05:33*
%MOMM*%
%LPD*%
G01*
G04 APERTURE LIST*
G04 Aperture macros list*
%AMRoundRect*
0 Rectangle with rounded corners*
0 $1 Rounding radius*
0 $2 $3 $4 $5 $6 $7 $8 $9 X,Y pos of 4 corners*
0 Add a 4 corners polygon primitive as box body*
4,1,4,$2,$3,$4,$5,$6,$7,$8,$9,$2,$3,0*
0 Add four circle primitives for the rounded corners*
1,1,$1+$1,$2,$3*
1,1,$1+$1,$4,$5*
1,1,$1+$1,$6,$7*
1,1,$1+$1,$8,$9*
0 Add four rect primitives between the rounded corners*
20,1,$1+$1,$2,$3,$4,$5,0*
20,1,$1+$1,$4,$5,$6,$7,0*
20,1,$1+$1,$6,$7,$8,$9,0*
20,1,$1+$1,$8,$9,$2,$3,0*%
G04 Aperture macros list end*
%ADD10C,0.250000*%
%ADD11RoundRect,0.140000X0.140000X0.170000X-0.140000X0.170000X-0.140000X-0.170000X0.140000X-0.170000X0*%
G04 APERTURE END LIST*
D10*
G36*
X180045882Y-91077852D02*
G01*
X180039955Y-91147875D01*
X180024261Y-91198602D01*
X180000758Y-91234778D01*
X179967528Y-91261713D01*
X179924560Y-91278647D01*
X179868867Y-91284787D01*
X179812653Y-91278648D01*
X179768580Y-91261618D01*
X179733862Y-91234412D01*
X179708981Y-91197855D01*
X179692531Y-91147189D01*
X179686357Y-91077852D01*
X179686357Y-90890090D01*
X180045882Y-90890090D01*
X180045882Y-91077852D01*
G37*
G36*
X180112316Y-89572156D02*
G01*
X180058521Y-89566293D01*
X180011688Y-89549319D01*
X179971820Y-89521579D01*
X179942079Y-89484473D01*
X179923570Y-89440038D01*
X179917166Y-89387936D01*
X179923908Y-89333862D01*
X179943483Y-89287308D01*
X179974394Y-89248062D01*
X180014741Y-89218126D01*
X180061522Y-89199242D01*
X180112316Y-89192908D01*
X180112316Y-89572156D01*
G37*
G36*
X180253199Y-85376450D02*
G01*
X180314916Y-85393100D01*
X180352481Y-85410991D01*
X180383658Y-85433427D01*
X180409255Y-85460511D01*
X180428391Y-85492080D01*
X180440139Y-85528455D01*
X180444242Y-85570847D01*
X180440160Y-85612334D01*
X180428434Y-85648157D01*
X180409255Y-85679474D01*
X180383668Y-85706343D01*
X180352495Y-85728557D01*
X180314916Y-85746214D01*
X180253214Y-85762634D01*
X180182109Y-85768379D01*
X180110869Y-85762646D01*
X180048630Y-85746214D01*
X180010541Y-85728547D01*
X179978902Y-85706327D01*
X179952887Y-85679474D01*
X179933283Y-85648108D01*
X179921324Y-85612288D01*
X179917166Y-85570847D01*
X179921346Y-85528502D01*
X179933326Y-85492130D01*
X179952887Y-85460511D01*
X179978913Y-85433442D01*
X180010555Y-85411001D01*
X180048630Y-85393100D01*
X180110884Y-85376438D01*
X180182109Y-85370629D01*
X180253199Y-85376450D01*
G37*
G36*
X181964333Y-83620050D02*
G01*
X182014394Y-83640718D01*
X182057809Y-83673250D01*
X182091636Y-83715823D01*
X182113235Y-83765940D01*
X182120579Y-83822618D01*
X182113339Y-83878780D01*
X182092002Y-83928742D01*
X182058501Y-83971295D01*
X182015432Y-84003541D01*
X181965321Y-84023882D01*
X181909553Y-84030774D01*
X181855020Y-84024058D01*
X181805444Y-84004152D01*
X181762809Y-83972538D01*
X181730279Y-83930940D01*
X181709692Y-83881905D01*
X181702679Y-83826404D01*
X181709895Y-83769971D01*
X181731317Y-83718754D01*
X181764873Y-83674817D01*
X181807887Y-83641451D01*
X181857679Y-83620232D01*
X181910957Y-83613180D01*
X181964333Y-83620050D01*
G37*
G36*
X180245887Y-81250187D02*
G01*
X180304300Y-81267537D01*
X180350881Y-81294644D01*
X180379496Y-81322422D01*
X180399848Y-81355087D01*
X180412447Y-81393610D01*
X180416887Y-81439480D01*
X180412550Y-81485102D01*
X180400249Y-81523436D01*
X180380411Y-81555940D01*
X180352590Y-81583583D01*
X180306980Y-81610537D01*
X180248176Y-81627993D01*
X180172583Y-81634385D01*
X180099643Y-81628406D01*
X180039898Y-81611732D01*
X180004111Y-81593786D01*
X179975101Y-81571636D01*
X179951971Y-81545176D01*
X179934943Y-81514571D01*
X179924477Y-81479679D01*
X179920830Y-81439480D01*
X179924652Y-81398465D01*
X179935593Y-81363158D01*
X179953375Y-81332440D01*
X179977326Y-81305971D01*
X180006927Y-81283923D01*
X180043012Y-81266189D01*
X180102593Y-81249710D01*
X180172583Y-81243902D01*
X180245887Y-81250187D01*
G37*
G36*
X180245887Y-80426600D02*
G01*
X180304300Y-80443951D01*
X180350881Y-80471057D01*
X180379496Y-80498835D01*
X180399848Y-80531500D01*
X180412447Y-80570023D01*
X180416887Y-80615893D01*
X180412550Y-80661515D01*
X180400249Y-80699850D01*
X180380411Y-80732353D01*
X180352590Y-80759996D01*
X180306980Y-80786950D01*
X180248176Y-80804406D01*
X180172583Y-80810799D01*
X180099643Y-80804820D01*
X180039898Y-80788145D01*
X180004111Y-80770199D01*
X179975101Y-80748049D01*
X179951971Y-80721589D01*
X179934943Y-80690985D01*
X179924477Y-80656092D01*
X179920830Y-80615893D01*
X179924652Y-80574878D01*
X179935593Y-80539571D01*
X179953375Y-80508853D01*
X179977326Y-80482384D01*
X180006927Y-80460336D01*
X180043012Y-80442602D01*
X180102593Y-80426123D01*
X180172583Y-80420315D01*
X180245887Y-80426600D01*
G37*
G36*
X182097131Y-80402669D02*
G01*
X182090460Y-80486240D01*
X182071914Y-80554278D01*
X182042859Y-80609745D01*
X182003464Y-80654849D01*
X181954670Y-80689982D01*
X181894895Y-80716309D01*
X181821859Y-80733253D01*
X181732721Y-80739357D01*
X181643824Y-80733314D01*
X181571103Y-80716554D01*
X181511701Y-80690546D01*
X181463321Y-80655887D01*
X181423980Y-80611278D01*
X181395133Y-80557039D01*
X181376822Y-80491158D01*
X181370265Y-80410912D01*
X181370265Y-80239148D01*
X182097131Y-80239148D01*
X182097131Y-80402669D01*
G37*
G36*
X180253199Y-79623066D02*
G01*
X180314916Y-79639715D01*
X180352481Y-79657606D01*
X180383658Y-79680042D01*
X180409255Y-79707126D01*
X180428391Y-79738695D01*
X180440139Y-79775070D01*
X180444242Y-79817463D01*
X180440160Y-79858949D01*
X180428434Y-79894773D01*
X180409255Y-79926090D01*
X180383668Y-79952958D01*
X180352495Y-79975173D01*
X180314916Y-79992829D01*
X180253214Y-80009250D01*
X180182109Y-80014994D01*
X180110869Y-80009262D01*
X180048630Y-79992829D01*
X180010541Y-79975162D01*
X179978902Y-79952943D01*
X179952887Y-79926090D01*
X179933283Y-79894723D01*
X179921324Y-79858903D01*
X179917166Y-79817463D01*
X179921346Y-79775117D01*
X179933326Y-79738745D01*
X179952887Y-79707126D01*
X179978913Y-79680058D01*
X180010555Y-79657617D01*
X180048630Y-79639715D01*
X180110884Y-79623054D01*
X180182109Y-79617245D01*
X180253199Y-79623066D01*
G37*
G36*
X181964333Y-79359478D02*
G01*
X182014394Y-79380146D01*
X182057809Y-79412678D01*
X182091636Y-79455251D01*
X182113235Y-79505368D01*
X182120579Y-79562046D01*
X182113339Y-79618208D01*
X182092002Y-79668169D01*
X182058501Y-79710722D01*
X182015432Y-79742969D01*
X181965321Y-79763310D01*
X181909553Y-79770202D01*
X181855020Y-79763486D01*
X181805444Y-79743579D01*
X181762809Y-79711966D01*
X181730279Y-79670368D01*
X181709692Y-79621333D01*
X181702679Y-79565832D01*
X181709895Y-79509399D01*
X181731317Y-79458182D01*
X181764873Y-79414244D01*
X181807887Y-79380879D01*
X181857679Y-79359659D01*
X181910957Y-79352608D01*
X181964333Y-79359478D01*
G37*
G36*
X180250756Y-78786884D02*
G01*
X180312718Y-78803611D01*
X180350299Y-78821554D01*
X180381213Y-78843701D01*
X180406324Y-78870106D01*
X180425121Y-78900927D01*
X180436592Y-78936016D01*
X180440579Y-78976474D01*
X180436762Y-79016035D01*
X180425746Y-79050669D01*
X180407667Y-79081376D01*
X180383387Y-79107768D01*
X180352880Y-79130064D01*
X180315160Y-79148299D01*
X180252612Y-79165265D01*
X180177224Y-79171318D01*
X180102189Y-79165312D01*
X180041486Y-79148665D01*
X180005162Y-79130692D01*
X179975777Y-79108535D01*
X179952398Y-79082109D01*
X179935123Y-79051478D01*
X179924521Y-79016607D01*
X179920830Y-78976474D01*
X179924690Y-78935482D01*
X179935748Y-78900177D01*
X179953742Y-78869434D01*
X179977974Y-78843033D01*
X180007971Y-78820998D01*
X180044600Y-78803244D01*
X180105190Y-78786791D01*
X180177224Y-78780957D01*
X180250756Y-78786884D01*
G37*
G36*
X180253199Y-77502061D02*
G01*
X180314916Y-77518710D01*
X180352481Y-77536601D01*
X180383658Y-77559037D01*
X180409255Y-77586121D01*
X180428391Y-77617690D01*
X180440139Y-77654065D01*
X180444242Y-77696458D01*
X180440160Y-77737944D01*
X180428434Y-77773768D01*
X180409255Y-77805085D01*
X180383668Y-77831953D01*
X180352495Y-77854168D01*
X180314916Y-77871824D01*
X180253214Y-77888245D01*
X180182109Y-77893989D01*
X180110869Y-77888257D01*
X180048630Y-77871824D01*
X180010541Y-77854157D01*
X179978902Y-77831938D01*
X179952887Y-77805085D01*
X179933283Y-77773718D01*
X179921324Y-77737898D01*
X179917166Y-77696458D01*
X179921346Y-77654112D01*
X179933326Y-77617740D01*
X179952887Y-77586121D01*
X179978913Y-77559053D01*
X180010555Y-77536612D01*
X180048630Y-77518710D01*
X180110884Y-77502049D01*
X180182109Y-77496240D01*
X180253199Y-77502061D01*
G37*
G36*
X182370631Y-91600479D02*
G01*
X179393318Y-91600479D01*
X179393318Y-91077852D01*
X179557397Y-91077852D01*
X179557397Y-91094155D01*
X179562150Y-91168105D01*
X179575502Y-91230590D01*
X179596475Y-91283443D01*
X179626479Y-91331337D01*
X179662623Y-91369450D01*
X179705347Y-91398909D01*
X179753240Y-91419772D01*
X179807154Y-91432695D01*
X179868257Y-91437194D01*
X179934502Y-91431762D01*
X179991861Y-91416241D01*
X180041913Y-91391215D01*
X180085262Y-91356347D01*
X180120626Y-91311798D01*
X180148342Y-91256027D01*
X180550000Y-91475479D01*
X180550000Y-91304021D01*
X180174842Y-91102520D01*
X180174842Y-91092995D01*
X180174842Y-90890090D01*
X180550000Y-90890090D01*
X180550000Y-90741591D01*
X179557397Y-90741591D01*
X179557397Y-91077852D01*
X179393318Y-91077852D01*
X179393318Y-89892725D01*
X179557397Y-89892725D01*
X180365108Y-90167498D01*
X180365108Y-90178489D01*
X179557397Y-90453262D01*
X179557397Y-90615989D01*
X180550000Y-90259150D01*
X180550000Y-90085493D01*
X179557397Y-89729998D01*
X179557397Y-89892725D01*
X179393318Y-89892725D01*
X179393318Y-89387508D01*
X179795778Y-89387508D01*
X179795810Y-89387936D01*
X179800221Y-89446209D01*
X179813262Y-89500594D01*
X179834795Y-89551456D01*
X179865149Y-89597079D01*
X179905646Y-89636911D01*
X179957711Y-89671318D01*
X180015398Y-89695575D01*
X180085211Y-89711152D01*
X180169652Y-89716748D01*
X180221737Y-89716748D01*
X180221737Y-89191564D01*
X180288394Y-89198563D01*
X180341905Y-89218126D01*
X180386345Y-89249913D01*
X180418169Y-89290971D01*
X180437511Y-89340008D01*
X180444242Y-89397889D01*
X180438351Y-89453517D01*
X180421955Y-89497662D01*
X180395637Y-89533978D01*
X180363215Y-89558600D01*
X180363215Y-89707100D01*
X180420129Y-89684213D01*
X180469583Y-89648360D01*
X180509776Y-89601227D01*
X180540535Y-89541809D01*
X180559109Y-89474941D01*
X180565631Y-89397034D01*
X180560079Y-89326400D01*
X180544127Y-89264279D01*
X180518309Y-89209211D01*
X180482496Y-89160221D01*
X180438223Y-89119654D01*
X180384525Y-89086906D01*
X180325483Y-89063931D01*
X180258690Y-89049599D01*
X180182780Y-89044591D01*
X180107777Y-89049558D01*
X180040932Y-89063853D01*
X179981036Y-89086906D01*
X179926207Y-89119560D01*
X179881043Y-89159483D01*
X179844504Y-89207135D01*
X179817764Y-89260933D01*
X179801421Y-89320615D01*
X179795778Y-89387508D01*
X179393318Y-89387508D01*
X179393318Y-88243292D01*
X179795778Y-88243292D01*
X179799804Y-88290917D01*
X179811286Y-88331869D01*
X179829788Y-88367367D01*
X179855319Y-88398145D01*
X179887182Y-88423069D01*
X179926325Y-88442411D01*
X179926325Y-88450593D01*
X179888873Y-88471913D01*
X179857232Y-88500095D01*
X179830826Y-88535833D01*
X179811711Y-88576206D01*
X179799894Y-88621859D01*
X179795778Y-88673892D01*
X179799111Y-88718752D01*
X179808705Y-88758510D01*
X179824232Y-88793998D01*
X179846150Y-88825618D01*
X179874563Y-88852443D01*
X179910327Y-88874781D01*
X179949751Y-88890433D01*
X179996146Y-88900375D01*
X180050828Y-88903907D01*
X180550000Y-88903907D01*
X180550000Y-88756934D01*
X180063712Y-88756934D01*
X180017246Y-88752048D01*
X179982354Y-88738762D01*
X179956245Y-88717978D01*
X179936907Y-88690168D01*
X179925017Y-88657178D01*
X179920830Y-88617594D01*
X179925935Y-88574110D01*
X179940430Y-88538398D01*
X179963814Y-88508982D01*
X179995019Y-88487534D01*
X180031815Y-88474626D01*
X180074703Y-88470132D01*
X180550000Y-88470132D01*
X180550000Y-88323159D01*
X180055469Y-88323159D01*
X180016812Y-88318759D01*
X179984394Y-88306184D01*
X179957303Y-88285855D01*
X179937316Y-88258801D01*
X179925082Y-88226727D01*
X179920830Y-88189131D01*
X179926245Y-88150006D01*
X179942506Y-88113904D01*
X179968089Y-88083172D01*
X180002590Y-88059071D01*
X180042976Y-88043970D01*
X180089846Y-88038738D01*
X180550000Y-88038738D01*
X180550000Y-87891765D01*
X179803593Y-87891765D01*
X179803593Y-88033304D01*
X179926325Y-88033304D01*
X179926325Y-88041486D01*
X179887696Y-88060866D01*
X179855923Y-88086186D01*
X179830155Y-88117812D01*
X179811396Y-88154220D01*
X179799817Y-88195672D01*
X179795778Y-88243292D01*
X179393318Y-88243292D01*
X179393318Y-87641294D01*
X179518318Y-87641294D01*
X179521233Y-87665028D01*
X179529919Y-87686906D01*
X179543636Y-87705879D01*
X179561304Y-87720245D01*
X179581952Y-87729453D01*
X179604291Y-87732519D01*
X179627189Y-87729346D01*
X179647950Y-87719879D01*
X179653381Y-87715361D01*
X179803593Y-87715361D01*
X180550000Y-87715361D01*
X180550000Y-87568387D01*
X179803593Y-87568387D01*
X179803593Y-87715361D01*
X179653381Y-87715361D01*
X179665574Y-87705219D01*
X179679030Y-87686235D01*
X179687420Y-87664294D01*
X179690265Y-87640012D01*
X179687343Y-87616377D01*
X179678663Y-87594766D01*
X179664988Y-87576021D01*
X179647278Y-87561427D01*
X179626612Y-87551985D01*
X179604291Y-87548848D01*
X179581970Y-87551985D01*
X179561304Y-87561427D01*
X179543637Y-87576127D01*
X179529919Y-87595376D01*
X179521221Y-87617559D01*
X179518318Y-87641294D01*
X179393318Y-87641294D01*
X179393318Y-87391983D01*
X179557397Y-87391983D01*
X180550000Y-87391983D01*
X180550000Y-87245010D01*
X179557397Y-87245010D01*
X179557397Y-87391983D01*
X179393318Y-87391983D01*
X179393318Y-86734359D01*
X179541765Y-86734359D01*
X179545880Y-86799717D01*
X179557755Y-86858450D01*
X179576936Y-86911496D01*
X179603996Y-86960667D01*
X179636483Y-87001133D01*
X179674572Y-87033923D01*
X179717989Y-87058578D01*
X179764879Y-87073347D01*
X179816294Y-87078375D01*
X179816294Y-86934638D01*
X179773490Y-86924452D01*
X179738317Y-86903831D01*
X179709193Y-86871990D01*
X179688489Y-86833080D01*
X179675398Y-86786213D01*
X179670725Y-86729535D01*
X179675702Y-86671990D01*
X179689654Y-86624511D01*
X179712779Y-86583833D01*
X179742227Y-86554658D01*
X179777930Y-86536070D01*
X179817821Y-86529867D01*
X179857206Y-86535792D01*
X179889125Y-86552855D01*
X179915457Y-86581952D01*
X179944883Y-86638330D01*
X179967663Y-86710851D01*
X179993797Y-86806777D01*
X180019953Y-86891747D01*
X180051136Y-86957721D01*
X180086537Y-87008007D01*
X180125910Y-87045256D01*
X180169607Y-87071326D01*
X180218560Y-87087139D01*
X180274188Y-87092602D01*
X180329290Y-87087625D01*
X180379144Y-87073095D01*
X180424825Y-87049066D01*
X180464820Y-87016461D01*
X180499227Y-86974670D01*
X180528201Y-86922304D01*
X180548382Y-86865591D01*
X180561133Y-86800159D01*
X180565631Y-86724528D01*
X180561390Y-86651662D01*
X180549323Y-86588020D01*
X180530155Y-86532309D01*
X180502506Y-86480772D01*
X180468713Y-86438418D01*
X180428550Y-86404143D01*
X180382501Y-86378777D01*
X180330811Y-86363285D01*
X180272112Y-86357920D01*
X180272112Y-86504221D01*
X180321169Y-86514795D01*
X180360329Y-86537133D01*
X180391730Y-86571877D01*
X180413902Y-86614689D01*
X180427827Y-86665333D01*
X180432763Y-86725566D01*
X180427504Y-86786621D01*
X180412552Y-86838712D01*
X180387660Y-86883981D01*
X180355643Y-86917114D01*
X180316344Y-86938441D01*
X180271013Y-86945629D01*
X180232649Y-86939464D01*
X180201770Y-86921632D01*
X180176679Y-86894308D01*
X180155547Y-86857519D01*
X180138712Y-86814709D01*
X180121598Y-86757745D01*
X180090029Y-86639837D01*
X180062095Y-86558881D01*
X180029003Y-86496043D01*
X179991416Y-86448168D01*
X179957110Y-86419051D01*
X179918836Y-86398394D01*
X179875794Y-86385751D01*
X179826857Y-86381367D01*
X179772169Y-86386633D01*
X179722896Y-86402011D01*
X179677869Y-86427529D01*
X179638427Y-86461570D01*
X179605013Y-86503398D01*
X179577424Y-86554047D01*
X179557921Y-86608703D01*
X179545908Y-86668524D01*
X179541765Y-86734359D01*
X179393318Y-86734359D01*
X179393318Y-86208871D01*
X179557397Y-86208871D01*
X180550000Y-86208871D01*
X180550000Y-86061898D01*
X179557397Y-86061898D01*
X179557397Y-86208871D01*
X179393318Y-86208871D01*
X179393318Y-85570176D01*
X179795778Y-85570176D01*
X179795834Y-85570847D01*
X179801349Y-85637479D01*
X179817478Y-85697533D01*
X179843832Y-85751648D01*
X179879957Y-85799690D01*
X179924774Y-85839888D01*
X179979326Y-85872732D01*
X180039047Y-85895930D01*
X180105976Y-85910337D01*
X180181376Y-85915352D01*
X180256816Y-85910326D01*
X180323526Y-85895908D01*
X180382815Y-85872732D01*
X180436903Y-85839933D01*
X180481513Y-85799741D01*
X180517637Y-85751648D01*
X180543957Y-85697537D01*
X180560066Y-85637483D01*
X180565631Y-85570176D01*
X180560062Y-85502456D01*
X180543948Y-85442079D01*
X180517637Y-85387726D01*
X180481490Y-85339405D01*
X180436876Y-85299097D01*
X180382815Y-85266277D01*
X180323526Y-85243100D01*
X180256816Y-85228682D01*
X180181376Y-85223656D01*
X180105976Y-85228671D01*
X180039047Y-85243078D01*
X179979326Y-85266277D01*
X179924801Y-85299142D01*
X179879980Y-85339456D01*
X179843832Y-85387726D01*
X179817487Y-85442082D01*
X179801353Y-85502459D01*
X179795778Y-85570176D01*
X179393318Y-85570176D01*
X179393318Y-84422356D01*
X179795778Y-84422356D01*
X179799804Y-84469982D01*
X179811286Y-84510934D01*
X179829788Y-84546432D01*
X179855319Y-84577209D01*
X179887182Y-84602134D01*
X179926325Y-84621475D01*
X179926325Y-84629658D01*
X179888873Y-84650978D01*
X179857232Y-84679160D01*
X179830826Y-84714898D01*
X179811711Y-84755270D01*
X179799894Y-84800924D01*
X179795778Y-84852957D01*
X179799111Y-84897817D01*
X179808705Y-84937575D01*
X179824232Y-84973063D01*
X179846150Y-85004683D01*
X179874563Y-85031507D01*
X179910327Y-85053846D01*
X179949751Y-85069498D01*
X179996146Y-85079440D01*
X180050828Y-85082972D01*
X180550000Y-85082972D01*
X180550000Y-84935999D01*
X180063712Y-84935999D01*
X180017246Y-84931113D01*
X179982354Y-84917827D01*
X179956245Y-84897042D01*
X179936907Y-84869233D01*
X179925017Y-84836243D01*
X179920830Y-84796659D01*
X179925935Y-84753174D01*
X179940430Y-84717463D01*
X179963814Y-84688047D01*
X179995019Y-84666599D01*
X180031815Y-84653691D01*
X180074703Y-84649197D01*
X180550000Y-84649197D01*
X180550000Y-84502224D01*
X180055469Y-84502224D01*
X180016812Y-84497824D01*
X179984394Y-84485249D01*
X179957303Y-84464920D01*
X179937316Y-84437866D01*
X179925082Y-84405792D01*
X179920830Y-84368196D01*
X179926245Y-84329070D01*
X179942506Y-84292969D01*
X179953536Y-84279719D01*
X181237397Y-84279719D01*
X181237397Y-84456062D01*
X181624155Y-84691207D01*
X181624155Y-84699450D01*
X181237397Y-84935938D01*
X181237397Y-85109595D01*
X181733698Y-84800566D01*
X182230000Y-85112281D01*
X182230000Y-84935938D01*
X181847515Y-84699450D01*
X181847515Y-84691207D01*
X182230000Y-84453314D01*
X182230000Y-84278314D01*
X181733698Y-84594120D01*
X181237397Y-84279719D01*
X179953536Y-84279719D01*
X179968089Y-84262236D01*
X180002590Y-84238136D01*
X180042976Y-84223035D01*
X180089846Y-84217803D01*
X180550000Y-84217803D01*
X180550000Y-84070830D01*
X179803593Y-84070830D01*
X179803593Y-84212369D01*
X179926325Y-84212369D01*
X179926325Y-84220551D01*
X179887696Y-84239930D01*
X179855923Y-84265251D01*
X179830155Y-84296877D01*
X179811396Y-84333285D01*
X179799817Y-84374737D01*
X179795778Y-84422356D01*
X179393318Y-84422356D01*
X179393318Y-83632658D01*
X179795778Y-83632658D01*
X179802593Y-83710747D01*
X179821728Y-83775357D01*
X179841892Y-83814223D01*
X179866383Y-83846266D01*
X179895307Y-83872322D01*
X179928532Y-83892712D01*
X179965525Y-83907071D01*
X180006987Y-83915369D01*
X180006987Y-83776395D01*
X179978049Y-83766497D01*
X179954339Y-83751178D01*
X179934996Y-83730172D01*
X179921139Y-83704954D01*
X179912294Y-83673809D01*
X179909106Y-83635284D01*
X179912509Y-83595694D01*
X179922173Y-83562011D01*
X179938035Y-83532713D01*
X179957955Y-83511331D01*
X179982118Y-83497462D01*
X180008879Y-83492890D01*
X180039875Y-83499627D01*
X180066704Y-83520429D01*
X180086848Y-83553225D01*
X180104562Y-83608722D01*
X180132100Y-83725837D01*
X180152202Y-83792269D01*
X180176878Y-83841916D01*
X180205373Y-83878122D01*
X180241339Y-83905634D01*
X180283721Y-83922344D01*
X180334394Y-83928192D01*
X180378226Y-83924037D01*
X180417965Y-83911878D01*
X180454501Y-83891678D01*
X180486337Y-83864525D01*
X180509108Y-83835685D01*
X181225673Y-83835685D01*
X181229694Y-83894596D01*
X181241347Y-83947881D01*
X181260294Y-83996397D01*
X181286642Y-84041252D01*
X181318658Y-84079593D01*
X181356648Y-84112046D01*
X181399455Y-84137911D01*
X181446108Y-84156595D01*
X181497271Y-84168161D01*
X181497271Y-84018562D01*
X181457607Y-84004364D01*
X181424346Y-83983485D01*
X181396521Y-83955669D01*
X181375848Y-83922331D01*
X181363051Y-83883043D01*
X181358541Y-83836296D01*
X181363452Y-83787421D01*
X181377649Y-83744637D01*
X181401039Y-83706664D01*
X181432335Y-83674410D01*
X181472534Y-83646817D01*
X181523222Y-83623988D01*
X181577046Y-83608730D01*
X181640073Y-83598952D01*
X181713731Y-83595472D01*
X181713731Y-83606402D01*
X181675086Y-83636130D01*
X181642747Y-83671488D01*
X181616278Y-83713014D01*
X181596985Y-83758466D01*
X181585284Y-83807234D01*
X181583834Y-83826404D01*
X181581290Y-83860048D01*
X181586050Y-83917082D01*
X181600079Y-83970186D01*
X181623422Y-84020211D01*
X181655056Y-84065448D01*
X181693635Y-84103676D01*
X181739804Y-84135432D01*
X181790812Y-84158722D01*
X181846291Y-84172889D01*
X181907233Y-84177747D01*
X181969509Y-84172711D01*
X182026726Y-84157961D01*
X182079851Y-84133600D01*
X182127710Y-84100236D01*
X182168065Y-84059096D01*
X182201484Y-84009403D01*
X182225656Y-83954537D01*
X182240501Y-83893826D01*
X182245631Y-83826099D01*
X182240546Y-83760181D01*
X182225574Y-83698679D01*
X182200751Y-83640718D01*
X182165394Y-83589290D01*
X182115762Y-83543186D01*
X182049260Y-83502172D01*
X181996058Y-83480123D01*
X181932677Y-83463280D01*
X181857448Y-83452396D01*
X181768503Y-83448499D01*
X181655299Y-83454244D01*
X181558373Y-83470408D01*
X181475472Y-83495699D01*
X181397968Y-83533061D01*
X181336756Y-83577873D01*
X181289420Y-83630094D01*
X181254333Y-83690967D01*
X181233025Y-83758892D01*
X181225673Y-83835685D01*
X180509108Y-83835685D01*
X180513600Y-83829996D01*
X180536383Y-83786959D01*
X180552156Y-83740559D01*
X180562120Y-83687223D01*
X180565631Y-83625819D01*
X180561595Y-83558926D01*
X180550294Y-83502641D01*
X180532634Y-83455305D01*
X180509089Y-83415526D01*
X180478071Y-83380886D01*
X180441456Y-83354333D01*
X180398411Y-83335336D01*
X180347644Y-83324057D01*
X180347644Y-83473656D01*
X180383518Y-83485796D01*
X180410586Y-83505520D01*
X180430519Y-83533394D01*
X180443544Y-83571478D01*
X180448394Y-83623011D01*
X180444975Y-83670786D01*
X180435622Y-83708582D01*
X180421284Y-83738354D01*
X180400421Y-83762588D01*
X180376001Y-83776481D01*
X180346728Y-83781219D01*
X180313524Y-83774279D01*
X180286645Y-83753436D01*
X180266662Y-83720738D01*
X180249153Y-83666730D01*
X180224424Y-83550165D01*
X180205094Y-83485503D01*
X180180044Y-83435700D01*
X180149930Y-83398002D01*
X180112200Y-83369123D01*
X180069343Y-83351865D01*
X180019748Y-83345917D01*
X179976929Y-83350006D01*
X179938314Y-83361949D01*
X179903000Y-83381760D01*
X179872171Y-83408334D01*
X179845870Y-83441689D01*
X179823988Y-83482815D01*
X179808664Y-83527131D01*
X179799108Y-83576795D01*
X179795778Y-83632658D01*
X179393318Y-83632658D01*
X179393318Y-83281437D01*
X180553663Y-83281437D01*
X180675052Y-83281437D01*
X180675052Y-83067663D01*
X181237397Y-83067663D01*
X181237397Y-83215980D01*
X182230000Y-83215980D01*
X182230000Y-83063572D01*
X181388217Y-83063572D01*
X181388217Y-83058138D01*
X181543128Y-82821284D01*
X181399146Y-82821284D01*
X181237397Y-83067663D01*
X180675052Y-83067663D01*
X180675052Y-82652267D01*
X180553663Y-82652267D01*
X180553663Y-83281437D01*
X179393318Y-83281437D01*
X179393318Y-82102660D01*
X179803593Y-82102660D01*
X180258923Y-82102660D01*
X180306895Y-82107613D01*
X180346789Y-82121650D01*
X180380372Y-82144585D01*
X180404736Y-82174345D01*
X180419743Y-82210054D01*
X180424947Y-82252198D01*
X180419797Y-82294049D01*
X180404064Y-82335118D01*
X180378152Y-82371229D01*
X180340989Y-82400697D01*
X180295562Y-82419463D01*
X180238407Y-82426160D01*
X179803593Y-82426160D01*
X179803593Y-82573133D01*
X180550000Y-82573133D01*
X180550000Y-82428907D01*
X180419452Y-82428907D01*
X180419452Y-82420725D01*
X180458361Y-82399573D01*
X180491628Y-82371890D01*
X180519836Y-82337133D01*
X180540530Y-82297612D01*
X180553335Y-82252272D01*
X180557815Y-82199808D01*
X180554075Y-82152528D01*
X180543260Y-82110323D01*
X180525636Y-82072313D01*
X180501043Y-82038606D01*
X180469464Y-82010045D01*
X180458857Y-82003681D01*
X181237397Y-82003681D01*
X182045108Y-82278454D01*
X182045108Y-82289445D01*
X181237397Y-82564218D01*
X181237397Y-82726945D01*
X182230000Y-82370106D01*
X182230000Y-82196449D01*
X181237397Y-81840954D01*
X181237397Y-82003681D01*
X180458857Y-82003681D01*
X180429954Y-81986339D01*
X180386614Y-81969850D01*
X180335969Y-81959393D01*
X180276692Y-81955687D01*
X179803593Y-81955687D01*
X179803593Y-82102660D01*
X179393318Y-82102660D01*
X179393318Y-81408705D01*
X179795778Y-81408705D01*
X179798651Y-81439480D01*
X179801411Y-81469039D01*
X179816721Y-81515012D01*
X179840116Y-81554085D01*
X179864837Y-81580957D01*
X179926325Y-81624738D01*
X179926325Y-81634385D01*
X179805364Y-81634385D01*
X179805364Y-81776901D01*
X180565204Y-81776901D01*
X180625500Y-81771790D01*
X180676478Y-81757318D01*
X180719870Y-81734159D01*
X180757559Y-81702344D01*
X180788370Y-81663218D01*
X180812622Y-81615762D01*
X180829132Y-81564504D01*
X180839475Y-81506762D01*
X180843091Y-81441556D01*
X180839437Y-81394234D01*
X181221765Y-81394234D01*
X181225880Y-81459591D01*
X181237755Y-81518325D01*
X181256936Y-81571371D01*
X181283996Y-81620542D01*
X181316483Y-81661008D01*
X181354572Y-81693797D01*
X181397989Y-81718453D01*
X181444879Y-81733221D01*
X181496294Y-81738250D01*
X181496294Y-81594513D01*
X181453490Y-81584326D01*
X181418317Y-81563705D01*
X181389193Y-81531864D01*
X181368489Y-81492955D01*
X181355398Y-81446088D01*
X181350725Y-81389410D01*
X181355702Y-81331864D01*
X181369654Y-81284385D01*
X181392779Y-81243707D01*
X181422227Y-81214532D01*
X181457930Y-81195945D01*
X181497821Y-81189741D01*
X181537206Y-81195666D01*
X181569125Y-81212729D01*
X181595457Y-81241826D01*
X181624883Y-81298204D01*
X181647663Y-81370725D01*
X181673797Y-81466652D01*
X181699953Y-81551621D01*
X181731136Y-81617596D01*
X181766537Y-81667882D01*
X181805910Y-81705131D01*
X181849607Y-81731200D01*
X181898560Y-81747014D01*
X181954188Y-81752477D01*
X182009290Y-81747500D01*
X182059144Y-81732969D01*
X182104825Y-81708941D01*
X182144820Y-81676335D01*
X182179227Y-81634544D01*
X182208201Y-81582178D01*
X182228382Y-81525466D01*
X182241133Y-81460033D01*
X182245631Y-81384403D01*
X182241390Y-81311537D01*
X182229323Y-81247894D01*
X182210155Y-81192184D01*
X182182506Y-81140647D01*
X182148713Y-81098293D01*
X182108550Y-81064017D01*
X182062501Y-81038651D01*
X182010811Y-81023159D01*
X181952112Y-81017794D01*
X181952112Y-81164096D01*
X182001169Y-81174669D01*
X182040329Y-81197008D01*
X182071730Y-81231751D01*
X182093902Y-81274564D01*
X182107827Y-81325207D01*
X182112763Y-81385441D01*
X182107504Y-81446496D01*
X182092552Y-81498586D01*
X182067660Y-81543855D01*
X182035643Y-81576988D01*
X181996344Y-81598315D01*
X181951013Y-81605504D01*
X181912649Y-81599338D01*
X181881770Y-81581507D01*
X181856679Y-81554182D01*
X181835547Y-81517393D01*
X181818712Y-81474583D01*
X181801598Y-81417620D01*
X181770029Y-81299712D01*
X181742095Y-81218755D01*
X181709003Y-81155918D01*
X181671416Y-81108042D01*
X181637110Y-81078925D01*
X181598836Y-81058268D01*
X181555794Y-81045625D01*
X181506857Y-81041242D01*
X181452169Y-81046507D01*
X181402896Y-81061885D01*
X181357869Y-81087404D01*
X181318427Y-81121444D01*
X181285013Y-81163272D01*
X181257424Y-81213921D01*
X181237921Y-81268578D01*
X181225908Y-81328398D01*
X181221765Y-81394234D01*
X180839437Y-81394234D01*
X180836168Y-81351898D01*
X180816774Y-81277363D01*
X180795986Y-81232036D01*
X180770598Y-81194869D01*
X180740631Y-81164767D01*
X180705581Y-81141273D01*
X180666284Y-81125456D01*
X180621807Y-81117262D01*
X180621807Y-81265151D01*
X180653428Y-81276038D01*
X180678971Y-81294422D01*
X180699476Y-81321083D01*
X180713501Y-81352586D01*
X180722571Y-81391503D01*
X180725854Y-81439480D01*
X180720738Y-81499572D01*
X180706798Y-81546052D01*
X180685310Y-81581873D01*
X180654871Y-81608962D01*
X180614128Y-81626053D01*
X180559708Y-81632309D01*
X180412796Y-81632309D01*
X180412796Y-81622723D01*
X180460588Y-81589724D01*
X180501395Y-81545908D01*
X180520829Y-81511390D01*
X180533570Y-81466080D01*
X180538276Y-81406995D01*
X180533335Y-81349000D01*
X180518908Y-81296281D01*
X180495106Y-81247810D01*
X180462481Y-81204929D01*
X180420787Y-81168162D01*
X180368771Y-81137229D01*
X180311925Y-81115491D01*
X180246127Y-81101772D01*
X180169774Y-81096929D01*
X180093427Y-81101749D01*
X180027147Y-81115450D01*
X179969434Y-81137229D01*
X179916464Y-81168250D01*
X179873857Y-81205184D01*
X179840352Y-81248299D01*
X179815759Y-81297134D01*
X179800873Y-81350248D01*
X179795778Y-81408705D01*
X179393318Y-81408705D01*
X179393318Y-80585118D01*
X179795778Y-80585118D01*
X179798651Y-80615893D01*
X179801411Y-80645452D01*
X179816721Y-80691425D01*
X179840116Y-80730498D01*
X179864837Y-80757370D01*
X179926325Y-80801151D01*
X179926325Y-80810799D01*
X179805364Y-80810799D01*
X179805364Y-80953314D01*
X180565204Y-80953314D01*
X180625500Y-80948203D01*
X180676478Y-80933731D01*
X180719870Y-80910572D01*
X180757559Y-80878757D01*
X180788370Y-80839632D01*
X180812622Y-80792175D01*
X180829132Y-80740917D01*
X180839475Y-80683175D01*
X180843091Y-80617969D01*
X180836168Y-80528312D01*
X180816774Y-80453777D01*
X180797116Y-80410912D01*
X181237397Y-80410912D01*
X181237397Y-80420865D01*
X181244432Y-80515816D01*
X181264501Y-80598273D01*
X181296687Y-80670298D01*
X181329557Y-80719573D01*
X181368652Y-80762450D01*
X181414378Y-80799421D01*
X181467412Y-80830704D01*
X181543612Y-80860782D01*
X181631237Y-80879681D01*
X181732355Y-80886331D01*
X181833889Y-80879600D01*
X181921961Y-80860460D01*
X181998640Y-80829972D01*
X182051905Y-80798326D01*
X182097877Y-80760852D01*
X182137226Y-80717310D01*
X182170343Y-80667184D01*
X182202643Y-80593995D01*
X182222879Y-80509477D01*
X182230000Y-80411400D01*
X182230000Y-80090648D01*
X181237397Y-80090648D01*
X181237397Y-80410912D01*
X180797116Y-80410912D01*
X180795986Y-80408449D01*
X180770598Y-80371282D01*
X180740631Y-80341181D01*
X180705581Y-80317686D01*
X180666284Y-80301869D01*
X180621807Y-80293675D01*
X180621807Y-80441564D01*
X180653428Y-80452452D01*
X180678971Y-80470835D01*
X180699476Y-80497496D01*
X180713501Y-80528999D01*
X180722571Y-80567916D01*
X180725854Y-80615893D01*
X180720738Y-80675985D01*
X180706798Y-80722465D01*
X180685310Y-80758286D01*
X180654871Y-80785375D01*
X180614128Y-80802466D01*
X180559708Y-80808722D01*
X180412796Y-80808722D01*
X180412796Y-80799136D01*
X180460588Y-80766137D01*
X180501395Y-80722322D01*
X180520829Y-80687803D01*
X180533570Y-80642493D01*
X180538276Y-80583408D01*
X180533335Y-80525413D01*
X180518908Y-80472694D01*
X180495106Y-80424223D01*
X180462481Y-80381342D01*
X180420787Y-80344575D01*
X180368771Y-80313642D01*
X180311925Y-80291904D01*
X180246127Y-80278185D01*
X180169774Y-80273342D01*
X180093427Y-80278163D01*
X180027147Y-80291863D01*
X179969434Y-80313642D01*
X179916464Y-80344663D01*
X179873857Y-80381598D01*
X179840352Y-80424712D01*
X179815759Y-80473547D01*
X179800873Y-80526661D01*
X179795778Y-80585118D01*
X179393318Y-80585118D01*
X179393318Y-79816791D01*
X179795778Y-79816791D01*
X179795834Y-79817463D01*
X179801349Y-79884095D01*
X179817478Y-79944149D01*
X179843832Y-79998264D01*
X179879957Y-80046305D01*
X179924774Y-80086503D01*
X179979326Y-80119347D01*
X180039047Y-80142545D01*
X180105976Y-80156953D01*
X180181376Y-80161967D01*
X180256816Y-80156941D01*
X180323526Y-80142523D01*
X180382815Y-80119347D01*
X180436903Y-80086548D01*
X180481513Y-80046356D01*
X180517637Y-79998264D01*
X180543957Y-79944152D01*
X180560066Y-79884098D01*
X180565631Y-79816791D01*
X180560062Y-79749071D01*
X180543948Y-79688694D01*
X180517637Y-79634342D01*
X180481490Y-79586021D01*
X180469417Y-79575113D01*
X181225673Y-79575113D01*
X181229694Y-79634024D01*
X181241347Y-79687309D01*
X181260294Y-79735825D01*
X181286642Y-79780680D01*
X181318658Y-79819021D01*
X181356648Y-79851474D01*
X181399455Y-79877339D01*
X181446108Y-79896023D01*
X181497271Y-79907588D01*
X181497271Y-79757990D01*
X181457607Y-79743792D01*
X181424346Y-79722913D01*
X181396521Y-79695097D01*
X181375848Y-79661759D01*
X181363051Y-79622470D01*
X181358541Y-79575724D01*
X181363452Y-79526848D01*
X181377649Y-79484065D01*
X181401039Y-79446092D01*
X181432335Y-79413837D01*
X181472534Y-79386245D01*
X181523222Y-79363415D01*
X181577046Y-79348158D01*
X181640073Y-79338380D01*
X181713731Y-79334900D01*
X181713731Y-79345830D01*
X181675086Y-79375558D01*
X181642747Y-79410916D01*
X181616278Y-79452442D01*
X181596985Y-79497894D01*
X181585284Y-79546662D01*
X181583834Y-79565832D01*
X181581290Y-79599476D01*
X181586050Y-79656510D01*
X181600079Y-79709614D01*
X181623422Y-79759638D01*
X181655056Y-79804875D01*
X181693635Y-79843104D01*
X181739804Y-79874860D01*
X181790812Y-79898150D01*
X181846291Y-79912317D01*
X181907233Y-79917175D01*
X181969509Y-79912139D01*
X182026726Y-79897389D01*
X182079851Y-79873028D01*
X182127710Y-79839664D01*
X182168065Y-79798523D01*
X182201484Y-79748831D01*
X182225656Y-79693965D01*
X182240501Y-79633254D01*
X182245631Y-79565526D01*
X182240546Y-79499609D01*
X182225574Y-79438106D01*
X182200751Y-79380146D01*
X182165394Y-79328717D01*
X182115762Y-79282613D01*
X182049260Y-79241599D01*
X181996058Y-79219551D01*
X181932677Y-79202707D01*
X181857448Y-79191824D01*
X181768503Y-79187927D01*
X181655299Y-79193672D01*
X181558373Y-79209836D01*
X181475472Y-79235127D01*
X181397968Y-79272489D01*
X181336756Y-79317301D01*
X181289420Y-79369521D01*
X181254333Y-79430395D01*
X181233025Y-79498320D01*
X181225673Y-79575113D01*
X180469417Y-79575113D01*
X180436876Y-79545713D01*
X180382815Y-79512892D01*
X180323526Y-79489716D01*
X180256816Y-79475298D01*
X180181376Y-79470272D01*
X180105976Y-79475286D01*
X180039047Y-79489694D01*
X179979326Y-79512892D01*
X179924801Y-79545758D01*
X179879980Y-79586072D01*
X179843832Y-79634342D01*
X179817487Y-79688698D01*
X179801353Y-79749075D01*
X179795778Y-79816791D01*
X179393318Y-79816791D01*
X179393318Y-79167227D01*
X179557397Y-79167227D01*
X179557397Y-79313956D01*
X180550000Y-79313956D01*
X180550000Y-79171318D01*
X180433740Y-79171318D01*
X180433740Y-79160327D01*
X180495228Y-79116913D01*
X180520600Y-79089095D01*
X180544382Y-79049563D01*
X180559962Y-79003471D01*
X180565631Y-78944356D01*
X180560345Y-78886039D01*
X180544889Y-78833084D01*
X180519286Y-78784377D01*
X180484578Y-78741594D01*
X180440403Y-78704859D01*
X180385380Y-78673979D01*
X180325739Y-78652327D01*
X180257853Y-78638746D01*
X180180338Y-78633984D01*
X180101964Y-78638810D01*
X180033918Y-78652518D01*
X179974685Y-78674284D01*
X179920131Y-78705376D01*
X179876289Y-78742328D01*
X179841817Y-78785354D01*
X179816379Y-78834275D01*
X179801025Y-78887359D01*
X179795778Y-78945699D01*
X179798651Y-78976474D01*
X179801411Y-79006033D01*
X179816721Y-79052006D01*
X179840134Y-79091021D01*
X179864837Y-79117646D01*
X179926325Y-79160327D01*
X179926325Y-79167227D01*
X179557397Y-79167227D01*
X179393318Y-79167227D01*
X179393318Y-78235929D01*
X179625785Y-78235929D01*
X179625785Y-78382903D01*
X179803593Y-78382903D01*
X179803593Y-78535310D01*
X179920830Y-78535310D01*
X179920830Y-78382903D01*
X180329448Y-78382903D01*
X180367255Y-78386129D01*
X180392181Y-78394339D01*
X180407972Y-78406167D01*
X180423236Y-78432876D01*
X180428855Y-78471196D01*
X180424764Y-78545080D01*
X180552320Y-78545080D01*
X180557815Y-78453244D01*
X180552216Y-78395488D01*
X180535956Y-78344190D01*
X180508273Y-78299788D01*
X180469155Y-78265361D01*
X180437998Y-78249397D01*
X180401718Y-78239437D01*
X180359185Y-78235929D01*
X179920830Y-78235929D01*
X179920830Y-78193981D01*
X181237397Y-78193981D01*
X182006578Y-78507161D01*
X182006578Y-78519434D01*
X181237397Y-78832676D01*
X181237397Y-79016957D01*
X182230000Y-79016957D01*
X182230000Y-78872365D01*
X181512964Y-78872365D01*
X181512964Y-78862779D01*
X182228656Y-78572801D01*
X182228656Y-78453855D01*
X181511620Y-78162473D01*
X181511620Y-78154291D01*
X182230000Y-78154291D01*
X182230000Y-78010676D01*
X181237397Y-78010676D01*
X181237397Y-78193981D01*
X179920830Y-78193981D01*
X179920830Y-78128890D01*
X179803593Y-78128890D01*
X179803593Y-78235929D01*
X179625785Y-78235929D01*
X179393318Y-78235929D01*
X179393318Y-77695786D01*
X179795778Y-77695786D01*
X179795834Y-77696458D01*
X179801349Y-77763090D01*
X179817478Y-77823144D01*
X179843832Y-77877259D01*
X179879957Y-77925301D01*
X179924774Y-77965499D01*
X179979326Y-77998342D01*
X180039047Y-78021540D01*
X180105976Y-78035948D01*
X180181376Y-78040963D01*
X180256816Y-78035936D01*
X180323526Y-78021518D01*
X180382815Y-77998342D01*
X180436903Y-77965543D01*
X180481513Y-77925351D01*
X180517637Y-77877259D01*
X180543957Y-77823148D01*
X180560066Y-77763093D01*
X180565631Y-77695786D01*
X180560062Y-77628066D01*
X180543948Y-77567689D01*
X180517637Y-77513337D01*
X180500371Y-77490256D01*
X181221765Y-77490256D01*
X181225880Y-77555614D01*
X181237755Y-77614347D01*
X181256936Y-77667393D01*
X181283996Y-77716564D01*
X181316483Y-77757030D01*
X181354572Y-77789820D01*
X181397989Y-77814475D01*
X181444879Y-77829243D01*
X181496294Y-77834272D01*
X181496294Y-77690535D01*
X181453490Y-77680348D01*
X181418317Y-77659727D01*
X181389193Y-77627887D01*
X181368489Y-77588977D01*
X181355398Y-77542110D01*
X181350725Y-77485432D01*
X181355702Y-77427886D01*
X181369654Y-77380408D01*
X181392779Y-77339729D01*
X181422227Y-77310554D01*
X181457930Y-77291967D01*
X181497821Y-77285764D01*
X181537206Y-77291689D01*
X181569125Y-77308752D01*
X181595457Y-77337848D01*
X181624883Y-77394227D01*
X181647663Y-77466748D01*
X181673797Y-77562674D01*
X181699953Y-77647643D01*
X181731136Y-77713618D01*
X181766537Y-77763904D01*
X181805910Y-77801153D01*
X181849607Y-77827223D01*
X181898560Y-77843036D01*
X181954188Y-77848499D01*
X182009290Y-77843522D01*
X182059144Y-77828991D01*
X182104825Y-77804963D01*
X182144820Y-77772358D01*
X182179227Y-77730567D01*
X182208201Y-77678201D01*
X182228382Y-77621488D01*
X182241133Y-77556056D01*
X182245631Y-77480425D01*
X182241390Y-77407559D01*
X182229323Y-77343916D01*
X182210155Y-77288206D01*
X182182506Y-77236669D01*
X182148713Y-77194315D01*
X182108550Y-77160040D01*
X182062501Y-77134674D01*
X182010811Y-77119181D01*
X181952112Y-77113817D01*
X181952112Y-77260118D01*
X182001169Y-77270692D01*
X182040329Y-77293030D01*
X182071730Y-77327773D01*
X182093902Y-77370586D01*
X182107827Y-77421229D01*
X182112763Y-77481463D01*
X182107504Y-77542518D01*
X182092552Y-77594609D01*
X182067660Y-77639877D01*
X182035643Y-77673011D01*
X181996344Y-77694337D01*
X181951013Y-77701526D01*
X181912649Y-77695361D01*
X181881770Y-77677529D01*
X181856679Y-77650204D01*
X181835547Y-77613415D01*
X181818712Y-77570605D01*
X181801598Y-77513642D01*
X181770029Y-77395734D01*
X181742095Y-77314777D01*
X181709003Y-77251940D01*
X181671416Y-77204064D01*
X181637110Y-77174948D01*
X181598836Y-77154291D01*
X181555794Y-77141647D01*
X181506857Y-77137264D01*
X181452169Y-77142529D01*
X181402896Y-77157908D01*
X181357869Y-77183426D01*
X181318427Y-77217466D01*
X181285013Y-77259294D01*
X181257424Y-77309944D01*
X181237921Y-77364600D01*
X181225908Y-77424420D01*
X181221765Y-77490256D01*
X180500371Y-77490256D01*
X180481490Y-77465016D01*
X180436876Y-77424708D01*
X180382815Y-77391887D01*
X180323526Y-77368711D01*
X180256816Y-77354293D01*
X180181376Y-77349267D01*
X180105976Y-77354281D01*
X180039047Y-77368689D01*
X179979326Y-77391887D01*
X179924801Y-77424753D01*
X179879980Y-77465067D01*
X179843832Y-77513337D01*
X179817487Y-77567693D01*
X179801353Y-77628070D01*
X179795778Y-77695786D01*
X179393318Y-77695786D01*
X179393318Y-76550104D01*
X179557397Y-76550104D01*
X179987264Y-76550104D01*
X179987264Y-77046406D01*
X179557397Y-77046406D01*
X179557397Y-77194905D01*
X180550000Y-77194905D01*
X180550000Y-77046406D01*
X180116224Y-77046406D01*
X180116224Y-76550104D01*
X180550000Y-76550104D01*
X181237397Y-76550104D01*
X182101039Y-76550104D01*
X182101039Y-76999511D01*
X182230000Y-76999511D01*
X182230000Y-76401605D01*
X181237397Y-76401605D01*
X181237397Y-76550104D01*
X180550000Y-76550104D01*
X180550000Y-76401605D01*
X179557397Y-76401605D01*
X179557397Y-76550104D01*
X179393318Y-76550104D01*
X179393318Y-76276605D01*
X182370631Y-76276605D01*
X182370631Y-91600479D01*
G37*
D11*
%TO.C,C3*%
X157690000Y-87035000D03*
%TD*%
M02*
