M48
; DRILL file {KiCad 9.0.0} date 2025-03-10T21:05:30+0900
; FORMAT={-:-/ absolute / metric / decimal}
; #@! TF.CreationDate,2025-03-10T21:05:30+09:00
; #@! TF.GenerationSoftware,Kicad,Pcbnew,9.0.0
; #@! TF.FileFunction,Plated,1,2,PTH
FMAT,2
METRIC
; #@! TA.AperFunction,Plated,PTH,ViaDrill
T1C0.200
; #@! TA.AperFunction,Plated,PTH,ComponentDrill
T2C0.600
; #@! TA.AperFunction,Plated,PTH,ComponentDrill
T3C0.762
; #@! TA.AperFunction,Plated,PTH,ComponentDrill
T4C2.200
; #@! TA.AperFunction,Plated,PTH,ComponentDrill
T5C2.400
%
G90
G05
T1
X150.8Y-77.8
X151.3Y-74.15
X153.825Y-82.7
X158.205Y-93.935
X159.4Y-92.8
X160.1Y-98.6
X162.1Y-93.0
X163.2Y-79.1
X163.273Y-77.3
X163.4Y-85.175
X164.5Y-103.2
X165.9Y-86.775
X166.2Y-103.2
X166.9Y-81.85
X167.0Y-90.165
X167.0Y-91.435
X167.15Y-99.012
X167.5Y-88.5
X168.85Y-99.0
X169.6Y-94.2
X171.525Y-95.925
X173.1Y-86.1
X173.57Y-82.55
X173.7Y-72.7
X174.3Y-77.3
X174.5Y-89.3
X178.9Y-87.4
T3
X150.9Y-91.2
X150.9Y-93.7
X150.9Y-96.2
T4
X150.8Y-102.3
X180.5Y-102.3
T5
X155.475Y-75.875
T2
G00X175.745Y-65.98
M15
G01X176.845Y-65.98
M16
G05
G00X175.745Y-74.62
M15
G01X176.845Y-74.62
M16
G05
G00X180.075Y-65.98
M15
G01X180.875Y-65.98
M16
G05
G00X180.075Y-74.62
M15
G01X180.875Y-74.62
M16
G05
M30
