%TF.GenerationSoftware,KiCad,Pcbnew,9.0.0*%
%TF.CreationDate,2025-03-27T11:38:57+09:00*%
%TF.ProjectId,hotdoggu_smolSlimeVR,686f7464-6f67-4677-955f-736d6f6c536c,rev?*%
%TF.SameCoordinates,Original*%
%TF.FileFunction,Soldermask,Top*%
%TF.FilePolarity,Negative*%
%FSLAX46Y46*%
G04 Gerber Fmt 4.6, Leading zero omitted, Abs format (unit mm)*
G04 Created by KiCad (PCBNEW 9.0.0) date 2025-03-27 11:38:57*
%MOMM*%
%LPD*%
G01*
G04 APERTURE LIST*
G04 Aperture macros list*
%AMRoundRect*
0 Rectangle with rounded corners*
0 $1 Rounding radius*
0 $2 $3 $4 $5 $6 $7 $8 $9 X,Y pos of 4 corners*
0 Add a 4 corners polygon primitive as box body*
4,1,4,$2,$3,$4,$5,$6,$7,$8,$9,$2,$3,0*
0 Add four circle primitives for the rounded corners*
1,1,$1+$1,$2,$3*
1,1,$1+$1,$4,$5*
1,1,$1+$1,$6,$7*
1,1,$1+$1,$8,$9*
0 Add four rect primitives between the rounded corners*
20,1,$1+$1,$2,$3,$4,$5,0*
20,1,$1+$1,$4,$5,$6,$7,0*
20,1,$1+$1,$6,$7,$8,$9,0*
20,1,$1+$1,$8,$9,$2,$3,0*%
%AMFreePoly0*
4,1,6,0.725000,-0.725000,-0.725000,-0.725000,-0.725000,0.125000,-0.125000,0.725000,0.725000,0.725000,0.725000,-0.725000,0.725000,-0.725000,$1*%
G04 Aperture macros list end*
%ADD10RoundRect,0.250000X-0.450000X0.450000X-0.450000X-0.450000X0.450000X-0.450000X0.450000X0.450000X0*%
%ADD11C,1.400000*%
%ADD12RoundRect,0.200000X0.275000X-0.200000X0.275000X0.200000X-0.275000X0.200000X-0.275000X-0.200000X0*%
%ADD13RoundRect,0.200000X0.200000X0.275000X-0.200000X0.275000X-0.200000X-0.275000X0.200000X-0.275000X0*%
%ADD14RoundRect,0.087500X-0.225000X-0.087500X0.225000X-0.087500X0.225000X0.087500X-0.225000X0.087500X0*%
%ADD15RoundRect,0.087500X-0.087500X-0.225000X0.087500X-0.225000X0.087500X0.225000X-0.087500X0.225000X0*%
%ADD16C,2.600000*%
%ADD17C,3.800000*%
%ADD18RoundRect,0.225000X-0.225000X-0.250000X0.225000X-0.250000X0.225000X0.250000X-0.225000X0.250000X0*%
%ADD19RoundRect,0.067500X0.607500X0.832500X-0.607500X0.832500X-0.607500X-0.832500X0.607500X-0.832500X0*%
%ADD20RoundRect,0.200000X0.600000X-0.200000X0.600000X0.200000X-0.600000X0.200000X-0.600000X-0.200000X0*%
%ADD21RoundRect,0.250001X1.249999X-0.799999X1.249999X0.799999X-1.249999X0.799999X-1.249999X-0.799999X0*%
%ADD22RoundRect,0.218750X-0.256250X0.218750X-0.256250X-0.218750X0.256250X-0.218750X0.256250X0.218750X0*%
%ADD23RoundRect,0.225000X-0.250000X0.225000X-0.250000X-0.225000X0.250000X-0.225000X0.250000X0.225000X0*%
%ADD24RoundRect,0.150000X0.150000X-0.512500X0.150000X0.512500X-0.150000X0.512500X-0.150000X-0.512500X0*%
%ADD25C,0.650000*%
%ADD26RoundRect,0.150000X0.425000X-0.150000X0.425000X0.150000X-0.425000X0.150000X-0.425000X-0.150000X0*%
%ADD27RoundRect,0.075000X0.500000X-0.075000X0.500000X0.075000X-0.500000X0.075000X-0.500000X-0.075000X0*%
%ADD28O,2.100000X1.000000*%
%ADD29O,1.800000X1.000000*%
%ADD30R,0.800000X0.400000*%
%ADD31R,0.400000X0.800000*%
%ADD32FreePoly0,0.000000*%
%ADD33R,1.450000X1.450000*%
%ADD34R,0.700000X0.700000*%
%ADD35RoundRect,0.200000X-0.275000X0.200000X-0.275000X-0.200000X0.275000X-0.200000X0.275000X0.200000X0*%
%ADD36RoundRect,0.150000X-0.512500X-0.150000X0.512500X-0.150000X0.512500X0.150000X-0.512500X0.150000X0*%
%ADD37RoundRect,0.225000X0.225000X0.250000X-0.225000X0.250000X-0.225000X-0.250000X0.225000X-0.250000X0*%
G04 APERTURE END LIST*
D10*
%TO.C,SW1*%
X152500000Y-91000000D03*
D11*
X152500000Y-93500000D03*
X152500000Y-96000000D03*
X149200000Y-96000000D03*
X149200000Y-93500000D03*
X149200000Y-91000000D03*
%TD*%
D12*
%TO.C,R11*%
X168974268Y-100719943D03*
X168974268Y-99069943D03*
%TD*%
D13*
%TO.C,R2*%
X172854991Y-84744918D03*
X171204991Y-84744918D03*
%TD*%
D14*
%TO.C,U2*%
X164837500Y-85750000D03*
X164837500Y-86250000D03*
X164837500Y-86750000D03*
X164837500Y-87250000D03*
D15*
X165500000Y-87412500D03*
X166000000Y-87412500D03*
X166500000Y-87412500D03*
D14*
X167162500Y-87250000D03*
X167162500Y-86750000D03*
X167162500Y-86250000D03*
X167162500Y-85750000D03*
D15*
X166500000Y-85587500D03*
X166000000Y-85587500D03*
X165500000Y-85587500D03*
%TD*%
D16*
%TO.C,H1*%
X150800000Y-102300000D03*
D17*
X150800000Y-102300000D03*
%TD*%
D18*
%TO.C,C7*%
X172157443Y-73768932D03*
X173707443Y-73768932D03*
%TD*%
D19*
%TO.C,SW2*%
X181065000Y-73260000D03*
X176920000Y-73260000D03*
%TD*%
D20*
%TO.C,J2*%
X176100000Y-96026404D03*
X176100000Y-94776404D03*
D21*
X179000000Y-98576404D03*
X179000000Y-92226404D03*
%TD*%
D22*
%TO.C,LED3*%
X163820000Y-102212500D03*
X163820000Y-103787500D03*
%TD*%
D23*
%TO.C,C5*%
X170250000Y-86475000D03*
X170250000Y-88025000D03*
%TD*%
D16*
%TO.C,H2*%
X166000000Y-68000000D03*
D17*
X166000000Y-68000000D03*
%TD*%
D18*
%TO.C,C1*%
X156172165Y-98500000D03*
X157722165Y-98500000D03*
%TD*%
D23*
%TO.C,C2*%
X161500000Y-96225000D03*
X161500000Y-97775000D03*
%TD*%
D24*
%TO.C,U3*%
X171050000Y-95637500D03*
X172000000Y-95637500D03*
X172950000Y-95637500D03*
X172950000Y-93362500D03*
X171050000Y-93362500D03*
%TD*%
D22*
%TO.C,LED1*%
X169000000Y-102212500D03*
X169000000Y-103787500D03*
%TD*%
D19*
%TO.C,SW3*%
X181065000Y-68760000D03*
X176920000Y-68760000D03*
%TD*%
D13*
%TO.C,R18*%
X173757175Y-72236848D03*
X172107175Y-72236848D03*
%TD*%
D25*
%TO.C,J1*%
X176820000Y-85890000D03*
X176820000Y-80110000D03*
D26*
X175745000Y-86200000D03*
X175745000Y-85400000D03*
D27*
X175745000Y-84250000D03*
X175745000Y-83250000D03*
X175745000Y-82750000D03*
X175745000Y-81750000D03*
D26*
X175745000Y-80600000D03*
X175745000Y-79800000D03*
X175745000Y-79800000D03*
X175745000Y-80600000D03*
D27*
X175745000Y-81250000D03*
X175745000Y-82250000D03*
X175745000Y-83750000D03*
X175745000Y-84750000D03*
D26*
X175745000Y-85400000D03*
X175745000Y-86200000D03*
D28*
X176320000Y-87320000D03*
D29*
X180500000Y-87320000D03*
D28*
X176320000Y-78680000D03*
D29*
X180500000Y-78680000D03*
%TD*%
D30*
%TO.C,U1*%
X149158441Y-72219732D03*
X149158441Y-73019732D03*
X149158441Y-73819732D03*
X149158441Y-74619732D03*
X149158441Y-75419732D03*
X149158441Y-76219732D03*
X149158441Y-77019732D03*
X149158441Y-77819732D03*
X149158441Y-78619732D03*
X149158441Y-79419732D03*
X149158441Y-80219732D03*
D31*
X150258441Y-81119732D03*
X151058441Y-81119732D03*
X151858441Y-81119732D03*
X152658441Y-81119732D03*
X153458441Y-81119732D03*
X154258441Y-81119732D03*
X155058441Y-81119732D03*
X155858441Y-81119732D03*
X156658441Y-81119732D03*
X157458441Y-81119732D03*
X158258441Y-81119732D03*
X159058441Y-81119732D03*
X159858441Y-81119732D03*
D30*
X160958441Y-80219732D03*
X160958441Y-79419732D03*
X160958441Y-78619732D03*
X160958441Y-77819732D03*
X160958441Y-77019732D03*
X160958441Y-76219732D03*
X160958441Y-75419732D03*
X160958441Y-74619732D03*
X160958441Y-73819732D03*
X160958441Y-73019732D03*
X160958441Y-72219732D03*
D31*
X159858441Y-71319732D03*
X159058441Y-71319732D03*
X158258441Y-71319732D03*
X157458441Y-71319732D03*
X156658441Y-71319732D03*
X155858441Y-71319732D03*
X155058441Y-71319732D03*
X154258441Y-71319732D03*
X153458441Y-71319732D03*
X152658441Y-71319732D03*
X151858441Y-71319732D03*
X151058441Y-71319732D03*
X150258441Y-71319732D03*
D32*
X153083441Y-74244732D03*
D33*
X153083441Y-76219732D03*
X153083441Y-78194732D03*
X155058441Y-74244732D03*
X155058441Y-76219732D03*
X155058441Y-78194732D03*
X157033441Y-74244732D03*
X157033441Y-76219732D03*
X157033441Y-78194732D03*
D34*
X161008441Y-71269732D03*
X161008441Y-81169732D03*
X149108441Y-81169732D03*
X149108441Y-71269732D03*
%TD*%
D18*
%TO.C,C8*%
X172177703Y-68000000D03*
X173727703Y-68000000D03*
%TD*%
D35*
%TO.C,R12*%
X163818405Y-99077785D03*
X163818405Y-100727785D03*
%TD*%
D12*
%TO.C,R16*%
X152197190Y-85960362D03*
X152197190Y-84310362D03*
%TD*%
D35*
%TO.C,R13*%
X154953017Y-84347927D03*
X154953017Y-85997927D03*
%TD*%
%TO.C,R15*%
X150619771Y-84307544D03*
X150619771Y-85957544D03*
%TD*%
D13*
%TO.C,R3*%
X172844462Y-80749169D03*
X171194462Y-80749169D03*
%TD*%
D36*
%TO.C,U4*%
X156309665Y-93429552D03*
X156309665Y-94379552D03*
X156309665Y-95329552D03*
X158584665Y-95329552D03*
X158584665Y-93429552D03*
%TD*%
D22*
%TO.C,LED2*%
X166410000Y-102212500D03*
X166410000Y-103787500D03*
%TD*%
D13*
%TO.C,R17*%
X173777703Y-69500000D03*
X172127703Y-69500000D03*
%TD*%
D12*
%TO.C,R19*%
X168000000Y-94825000D03*
X168000000Y-93175000D03*
%TD*%
D37*
%TO.C,C6*%
X165275000Y-90000000D03*
X163725000Y-90000000D03*
%TD*%
D35*
%TO.C,R5*%
X166407883Y-99060048D03*
X166407883Y-100710048D03*
%TD*%
D16*
%TO.C,H3*%
X180500000Y-102300000D03*
D17*
X180500000Y-102300000D03*
%TD*%
D35*
%TO.C,R14*%
X156453017Y-84347927D03*
X156453017Y-85997927D03*
%TD*%
M02*
