M48
; DRILL file {KiCad 9.0.0} date 2025-03-27T11:38:54+0900
; FORMAT={-:-/ absolute / metric / decimal}
; #@! TF.CreationDate,2025-03-27T11:38:54+09:00
; #@! TF.GenerationSoftware,Kicad,Pcbnew,9.0.0
; #@! TF.FileFunction,Plated,1,2,PTH
FMAT,2
METRIC
; #@! TA.AperFunction,Plated,PTH,ViaDrill
T1C0.200
; #@! TA.AperFunction,Plated,PTH,ComponentDrill
T2C0.600
; #@! TA.AperFunction,Plated,PTH,ComponentDrill
T3C0.900
; #@! TA.AperFunction,Plated,PTH,ComponentDrill
T4C2.200
%
G90
G05
T1
X148.75Y-82.5
X148.75Y-83.25
X148.75Y-84.0
X149.5Y-82.5
X149.5Y-83.25
X149.5Y-84.0
X150.25Y-72.25
X150.25Y-79.25
X150.25Y-80.0
X150.497Y-73.816
X151.0Y-80.0
X152.25Y-73.5
X152.25Y-75.25
X152.25Y-77.25
X154.0Y-75.25
X154.0Y-77.25
X154.0Y-79.2
X154.0Y-95.5
X155.0Y-79.8
X155.0Y-89.25
X155.0Y-90.0
X155.0Y-103.787
X155.5Y-100.0
X155.5Y-102.5
X155.75Y-89.25
X155.75Y-90.0
X156.0Y-75.25
X156.0Y-77.25
X156.0Y-79.2
X156.25Y-100.0
X156.25Y-102.5
X156.5Y-89.25
X156.5Y-90.0
X157.0Y-100.0
X157.0Y-102.5
X157.1Y-79.8
X157.25Y-89.25
X157.25Y-90.0
X157.75Y-97.0
X157.75Y-100.0
X157.75Y-102.5
X158.0Y-75.25
X158.0Y-77.25
X158.0Y-79.25
X158.0Y-89.25
X158.0Y-90.0
X158.25Y-85.998
X158.5Y-97.0
X158.5Y-100.0
X158.5Y-102.5
X158.75Y-72.75
X158.75Y-89.25
X158.75Y-90.0
X159.25Y-97.0
X159.25Y-97.75
X159.25Y-98.5
X159.5Y-73.0
X159.5Y-89.25
X159.5Y-90.0
X160.0Y-74.6
X160.0Y-76.2
X160.0Y-77.8
X160.0Y-79.5
X160.0Y-97.0
X160.0Y-97.75
X160.0Y-98.5
X160.75Y-82.5
X160.75Y-83.25
X161.25Y-85.0
X161.5Y-82.5
X161.5Y-83.25
X162.0Y-85.0
X162.25Y-81.0
X162.25Y-81.75
X162.25Y-82.5
X162.25Y-83.25
X162.75Y-66.0
X162.75Y-66.75
X162.75Y-67.5
X162.75Y-68.25
X162.75Y-69.0
X162.75Y-69.75
X162.75Y-70.5
X162.75Y-71.25
X162.75Y-85.0
X163.25Y-83.25
X163.5Y-71.25
X163.5Y-85.0
X163.5Y-94.25
X164.0Y-83.25
X164.25Y-71.25
X164.75Y-83.25
X165.0Y-71.25
X165.0Y-75.5
X165.75Y-71.25
X165.75Y-79.5
X165.75Y-80.25
X165.75Y-81.0
X166.0Y-75.5
X166.3Y-88.4
X166.3Y-89.0
X166.5Y-71.25
X167.0Y-75.5
X167.0Y-82.0
X167.0Y-96.25
X167.25Y-71.25
X167.25Y-84.25
X167.75Y-82.0
X167.75Y-96.25
X168.0Y-71.25
X168.0Y-75.5
X168.0Y-84.25
X168.0Y-90.0
X168.0Y-91.0
X168.5Y-82.0
X168.5Y-96.25
X168.75Y-84.25
X168.75Y-85.0
X168.75Y-85.75
X168.75Y-86.5
X168.75Y-90.0
X168.75Y-91.0
X169.0Y-75.5
X169.25Y-82.0
X169.25Y-96.25
X169.5Y-72.0
X169.5Y-84.25
X169.5Y-90.0
X169.5Y-91.0
X170.0Y-82.0
X170.25Y-90.0
X170.25Y-91.0
X170.75Y-82.0
X170.75Y-103.5
X171.5Y-82.0
X171.5Y-86.25
X172.0Y-86.75
X172.25Y-82.0
X172.25Y-83.75
X172.25Y-97.5
X172.5Y-102.5
X172.95Y-91.75
X173.0Y-75.25
X173.0Y-98.75
X173.5Y-102.5
X173.75Y-71.0
X173.9Y-82.75
X174.5Y-85.75
X174.5Y-102.5
X174.75Y-80.65
X175.0Y-76.5
X175.0Y-89.75
X175.5Y-102.5
X176.0Y-76.5
X176.0Y-89.75
X176.5Y-102.5
X177.0Y-76.5
X177.0Y-89.75
X177.5Y-102.5
X178.0Y-76.5
X178.0Y-89.75
X179.0Y-76.5
X179.0Y-89.75
X180.0Y-76.5
X180.0Y-89.75
X181.0Y-76.5
X181.0Y-89.75
X182.0Y-76.5
X182.0Y-89.75
T3
X149.2Y-91.0
X149.2Y-93.5
X149.2Y-96.0
X152.5Y-91.0
X152.5Y-93.5
X152.5Y-96.0
T4
X150.8Y-102.3
X166.0Y-68.0
X180.5Y-102.3
T2
G00X175.77Y-78.68
M15
G01X176.87Y-78.68
M16
G05
G00X175.77Y-87.32
M15
G01X176.87Y-87.32
M16
G05
G00X180.1Y-78.68
M15
G01X180.9Y-78.68
M16
G05
G00X180.1Y-87.32
M15
G01X180.9Y-87.32
M16
G05
M30
