%TF.GenerationSoftware,KiCad,Pcbnew,9.0.0*%
%TF.CreationDate,2025-03-27T11:38:57+09:00*%
%TF.ProjectId,hotdoggu_smolSlimeVR,686f7464-6f67-4677-955f-736d6f6c536c,rev?*%
%TF.SameCoordinates,Original*%
%TF.FileFunction,Copper,L2,Bot*%
%TF.FilePolarity,Positive*%
%FSLAX46Y46*%
G04 Gerber Fmt 4.6, Leading zero omitted, Abs format (unit mm)*
G04 Created by KiCad (PCBNEW 9.0.0) date 2025-03-27 11:38:57*
%MOMM*%
%LPD*%
G01*
G04 APERTURE LIST*
G04 Aperture macros list*
%AMRoundRect*
0 Rectangle with rounded corners*
0 $1 Rounding radius*
0 $2 $3 $4 $5 $6 $7 $8 $9 X,Y pos of 4 corners*
0 Add a 4 corners polygon primitive as box body*
4,1,4,$2,$3,$4,$5,$6,$7,$8,$9,$2,$3,0*
0 Add four circle primitives for the rounded corners*
1,1,$1+$1,$2,$3*
1,1,$1+$1,$4,$5*
1,1,$1+$1,$6,$7*
1,1,$1+$1,$8,$9*
0 Add four rect primitives between the rounded corners*
20,1,$1+$1,$2,$3,$4,$5,0*
20,1,$1+$1,$4,$5,$6,$7,0*
20,1,$1+$1,$6,$7,$8,$9,0*
20,1,$1+$1,$8,$9,$2,$3,0*%
G04 Aperture macros list end*
%TA.AperFunction,ComponentPad*%
%ADD10RoundRect,0.250000X-0.450000X0.450000X-0.450000X-0.450000X0.450000X-0.450000X0.450000X0.450000X0*%
%TD*%
%TA.AperFunction,ComponentPad*%
%ADD11C,1.400000*%
%TD*%
%TA.AperFunction,ComponentPad*%
%ADD12C,2.600000*%
%TD*%
%TA.AperFunction,ConnectorPad*%
%ADD13C,3.800000*%
%TD*%
%TA.AperFunction,HeatsinkPad*%
%ADD14O,2.100000X1.000000*%
%TD*%
%TA.AperFunction,HeatsinkPad*%
%ADD15O,1.800000X1.000000*%
%TD*%
%TA.AperFunction,ViaPad*%
%ADD16C,0.400000*%
%TD*%
%TA.AperFunction,Conductor*%
%ADD17C,0.200000*%
%TD*%
%TA.AperFunction,Conductor*%
%ADD18C,0.400000*%
%TD*%
G04 APERTURE END LIST*
D10*
%TO.P,SW1,1,A*%
%TO.N,unconnected-(SW1-A-Pad1)*%
X152500000Y-91000000D03*
D11*
%TO.P,SW1,2,B*%
%TO.N,/VBAT*%
X152500000Y-93500000D03*
%TO.P,SW1,3,C*%
%TO.N,/VBATSW*%
X152500000Y-96000000D03*
%TO.P,SW1,4,A*%
%TO.N,/VIN*%
X149200000Y-96000000D03*
%TO.P,SW1,5,B*%
%TO.N,/VBAT*%
X149200000Y-93500000D03*
%TO.P,SW1,6,C*%
%TO.N,unconnected-(SW1-C-Pad6)*%
X149200000Y-91000000D03*
%TD*%
D12*
%TO.P,H1,1,1*%
%TO.N,GND*%
X150800000Y-102300000D03*
D13*
X150800000Y-102300000D03*
%TD*%
D12*
%TO.P,H2,1,1*%
%TO.N,GND*%
X166000000Y-68000000D03*
D13*
X166000000Y-68000000D03*
%TD*%
D14*
%TO.P,J1,S1,SHIELD*%
%TO.N,GND*%
X176320000Y-87320000D03*
D15*
X180500000Y-87320000D03*
D14*
X176320000Y-78680000D03*
D15*
X180500000Y-78680000D03*
%TD*%
D12*
%TO.P,H3,1,1*%
%TO.N,GND*%
X180500000Y-102300000D03*
D13*
X180500000Y-102300000D03*
%TD*%
D16*
%TO.N,/STAT*%
X154000000Y-95500000D03*
%TO.N,+3V3*%
X150497372Y-73815689D03*
X170750000Y-103500000D03*
X158250000Y-85997927D03*
X163500000Y-94250000D03*
X169500000Y-72000000D03*
%TO.N,GND*%
X180000000Y-89750000D03*
X158500000Y-102500000D03*
X166300000Y-89000000D03*
X157250000Y-89250000D03*
X171500000Y-82000000D03*
X170250000Y-91000000D03*
X172250000Y-82000000D03*
X156000000Y-77250000D03*
X168750000Y-84250000D03*
X149500000Y-84000000D03*
X168500000Y-82000000D03*
X168000000Y-84250000D03*
X182000000Y-89750000D03*
X161250000Y-85000000D03*
X159500000Y-90000000D03*
X168750000Y-85750000D03*
X158000000Y-79250000D03*
X169500000Y-84250000D03*
X162750000Y-69750000D03*
X165000000Y-75500000D03*
X164750000Y-83250000D03*
X154000000Y-75250000D03*
X162750000Y-68250000D03*
X157100000Y-79800000D03*
X168750000Y-91000000D03*
X160750000Y-83250000D03*
X160000000Y-97750000D03*
X170000000Y-82000000D03*
X158750000Y-89250000D03*
X167000000Y-96250000D03*
X158750000Y-90000000D03*
X176000000Y-89750000D03*
X148750000Y-83250000D03*
X154000000Y-79200000D03*
X158500000Y-100000000D03*
X171500000Y-86250000D03*
X162750000Y-85000000D03*
X176000000Y-76500000D03*
X162250000Y-82500000D03*
X163250000Y-83250000D03*
X168750000Y-85000000D03*
X165750000Y-81000000D03*
X156000000Y-75250000D03*
X159250000Y-97000000D03*
X155750000Y-90000000D03*
X162750000Y-67500000D03*
X181000000Y-89750000D03*
X166000000Y-75500000D03*
X165750000Y-80250000D03*
X159500000Y-89250000D03*
X174500000Y-102500000D03*
X152250000Y-75250000D03*
X157750000Y-97000000D03*
X158000000Y-75250000D03*
X150250000Y-72250000D03*
X158000000Y-89250000D03*
X160000000Y-74600000D03*
X175000000Y-89750000D03*
X163500000Y-85000000D03*
X162750000Y-66750000D03*
X162250000Y-83250000D03*
X168500000Y-96250000D03*
X149500000Y-82500000D03*
X178000000Y-89750000D03*
X152250000Y-73500000D03*
X170250000Y-90000000D03*
X172500000Y-102500000D03*
X177000000Y-89750000D03*
X162750000Y-70500000D03*
X164250000Y-71250000D03*
X179000000Y-89750000D03*
X156500000Y-90000000D03*
X162250000Y-81000000D03*
X156250000Y-102500000D03*
X161500000Y-83250000D03*
X167000000Y-82000000D03*
X157750000Y-100000000D03*
X156250000Y-100000000D03*
X156500000Y-89250000D03*
X155750000Y-89250000D03*
X175500000Y-102500000D03*
X162750000Y-66000000D03*
X158500000Y-97000000D03*
X160000000Y-98500000D03*
X155000000Y-90000000D03*
X173500000Y-102500000D03*
X160000000Y-76200000D03*
X160000000Y-97000000D03*
X160000000Y-77800000D03*
X155500000Y-100000000D03*
X151000000Y-80000000D03*
X179000000Y-76500000D03*
X155000000Y-89250000D03*
X169250000Y-96250000D03*
X167000000Y-75500000D03*
X165750000Y-79500000D03*
X168000000Y-71250000D03*
X157250000Y-90000000D03*
X152250000Y-77250000D03*
X165750000Y-71250000D03*
X177000000Y-76500000D03*
X169250000Y-82000000D03*
X157000000Y-102500000D03*
X159250000Y-97750000D03*
X167750000Y-96250000D03*
X158000000Y-77250000D03*
X158000000Y-90000000D03*
X159250000Y-98500000D03*
X164000000Y-83250000D03*
X169500000Y-90000000D03*
X155500000Y-102500000D03*
X168000000Y-90000000D03*
X178000000Y-76500000D03*
X162750000Y-69000000D03*
X154000000Y-77250000D03*
X168000000Y-75500000D03*
X157000000Y-100000000D03*
X160750000Y-82500000D03*
X155000000Y-79800000D03*
X168750000Y-86500000D03*
X162000000Y-85000000D03*
X160000000Y-79500000D03*
X157750000Y-102500000D03*
X175000000Y-76500000D03*
X167250000Y-84250000D03*
X169500000Y-91000000D03*
X182000000Y-76500000D03*
X170750000Y-82000000D03*
X150250000Y-80000000D03*
X177500000Y-102500000D03*
X181000000Y-76500000D03*
X168000000Y-91000000D03*
X163500000Y-71250000D03*
X176500000Y-102500000D03*
X162250000Y-81750000D03*
X168750000Y-90000000D03*
X161500000Y-82500000D03*
X156000000Y-79200000D03*
X162750000Y-71250000D03*
X148750000Y-84000000D03*
X167750000Y-82000000D03*
X166300000Y-88400000D03*
X180000000Y-76500000D03*
X148750000Y-82500000D03*
X172000000Y-86750000D03*
X169000000Y-75500000D03*
X167250000Y-71250000D03*
X165000000Y-71250000D03*
X166500000Y-71250000D03*
X150250000Y-79250000D03*
X149500000Y-83250000D03*
%TO.N,/~{RESET}*%
X158750000Y-72750000D03*
X173000000Y-75250000D03*
%TO.N,/~{BOOT}*%
X173750000Y-71000000D03*
X159500000Y-73000000D03*
%TO.N,/VUSB*%
X174750000Y-80650000D03*
X173000000Y-98750000D03*
X172950000Y-91750000D03*
X174500000Y-85750000D03*
%TO.N,/USB_D-*%
X172250000Y-83750000D03*
X173900000Y-82750000D03*
%TO.N,/VBAT*%
X172250000Y-97500000D03*
%TO.N,/STAT*%
X155000000Y-103787500D03*
%TD*%
D17*
%TO.N,/STAT*%
X154000000Y-102787500D02*
X154000000Y-95500000D01*
X155000000Y-103787500D02*
X154000000Y-102787500D01*
D18*
%TO.N,/VBAT*%
X152500000Y-93500000D02*
X149200000Y-93500000D01*
X162250000Y-91500000D02*
X154500000Y-91500000D01*
X154500000Y-91500000D02*
X152500000Y-93500000D01*
D17*
%TO.N,+3V3*%
X170750000Y-102250000D02*
X170750000Y-103500000D01*
X169500000Y-72000000D02*
X151750000Y-72000000D01*
D18*
X158250000Y-85997927D02*
X158250000Y-81250000D01*
X157600000Y-80600000D02*
X153100000Y-80600000D01*
X151000000Y-74318317D02*
X150497372Y-73815689D01*
X151000000Y-78500000D02*
X151000000Y-74318317D01*
X158250000Y-81250000D02*
X157600000Y-80600000D01*
X153100000Y-80600000D02*
X151000000Y-78500000D01*
D17*
X151750000Y-72000000D02*
X150497372Y-73252628D01*
X150497372Y-73252628D02*
X150497372Y-73815689D01*
X169750000Y-101250000D02*
X170750000Y-102250000D01*
X163500000Y-100500000D02*
X164250000Y-101250000D01*
X163500000Y-94250000D02*
X163500000Y-100500000D01*
X164250000Y-101250000D02*
X169750000Y-101250000D01*
%TO.N,/~{RESET}*%
X170500000Y-74000000D02*
X170250000Y-73750000D01*
X171250000Y-75250000D02*
X170500000Y-74500000D01*
X173000000Y-75250000D02*
X171250000Y-75250000D01*
X170500000Y-74500000D02*
X170500000Y-74000000D01*
X158750000Y-73336988D02*
X158750000Y-72750000D01*
X170250000Y-73750000D02*
X159163012Y-73750000D01*
X159163012Y-73750000D02*
X158750000Y-73336988D01*
%TO.N,/~{BOOT}*%
X159750000Y-72750000D02*
X173000000Y-72750000D01*
X173750000Y-72000000D02*
X173750000Y-71000000D01*
X173000000Y-72750000D02*
X173750000Y-72000000D01*
X159500000Y-73000000D02*
X159750000Y-72750000D01*
D18*
%TO.N,/VUSB*%
X174750000Y-85500000D02*
X174500000Y-85750000D01*
X174750000Y-80650000D02*
X174750000Y-85500000D01*
D17*
X173000000Y-98750000D02*
X173000000Y-91800000D01*
X173000000Y-91800000D02*
X172950000Y-91750000D01*
%TO.N,/USB_D-*%
X173900000Y-82750000D02*
X173750000Y-82750000D01*
X172750000Y-83250000D02*
X172250000Y-83750000D01*
X173250000Y-83250000D02*
X172750000Y-83250000D01*
X173750000Y-82750000D02*
X173250000Y-83250000D01*
D18*
%TO.N,/VBAT*%
X164750000Y-96000000D02*
X164750000Y-94000000D01*
X164750000Y-94000000D02*
X162250000Y-91500000D01*
X166250000Y-97500000D02*
X164750000Y-96000000D01*
X172250000Y-97500000D02*
X166250000Y-97500000D01*
%TD*%
%TA.AperFunction,Conductor*%
%TO.N,GND*%
G36*
X182820332Y-65110359D02*
G01*
X182878513Y-65129294D01*
X182914454Y-65178810D01*
X182919285Y-65209429D01*
X182899713Y-92700570D01*
X182880764Y-92758748D01*
X182831239Y-92794676D01*
X182800713Y-92799500D01*
X181460117Y-92799500D01*
X181386428Y-92830022D01*
X181330022Y-92886428D01*
X181299500Y-92960117D01*
X181299500Y-97789882D01*
X181330022Y-97863571D01*
X181330023Y-97863572D01*
X181330024Y-97863574D01*
X181386426Y-97919976D01*
X181386427Y-97919976D01*
X181386428Y-97919977D01*
X181460117Y-97950500D01*
X181460118Y-97950500D01*
X181539882Y-97950500D01*
X182801468Y-97950500D01*
X182859659Y-97969407D01*
X182895623Y-98018907D01*
X182900467Y-98049224D01*
X182918084Y-104400000D01*
X182918668Y-104610225D01*
X182899922Y-104668468D01*
X182850522Y-104704569D01*
X182819668Y-104709500D01*
X148419500Y-104709500D01*
X148361309Y-104690593D01*
X148325345Y-104641093D01*
X148320500Y-104610500D01*
X148320500Y-102162357D01*
X148700000Y-102162357D01*
X148700000Y-102437642D01*
X148735930Y-102710561D01*
X148735930Y-102710566D01*
X148807178Y-102976463D01*
X148807182Y-102976476D01*
X148912522Y-103230791D01*
X149050172Y-103469209D01*
X149148758Y-103597686D01*
X149863708Y-102882735D01*
X149960967Y-103016602D01*
X150083398Y-103139033D01*
X150217261Y-103236290D01*
X149502312Y-103951240D01*
X149630790Y-104049827D01*
X149869208Y-104187477D01*
X150123523Y-104292817D01*
X150123536Y-104292821D01*
X150389435Y-104364069D01*
X150662357Y-104399999D01*
X150662360Y-104400000D01*
X150937640Y-104400000D01*
X150937642Y-104399999D01*
X151210561Y-104364069D01*
X151210566Y-104364069D01*
X151476463Y-104292821D01*
X151476476Y-104292817D01*
X151730791Y-104187477D01*
X151969201Y-104049832D01*
X151969206Y-104049829D01*
X152097687Y-103951240D01*
X151382737Y-103236290D01*
X151516602Y-103139033D01*
X151639033Y-103016602D01*
X151736290Y-102882737D01*
X152451240Y-103597687D01*
X152549829Y-103469206D01*
X152549832Y-103469201D01*
X152687477Y-103230791D01*
X152792817Y-102976476D01*
X152792821Y-102976463D01*
X152864069Y-102710566D01*
X152864069Y-102710561D01*
X152899999Y-102437642D01*
X152900000Y-102437640D01*
X152900000Y-102162360D01*
X152899999Y-102162357D01*
X152864069Y-101889438D01*
X152864069Y-101889433D01*
X152792821Y-101623536D01*
X152792817Y-101623523D01*
X152687477Y-101369208D01*
X152549827Y-101130790D01*
X152451240Y-101002312D01*
X151736290Y-101717261D01*
X151639033Y-101583398D01*
X151516602Y-101460967D01*
X151382735Y-101363708D01*
X152097686Y-100648758D01*
X151969209Y-100550172D01*
X151730791Y-100412522D01*
X151476476Y-100307182D01*
X151476463Y-100307178D01*
X151210564Y-100235930D01*
X150937642Y-100200000D01*
X150662357Y-100200000D01*
X150389438Y-100235930D01*
X150389433Y-100235930D01*
X150123536Y-100307178D01*
X150123523Y-100307182D01*
X149869208Y-100412522D01*
X149630800Y-100550166D01*
X149502312Y-100648758D01*
X150217263Y-101363709D01*
X150083398Y-101460967D01*
X149960967Y-101583398D01*
X149863709Y-101717263D01*
X149148758Y-101002312D01*
X149050166Y-101130800D01*
X148912522Y-101369208D01*
X148807182Y-101623523D01*
X148807178Y-101623536D01*
X148735930Y-101889433D01*
X148735930Y-101889438D01*
X148700000Y-102162357D01*
X148320500Y-102162357D01*
X148320500Y-96630951D01*
X148339407Y-96572760D01*
X148388907Y-96536796D01*
X148450093Y-96536796D01*
X148496855Y-96570771D01*
X148497454Y-96570280D01*
X148499335Y-96572572D01*
X148499593Y-96572760D01*
X148500177Y-96573599D01*
X148500532Y-96574031D01*
X148500535Y-96574034D01*
X148500536Y-96574035D01*
X148625965Y-96699464D01*
X148773453Y-96798013D01*
X148937334Y-96865894D01*
X149111309Y-96900500D01*
X149111310Y-96900500D01*
X149288690Y-96900500D01*
X149288691Y-96900500D01*
X149462666Y-96865894D01*
X149626547Y-96798013D01*
X149774035Y-96699464D01*
X149899464Y-96574035D01*
X149998013Y-96426547D01*
X150065894Y-96262666D01*
X150100500Y-96088691D01*
X150100500Y-95911309D01*
X150100499Y-95911306D01*
X151599500Y-95911306D01*
X151599500Y-96088693D01*
X151634106Y-96262665D01*
X151634106Y-96262667D01*
X151701985Y-96426544D01*
X151701985Y-96426545D01*
X151800533Y-96574031D01*
X151800536Y-96574035D01*
X151925965Y-96699464D01*
X152073453Y-96798013D01*
X152237334Y-96865894D01*
X152411309Y-96900500D01*
X152411310Y-96900500D01*
X152588690Y-96900500D01*
X152588691Y-96900500D01*
X152762666Y-96865894D01*
X152926547Y-96798013D01*
X153074035Y-96699464D01*
X153199464Y-96574035D01*
X153298013Y-96426547D01*
X153365894Y-96262666D01*
X153400500Y-96088691D01*
X153400500Y-95911309D01*
X153365894Y-95737334D01*
X153305397Y-95591279D01*
X153298014Y-95573455D01*
X153298014Y-95573454D01*
X153246117Y-95495786D01*
X153246116Y-95495784D01*
X153213702Y-95447273D01*
X153599500Y-95447273D01*
X153599500Y-95552727D01*
X153607079Y-95581015D01*
X153607761Y-95591236D01*
X153607764Y-95591279D01*
X153608644Y-95604458D01*
X153608650Y-95604479D01*
X153696096Y-95929263D01*
X153699500Y-95954999D01*
X153699500Y-102827064D01*
X153719978Y-102903488D01*
X153719979Y-102903490D01*
X153726039Y-102913986D01*
X153726040Y-102913987D01*
X153759540Y-102972011D01*
X154160443Y-103372914D01*
X154465777Y-103678248D01*
X154481569Y-103698855D01*
X154551594Y-103820480D01*
X154649404Y-103990364D01*
X154652754Y-103995974D01*
X154653134Y-103996588D01*
X154656810Y-104000414D01*
X154657638Y-104001275D01*
X154671985Y-104020363D01*
X154678043Y-104030856D01*
X154679520Y-104033413D01*
X154754087Y-104107980D01*
X154845413Y-104160707D01*
X154947273Y-104188000D01*
X154947275Y-104188000D01*
X155052725Y-104188000D01*
X155052727Y-104188000D01*
X155154587Y-104160707D01*
X155245913Y-104107980D01*
X155320480Y-104033413D01*
X155373207Y-103942087D01*
X155400500Y-103840227D01*
X155400500Y-103734773D01*
X155373207Y-103632913D01*
X155320480Y-103541587D01*
X155245913Y-103467020D01*
X155228941Y-103457221D01*
X155213252Y-103445992D01*
X155202868Y-103436906D01*
X154911355Y-103269069D01*
X154890748Y-103253277D01*
X154329496Y-102692025D01*
X154301719Y-102637508D01*
X154300500Y-102622021D01*
X154300500Y-95955001D01*
X154303904Y-95929263D01*
X154340565Y-95793099D01*
X154391354Y-95604463D01*
X154392921Y-95598262D01*
X154393087Y-95597559D01*
X154393219Y-95591005D01*
X154396571Y-95567386D01*
X154400500Y-95552727D01*
X154400500Y-95447273D01*
X154373207Y-95345413D01*
X154320480Y-95254087D01*
X154245913Y-95179520D01*
X154154587Y-95126793D01*
X154052727Y-95099500D01*
X153947273Y-95099500D01*
X153845413Y-95126793D01*
X153845412Y-95126793D01*
X153845410Y-95126794D01*
X153845409Y-95126794D01*
X153754089Y-95179518D01*
X153679518Y-95254089D01*
X153626794Y-95345409D01*
X153626794Y-95345410D01*
X153626793Y-95345412D01*
X153626793Y-95345413D01*
X153599500Y-95447273D01*
X153213702Y-95447273D01*
X153199466Y-95425967D01*
X153074034Y-95300535D01*
X152926544Y-95201985D01*
X152762666Y-95134106D01*
X152588693Y-95099500D01*
X152588691Y-95099500D01*
X152411309Y-95099500D01*
X152411306Y-95099500D01*
X152237334Y-95134106D01*
X152237332Y-95134106D01*
X152073455Y-95201985D01*
X152073454Y-95201985D01*
X151925965Y-95300535D01*
X151800535Y-95425965D01*
X151701985Y-95573454D01*
X151701985Y-95573455D01*
X151634106Y-95737332D01*
X151634106Y-95737334D01*
X151599500Y-95911306D01*
X150100499Y-95911306D01*
X150065894Y-95737334D01*
X150005397Y-95591279D01*
X149998014Y-95573455D01*
X149998014Y-95573454D01*
X149899464Y-95425965D01*
X149774034Y-95300535D01*
X149626544Y-95201985D01*
X149462666Y-95134106D01*
X149288693Y-95099500D01*
X149288691Y-95099500D01*
X149111309Y-95099500D01*
X149111306Y-95099500D01*
X148937334Y-95134106D01*
X148937332Y-95134106D01*
X148773455Y-95201985D01*
X148773454Y-95201985D01*
X148625965Y-95300535D01*
X148500532Y-95425968D01*
X148497454Y-95429720D01*
X148496068Y-95428583D01*
X148453752Y-95461934D01*
X148392614Y-95464327D01*
X148341745Y-95430327D01*
X148320576Y-95372920D01*
X148320500Y-95369048D01*
X148320500Y-94130951D01*
X148339407Y-94072760D01*
X148388907Y-94036796D01*
X148450093Y-94036796D01*
X148496855Y-94070771D01*
X148497454Y-94070280D01*
X148499335Y-94072572D01*
X148499593Y-94072760D01*
X148500177Y-94073599D01*
X148500532Y-94074031D01*
X148500535Y-94074034D01*
X148500536Y-94074035D01*
X148625965Y-94199464D01*
X148773453Y-94298013D01*
X148773454Y-94298013D01*
X148773455Y-94298014D01*
X148810581Y-94313391D01*
X148937334Y-94365894D01*
X149111309Y-94400500D01*
X149111310Y-94400500D01*
X149288690Y-94400500D01*
X149288691Y-94400500D01*
X149462666Y-94365894D01*
X149626547Y-94298013D01*
X149631236Y-94294879D01*
X149650329Y-94284935D01*
X150620657Y-93907243D01*
X150656567Y-93900500D01*
X151043432Y-93900500D01*
X151079343Y-93907243D01*
X151136575Y-93929520D01*
X151824458Y-94197274D01*
X152049670Y-94284936D01*
X152068759Y-94294877D01*
X152073451Y-94298012D01*
X152073455Y-94298014D01*
X152120205Y-94317378D01*
X152237334Y-94365894D01*
X152273535Y-94373094D01*
X152273536Y-94373095D01*
X152279932Y-94374367D01*
X152292757Y-94378730D01*
X152294702Y-94379299D01*
X152300797Y-94380981D01*
X152315329Y-94381408D01*
X152323443Y-94383023D01*
X152323451Y-94383024D01*
X152411309Y-94400500D01*
X152411310Y-94400500D01*
X152588690Y-94400500D01*
X152588691Y-94400500D01*
X152762666Y-94365894D01*
X152926547Y-94298013D01*
X153074035Y-94199464D01*
X153076226Y-94197273D01*
X163099500Y-94197273D01*
X163099500Y-94302727D01*
X163107079Y-94331015D01*
X163107761Y-94341236D01*
X163107764Y-94341279D01*
X163108644Y-94354458D01*
X163116335Y-94383023D01*
X163196096Y-94679263D01*
X163199500Y-94704999D01*
X163199500Y-100539564D01*
X163219978Y-100615988D01*
X163219980Y-100615992D01*
X163238898Y-100648758D01*
X163259540Y-100684511D01*
X164009540Y-101434511D01*
X164009539Y-101434511D01*
X164065489Y-101490460D01*
X164134007Y-101530019D01*
X164134011Y-101530021D01*
X164210435Y-101550499D01*
X164210437Y-101550500D01*
X164210438Y-101550500D01*
X169584521Y-101550500D01*
X169642712Y-101569407D01*
X169654525Y-101579496D01*
X170420504Y-102345475D01*
X170448281Y-102399992D01*
X170449500Y-102415479D01*
X170449500Y-103044997D01*
X170446096Y-103070736D01*
X170358627Y-103395603D01*
X170357004Y-103402040D01*
X170356851Y-103402693D01*
X170356850Y-103402703D01*
X170356724Y-103409147D01*
X170353371Y-103432822D01*
X170349500Y-103447269D01*
X170349500Y-103447272D01*
X170349500Y-103447273D01*
X170349500Y-103552727D01*
X170370985Y-103632910D01*
X170376794Y-103654589D01*
X170376794Y-103654590D01*
X170396309Y-103688390D01*
X170429520Y-103745913D01*
X170504087Y-103820480D01*
X170595413Y-103873207D01*
X170697273Y-103900500D01*
X170697275Y-103900500D01*
X170802725Y-103900500D01*
X170802727Y-103900500D01*
X170904587Y-103873207D01*
X170995913Y-103820480D01*
X171070480Y-103745913D01*
X171123207Y-103654587D01*
X171150500Y-103552727D01*
X171150500Y-103447273D01*
X171147721Y-103436904D01*
X171145427Y-103428342D01*
X171142273Y-103409309D01*
X171142262Y-103409147D01*
X171141354Y-103395536D01*
X171053903Y-103070735D01*
X171050500Y-103044999D01*
X171050500Y-102210439D01*
X171050500Y-102210438D01*
X171037617Y-102162357D01*
X178400000Y-102162357D01*
X178400000Y-102437642D01*
X178435930Y-102710561D01*
X178435930Y-102710566D01*
X178507178Y-102976463D01*
X178507182Y-102976476D01*
X178612522Y-103230791D01*
X178750172Y-103469209D01*
X178848758Y-103597686D01*
X179563708Y-102882735D01*
X179660967Y-103016602D01*
X179783398Y-103139033D01*
X179917261Y-103236290D01*
X179202312Y-103951240D01*
X179330790Y-104049827D01*
X179569208Y-104187477D01*
X179823523Y-104292817D01*
X179823536Y-104292821D01*
X180089435Y-104364069D01*
X180362357Y-104399999D01*
X180362360Y-104400000D01*
X180637640Y-104400000D01*
X180637642Y-104399999D01*
X180910561Y-104364069D01*
X180910566Y-104364069D01*
X181176463Y-104292821D01*
X181176476Y-104292817D01*
X181430791Y-104187477D01*
X181669201Y-104049832D01*
X181669206Y-104049829D01*
X181797687Y-103951240D01*
X181082737Y-103236290D01*
X181216602Y-103139033D01*
X181339033Y-103016602D01*
X181436290Y-102882737D01*
X182151240Y-103597687D01*
X182249829Y-103469206D01*
X182249832Y-103469201D01*
X182387477Y-103230791D01*
X182492817Y-102976476D01*
X182492821Y-102976463D01*
X182564069Y-102710566D01*
X182564069Y-102710561D01*
X182599999Y-102437642D01*
X182600000Y-102437640D01*
X182600000Y-102162360D01*
X182599999Y-102162357D01*
X182564069Y-101889438D01*
X182564069Y-101889433D01*
X182492821Y-101623536D01*
X182492817Y-101623523D01*
X182387477Y-101369208D01*
X182249827Y-101130790D01*
X182151240Y-101002312D01*
X181436290Y-101717261D01*
X181339033Y-101583398D01*
X181216602Y-101460967D01*
X181082735Y-101363708D01*
X181797686Y-100648758D01*
X181669209Y-100550172D01*
X181430791Y-100412522D01*
X181176476Y-100307182D01*
X181176463Y-100307178D01*
X180910564Y-100235930D01*
X180637642Y-100200000D01*
X180362357Y-100200000D01*
X180089438Y-100235930D01*
X180089433Y-100235930D01*
X179823536Y-100307178D01*
X179823523Y-100307182D01*
X179569208Y-100412522D01*
X179330800Y-100550166D01*
X179202312Y-100648758D01*
X179917263Y-101363709D01*
X179783398Y-101460967D01*
X179660967Y-101583398D01*
X179563709Y-101717263D01*
X178848758Y-101002312D01*
X178750166Y-101130800D01*
X178612522Y-101369208D01*
X178507182Y-101623523D01*
X178507178Y-101623536D01*
X178435930Y-101889433D01*
X178435930Y-101889438D01*
X178400000Y-102162357D01*
X171037617Y-102162357D01*
X171030022Y-102134012D01*
X171030020Y-102134009D01*
X171030020Y-102134007D01*
X170990463Y-102065493D01*
X170990461Y-102065491D01*
X170990460Y-102065489D01*
X169934511Y-101009540D01*
X169921992Y-101002312D01*
X169865992Y-100969980D01*
X169865988Y-100969978D01*
X169789564Y-100949500D01*
X169789562Y-100949500D01*
X164415479Y-100949500D01*
X164357288Y-100930593D01*
X164345475Y-100920504D01*
X163829496Y-100404525D01*
X163801719Y-100350008D01*
X163800500Y-100334521D01*
X163800500Y-94705001D01*
X163803904Y-94679263D01*
X163803905Y-94679260D01*
X163891354Y-94354463D01*
X163892921Y-94348262D01*
X163893087Y-94347559D01*
X163893219Y-94341005D01*
X163896571Y-94317386D01*
X163900500Y-94302727D01*
X163900500Y-94197273D01*
X163873207Y-94095413D01*
X163860864Y-94074035D01*
X163820481Y-94004089D01*
X163820480Y-94004087D01*
X163745913Y-93929520D01*
X163740760Y-93926545D01*
X163654589Y-93876794D01*
X163654588Y-93876793D01*
X163654587Y-93876793D01*
X163552727Y-93849500D01*
X163447273Y-93849500D01*
X163345413Y-93876793D01*
X163345412Y-93876793D01*
X163345410Y-93876794D01*
X163345409Y-93876794D01*
X163254089Y-93929518D01*
X163179518Y-94004089D01*
X163126794Y-94095409D01*
X163126794Y-94095410D01*
X163126793Y-94095412D01*
X163126793Y-94095413D01*
X163099500Y-94197273D01*
X153076226Y-94197273D01*
X153199464Y-94074035D01*
X153298013Y-93926547D01*
X153365894Y-93762666D01*
X153366993Y-93757138D01*
X153373464Y-93736603D01*
X153392078Y-93694264D01*
X153792520Y-92783406D01*
X153813143Y-92753249D01*
X154636898Y-91929496D01*
X154691414Y-91901719D01*
X154706901Y-91900500D01*
X162043099Y-91900500D01*
X162101290Y-91919407D01*
X162113103Y-91929496D01*
X164320504Y-94136897D01*
X164348281Y-94191414D01*
X164349500Y-94206901D01*
X164349500Y-95947273D01*
X164349500Y-96052727D01*
X164359137Y-96088693D01*
X164376794Y-96154592D01*
X164429516Y-96245908D01*
X164429517Y-96245909D01*
X164429518Y-96245910D01*
X164429520Y-96245913D01*
X165254111Y-97070504D01*
X165929519Y-97745912D01*
X165929520Y-97745913D01*
X165929519Y-97745913D01*
X165969503Y-97785896D01*
X166004087Y-97820480D01*
X166095413Y-97873207D01*
X166197273Y-97900500D01*
X166197275Y-97900500D01*
X172302725Y-97900500D01*
X172302727Y-97900500D01*
X172404587Y-97873207D01*
X172495913Y-97820480D01*
X172530498Y-97785894D01*
X172585013Y-97758119D01*
X172645445Y-97767690D01*
X172688710Y-97810955D01*
X172699500Y-97855900D01*
X172699500Y-98294997D01*
X172696096Y-98320736D01*
X172608627Y-98645603D01*
X172607004Y-98652040D01*
X172606851Y-98652693D01*
X172606850Y-98652703D01*
X172606724Y-98659147D01*
X172603371Y-98682822D01*
X172599500Y-98697269D01*
X172599500Y-98697272D01*
X172599500Y-98697273D01*
X172599500Y-98802727D01*
X172626793Y-98904587D01*
X172626794Y-98904589D01*
X172626794Y-98904590D01*
X172679518Y-98995910D01*
X172679520Y-98995913D01*
X172754087Y-99070480D01*
X172845413Y-99123207D01*
X172947273Y-99150500D01*
X172947275Y-99150500D01*
X173052725Y-99150500D01*
X173052727Y-99150500D01*
X173154587Y-99123207D01*
X173245913Y-99070480D01*
X173320480Y-98995913D01*
X173373207Y-98904587D01*
X173400500Y-98802727D01*
X173400500Y-98697273D01*
X173395426Y-98678340D01*
X173392273Y-98659309D01*
X173392262Y-98659147D01*
X173391354Y-98645536D01*
X173303903Y-98320735D01*
X173300500Y-98294999D01*
X173300500Y-92187977D01*
X173304618Y-92162981D01*
X173303994Y-92162836D01*
X173305092Y-92158109D01*
X173305095Y-92158101D01*
X173335990Y-91922092D01*
X173348503Y-91826508D01*
X173348503Y-91826501D01*
X173348504Y-91826496D01*
X173348503Y-91826490D01*
X173348684Y-91822081D01*
X173349233Y-91822103D01*
X173350608Y-91809289D01*
X173349653Y-91809164D01*
X173350500Y-91802730D01*
X173350500Y-91697274D01*
X173341285Y-91662883D01*
X173323207Y-91595413D01*
X173310864Y-91574035D01*
X173270481Y-91504089D01*
X173270480Y-91504087D01*
X173195913Y-91429520D01*
X173190760Y-91426545D01*
X173104589Y-91376794D01*
X173104588Y-91376793D01*
X173104587Y-91376793D01*
X173002727Y-91349500D01*
X172897273Y-91349500D01*
X172795413Y-91376793D01*
X172795412Y-91376793D01*
X172795410Y-91376794D01*
X172795409Y-91376794D01*
X172704089Y-91429518D01*
X172629518Y-91504089D01*
X172576794Y-91595409D01*
X172576794Y-91595410D01*
X172576793Y-91595412D01*
X172576793Y-91595413D01*
X172549500Y-91697273D01*
X172549500Y-91802727D01*
X172576793Y-91904587D01*
X172586901Y-91922096D01*
X172595250Y-91944267D01*
X172596125Y-91944002D01*
X172597538Y-91948655D01*
X172655077Y-92087433D01*
X172691951Y-92176372D01*
X172699500Y-92214287D01*
X172699500Y-97144100D01*
X172680593Y-97202291D01*
X172631093Y-97238255D01*
X172569907Y-97238255D01*
X172530498Y-97214105D01*
X172495913Y-97179520D01*
X172404587Y-97126793D01*
X172302727Y-97099500D01*
X172302725Y-97099500D01*
X166456901Y-97099500D01*
X166398710Y-97080593D01*
X166386897Y-97070504D01*
X165179496Y-95863103D01*
X165151719Y-95808586D01*
X165150500Y-95793099D01*
X165150500Y-93947273D01*
X165137967Y-93900500D01*
X165137967Y-93900499D01*
X165123208Y-93845415D01*
X165123204Y-93845406D01*
X165070483Y-93754091D01*
X165070481Y-93754089D01*
X165070480Y-93754087D01*
X162495913Y-91179520D01*
X162495910Y-91179518D01*
X162495908Y-91179516D01*
X162404591Y-91126794D01*
X162404593Y-91126794D01*
X162365070Y-91116204D01*
X162302727Y-91099500D01*
X154552727Y-91099500D01*
X154447273Y-91099500D01*
X154384929Y-91116204D01*
X154345407Y-91126794D01*
X154254091Y-91179516D01*
X154254086Y-91179520D01*
X153246750Y-92186854D01*
X153216590Y-92207478D01*
X152263384Y-92626538D01*
X152242863Y-92633005D01*
X152239233Y-92633728D01*
X152237333Y-92634106D01*
X152237326Y-92634108D01*
X152073452Y-92701987D01*
X152068760Y-92705122D01*
X152049677Y-92715058D01*
X151079339Y-93092757D01*
X151043428Y-93099500D01*
X150656569Y-93099500D01*
X150620658Y-93092757D01*
X149650323Y-92715059D01*
X149631236Y-92705120D01*
X149626546Y-92701986D01*
X149462665Y-92634105D01*
X149462659Y-92634104D01*
X149426469Y-92626904D01*
X149426469Y-92626905D01*
X149420071Y-92625632D01*
X149407242Y-92621269D01*
X149405297Y-92620700D01*
X149399202Y-92619018D01*
X149384661Y-92618589D01*
X149337727Y-92609253D01*
X149288693Y-92599500D01*
X149288691Y-92599500D01*
X149111309Y-92599500D01*
X149111306Y-92599500D01*
X148937334Y-92634106D01*
X148937332Y-92634106D01*
X148773455Y-92701985D01*
X148773454Y-92701985D01*
X148625965Y-92800535D01*
X148500532Y-92925968D01*
X148497454Y-92929720D01*
X148496068Y-92928583D01*
X148453752Y-92961934D01*
X148392614Y-92964327D01*
X148341745Y-92930327D01*
X148320576Y-92872920D01*
X148320500Y-92869048D01*
X148320500Y-91630951D01*
X148339407Y-91572760D01*
X148388907Y-91536796D01*
X148450093Y-91536796D01*
X148496855Y-91570771D01*
X148497454Y-91570280D01*
X148499335Y-91572572D01*
X148499593Y-91572760D01*
X148500177Y-91573599D01*
X148500532Y-91574031D01*
X148500535Y-91574034D01*
X148500536Y-91574035D01*
X148625965Y-91699464D01*
X148773453Y-91798013D01*
X148773454Y-91798013D01*
X148773455Y-91798014D01*
X148784841Y-91802730D01*
X148937334Y-91865894D01*
X149111309Y-91900500D01*
X149111310Y-91900500D01*
X149288690Y-91900500D01*
X149288691Y-91900500D01*
X149462666Y-91865894D01*
X149626547Y-91798013D01*
X149774035Y-91699464D01*
X149899464Y-91574035D01*
X149998013Y-91426547D01*
X150065894Y-91262666D01*
X150100500Y-91088691D01*
X150100500Y-90911309D01*
X150065894Y-90737334D01*
X149998014Y-90573455D01*
X149998014Y-90573454D01*
X149981287Y-90548421D01*
X149946076Y-90495725D01*
X151599500Y-90495725D01*
X151599500Y-91504274D01*
X151602353Y-91534694D01*
X151602355Y-91534703D01*
X151647207Y-91662883D01*
X151727845Y-91772144D01*
X151727847Y-91772146D01*
X151727850Y-91772150D01*
X151727853Y-91772152D01*
X151727855Y-91772154D01*
X151837116Y-91852792D01*
X151837117Y-91852792D01*
X151837118Y-91852793D01*
X151965301Y-91897646D01*
X151995725Y-91900499D01*
X151995727Y-91900500D01*
X151995734Y-91900500D01*
X153004273Y-91900500D01*
X153004273Y-91900499D01*
X153034699Y-91897646D01*
X153162882Y-91852793D01*
X153272150Y-91772150D01*
X153352793Y-91662882D01*
X153397646Y-91534699D01*
X153400499Y-91504273D01*
X153400500Y-91504273D01*
X153400500Y-90495727D01*
X153400499Y-90495725D01*
X153397646Y-90465305D01*
X153397646Y-90465301D01*
X153352793Y-90337118D01*
X153325794Y-90300536D01*
X153272154Y-90227855D01*
X153272152Y-90227853D01*
X153272150Y-90227850D01*
X153272146Y-90227847D01*
X153272144Y-90227845D01*
X153162883Y-90147207D01*
X153034703Y-90102355D01*
X153034694Y-90102353D01*
X153004274Y-90099500D01*
X153004266Y-90099500D01*
X151995734Y-90099500D01*
X151995725Y-90099500D01*
X151965305Y-90102353D01*
X151965296Y-90102355D01*
X151837116Y-90147207D01*
X151727855Y-90227845D01*
X151727845Y-90227855D01*
X151647207Y-90337116D01*
X151602355Y-90465296D01*
X151602353Y-90465305D01*
X151599500Y-90495725D01*
X149946076Y-90495725D01*
X149899464Y-90425965D01*
X149774034Y-90300535D01*
X149626544Y-90201985D01*
X149462666Y-90134106D01*
X149288693Y-90099500D01*
X149288691Y-90099500D01*
X149111309Y-90099500D01*
X149111306Y-90099500D01*
X148937334Y-90134106D01*
X148937332Y-90134106D01*
X148773455Y-90201985D01*
X148773454Y-90201985D01*
X148625965Y-90300535D01*
X148500532Y-90425968D01*
X148497454Y-90429720D01*
X148496068Y-90428583D01*
X148453752Y-90461934D01*
X148392614Y-90464327D01*
X148341745Y-90430327D01*
X148320576Y-90372920D01*
X148320500Y-90369048D01*
X148320500Y-87140748D01*
X165099707Y-87140748D01*
X165099708Y-87140748D01*
X166907244Y-87140748D01*
X166907245Y-87140748D01*
X166907245Y-87069999D01*
X175115878Y-87069999D01*
X175115879Y-87070000D01*
X175603012Y-87070000D01*
X175585795Y-87079940D01*
X175529940Y-87135795D01*
X175490444Y-87204204D01*
X175470000Y-87280504D01*
X175470000Y-87359496D01*
X175490444Y-87435796D01*
X175529940Y-87504205D01*
X175585795Y-87560060D01*
X175603012Y-87570000D01*
X175115879Y-87570000D01*
X175149666Y-87651571D01*
X175226271Y-87766220D01*
X175323779Y-87863728D01*
X175438428Y-87940333D01*
X175565816Y-87993098D01*
X175701055Y-88019999D01*
X175701057Y-88020000D01*
X176069999Y-88020000D01*
X176070000Y-88019999D01*
X176070000Y-87620000D01*
X176570000Y-87620000D01*
X176570000Y-88019999D01*
X176570001Y-88020000D01*
X176938943Y-88020000D01*
X176938944Y-88019999D01*
X177074183Y-87993098D01*
X177201571Y-87940333D01*
X177316220Y-87863728D01*
X177413728Y-87766220D01*
X177490333Y-87651571D01*
X177524121Y-87570000D01*
X177036988Y-87570000D01*
X177054205Y-87560060D01*
X177110060Y-87504205D01*
X177149556Y-87435796D01*
X177170000Y-87359496D01*
X177170000Y-87280504D01*
X177149556Y-87204204D01*
X177110060Y-87135795D01*
X177054205Y-87079940D01*
X177036988Y-87070000D01*
X177524121Y-87070000D01*
X177524121Y-87069999D01*
X179445878Y-87069999D01*
X179445879Y-87070000D01*
X179933012Y-87070000D01*
X179915795Y-87079940D01*
X179859940Y-87135795D01*
X179820444Y-87204204D01*
X179800000Y-87280504D01*
X179800000Y-87359496D01*
X179820444Y-87435796D01*
X179859940Y-87504205D01*
X179915795Y-87560060D01*
X179933012Y-87570000D01*
X179445879Y-87570000D01*
X179479666Y-87651571D01*
X179556271Y-87766220D01*
X179653779Y-87863728D01*
X179768428Y-87940333D01*
X179895816Y-87993098D01*
X180031055Y-88019999D01*
X180031057Y-88020000D01*
X180249999Y-88020000D01*
X180250000Y-88019999D01*
X180250000Y-87620000D01*
X180750000Y-87620000D01*
X180750000Y-88019999D01*
X180750001Y-88020000D01*
X180968943Y-88020000D01*
X180968944Y-88019999D01*
X181104183Y-87993098D01*
X181231571Y-87940333D01*
X181346220Y-87863728D01*
X181443728Y-87766220D01*
X181520333Y-87651571D01*
X181554121Y-87570000D01*
X181066988Y-87570000D01*
X181084205Y-87560060D01*
X181140060Y-87504205D01*
X181179556Y-87435796D01*
X181200000Y-87359496D01*
X181200000Y-87280504D01*
X181179556Y-87204204D01*
X181140060Y-87135795D01*
X181084205Y-87079940D01*
X181066988Y-87070000D01*
X181554121Y-87070000D01*
X181554121Y-87069999D01*
X181520333Y-86988428D01*
X181443728Y-86873779D01*
X181346220Y-86776271D01*
X181231571Y-86699666D01*
X181104183Y-86646901D01*
X180968944Y-86620000D01*
X180750001Y-86620000D01*
X180750000Y-86620001D01*
X180750000Y-87020000D01*
X180250000Y-87020000D01*
X180250000Y-86620001D01*
X180249999Y-86620000D01*
X180031055Y-86620000D01*
X179895816Y-86646901D01*
X179768428Y-86699666D01*
X179653779Y-86776271D01*
X179556271Y-86873779D01*
X179479666Y-86988428D01*
X179445878Y-87069999D01*
X177524121Y-87069999D01*
X177490333Y-86988428D01*
X177413728Y-86873779D01*
X177316220Y-86776271D01*
X177201571Y-86699666D01*
X177074183Y-86646901D01*
X176938944Y-86620000D01*
X176570001Y-86620000D01*
X176570000Y-86620001D01*
X176570000Y-87020000D01*
X176070000Y-87020000D01*
X176070000Y-86620001D01*
X176069999Y-86620000D01*
X175701055Y-86620000D01*
X175565816Y-86646901D01*
X175438428Y-86699666D01*
X175323779Y-86776271D01*
X175226271Y-86873779D01*
X175149666Y-86988428D01*
X175115878Y-87069999D01*
X166907245Y-87069999D01*
X166907245Y-85862639D01*
X165099707Y-85862639D01*
X165099707Y-87140748D01*
X148320500Y-87140748D01*
X148320500Y-73762962D01*
X150096872Y-73762962D01*
X150096872Y-73868416D01*
X150101050Y-73884007D01*
X150124166Y-73970281D01*
X150176888Y-74061597D01*
X150176890Y-74061599D01*
X150176892Y-74061602D01*
X150570505Y-74455215D01*
X150598281Y-74509730D01*
X150599500Y-74525217D01*
X150599500Y-78447273D01*
X150599500Y-78552727D01*
X150623019Y-78640504D01*
X150626794Y-78654592D01*
X150679516Y-78745908D01*
X150679517Y-78745909D01*
X150679518Y-78745910D01*
X150679520Y-78745913D01*
X151840771Y-79907164D01*
X152779519Y-80845912D01*
X152779520Y-80845913D01*
X152779519Y-80845913D01*
X152854087Y-80920480D01*
X152945413Y-80973207D01*
X153047273Y-81000500D01*
X153152726Y-81000500D01*
X157393099Y-81000500D01*
X157451290Y-81019407D01*
X157463103Y-81029496D01*
X157820504Y-81386897D01*
X157848281Y-81441414D01*
X157849500Y-81456901D01*
X157849500Y-86050654D01*
X157876793Y-86152514D01*
X157876794Y-86152516D01*
X157876794Y-86152517D01*
X157911521Y-86212665D01*
X157929520Y-86243840D01*
X158004087Y-86318407D01*
X158095413Y-86371134D01*
X158197273Y-86398427D01*
X158197275Y-86398427D01*
X158302725Y-86398427D01*
X158302727Y-86398427D01*
X158404587Y-86371134D01*
X158495913Y-86318407D01*
X158570480Y-86243840D01*
X158623207Y-86152514D01*
X158650500Y-86050654D01*
X158650500Y-83697273D01*
X171849500Y-83697273D01*
X171849500Y-83802727D01*
X171876793Y-83904587D01*
X171876794Y-83904589D01*
X171876794Y-83904590D01*
X171914874Y-83970546D01*
X171929520Y-83995913D01*
X172004087Y-84070480D01*
X172095413Y-84123207D01*
X172197273Y-84150500D01*
X172197275Y-84150500D01*
X172302725Y-84150500D01*
X172302727Y-84150500D01*
X172404587Y-84123207D01*
X172495913Y-84070480D01*
X172570480Y-83995913D01*
X172580279Y-83978938D01*
X172591504Y-83963254D01*
X172600595Y-83952864D01*
X172768433Y-83661348D01*
X172784221Y-83640748D01*
X172845476Y-83579495D01*
X172899993Y-83551719D01*
X172915478Y-83550500D01*
X173289563Y-83550500D01*
X173289563Y-83550499D01*
X173365989Y-83530021D01*
X173434511Y-83490460D01*
X173490460Y-83434511D01*
X173706263Y-83218706D01*
X173757066Y-83191591D01*
X173967416Y-83150019D01*
X173985498Y-83142569D01*
X173997572Y-83138483D01*
X174054587Y-83123207D01*
X174145913Y-83070480D01*
X174180498Y-83035894D01*
X174235013Y-83008119D01*
X174295445Y-83017690D01*
X174338710Y-83060955D01*
X174349500Y-83105900D01*
X174349500Y-85293099D01*
X174330593Y-85351290D01*
X174320504Y-85363102D01*
X174179520Y-85504086D01*
X174179516Y-85504091D01*
X174126794Y-85595407D01*
X174126793Y-85595412D01*
X174099500Y-85697273D01*
X174099500Y-85802727D01*
X174115553Y-85862639D01*
X174126794Y-85904592D01*
X174179516Y-85995908D01*
X174179518Y-85995910D01*
X174179520Y-85995913D01*
X174254087Y-86070480D01*
X174254089Y-86070481D01*
X174254091Y-86070483D01*
X174345408Y-86123205D01*
X174345406Y-86123205D01*
X174345410Y-86123206D01*
X174345412Y-86123207D01*
X174447273Y-86150500D01*
X174447275Y-86150500D01*
X174552725Y-86150500D01*
X174552727Y-86150500D01*
X174654588Y-86123207D01*
X174654590Y-86123205D01*
X174654592Y-86123205D01*
X174745908Y-86070483D01*
X174745908Y-86070482D01*
X174745913Y-86070480D01*
X174995576Y-85820817D01*
X176294500Y-85820817D01*
X176294500Y-85959183D01*
X176330312Y-86092836D01*
X176399495Y-86212665D01*
X176497335Y-86310505D01*
X176617164Y-86379688D01*
X176750817Y-86415500D01*
X176750819Y-86415500D01*
X176889181Y-86415500D01*
X176889183Y-86415500D01*
X177022836Y-86379688D01*
X177142665Y-86310505D01*
X177240505Y-86212665D01*
X177309688Y-86092836D01*
X177345500Y-85959183D01*
X177345500Y-85820817D01*
X177309688Y-85687164D01*
X177240505Y-85567335D01*
X177142665Y-85469495D01*
X177022836Y-85400312D01*
X176889183Y-85364500D01*
X176750817Y-85364500D01*
X176617164Y-85400312D01*
X176497335Y-85469495D01*
X176399495Y-85567335D01*
X176330312Y-85687164D01*
X176294500Y-85820817D01*
X174995576Y-85820817D01*
X175070480Y-85745913D01*
X175098562Y-85697273D01*
X175123207Y-85654587D01*
X175150500Y-85552727D01*
X175150500Y-80597273D01*
X175123207Y-80495413D01*
X175070480Y-80404087D01*
X174995913Y-80329520D01*
X174967015Y-80312836D01*
X174904589Y-80276794D01*
X174904588Y-80276793D01*
X174904587Y-80276793D01*
X174802727Y-80249500D01*
X174697273Y-80249500D01*
X174595413Y-80276793D01*
X174595412Y-80276793D01*
X174595410Y-80276794D01*
X174595409Y-80276794D01*
X174504089Y-80329518D01*
X174429518Y-80404089D01*
X174376794Y-80495409D01*
X174376794Y-80495410D01*
X174376793Y-80495412D01*
X174376793Y-80495413D01*
X174367391Y-80530504D01*
X174349500Y-80597274D01*
X174349500Y-82394100D01*
X174330593Y-82452291D01*
X174281093Y-82488255D01*
X174219907Y-82488255D01*
X174180498Y-82464105D01*
X174145913Y-82429520D01*
X174054587Y-82376793D01*
X173952727Y-82349500D01*
X173847273Y-82349500D01*
X173745413Y-82376793D01*
X173654083Y-82429522D01*
X173650402Y-82433203D01*
X173647859Y-82435656D01*
X173641142Y-82441908D01*
X173637131Y-82444450D01*
X173582102Y-82496864D01*
X173581604Y-82497328D01*
X173581042Y-82497589D01*
X173570533Y-82505454D01*
X173570637Y-82505589D01*
X173565493Y-82509536D01*
X173500029Y-82574999D01*
X173498307Y-82576678D01*
X173360807Y-82707649D01*
X173358605Y-82709778D01*
X173358424Y-82709955D01*
X173358418Y-82709962D01*
X173349900Y-82722573D01*
X173337868Y-82737159D01*
X173154526Y-82920503D01*
X173100010Y-82948281D01*
X173084522Y-82949500D01*
X172789562Y-82949500D01*
X172710438Y-82949500D01*
X172663661Y-82962033D01*
X172634007Y-82969979D01*
X172565493Y-83009536D01*
X172565488Y-83009540D01*
X172359249Y-83215778D01*
X172338643Y-83231570D01*
X172047104Y-83399422D01*
X172041394Y-83402834D01*
X172040770Y-83403221D01*
X172040763Y-83403226D01*
X172036136Y-83407677D01*
X172017017Y-83422054D01*
X172004089Y-83429518D01*
X171929518Y-83504089D01*
X171876794Y-83595409D01*
X171876794Y-83595410D01*
X171876793Y-83595412D01*
X171876793Y-83595413D01*
X171849500Y-83697273D01*
X158650500Y-83697273D01*
X158650500Y-81197273D01*
X158623207Y-81095413D01*
X158623207Y-81095412D01*
X158623207Y-81095411D01*
X158570483Y-81004091D01*
X158570481Y-81004089D01*
X158570480Y-81004087D01*
X157845913Y-80279520D01*
X157845910Y-80279518D01*
X157845908Y-80279516D01*
X157754591Y-80226794D01*
X157754593Y-80226794D01*
X157715070Y-80216204D01*
X157652727Y-80199500D01*
X157652725Y-80199500D01*
X153306901Y-80199500D01*
X153299303Y-80197031D01*
X153291414Y-80198281D01*
X153270758Y-80187756D01*
X153248710Y-80180593D01*
X153236897Y-80170504D01*
X153107210Y-80040817D01*
X176294500Y-80040817D01*
X176294500Y-80179183D01*
X176330312Y-80312836D01*
X176399495Y-80432665D01*
X176497335Y-80530505D01*
X176617164Y-80599688D01*
X176750817Y-80635500D01*
X176750819Y-80635500D01*
X176889181Y-80635500D01*
X176889183Y-80635500D01*
X177022836Y-80599688D01*
X177142665Y-80530505D01*
X177240505Y-80432665D01*
X177309688Y-80312836D01*
X177345500Y-80179183D01*
X177345500Y-80040817D01*
X177309688Y-79907164D01*
X177240505Y-79787335D01*
X177142665Y-79689495D01*
X177022836Y-79620312D01*
X176889183Y-79584500D01*
X176750817Y-79584500D01*
X176617164Y-79620312D01*
X176497335Y-79689495D01*
X176399495Y-79787335D01*
X176330312Y-79907164D01*
X176294500Y-80040817D01*
X153107210Y-80040817D01*
X151496392Y-78429999D01*
X175115878Y-78429999D01*
X175115879Y-78430000D01*
X175603012Y-78430000D01*
X175585795Y-78439940D01*
X175529940Y-78495795D01*
X175490444Y-78564204D01*
X175470000Y-78640504D01*
X175470000Y-78719496D01*
X175490444Y-78795796D01*
X175529940Y-78864205D01*
X175585795Y-78920060D01*
X175603012Y-78930000D01*
X175115879Y-78930000D01*
X175149666Y-79011571D01*
X175226271Y-79126220D01*
X175323779Y-79223728D01*
X175438428Y-79300333D01*
X175565816Y-79353098D01*
X175701055Y-79379999D01*
X175701057Y-79380000D01*
X176069999Y-79380000D01*
X176070000Y-79379999D01*
X176070000Y-78980000D01*
X176570000Y-78980000D01*
X176570000Y-79379999D01*
X176570001Y-79380000D01*
X176938943Y-79380000D01*
X176938944Y-79379999D01*
X177074183Y-79353098D01*
X177201571Y-79300333D01*
X177316220Y-79223728D01*
X177413728Y-79126220D01*
X177490333Y-79011571D01*
X177524121Y-78930000D01*
X177036988Y-78930000D01*
X177054205Y-78920060D01*
X177110060Y-78864205D01*
X177149556Y-78795796D01*
X177170000Y-78719496D01*
X177170000Y-78640504D01*
X177149556Y-78564204D01*
X177110060Y-78495795D01*
X177054205Y-78439940D01*
X177036988Y-78430000D01*
X177524121Y-78430000D01*
X177524121Y-78429999D01*
X179445878Y-78429999D01*
X179445879Y-78430000D01*
X179933012Y-78430000D01*
X179915795Y-78439940D01*
X179859940Y-78495795D01*
X179820444Y-78564204D01*
X179800000Y-78640504D01*
X179800000Y-78719496D01*
X179820444Y-78795796D01*
X179859940Y-78864205D01*
X179915795Y-78920060D01*
X179933012Y-78930000D01*
X179445879Y-78930000D01*
X179479666Y-79011571D01*
X179556271Y-79126220D01*
X179653779Y-79223728D01*
X179768428Y-79300333D01*
X179895816Y-79353098D01*
X180031055Y-79379999D01*
X180031057Y-79380000D01*
X180249999Y-79380000D01*
X180250000Y-79379999D01*
X180250000Y-78980000D01*
X180750000Y-78980000D01*
X180750000Y-79379999D01*
X180750001Y-79380000D01*
X180968943Y-79380000D01*
X180968944Y-79379999D01*
X181104183Y-79353098D01*
X181231571Y-79300333D01*
X181346220Y-79223728D01*
X181443728Y-79126220D01*
X181520333Y-79011571D01*
X181554121Y-78930000D01*
X181066988Y-78930000D01*
X181084205Y-78920060D01*
X181140060Y-78864205D01*
X181179556Y-78795796D01*
X181200000Y-78719496D01*
X181200000Y-78640504D01*
X181179556Y-78564204D01*
X181140060Y-78495795D01*
X181084205Y-78439940D01*
X181066988Y-78430000D01*
X181554121Y-78430000D01*
X181554121Y-78429999D01*
X181520333Y-78348428D01*
X181443728Y-78233779D01*
X181346220Y-78136271D01*
X181231571Y-78059666D01*
X181104183Y-78006901D01*
X180968944Y-77980000D01*
X180750001Y-77980000D01*
X180750000Y-77980001D01*
X180750000Y-78380000D01*
X180250000Y-78380000D01*
X180250000Y-77980001D01*
X180249999Y-77980000D01*
X180031055Y-77980000D01*
X179895816Y-78006901D01*
X179768428Y-78059666D01*
X179653779Y-78136271D01*
X179556271Y-78233779D01*
X179479666Y-78348428D01*
X179445878Y-78429999D01*
X177524121Y-78429999D01*
X177490333Y-78348428D01*
X177413728Y-78233779D01*
X177316220Y-78136271D01*
X177201571Y-78059666D01*
X177074183Y-78006901D01*
X176938944Y-77980000D01*
X176570001Y-77980000D01*
X176570000Y-77980001D01*
X176570000Y-78380000D01*
X176070000Y-78380000D01*
X176070000Y-77980001D01*
X176069999Y-77980000D01*
X175701055Y-77980000D01*
X175565816Y-78006901D01*
X175438428Y-78059666D01*
X175323779Y-78136271D01*
X175226271Y-78233779D01*
X175149666Y-78348428D01*
X175115878Y-78429999D01*
X151496392Y-78429999D01*
X151429496Y-78363103D01*
X151401719Y-78308586D01*
X151400500Y-78293099D01*
X151400500Y-74265591D01*
X151400500Y-74265590D01*
X151373207Y-74163730D01*
X151365275Y-74149992D01*
X151320480Y-74072404D01*
X151245913Y-73997836D01*
X151245913Y-73997837D01*
X150881434Y-73633358D01*
X150855842Y-73589092D01*
X150813456Y-73431663D01*
X150816585Y-73370558D01*
X150839046Y-73335923D01*
X151845475Y-72329496D01*
X151899992Y-72301719D01*
X151915479Y-72300500D01*
X158394100Y-72300500D01*
X158452291Y-72319407D01*
X158488255Y-72368907D01*
X158488255Y-72430093D01*
X158464105Y-72469501D01*
X158433659Y-72499948D01*
X158429518Y-72504089D01*
X158376794Y-72595409D01*
X158376794Y-72595410D01*
X158376793Y-72595412D01*
X158376793Y-72595413D01*
X158349500Y-72697273D01*
X158349500Y-72802727D01*
X158354572Y-72821656D01*
X158357724Y-72840677D01*
X158358644Y-72854458D01*
X158358645Y-72854461D01*
X158446096Y-73179267D01*
X158449500Y-73204999D01*
X158449500Y-73376552D01*
X158469977Y-73452973D01*
X158469978Y-73452976D01*
X158479794Y-73469978D01*
X158509540Y-73521499D01*
X158922551Y-73934511D01*
X158978501Y-73990460D01*
X159047019Y-74030019D01*
X159047023Y-74030021D01*
X159123447Y-74050499D01*
X159123449Y-74050500D01*
X159123450Y-74050500D01*
X159202574Y-74050500D01*
X170084521Y-74050500D01*
X170092118Y-74052968D01*
X170100008Y-74051719D01*
X170120663Y-74062243D01*
X170142712Y-74069407D01*
X170154525Y-74079496D01*
X170170504Y-74095475D01*
X170198281Y-74149992D01*
X170199500Y-74165479D01*
X170199500Y-74539564D01*
X170219978Y-74615988D01*
X170219980Y-74615992D01*
X170259538Y-74684508D01*
X170259540Y-74684511D01*
X171009540Y-75434511D01*
X171009539Y-75434511D01*
X171065489Y-75490460D01*
X171134007Y-75530019D01*
X171134011Y-75530021D01*
X171210435Y-75550499D01*
X171210437Y-75550500D01*
X171210438Y-75550500D01*
X172544997Y-75550500D01*
X172570735Y-75553904D01*
X172719794Y-75594036D01*
X172895536Y-75641354D01*
X172901737Y-75642921D01*
X172902440Y-75643087D01*
X172908991Y-75643219D01*
X172932613Y-75646571D01*
X172947273Y-75650500D01*
X172947274Y-75650500D01*
X173052725Y-75650500D01*
X173052727Y-75650500D01*
X173154587Y-75623207D01*
X173245913Y-75570480D01*
X173320480Y-75495913D01*
X173373207Y-75404587D01*
X173400500Y-75302727D01*
X173400500Y-75197273D01*
X173373207Y-75095413D01*
X173320480Y-75004087D01*
X173245913Y-74929520D01*
X173154587Y-74876793D01*
X173052727Y-74849500D01*
X172947273Y-74849500D01*
X172947265Y-74849501D01*
X172928336Y-74854572D01*
X172909320Y-74857724D01*
X172895539Y-74858644D01*
X172895538Y-74858645D01*
X172570732Y-74946096D01*
X172544996Y-74949500D01*
X171415479Y-74949500D01*
X171357288Y-74930593D01*
X171345475Y-74920504D01*
X170829496Y-74404525D01*
X170801719Y-74350008D01*
X170800500Y-74334521D01*
X170800500Y-73960437D01*
X170800499Y-73960435D01*
X170780021Y-73884011D01*
X170780019Y-73884007D01*
X170740460Y-73815489D01*
X170684512Y-73759540D01*
X170434510Y-73509539D01*
X170365992Y-73469980D01*
X170365988Y-73469978D01*
X170289564Y-73449500D01*
X170289562Y-73449500D01*
X159855900Y-73449500D01*
X159839168Y-73444063D01*
X159821592Y-73443365D01*
X159810793Y-73434844D01*
X159797709Y-73430593D01*
X159787368Y-73416360D01*
X159773559Y-73405464D01*
X159769831Y-73392222D01*
X159761745Y-73381093D01*
X159761745Y-73363500D01*
X159756978Y-73346568D01*
X159761745Y-73335676D01*
X159761745Y-73319907D01*
X159778182Y-73289174D01*
X159781784Y-73284608D01*
X159820480Y-73245913D01*
X159842205Y-73208282D01*
X159857123Y-73188533D01*
X159896860Y-73106386D01*
X159939219Y-73062239D01*
X159985979Y-73050500D01*
X173039563Y-73050500D01*
X173039563Y-73050499D01*
X173115989Y-73030021D01*
X173184511Y-72990460D01*
X173240460Y-72934511D01*
X173990460Y-72184511D01*
X174030021Y-72115989D01*
X174050500Y-72039562D01*
X174050500Y-71454999D01*
X174053904Y-71429263D01*
X174053905Y-71429260D01*
X174141354Y-71104463D01*
X174142921Y-71098262D01*
X174143087Y-71097559D01*
X174143219Y-71091005D01*
X174146571Y-71067386D01*
X174150500Y-71052727D01*
X174150500Y-70947273D01*
X174123207Y-70845413D01*
X174070480Y-70754087D01*
X173995913Y-70679520D01*
X173979382Y-70669976D01*
X173904589Y-70626794D01*
X173904588Y-70626793D01*
X173904587Y-70626793D01*
X173802727Y-70599500D01*
X173697273Y-70599500D01*
X173595413Y-70626793D01*
X173595412Y-70626793D01*
X173595410Y-70626794D01*
X173595409Y-70626794D01*
X173504089Y-70679518D01*
X173429518Y-70754089D01*
X173376794Y-70845409D01*
X173376794Y-70845410D01*
X173376793Y-70845412D01*
X173376793Y-70845413D01*
X173349500Y-70947273D01*
X173349500Y-71052727D01*
X173354572Y-71071656D01*
X173357724Y-71090677D01*
X173358644Y-71104458D01*
X173358650Y-71104479D01*
X173446096Y-71429263D01*
X173449500Y-71454999D01*
X173449500Y-71834521D01*
X173430593Y-71892712D01*
X173420504Y-71904525D01*
X172904525Y-72420504D01*
X172850008Y-72448281D01*
X172834521Y-72449500D01*
X169855900Y-72449500D01*
X169797709Y-72430593D01*
X169761745Y-72381093D01*
X169761745Y-72319907D01*
X169785894Y-72280498D01*
X169820480Y-72245913D01*
X169873207Y-72154587D01*
X169900500Y-72052727D01*
X169900500Y-71947273D01*
X169873207Y-71845413D01*
X169820480Y-71754087D01*
X169745913Y-71679520D01*
X169654587Y-71626793D01*
X169552727Y-71599500D01*
X169447273Y-71599500D01*
X169447265Y-71599501D01*
X169428336Y-71604572D01*
X169409320Y-71607724D01*
X169395539Y-71608644D01*
X169395538Y-71608645D01*
X169070732Y-71696096D01*
X169044996Y-71699500D01*
X151789562Y-71699500D01*
X151710438Y-71699500D01*
X151663661Y-71712033D01*
X151634007Y-71719979D01*
X151565493Y-71759536D01*
X150312861Y-73012168D01*
X150312860Y-73012167D01*
X150256911Y-73068117D01*
X150217352Y-73136635D01*
X150217350Y-73136639D01*
X150196872Y-73213063D01*
X150196872Y-73360686D01*
X150193468Y-73386425D01*
X150105999Y-73711292D01*
X150104376Y-73717729D01*
X150104223Y-73718382D01*
X150104222Y-73718392D01*
X150104096Y-73724836D01*
X150101690Y-73741821D01*
X150101889Y-73743768D01*
X150101369Y-73746174D01*
X150096872Y-73762962D01*
X148320500Y-73762962D01*
X148320500Y-70799500D01*
X148339407Y-70741309D01*
X148388907Y-70705345D01*
X148419500Y-70700500D01*
X161839883Y-70700500D01*
X161886351Y-70681251D01*
X161913574Y-70669976D01*
X161969976Y-70613574D01*
X162000500Y-70539882D01*
X162000500Y-67862357D01*
X163900000Y-67862357D01*
X163900000Y-68137642D01*
X163935930Y-68410561D01*
X163935930Y-68410566D01*
X164007178Y-68676463D01*
X164007182Y-68676476D01*
X164112522Y-68930791D01*
X164250172Y-69169209D01*
X164348758Y-69297686D01*
X165063708Y-68582735D01*
X165160967Y-68716602D01*
X165283398Y-68839033D01*
X165417261Y-68936290D01*
X164702312Y-69651240D01*
X164830790Y-69749827D01*
X165069208Y-69887477D01*
X165323523Y-69992817D01*
X165323536Y-69992821D01*
X165589435Y-70064069D01*
X165862357Y-70099999D01*
X165862360Y-70100000D01*
X166137640Y-70100000D01*
X166137642Y-70099999D01*
X166410561Y-70064069D01*
X166410566Y-70064069D01*
X166676463Y-69992821D01*
X166676476Y-69992817D01*
X166930791Y-69887477D01*
X167169201Y-69749832D01*
X167169206Y-69749829D01*
X167297687Y-69651240D01*
X166582737Y-68936290D01*
X166716602Y-68839033D01*
X166839033Y-68716602D01*
X166936290Y-68582737D01*
X167651240Y-69297687D01*
X167749829Y-69169206D01*
X167749832Y-69169201D01*
X167887477Y-68930791D01*
X167992817Y-68676476D01*
X167992821Y-68676463D01*
X168064069Y-68410566D01*
X168064069Y-68410561D01*
X168099999Y-68137642D01*
X168100000Y-68137640D01*
X168100000Y-67862360D01*
X168099999Y-67862357D01*
X168064069Y-67589438D01*
X168064069Y-67589433D01*
X167992821Y-67323536D01*
X167992817Y-67323523D01*
X167887477Y-67069208D01*
X167749827Y-66830790D01*
X167651240Y-66702312D01*
X166936290Y-67417261D01*
X166839033Y-67283398D01*
X166716602Y-67160967D01*
X166582735Y-67063708D01*
X167297686Y-66348758D01*
X167169209Y-66250172D01*
X166930791Y-66112522D01*
X166676476Y-66007182D01*
X166676463Y-66007178D01*
X166410564Y-65935930D01*
X166137642Y-65900000D01*
X165862357Y-65900000D01*
X165589438Y-65935930D01*
X165589433Y-65935930D01*
X165323536Y-66007178D01*
X165323523Y-66007182D01*
X165069208Y-66112522D01*
X164830800Y-66250166D01*
X164702312Y-66348758D01*
X165417263Y-67063709D01*
X165283398Y-67160967D01*
X165160967Y-67283398D01*
X165063709Y-67417263D01*
X164348758Y-66702312D01*
X164250166Y-66830800D01*
X164112522Y-67069208D01*
X164007182Y-67323523D01*
X164007178Y-67323536D01*
X163935930Y-67589433D01*
X163935930Y-67589438D01*
X163900000Y-67862357D01*
X162000500Y-67862357D01*
X162000500Y-65199639D01*
X162019407Y-65141448D01*
X162068907Y-65105484D01*
X162099543Y-65100639D01*
X182820332Y-65110359D01*
G37*
%TD.AperFunction*%
%TD*%
%TA.AperFunction,Conductor*%
%TO.N,/STAT*%
G36*
X154183962Y-95536530D02*
G01*
X154191383Y-95541542D01*
X154193087Y-95550333D01*
X154192921Y-95551036D01*
X154102331Y-95887499D01*
X154096871Y-95894597D01*
X154091033Y-95896157D01*
X153908967Y-95896157D01*
X153900694Y-95892730D01*
X153897669Y-95887499D01*
X153886939Y-95847648D01*
X153807078Y-95551034D01*
X153808236Y-95542156D01*
X153815334Y-95536696D01*
X153816027Y-95536532D01*
X153997662Y-95499477D01*
X154002338Y-95499477D01*
X154183962Y-95536530D01*
G37*
%TD.AperFunction*%
%TD*%
%TA.AperFunction,Conductor*%
%TO.N,/STAT*%
G36*
X154798354Y-103441136D02*
G01*
X155025206Y-103571745D01*
X155100328Y-103614996D01*
X155105788Y-103622094D01*
X155104630Y-103630974D01*
X155104250Y-103631588D01*
X155002023Y-103786215D01*
X154998715Y-103789523D01*
X154844088Y-103891750D01*
X154835297Y-103893454D01*
X154827876Y-103888442D01*
X154827496Y-103887828D01*
X154653636Y-103585854D01*
X154652479Y-103576976D01*
X154655502Y-103571747D01*
X154784246Y-103443003D01*
X154792518Y-103439577D01*
X154798354Y-103441136D01*
G37*
%TD.AperFunction*%
%TD*%
%TA.AperFunction,Conductor*%
%TO.N,/VBAT*%
G36*
X149349542Y-92818502D02*
G01*
X150579095Y-93297098D01*
X150585561Y-93303291D01*
X150586550Y-93308000D01*
X150586550Y-93691999D01*
X150583123Y-93700272D01*
X150579094Y-93702902D01*
X149349542Y-94181497D01*
X149340589Y-94181305D01*
X149334395Y-94174838D01*
X149333827Y-94172899D01*
X149199460Y-93502295D01*
X149199460Y-93497704D01*
X149333827Y-92827104D01*
X149338811Y-92819668D01*
X149347597Y-92817933D01*
X149349542Y-92818502D01*
G37*
%TD.AperFunction*%
%TD*%
%TA.AperFunction,Conductor*%
%TO.N,/VBAT*%
G36*
X152359410Y-92818694D02*
G01*
X152365604Y-92825161D01*
X152366173Y-92827106D01*
X152500539Y-93497701D01*
X152500539Y-93502299D01*
X152366173Y-94172893D01*
X152361188Y-94180331D01*
X152352402Y-94182066D01*
X152350457Y-94181497D01*
X151120906Y-93702902D01*
X151114439Y-93696708D01*
X151113450Y-93691999D01*
X151113450Y-93308000D01*
X151116877Y-93299727D01*
X151120902Y-93297098D01*
X152350457Y-92818502D01*
X152359410Y-92818694D01*
G37*
%TD.AperFunction*%
%TD*%
%TA.AperFunction,Conductor*%
%TO.N,/VBAT*%
G36*
X153344674Y-92383797D02*
G01*
X153616202Y-92655325D01*
X153619629Y-92663598D01*
X153618640Y-92668307D01*
X153087634Y-93876148D01*
X153081167Y-93882342D01*
X153072214Y-93882150D01*
X153070436Y-93881176D01*
X152501243Y-93502006D01*
X152497993Y-93498756D01*
X152118823Y-92929563D01*
X152117088Y-92920777D01*
X152122073Y-92913339D01*
X152123844Y-92912368D01*
X153331695Y-92381358D01*
X153340645Y-92381167D01*
X153344674Y-92383797D01*
G37*
%TD.AperFunction*%
%TD*%
%TA.AperFunction,Conductor*%
%TO.N,+3V3*%
G36*
X170849306Y-103107270D02*
G01*
X170852331Y-103112501D01*
X170942921Y-103448963D01*
X170941763Y-103457843D01*
X170934665Y-103463303D01*
X170933962Y-103463469D01*
X170752339Y-103500522D01*
X170747661Y-103500522D01*
X170566037Y-103463469D01*
X170558616Y-103458457D01*
X170556912Y-103449666D01*
X170557070Y-103448993D01*
X170647669Y-103112501D01*
X170653129Y-103105403D01*
X170658967Y-103103843D01*
X170841033Y-103103843D01*
X170849306Y-103107270D01*
G37*
%TD.AperFunction*%
%TD*%
%TA.AperFunction,Conductor*%
%TO.N,+3V3*%
G36*
X169457843Y-71808236D02*
G01*
X169463303Y-71815334D01*
X169463469Y-71816037D01*
X169500522Y-71997661D01*
X169500522Y-72002339D01*
X169463469Y-72183962D01*
X169458457Y-72191383D01*
X169449666Y-72193087D01*
X169448963Y-72192921D01*
X169112501Y-72102331D01*
X169105403Y-72096871D01*
X169103843Y-72091033D01*
X169103843Y-71908966D01*
X169107270Y-71900693D01*
X169112498Y-71897669D01*
X169448965Y-71807078D01*
X169457843Y-71808236D01*
G37*
%TD.AperFunction*%
%TD*%
%TA.AperFunction,Conductor*%
%TO.N,+3V3*%
G36*
X150596678Y-73422959D02*
G01*
X150599703Y-73428190D01*
X150690293Y-73764652D01*
X150689135Y-73773532D01*
X150682037Y-73778992D01*
X150681334Y-73779158D01*
X150499711Y-73816211D01*
X150495033Y-73816211D01*
X150313409Y-73779158D01*
X150305988Y-73774146D01*
X150304284Y-73765355D01*
X150304442Y-73764682D01*
X150395041Y-73428190D01*
X150400501Y-73421092D01*
X150406339Y-73419532D01*
X150588405Y-73419532D01*
X150596678Y-73422959D01*
G37*
%TD.AperFunction*%
%TD*%
%TA.AperFunction,Conductor*%
%TO.N,+3V3*%
G36*
X163683962Y-94286530D02*
G01*
X163691383Y-94291542D01*
X163693087Y-94300333D01*
X163692921Y-94301036D01*
X163602331Y-94637499D01*
X163596871Y-94644597D01*
X163591033Y-94646157D01*
X163408967Y-94646157D01*
X163400694Y-94642730D01*
X163397669Y-94637499D01*
X163386939Y-94597648D01*
X163307078Y-94301034D01*
X163308236Y-94292156D01*
X163315334Y-94286696D01*
X163316027Y-94286532D01*
X163497662Y-94249477D01*
X163502338Y-94249477D01*
X163683962Y-94286530D01*
G37*
%TD.AperFunction*%
%TD*%
%TA.AperFunction,Conductor*%
%TO.N,/~{RESET}*%
G36*
X172957843Y-75058236D02*
G01*
X172963303Y-75065334D01*
X172963469Y-75066037D01*
X173000522Y-75247661D01*
X173000522Y-75252339D01*
X172963469Y-75433962D01*
X172958457Y-75441383D01*
X172949666Y-75443087D01*
X172948963Y-75442921D01*
X172612501Y-75352331D01*
X172605403Y-75346871D01*
X172603843Y-75341033D01*
X172603843Y-75158966D01*
X172607270Y-75150693D01*
X172612498Y-75147669D01*
X172948965Y-75057078D01*
X172957843Y-75058236D01*
G37*
%TD.AperFunction*%
%TD*%
%TA.AperFunction,Conductor*%
%TO.N,/~{RESET}*%
G36*
X158933962Y-72786530D02*
G01*
X158941383Y-72791542D01*
X158943087Y-72800333D01*
X158942921Y-72801036D01*
X158852331Y-73137499D01*
X158846871Y-73144597D01*
X158841033Y-73146157D01*
X158658967Y-73146157D01*
X158650694Y-73142730D01*
X158647669Y-73137499D01*
X158636939Y-73097648D01*
X158557078Y-72801034D01*
X158558236Y-72792156D01*
X158565334Y-72786696D01*
X158566027Y-72786532D01*
X158747662Y-72749477D01*
X158752338Y-72749477D01*
X158933962Y-72786530D01*
G37*
%TD.AperFunction*%
%TD*%
%TA.AperFunction,Conductor*%
%TO.N,/~{BOOT}*%
G36*
X173933962Y-71036530D02*
G01*
X173941383Y-71041542D01*
X173943087Y-71050333D01*
X173942921Y-71051036D01*
X173852331Y-71387499D01*
X173846871Y-71394597D01*
X173841033Y-71396157D01*
X173658967Y-71396157D01*
X173650694Y-71392730D01*
X173647669Y-71387499D01*
X173636939Y-71347648D01*
X173557078Y-71051034D01*
X173558236Y-71042156D01*
X173565334Y-71036696D01*
X173566027Y-71036532D01*
X173747662Y-70999477D01*
X173752338Y-70999477D01*
X173933962Y-71036530D01*
G37*
%TD.AperFunction*%
%TD*%
%TA.AperFunction,Conductor*%
%TO.N,/~{BOOT}*%
G36*
X159791553Y-72663332D02*
G01*
X159792604Y-72668178D01*
X159792604Y-72847319D01*
X159791436Y-72852414D01*
X159672131Y-73099045D01*
X159665444Y-73105000D01*
X159656504Y-73104482D01*
X159655126Y-73103696D01*
X159500974Y-73001311D01*
X159497692Y-72998025D01*
X159396455Y-72845136D01*
X159394744Y-72836346D01*
X159399750Y-72828921D01*
X159401353Y-72828032D01*
X159776058Y-72657528D01*
X159785008Y-72657221D01*
X159791553Y-72663332D01*
G37*
%TD.AperFunction*%
%TD*%
%TA.AperFunction,Conductor*%
%TO.N,/VUSB*%
G36*
X172954808Y-91749981D02*
G01*
X172963450Y-91751744D01*
X173135481Y-91786840D01*
X173142901Y-91791851D01*
X173144742Y-91799822D01*
X173101333Y-92131427D01*
X173096861Y-92139185D01*
X173089732Y-92141608D01*
X172907815Y-92141608D01*
X172899542Y-92138181D01*
X172897007Y-92134389D01*
X172787369Y-91869948D01*
X172787366Y-91860993D01*
X172791635Y-91855768D01*
X172945930Y-91751743D01*
X172954704Y-91749960D01*
X172954808Y-91749981D01*
G37*
%TD.AperFunction*%
%TD*%
%TA.AperFunction,Conductor*%
%TO.N,/VUSB*%
G36*
X173099306Y-98357270D02*
G01*
X173102331Y-98362501D01*
X173192921Y-98698963D01*
X173191763Y-98707843D01*
X173184665Y-98713303D01*
X173183962Y-98713469D01*
X173002339Y-98750522D01*
X172997661Y-98750522D01*
X172816037Y-98713469D01*
X172808616Y-98708457D01*
X172806912Y-98699666D01*
X172807070Y-98698993D01*
X172897669Y-98362501D01*
X172903129Y-98355403D01*
X172908967Y-98353843D01*
X173091033Y-98353843D01*
X173099306Y-98357270D01*
G37*
%TD.AperFunction*%
%TD*%
%TA.AperFunction,Conductor*%
%TO.N,/USB_D-*%
G36*
X172465754Y-83405504D02*
G01*
X172594495Y-83534245D01*
X172597922Y-83542518D01*
X172596362Y-83548356D01*
X172422503Y-83850328D01*
X172415405Y-83855788D01*
X172406525Y-83854630D01*
X172405919Y-83854255D01*
X172251284Y-83752023D01*
X172247976Y-83748715D01*
X172145748Y-83594086D01*
X172144045Y-83585297D01*
X172149057Y-83577876D01*
X172149657Y-83577504D01*
X172451645Y-83403636D01*
X172460523Y-83402479D01*
X172465754Y-83405504D01*
G37*
%TD.AperFunction*%
%TD*%
%TA.AperFunction,Conductor*%
%TO.N,/USB_D-*%
G36*
X173795407Y-82593653D02*
G01*
X173796631Y-82595175D01*
X173899372Y-82747317D01*
X173901161Y-82751630D01*
X173936789Y-82934706D01*
X173935005Y-82943481D01*
X173927572Y-82948419D01*
X173641349Y-83004987D01*
X173632569Y-83003229D01*
X173630808Y-83001782D01*
X173502279Y-82873253D01*
X173498852Y-82864980D01*
X173502279Y-82856707D01*
X173502482Y-82856508D01*
X173778865Y-82593251D01*
X173787220Y-82590026D01*
X173795407Y-82593653D01*
G37*
%TD.AperFunction*%
%TD*%
M02*
