M48
; DRILL file {KiCad 9.0.0} date 2025-03-07T19:36:36+0900
; FORMAT={-:-/ absolute / metric / decimal}
; #@! TF.CreationDate,2025-03-07T19:36:36+09:00
; #@! TF.GenerationSoftware,Kicad,Pcbnew,9.0.0
; #@! TF.FileFunction,Plated,1,2,PTH
FMAT,2
METRIC
; #@! TA.AperFunction,Plated,PTH,ViaDrill
T1C0.100
; #@! TA.AperFunction,Plated,PTH,ViaDrill
T2C0.200
; #@! TA.AperFunction,Plated,PTH,ComponentDrill
T3C0.200
; #@! TA.AperFunction,Plated,PTH,ComponentDrill
T4C0.600
; #@! TA.AperFunction,Plated,PTH,ComponentDrill
T5C0.762
; #@! TA.AperFunction,Plated,PTH,ComponentDrill
T6C2.200
%
G90
G05
T1
X162.1Y-79.4
X162.6Y-77.9
X163.546Y-85.174
X164.35Y-103.412
X165.9Y-86.775
X166.031Y-103.431
X167.15Y-99.012
X168.85Y-99.0
X174.3Y-77.3
T2
X150.1Y-73.6
X153.95Y-82.7
X154.3Y-94.2
X157.8Y-93.3
X159.3Y-94.55
X159.4Y-92.8
X160.1Y-98.6
X162.1Y-93.0
X167.065Y-91.435
X167.1Y-90.2
X167.6Y-88.5
X169.6Y-94.2
X171.525Y-95.925
X173.45Y-86.25
X173.57Y-82.55
X173.7Y-72.7
X174.65Y-88.55
X178.15Y-87.15
T3
X155.405Y-95.785
X155.405Y-96.485
X156.155Y-95.785
X156.155Y-96.485
X156.905Y-95.785
X156.905Y-96.485
X162.4Y-89.6
X162.4Y-90.8
X162.4Y-92.0
X163.8Y-89.6
X163.8Y-90.8
X163.8Y-92.0
T5
X150.9Y-91.2
X150.9Y-93.7
X150.9Y-96.2
T6
X150.8Y-102.3
X180.5Y-102.3
T4
G00X175.745Y-65.98
M15
G01X176.845Y-65.98
M16
G05
G00X175.745Y-74.62
M15
G01X176.845Y-74.62
M16
G05
G00X180.075Y-65.98
M15
G01X180.875Y-65.98
M16
G05
G00X180.075Y-74.62
M15
G01X180.875Y-74.62
M16
G05
M30
